<svg xmlns="http://www.w3.org/2000/svg" xmlns:xlink="http://www.w3.org/1999/xlink" width="35" height="45" viewBox="0 0 35 45">
  <defs>
    <clipPath id="clip-path">
      <rect id="Rectangle_25" data-name="Rectangle 25" width="35" height="45" transform="translate(0 0)" fill="none"/>
    </clipPath>
  </defs>
  <g id="Vector_Smart_Object" data-name="Vector Smart Object" transform="translate(-1084 -1135)">
    <g id="Vector_Smart_Object-2" data-name="Vector Smart Object" transform="translate(1084 1135)">
      <g id="Group_50" data-name="Group 50">
        <g id="Group_49" data-name="Group 49" clip-path="url(#clip-path)">
          <path id="Path_73" data-name="Path 73" d="M8.662,9.135H.7a.7.7,0,0,1-.647-.422.671.671,0,0,1,.151-.746L8.167.2A.714.714,0,0,1,8.931.052a.684.684,0,0,1,.432.633V8.451a.693.693,0,0,1-.7.684M2.394,7.768H7.961V2.336Z" fill="#fff"/>
          <path id="Path_74" data-name="Path 74" d="M34.3,45H.7a.693.693,0,0,1-.7-.684V8.45a.677.677,0,0,1,.2-.483L8.166.2a.711.711,0,0,1,.5-.2H34.3a.692.692,0,0,1,.7.685V44.316a.693.693,0,0,1-.7.684M1.4,43.632H33.6V1.368H8.953L1.4,8.734Z" fill="#fff"/>
          <path id="Path_75" data-name="Path 75" d="M28.221,14.51H13.112a.684.684,0,1,1,0-1.368H28.221a.684.684,0,1,1,0,1.368" fill="#fff"/>
          <path id="Path_76" data-name="Path 76" d="M28.221,22.282H6.779a.684.684,0,1,1,0-1.368H28.221a.684.684,0,1,1,0,1.368" fill="#fff"/>
          <path id="Path_77" data-name="Path 77" d="M28.221,30.053H6.779a.684.684,0,1,1,0-1.368H28.221a.684.684,0,1,1,0,1.368" fill="#fff"/>
          <path id="Path_78" data-name="Path 78" d="M20.439,37.824H6.779a.684.684,0,1,1,0-1.368h13.66a.684.684,0,1,1,0,1.368" fill="#fff"/>
        </g>
      </g>
    </g>
    <path id="Color_Overlay" data-name="Color Overlay" d="M1084.7,1180a.693.693,0,0,1-.7-.684V1143.44a.681.681,0,0,1,.2-.474l7.961-7.766a.71.71,0,0,1,.5-.2H1118.3a.693.693,0,0,1,.7.685v43.631a.693.693,0,0,1-.7.684Zm.7-1.368h32.2v-42.264h-24.235v7.083a.692.692,0,0,1-.7.684h-7.26Zm.992-35.864h5.567v-5.432Zm4.385,30.056a.684.684,0,1,1,0-1.367h13.66a.684.684,0,1,1,0,1.367Zm0-7.771a.684.684,0,1,1,0-1.367h21.443a.684.684,0,1,1,0,1.367Zm0-7.771a.684.684,0,1,1,0-1.368h21.443a.684.684,0,1,1,0,1.368Zm6.333-7.771a.684.684,0,1,1,0-1.368h15.109a.684.684,0,1,1,0,1.368Z" fill="#666"/>
  </g>
</svg>
