<svg xmlns="http://www.w3.org/2000/svg" xmlns:xlink="http://www.w3.org/1999/xlink" width="104" height="104" viewBox="0 0 104 104">
  <defs>
    <clipPath id="clip-path">
      <rect id="Rectangle_27" data-name="Rectangle 27" width="104" height="104" fill="none"/>
    </clipPath>
  </defs>
  <g id="Vector_Smart_Object" data-name="Vector Smart Object" transform="translate(-1049 -1184)">
    <g id="Vector_Smart_Object-2" data-name="Vector Smart Object" transform="translate(1049 1184)">
      <g id="Group_54" data-name="Group 54">
        <g id="Group_53" data-name="Group 53" clip-path="url(#clip-path)">
          <path id="Path_85" data-name="Path 85" d="M74.75,76.05H29.25a1.3,1.3,0,0,1,0-2.6h45.5a1.3,1.3,0,1,1,0,2.6" fill="#fff"/>
          <path id="Path_86" data-name="Path 86" d="M52,59.745a1.3,1.3,0,0,1-.919-.381l-9.75-9.75a1.3,1.3,0,0,1,1.838-1.839L52,56.607l8.831-8.831a1.3,1.3,0,0,1,1.838,1.839l-9.75,9.75a1.3,1.3,0,0,1-.92.381" fill="#fff"/>
          <path id="Path_87" data-name="Path 87" d="M52,59.745a1.3,1.3,0,0,1-1.3-1.3V29.25a1.3,1.3,0,0,1,2.6,0v29.2a1.3,1.3,0,0,1-1.3,1.3" fill="#fff"/>
        </g>
      </g>
    </g>
    <path id="Color_Overlay" data-name="Color Overlay" d="M1078.25,1260.05a1.3,1.3,0,0,1,0-2.6h45.5a1.3,1.3,0,1,1,0,2.6Zm22.75-16.3h-.048a.049.049,0,0,1-.016,0h-.02l-.012,0h-.024l-.007,0-.025,0h-.006l-.025,0a.006.006,0,0,0,0,0l-.028,0h0a.143.143,0,0,1-.029-.005h0l-.029-.005s0,0,0,0l-.029-.005a0,0,0,0,1,0,0,.136.136,0,0,1-.029-.007h0l-.026-.007a.007.007,0,0,1-.005,0l-.024-.007-.007,0a.1.1,0,0,0-.022-.006l-.01,0-.019-.006a.049.049,0,0,0-.013-.005l-.014-.005-.017-.007-.012,0-.02-.009a.017.017,0,0,0-.007,0l-.023-.012h0l-.026-.013h0a1.455,1.455,0,0,1-.159-.1s0,0,0,0a.159.159,0,0,1-.023-.017h0l-.022-.017-.005,0-.019-.014-.007-.006-.016-.014-.011-.01-.013-.011-.014-.014-.008-.008-.022-.021s0,0,0,0l-9.751-9.751a1.3,1.3,0,0,1,1.839-1.838l7.53,7.532V1213.25a1.3,1.3,0,0,1,2.6,0v26.058l7.531-7.532a1.3,1.3,0,0,1,1.839,1.838l-9.75,9.751a1.279,1.279,0,0,1-.412.278l0,0-.024.01a.012.012,0,0,1-.007,0l-.02.007a.026.026,0,0,1-.013,0l-.016.006-.016.006a.025.025,0,0,0-.011,0l-.022.005a.017.017,0,0,1-.009,0l-.022.007a.009.009,0,0,0-.006,0l-.025.005,0,0-.028.005a0,0,0,0,0,0,0l-.029.005h0l-.03.005h0l-.028,0s0,0,0,0l-.026,0h-.005l-.026,0-.008,0h-.022l-.013,0h-.019a.058.058,0,0,1-.017,0H1101Z" fill="#666"/>
  </g>
</svg>
