<svg xmlns="http://www.w3.org/2000/svg" xmlns:xlink="http://www.w3.org/1999/xlink" width="141" height="25" viewBox="0 0 141 25">
  <defs>
    <linearGradient id="linear-gradient" y1="0.5" x2="1" y2="0.5" gradientUnits="objectBoundingBox">
      <stop offset="0" stop-color="#f93"/>
      <stop offset="0.409" stop-color="#f93"/>
      <stop offset="0.426" stop-color="#f93" stop-opacity="0"/>
      <stop offset="1" stop-color="#f93" stop-opacity="0"/>
    </linearGradient>
    <clipPath id="clip-path">
      <rect id="Rectangle_1" data-name="Rectangle 1" width="24.604" height="24.074" transform="translate(0 0)" fill="none"/>
    </clipPath>
    <clipPath id="clip-path-2">
      <rect id="Rectangle_3" data-name="Rectangle 3" width="26.497" height="25" transform="translate(0 0)" fill="none"/>
    </clipPath>
  </defs>
  <g id="Vector_Smart_Object_copy_7" data-name="Vector Smart Object copy 7" transform="translate(0 0)">
    <g id="Vector_Smart_Object" data-name="Vector Smart Object">
      <g id="Vector_Smart_Object-2" data-name="Vector Smart Object" transform="translate(115.45 0.926)">
        <g id="Group_2" data-name="Group 2">
          <g id="Group_1" data-name="Group 1" clip-path="url(#clip-path)">
            <path id="Path_1" data-name="Path 1" d="M13.615,1.356l2.509,5.187a1.466,1.466,0,0,0,1.1.817l5.61.832a1.5,1.5,0,0,1,.812,2.548l-4.059,4.037a1.514,1.514,0,0,0-.421,1.322l.958,5.7A1.471,1.471,0,0,1,18,23.376l-5.018-2.692a1.438,1.438,0,0,0-1.362,0L6.6,23.376A1.47,1.47,0,0,1,4.479,21.8l.958-5.7a1.513,1.513,0,0,0-.421-1.322L.956,10.74a1.5,1.5,0,0,1,.811-2.548l5.61-.832a1.467,1.467,0,0,0,1.1-.817l2.509-5.187a1.451,1.451,0,0,1,2.626,0" fill="#f3ea11"/>
            <path id="Path_2" data-name="Path 2" d="M13.615,1.356l2.509,5.187a1.466,1.466,0,0,0,1.1.817l5.61.832a1.5,1.5,0,0,1,.812,2.548l-4.059,4.037a1.514,1.514,0,0,0-.421,1.322l.958,5.7A1.471,1.471,0,0,1,18,23.376l-5.018-2.692a1.438,1.438,0,0,0-1.362,0L6.6,23.376A1.47,1.47,0,0,1,4.479,21.8l.958-5.7a1.513,1.513,0,0,0-.421-1.322L.956,10.74a1.5,1.5,0,0,1,.811-2.548l5.61-.832a1.467,1.467,0,0,0,1.1-.817l2.509-5.187A1.451,1.451,0,0,1,13.615,1.356Z" fill="none" stroke="#555" stroke-linecap="round" stroke-linejoin="round" stroke-width="1.036"/>
          </g>
        </g>
      </g>
      <path id="Gradient_Overlay" data-name="Gradient Overlay" d="M133.451,24.3l-5.018-2.692a1.439,1.439,0,0,0-1.362,0L122.053,24.3a1.428,1.428,0,0,1-.682.175,1.485,1.485,0,0,1-1.464-1.483,1.593,1.593,0,0,1,.022-.267l.958-5.7a1.546,1.546,0,0,0,.02-.25,1.511,1.511,0,0,0-.442-1.072l-4.059-4.038a1.5,1.5,0,0,1,.811-2.548l5.611-.832a1.468,1.468,0,0,0,1.1-.817l2.509-5.187a1.451,1.451,0,0,1,2.626,0l2.509,5.187a1.466,1.466,0,0,0,1.1.817l5.61.832a1.5,1.5,0,0,1,.812,2.548L135.039,15.7a1.512,1.512,0,0,0-.443,1.072,1.653,1.653,0,0,0,.021.25l.958,5.7a1.6,1.6,0,0,1,.022.267,1.485,1.485,0,0,1-1.464,1.483A1.428,1.428,0,0,1,133.451,24.3Z" fill="url(#linear-gradient)"/>
    </g>
    <g id="Vector_Smart_Object-3" data-name="Vector Smart Object">
      <g id="Vector_Smart_Object-4" data-name="Vector Smart Object" transform="translate(114.503)">
        <g id="Group_6" data-name="Group 6">
          <g id="Group_5" data-name="Group 5" clip-path="url(#clip-path-2)">
            <path id="Path_5" data-name="Path 5" d="M14.662,1.408l2.7,5.387a1.575,1.575,0,0,0,1.187.849l6.042.864a1.545,1.545,0,0,1,.874,2.646L21.1,15.346a1.537,1.537,0,0,0-.454,1.373l1.032,5.921a1.572,1.572,0,0,1-2.288,1.635l-5.4-2.8a1.6,1.6,0,0,0-1.467,0l-5.4,2.8A1.571,1.571,0,0,1,4.823,22.64l1.032-5.921A1.536,1.536,0,0,0,5.4,15.346L1.03,11.153A1.545,1.545,0,0,1,1.9,8.507l6.042-.864a1.575,1.575,0,0,0,1.187-.849l2.7-5.387A1.588,1.588,0,0,1,14.662,1.408Z" fill="none" stroke="#555" stroke-linecap="round" stroke-linejoin="round" stroke-width="1.095"/>
          </g>
        </g>
      </g>
      <path id="Color_Overlay" data-name="Color Overlay" d="M133.889,24.275l-5.4-2.8a1.6,1.6,0,0,0-1.467,0l-5.4,2.8a1.572,1.572,0,0,1-2.288-1.635l1.032-5.921a1.535,1.535,0,0,0-.454-1.373l-4.372-4.193a1.546,1.546,0,0,1,.874-2.647l6.042-.863a1.575,1.575,0,0,0,1.187-.849l2.7-5.387a1.589,1.589,0,0,1,2.828,0l2.7,5.387a1.575,1.575,0,0,0,1.187.849l6.042.863a1.545,1.545,0,0,1,.874,2.647L135.6,15.346a1.535,1.535,0,0,0-.454,1.373l1.032,5.921a1.563,1.563,0,0,1-1.553,1.817A1.59,1.59,0,0,1,133.889,24.275Z" fill="#f93"/>
    </g>
    <g id="Vector_Smart_Object_copy_4" data-name="Vector Smart Object copy 4">
      <g id="Vector_Smart_Object_copy_4-2" data-name="Vector Smart Object copy 4" transform="translate(87.06 0.926)">
        <g id="Group_10" data-name="Group 10">
          <g id="Group_9" data-name="Group 9" clip-path="url(#clip-path)">
            <path id="Path_7" data-name="Path 7" d="M13.615,1.356l2.509,5.187a1.466,1.466,0,0,0,1.1.817l5.61.832a1.5,1.5,0,0,1,.812,2.548l-4.059,4.037a1.514,1.514,0,0,0-.421,1.322l.958,5.7A1.471,1.471,0,0,1,18,23.376l-5.018-2.692a1.438,1.438,0,0,0-1.362,0L6.6,23.376A1.47,1.47,0,0,1,4.479,21.8l.958-5.7a1.513,1.513,0,0,0-.421-1.322L.956,10.74a1.5,1.5,0,0,1,.811-2.548l5.61-.832a1.467,1.467,0,0,0,1.1-.817l2.509-5.187a1.451,1.451,0,0,1,2.626,0" fill="#f3ea11"/>
            <path id="Path_8" data-name="Path 8" d="M13.615,1.356l2.509,5.187a1.466,1.466,0,0,0,1.1.817l5.61.832a1.5,1.5,0,0,1,.812,2.548l-4.059,4.037a1.514,1.514,0,0,0-.421,1.322l.958,5.7A1.471,1.471,0,0,1,18,23.376l-5.018-2.692a1.438,1.438,0,0,0-1.362,0L6.6,23.376A1.47,1.47,0,0,1,4.479,21.8l.958-5.7a1.513,1.513,0,0,0-.421-1.322L.956,10.74a1.5,1.5,0,0,1,.811-2.548l5.61-.832a1.467,1.467,0,0,0,1.1-.817l2.509-5.187A1.451,1.451,0,0,1,13.615,1.356Z" fill="none" stroke="#555" stroke-linecap="round" stroke-linejoin="round" stroke-width="1.036"/>
          </g>
        </g>
      </g>
      <path id="Color_Overlay-2" data-name="Color Overlay" d="M105.061,24.3l-5.018-2.692a1.439,1.439,0,0,0-1.362,0L93.663,24.3a1.428,1.428,0,0,1-.682.175,1.485,1.485,0,0,1-1.464-1.483,1.594,1.594,0,0,1,.022-.267l.958-5.7a1.546,1.546,0,0,0,.02-.25,1.511,1.511,0,0,0-.442-1.072l-4.059-4.038a1.5,1.5,0,0,1,.811-2.548l5.611-.832a1.468,1.468,0,0,0,1.1-.817l2.509-5.187a1.451,1.451,0,0,1,2.626,0l2.509,5.187a1.466,1.466,0,0,0,1.1.817l5.61.832a1.5,1.5,0,0,1,.812,2.548L106.649,15.7a1.512,1.512,0,0,0-.443,1.072,1.651,1.651,0,0,0,.021.25l.958,5.7a1.593,1.593,0,0,1,.022.267,1.485,1.485,0,0,1-1.464,1.483A1.428,1.428,0,0,1,105.061,24.3Z" fill="#f93"/>
    </g>
    <g id="Vector_Smart_Object_copy_5" data-name="Vector Smart Object copy 5">
      <g id="Vector_Smart_Object_copy_5-2" data-name="Vector Smart Object copy 5" transform="translate(57.725 0.926)">
        <g id="Group_14" data-name="Group 14">
          <g id="Group_13" data-name="Group 13" clip-path="url(#clip-path)">
            <path id="Path_11" data-name="Path 11" d="M13.615,1.356l2.509,5.187a1.466,1.466,0,0,0,1.1.817l5.61.832a1.5,1.5,0,0,1,.812,2.548l-4.059,4.037a1.514,1.514,0,0,0-.421,1.322l.958,5.7A1.471,1.471,0,0,1,18,23.376l-5.018-2.692a1.438,1.438,0,0,0-1.362,0L6.6,23.376A1.47,1.47,0,0,1,4.479,21.8l.958-5.7a1.513,1.513,0,0,0-.421-1.322L.956,10.74a1.5,1.5,0,0,1,.811-2.548l5.61-.832a1.467,1.467,0,0,0,1.1-.817l2.509-5.187a1.451,1.451,0,0,1,2.626,0" fill="#f3ea11"/>
            <path id="Path_12" data-name="Path 12" d="M13.615,1.356l2.509,5.187a1.466,1.466,0,0,0,1.1.817l5.61.832a1.5,1.5,0,0,1,.812,2.548l-4.059,4.037a1.514,1.514,0,0,0-.421,1.322l.958,5.7A1.471,1.471,0,0,1,18,23.376l-5.018-2.692a1.438,1.438,0,0,0-1.362,0L6.6,23.376A1.47,1.47,0,0,1,4.479,21.8l.958-5.7a1.513,1.513,0,0,0-.421-1.322L.956,10.74a1.5,1.5,0,0,1,.811-2.548l5.61-.832a1.467,1.467,0,0,0,1.1-.817l2.509-5.187A1.451,1.451,0,0,1,13.615,1.356Z" fill="none" stroke="#555" stroke-linecap="round" stroke-linejoin="round" stroke-width="1.036"/>
          </g>
        </g>
      </g>
      <path id="Color_Overlay-3" data-name="Color Overlay" d="M75.726,24.3,70.708,21.61a1.439,1.439,0,0,0-1.362,0L64.328,24.3a1.428,1.428,0,0,1-.682.175,1.485,1.485,0,0,1-1.464-1.483,1.594,1.594,0,0,1,.022-.267l.958-5.7a1.547,1.547,0,0,0,.02-.25,1.511,1.511,0,0,0-.442-1.072l-4.059-4.038a1.5,1.5,0,0,1,.811-2.548L65.1,8.286a1.468,1.468,0,0,0,1.1-.817l2.509-5.187a1.451,1.451,0,0,1,2.626,0l2.509,5.187a1.466,1.466,0,0,0,1.1.817l5.61.832a1.5,1.5,0,0,1,.812,2.548L77.314,15.7a1.512,1.512,0,0,0-.443,1.072,1.651,1.651,0,0,0,.021.25l.958,5.7a1.594,1.594,0,0,1,.022.267,1.485,1.485,0,0,1-1.464,1.483A1.428,1.428,0,0,1,75.726,24.3Z" fill="#f93"/>
    </g>
    <g id="Vector_Smart_Object_copy_6" data-name="Vector Smart Object copy 6">
      <g id="Vector_Smart_Object_copy_6-2" data-name="Vector Smart Object copy 6" transform="translate(28.389 0.926)">
        <g id="Group_18" data-name="Group 18">
          <g id="Group_17" data-name="Group 17" clip-path="url(#clip-path)">
            <path id="Path_15" data-name="Path 15" d="M13.615,1.356l2.509,5.187a1.466,1.466,0,0,0,1.1.817l5.61.832a1.5,1.5,0,0,1,.812,2.548l-4.059,4.037a1.514,1.514,0,0,0-.421,1.322l.958,5.7A1.471,1.471,0,0,1,18,23.376l-5.018-2.692a1.438,1.438,0,0,0-1.362,0L6.6,23.376A1.47,1.47,0,0,1,4.479,21.8l.958-5.7a1.513,1.513,0,0,0-.421-1.322L.956,10.74a1.5,1.5,0,0,1,.811-2.548l5.61-.832a1.467,1.467,0,0,0,1.1-.817l2.509-5.187a1.451,1.451,0,0,1,2.626,0" fill="#f3ea11"/>
            <path id="Path_16" data-name="Path 16" d="M13.615,1.356l2.509,5.187a1.466,1.466,0,0,0,1.1.817l5.61.832a1.5,1.5,0,0,1,.812,2.548l-4.059,4.037a1.514,1.514,0,0,0-.421,1.322l.958,5.7A1.471,1.471,0,0,1,18,23.376l-5.018-2.692a1.438,1.438,0,0,0-1.362,0L6.6,23.376A1.47,1.47,0,0,1,4.479,21.8l.958-5.7a1.513,1.513,0,0,0-.421-1.322L.956,10.74a1.5,1.5,0,0,1,.811-2.548l5.61-.832a1.467,1.467,0,0,0,1.1-.817l2.509-5.187A1.451,1.451,0,0,1,13.615,1.356Z" fill="none" stroke="#555" stroke-linecap="round" stroke-linejoin="round" stroke-width="1.036"/>
          </g>
        </g>
      </g>
      <path id="Color_Overlay-4" data-name="Color Overlay" d="M46.39,24.3,41.372,21.61a1.439,1.439,0,0,0-1.362,0L34.992,24.3a1.428,1.428,0,0,1-.682.175,1.485,1.485,0,0,1-1.464-1.483,1.594,1.594,0,0,1,.022-.267l.958-5.7a1.546,1.546,0,0,0,.02-.25A1.511,1.511,0,0,0,33.4,15.7l-4.059-4.038a1.5,1.5,0,0,1,.811-2.548l5.611-.832a1.468,1.468,0,0,0,1.1-.817l2.509-5.187a1.451,1.451,0,0,1,2.626,0l2.509,5.187a1.466,1.466,0,0,0,1.1.817l5.61.832a1.5,1.5,0,0,1,.812,2.548L47.978,15.7a1.512,1.512,0,0,0-.443,1.072,1.651,1.651,0,0,0,.021.25l.958,5.7a1.593,1.593,0,0,1,.022.267,1.485,1.485,0,0,1-1.464,1.483A1.428,1.428,0,0,1,46.39,24.3Z" fill="#f93"/>
    </g>
    <g id="Vector_Smart_Object_copy_7-2" data-name="Vector Smart Object copy 7">
      <g id="Vector_Smart_Object_copy_7-3" data-name="Vector Smart Object copy 7" transform="translate(0 0.926)">
        <g id="Group_22" data-name="Group 22">
          <g id="Group_21" data-name="Group 21" clip-path="url(#clip-path)">
            <path id="Path_19" data-name="Path 19" d="M13.615,1.356l2.509,5.187a1.466,1.466,0,0,0,1.1.817l5.61.832a1.5,1.5,0,0,1,.812,2.548l-4.059,4.037a1.514,1.514,0,0,0-.421,1.322l.958,5.7A1.471,1.471,0,0,1,18,23.376l-5.018-2.692a1.438,1.438,0,0,0-1.362,0L6.6,23.376A1.47,1.47,0,0,1,4.479,21.8l.958-5.7a1.513,1.513,0,0,0-.421-1.322L.956,10.74a1.5,1.5,0,0,1,.811-2.548l5.61-.832a1.467,1.467,0,0,0,1.1-.817l2.509-5.187a1.451,1.451,0,0,1,2.626,0" fill="#f3ea11"/>
            <path id="Path_20" data-name="Path 20" d="M13.615,1.356l2.509,5.187a1.466,1.466,0,0,0,1.1.817l5.61.832a1.5,1.5,0,0,1,.812,2.548l-4.059,4.037a1.514,1.514,0,0,0-.421,1.322l.958,5.7A1.471,1.471,0,0,1,18,23.376l-5.018-2.692a1.438,1.438,0,0,0-1.362,0L6.6,23.376A1.47,1.47,0,0,1,4.479,21.8l.958-5.7a1.513,1.513,0,0,0-.421-1.322L.956,10.74a1.5,1.5,0,0,1,.811-2.548l5.61-.832a1.467,1.467,0,0,0,1.1-.817l2.509-5.187A1.451,1.451,0,0,1,13.615,1.356Z" fill="none" stroke="#555" stroke-linecap="round" stroke-linejoin="round" stroke-width="1.036"/>
          </g>
        </g>
      </g>
      <path id="Color_Overlay-5" data-name="Color Overlay" d="M18,24.3,12.983,21.61a1.439,1.439,0,0,0-1.362,0L6.6,24.3a1.428,1.428,0,0,1-.682.175,1.485,1.485,0,0,1-1.464-1.483,1.594,1.594,0,0,1,.022-.267l.958-5.7a1.547,1.547,0,0,0,.02-.25A1.511,1.511,0,0,0,5.016,15.7L.956,11.666a1.5,1.5,0,0,1,.811-2.548l5.611-.832a1.468,1.468,0,0,0,1.1-.817l2.509-5.187a1.451,1.451,0,0,1,2.626,0l2.509,5.187a1.466,1.466,0,0,0,1.1.817l5.61.832a1.5,1.5,0,0,1,.812,2.548L19.589,15.7a1.512,1.512,0,0,0-.443,1.072,1.651,1.651,0,0,0,.021.25l.958,5.7a1.593,1.593,0,0,1,.022.267,1.485,1.485,0,0,1-1.464,1.483A1.428,1.428,0,0,1,18,24.3Z" fill="#f93"/>
    </g>
  </g>
</svg>
