<svg id="Group_30" data-name="Group 30" xmlns="http://www.w3.org/2000/svg" xmlns:xlink="http://www.w3.org/1999/xlink" width="88" height="88" viewBox="0 0 88 88">
  <defs>
    <clipPath id="clip-path">
      <rect id="Rectangle_15" data-name="Rectangle 15" width="88" height="88" fill="none"/>
    </clipPath>
  </defs>
  <g id="Group_29" data-name="Group 29" clip-path="url(#clip-path)">
    <path id="Path_25" data-name="Path 25" d="M44,64.35a20.38,20.38,0,0,1-16.7-8.719,1.1,1.1,0,1,1,1.8-1.259,18.156,18.156,0,0,0,31.79-3.725,1.1,1.1,0,1,1,2.048.806A20.243,20.243,0,0,1,44,64.35" fill="#fff"/>
    <path id="Path_26" data-name="Path 26" d="M26.082,38.052a1.088,1.088,0,0,1-.4-.077,1.1,1.1,0,0,1-.621-1.426A20.357,20.357,0,0,1,60.7,32.368a1.1,1.1,0,0,1-1.8,1.26,18.156,18.156,0,0,0-31.791,3.726,1.1,1.1,0,0,1-1.024.7" fill="#fff"/>
    <path id="Path_27" data-name="Path 27" d="M35.5,38.052H26.082a1.1,1.1,0,0,1-1.1-1.1V27.537a1.1,1.1,0,1,1,2.2,0v8.315H35.5a1.1,1.1,0,1,1,0,2.2" fill="#fff"/>
    <path id="Path_28" data-name="Path 28" d="M61.916,61.563a1.1,1.1,0,0,1-1.1-1.1V52.148H52.5a1.1,1.1,0,1,1,0-2.2h9.415a1.1,1.1,0,0,1,1.1,1.1v9.415a1.1,1.1,0,0,1-1.1,1.1" fill="#fff"/>
  </g>
</svg>
