<svg xmlns="http://www.w3.org/2000/svg" xmlns:xlink="http://www.w3.org/1999/xlink" width="53" height="40" viewBox="0 0 53 40">
  <defs>
    <clipPath id="clip-path">
      <rect id="Rectangle_23" data-name="Rectangle 23" width="53" height="40" fill="none"/>
    </clipPath>
  </defs>
  <g id="Vector_Smart_Object" data-name="Vector Smart Object" transform="translate(-1075 -1068)">
    <g id="Vector_Smart_Object-2" data-name="Vector Smart Object" transform="translate(1075 1068)">
      <g id="Group_46" data-name="Group 46">
        <g id="Group_45" data-name="Group 45" clip-path="url(#clip-path)">
          <path id="Path_67" data-name="Path 67" d="M50.193,0H2.807A2.806,2.806,0,0,0,0,2.8V32.724a2.806,2.806,0,0,0,2.807,2.8H21.26v2.985H17.367a.746.746,0,1,0,0,1.493H35.932a.746.746,0,1,0,0-1.493H31.74V35.522H50.193A2.806,2.806,0,0,0,53,32.724V2.8A2.806,2.806,0,0,0,50.193,0m-.188,28.209a.747.747,0,0,1-.749.746H3.743a.747.747,0,0,1-.749-.746V3.731a.747.747,0,0,1,.749-.746H49.257a.747.747,0,0,1,.749.746Z" fill="#333"/>
          <path id="Path_68" data-name="Path 68" d="M23.7,11.292a.731.731,0,0,0-.344.638v8.249a.731.731,0,0,0,.344.638.721.721,0,0,0,.381.109.732.732,0,0,0,.341-.084l7.955-4.125a.746.746,0,0,0,0-1.324l-7.958-4.124a.721.721,0,0,0-.718.024" fill="#333"/>
          <path id="Path_69" data-name="Path 69" d="M26.5,6.537a9.369,9.369,0,1,0,9.4,9.368,9.394,9.394,0,0,0-9.4-9.368m0,17.244a7.876,7.876,0,1,1,7.9-7.876,7.9,7.9,0,0,1-7.9,7.876" fill="#333"/>
        </g>
      </g>
    </g>
    <path id="Color_Overlay" data-name="Color Overlay" d="M1106.74,1108h-14.373a.746.746,0,1,1,0-1.492h3.892v-2.985h-18.454a2.8,2.8,0,0,1-2.806-2.8V1070.8a2.806,2.806,0,0,1,2.806-2.8h47.387a2.806,2.806,0,0,1,2.807,2.8v29.927a2.805,2.805,0,0,1-2.807,2.8H1106.74v2.985h4.192a.746.746,0,1,1,0,1.492Zm-28.746-36.268v24.477a.747.747,0,0,0,.749.746h45.514a.747.747,0,0,0,.749-.746v-24.477a.747.747,0,0,0-.749-.746h-45.514A.747.747,0,0,0,1077.994,1071.732Zm14.108,12.173a9.4,9.4,0,1,1,9.4,9.369A9.394,9.394,0,0,1,1092.1,1083.905Zm1.5,0a7.9,7.9,0,1,0,7.9-7.876A7.9,7.9,0,0,0,1093.6,1083.905Zm5.1,4.912a.733.733,0,0,1-.344-.638v-8.248a.731.731,0,0,1,.344-.638.721.721,0,0,1,.718-.024l7.958,4.124a.745.745,0,0,1,0,1.324l-7.955,4.126a.738.738,0,0,1-.341.084A.723.723,0,0,1,1098.7,1088.817Z" fill="#666"/>
  </g>
</svg>
