<?xml version="1.0" encoding="utf-8"?>
<!-- Generator: Adobe Illustrator 22.0.0, SVG Export Plug-In . SVG Version: 6.00 Build 0)  -->
<svg version="1.1" id="Layer_1" xmlns="http://www.w3.org/2000/svg" xmlns:xlink="http://www.w3.org/1999/xlink" x="0px" y="0px"
	 viewBox="0 0 41.2 45.4" style="enable-background:new 0 0 41.2 45.4;" xml:space="preserve">
<g id="Layer_x0020_1">
	<path d="M0,28.1L0,28.1L0,21v-0.9v-4.2h0l0-7.6c0-0.8,0.3-1.5,0.8-2.1c0.5-0.6,1.2-0.9,1.9-1.1L37.6,0c0.5-0.1,0.9,0,1.3,0.1
		c0.4,0.1,0.8,0.3,1.2,0.6l0,0c0.3,0.3,0.6,0.7,0.8,1.1c0.2,0.4,0.3,0.9,0.3,1.3v39.1c0,0.5-0.1,0.9-0.3,1.3
		c-0.2,0.4-0.5,0.8-0.8,1.1h0c-0.3,0.3-0.7,0.5-1.2,0.6c-0.4,0.1-0.9,0.2-1.3,0.1L2.7,40.2c-0.8-0.1-1.5-0.5-1.9-1.1
		C0.3,38.6,0,37.9,0,37.2v-1.3v0l0-0.8h0L0,28.1L0,28.1z M21.9,37.1c3.1,0,5.9-0.5,5.9-0.5L27.6,33c0,0-2.5,0.5-5.1,0.5
		c-3.7,0-5.5-1.5-5.5-3.6c0-1.9,1.1-3.8,6.1-3.8h4.2v-3.5h-2.4c-4.6,0-6.5-2.2-6.5-4.9c0-2.7,1.6-4.5,4.4-4.5c1.8,0,3.2,0.5,3.2,0.5
		l0.7-3.5c0,0-1.8-0.4-3.8-0.4c-5.9,0-9.1,3.3-9.1,8.1c0,3.1,1.7,5.2,3.8,6.1c-3.4,0.8-5.2,3.1-5.2,6.2
		C12.4,34.1,15.3,37.1,21.9,37.1C21.9,37.1,21.9,37.1,21.9,37.1z"/>
</g>
</svg>
