<?xml version="1.0" encoding="UTF-8"?>
<svg xmlns="http://www.w3.org/2000/svg" xmlns:xlink="http://www.w3.org/1999/xlink" width="156pt" height="100pt" viewBox="0 0 156 100" version="1.1">
<g id="surface1">
<path style=" stroke:none;fill-rule:nonzero;fill:rgb(80%,80%,80%);fill-opacity:1;" d="M 27.675781 39.101562 C 32.171875 39.101562 36.246094 40.929688 39.191406 43.882812 C 42.140625 46.835938 43.964844 50.914062 43.964844 55.421875 C 43.964844 57.605469 43.535156 59.691406 42.753906 61.597656 L 50.679688 61.597656 L 50.679688 43.148438 L 58.820312 42 C 58.820312 54.09375 58.808594 53.945312 58.804688 61.597656 L 65.027344 61.597656 C 65.027344 47.136719 65.019531 32.679688 65.019531 18.21875 C 65.019531 16.507812 65.648438 14.929688 66.707031 13.707031 C 67.765625 12.484375 69.25 11.640625 70.953125 11.398438 L 147.4375 0.0703125 C 148.429688 -0.0703125 149.402344 0 150.332031 0.277344 C 151.285156 0.558594 152.148438 1.03125 152.902344 1.6875 L 152.894531 1.695312 C 153.65625 2.359375 154.238281 3.144531 154.644531 4.03125 C 155.058594 4.941406 155.269531 5.902344 155.269531 6.890625 L 155.269531 92.570312 C 155.269531 93.558594 155.058594 94.519531 154.644531 95.433594 C 154.230469 96.335938 153.648438 97.121094 152.902344 97.773438 L 152.886719 97.773438 C 152.128906 98.433594 151.269531 98.90625 150.332031 99.183594 C 149.402344 99.460938 148.429688 99.53125 147.4375 99.390625 L 70.953125 88.0625 C 69.25 87.820312 67.765625 86.976562 66.707031 85.753906 C 65.648438 84.53125 65.019531 82.953125 65.019531 81.242188 C 65.019531 79.140625 65.03125 77.046875 65.03125 74.949219 L 73.183594 74.949219 C 73.175781 76.691406 73.179688 78.425781 73.179688 80.171875 L 147.140625 91.140625 L 147.140625 8.320312 L 73.148438 19.296875 C 73.148438 35.527344 73.152344 51.769531 73.152344 68.023438 L 42.214844 68.023438 C 41.066406 68.023438 40.007812 67.640625 39.15625 66.996094 C 36.210938 69.925781 32.152344 71.738281 27.675781 71.738281 C 23.179688 71.738281 19.105469 69.914062 16.15625 66.960938 C 13.347656 64.144531 11.558594 60.300781 11.398438 56.042969 C 8.148438 56.171875 7.199219 58.261719 8.089844 63.886719 L 10.214844 77.121094 L 2.171875 75.929688 L 0.320312 64.503906 C -1.101562 55.753906 2.121094 49.613281 11.976562 49.613281 L 12.449219 49.613281 C 13.277344 47.441406 14.550781 45.492188 16.15625 43.882812 C 19.105469 40.929688 23.179688 39.101562 27.675781 39.101562 Z M 105.050781 68.023438 L 130.917969 68.023438 C 130.917969 53.277344 130.9375 56.761719 130.9375 42 L 122.792969 43.148438 L 122.792969 61.597656 L 99.949219 61.597656 L 99.949219 62.917969 C 99.949219 65.730469 102.242188 68.023438 105.050781 68.023438 Z M 98.019531 77.773438 C 103.632812 77.773438 108.625 76.785156 108.625 76.785156 L 108.195312 70.480469 C 108.195312 70.480469 103.695312 71.347656 99.007812 71.347656 C 92.222656 71.347656 89.078125 68.628906 89.078125 64.859375 C 89.078125 61.398438 91.113281 58 100.054688 58 L 107.640625 58 L 107.640625 51.574219 L 103.324219 51.574219 C 94.996094 51.574219 91.484375 47.558594 91.484375 42.675781 C 91.484375 37.734375 94.441406 34.519531 99.5 34.519531 C 102.707031 34.519531 105.234375 35.386719 105.234375 35.386719 L 106.59375 28.960938 C 106.59375 28.960938 103.386719 28.15625 99.683594 28.15625 C 88.953125 28.15625 83.21875 34.148438 83.21875 42.863281 C 83.21875 48.421875 86.300781 52.375 90.1875 53.984375 C 84.019531 55.464844 80.75 59.605469 80.75 65.167969 C 80.75 72.457031 85.933594 77.773438 98.019531 77.773438 Z M 33.945312 47.800781 C 32.339844 45.855469 30.125 44.648438 27.675781 44.648438 C 25.226562 44.648438 23.007812 45.855469 21.40625 47.800781 C 19.800781 49.753906 18.808594 52.445312 18.808594 55.421875 C 18.808594 58.394531 19.800781 61.089844 21.40625 63.039062 C 23.007812 64.988281 25.226562 66.191406 27.675781 66.191406 C 30.125 66.191406 32.339844 64.988281 33.945312 63.039062 C 35.550781 61.089844 36.542969 58.394531 36.542969 55.421875 C 36.542969 52.445312 35.550781 49.753906 33.945312 47.800781 Z M 33.945312 47.800781 "/>
<path style=" stroke:none;fill-rule:nonzero;fill:rgb(80%,80%,80%);fill-opacity:1;" d="M 16.132812 32.3125 C 16.132812 33.085938 15.828125 33.71875 15.210938 34.214844 C 14.597656 34.710938 13.8125 34.957031 12.855469 34.957031 C 12.328125 34.957031 11.875 34.90625 11.496094 34.808594 L 11.644531 33.640625 C 11.941406 33.753906 12.355469 33.8125 12.890625 33.8125 C 13.460938 33.8125 13.910156 33.679688 14.242188 33.40625 C 14.566406 33.140625 14.726562 32.800781 14.726562 32.382812 C 14.726562 31.984375 14.5625 31.664062 14.234375 31.4375 C 13.886719 31.191406 13.390625 31.066406 12.75 31.066406 C 12.417969 31.066406 12.144531 31.085938 11.941406 31.117188 L 11.941406 30.058594 C 13.609375 30.105469 14.445312 29.636719 14.445312 28.648438 C 14.445312 27.90625 14.019531 27.539062 13.167969 27.539062 C 12.699219 27.539062 12.226562 27.65625 11.765625 27.898438 L 11.65625 26.792969 C 12.226562 26.542969 12.839844 26.421875 13.484375 26.421875 C 14.242188 26.421875 14.832031 26.613281 15.246094 26.992188 C 15.632812 27.34375 15.828125 27.808594 15.828125 28.390625 C 15.828125 29.351562 15.375 29.996094 14.46875 30.320312 L 14.457031 30.355469 C 14.96875 30.464844 15.375 30.699219 15.679688 31.050781 C 15.984375 31.402344 16.132812 31.820312 16.132812 32.3125 Z M 40.792969 32.660156 L 40.792969 28.765625 C 40.792969 27.933594 40.5 27.519531 39.914062 27.519531 C 39.496094 27.519531 39.136719 27.722656 38.835938 28.125 C 38.507812 28.554688 38.34375 29.097656 38.34375 29.75 L 38.34375 32.660156 L 37.054688 32.660156 L 37.054688 28.765625 C 37.054688 27.933594 36.757812 27.519531 36.167969 27.519531 C 35.742188 27.519531 35.378906 27.730469 35.074219 28.152344 C 34.765625 28.582031 34.609375 29.113281 34.609375 29.75 L 34.609375 32.660156 L 33.296875 32.660156 L 33.296875 26.550781 L 34.546875 26.550781 C 34.546875 27.007812 34.519531 27.410156 34.464844 27.753906 L 34.488281 27.765625 C 34.878906 26.875 35.566406 26.425781 36.550781 26.425781 C 37.519531 26.425781 38.085938 26.867188 38.242188 27.742188 C 38.632812 26.867188 39.3125 26.425781 40.277344 26.425781 C 41.488281 26.425781 42.097656 27.101562 42.097656 28.445312 L 42.097656 32.660156 Z M 30.566406 28.847656 C 30.582031 28.394531 30.472656 28.039062 30.25 27.785156 C 30.03125 27.535156 29.726562 27.410156 29.339844 27.410156 C 28.96875 27.410156 28.660156 27.539062 28.414062 27.789062 C 28.167969 28.046875 28.015625 28.398438 27.960938 28.847656 Z M 31.882812 28.972656 C 31.882812 29.265625 31.863281 29.527344 31.824219 29.761719 L 27.949219 29.761719 C 27.910156 31.070312 28.511719 31.722656 29.753906 31.722656 C 30.363281 31.722656 30.949219 31.605469 31.507812 31.371094 L 31.683594 32.390625 C 31 32.652344 30.277344 32.78125 29.519531 32.78125 C 27.570312 32.78125 26.601562 31.738281 26.601562 29.644531 C 26.601562 28.703125 26.847656 27.941406 27.34375 27.351562 C 27.859375 26.734375 28.550781 26.425781 29.410156 26.425781 C 30.238281 26.425781 30.867188 26.679688 31.296875 27.179688 C 31.6875 27.628906 31.882812 28.226562 31.882812 28.972656 Z M 24.3125 28.847656 C 24.328125 28.394531 24.21875 28.039062 23.996094 27.785156 C 23.777344 27.535156 23.472656 27.410156 23.085938 27.410156 C 22.714844 27.410156 22.40625 27.539062 22.160156 27.789062 C 21.914062 28.046875 21.761719 28.398438 21.707031 28.847656 Z M 25.628906 28.972656 C 25.628906 29.265625 25.609375 29.527344 25.574219 29.761719 L 21.695312 29.761719 C 21.65625 31.070312 22.257812 31.722656 23.5 31.722656 C 24.109375 31.722656 24.695312 31.605469 25.253906 31.371094 L 25.429688 32.390625 C 24.746094 32.652344 24.023438 32.78125 23.265625 32.78125 C 21.320312 32.78125 20.347656 31.738281 20.347656 29.644531 C 20.347656 28.703125 20.59375 27.941406 21.089844 27.351562 C 21.605469 26.734375 22.292969 26.425781 23.15625 26.425781 C 23.984375 26.425781 24.613281 26.679688 25.042969 27.179688 C 25.433594 27.628906 25.628906 28.226562 25.628906 28.972656 Z M 17.675781 32.660156 L 17.675781 23.683594 L 18.988281 23.683594 L 18.988281 32.660156 Z M 8.640625 29.855469 C 7.09375 29.855469 6.320312 30.214844 6.320312 30.925781 C 6.320312 31.167969 6.394531 31.363281 6.542969 31.515625 C 6.695312 31.671875 6.902344 31.75 7.152344 31.75 C 7.582031 31.75 7.9375 31.570312 8.226562 31.214844 C 8.5 30.871094 8.640625 30.472656 8.640625 30.019531 Z M 8.722656 32.660156 C 8.722656 32.1875 8.746094 31.808594 8.789062 31.53125 L 8.777344 31.519531 C 8.433594 32.359375 7.757812 32.78125 6.753906 32.78125 C 6.234375 32.78125 5.816406 32.621094 5.503906 32.304688 C 5.199219 32 5.042969 31.589844 5.042969 31.085938 C 5.042969 30.40625 5.363281 29.882812 6.003906 29.515625 C 6.628906 29.152344 7.507812 28.972656 8.640625 28.972656 L 8.640625 28.714844 C 8.640625 28.269531 8.550781 27.953125 8.378906 27.753906 C 8.1875 27.550781 7.875 27.449219 7.433594 27.449219 C 6.839844 27.449219 6.226562 27.589844 5.59375 27.875 L 5.359375 26.855469 C 6.074219 26.570312 6.828125 26.425781 7.621094 26.425781 C 8.472656 26.425781 9.082031 26.617188 9.453125 26.996094 C 9.785156 27.339844 9.949219 27.859375 9.949219 28.566406 L 9.949219 30.988281 C 9.949219 31.585938 9.964844 32.144531 9.988281 32.660156 Z M 4.140625 32.625 C 3.722656 32.722656 3.296875 32.769531 2.867188 32.769531 C 2.222656 32.769531 1.777344 32.628906 1.53125 32.351562 C 1.292969 32.078125 1.175781 31.59375 1.175781 30.902344 L 1.175781 27.570312 L 0.00390625 27.570312 L 0.00390625 26.550781 L 1.175781 26.550781 L 1.175781 24.609375 L 2.488281 24.25 L 2.488281 26.550781 L 4.082031 26.550781 L 4.082031 27.570312 L 2.488281 27.570312 L 2.488281 30.5 C 2.488281 30.953125 2.542969 31.257812 2.65625 31.421875 C 2.765625 31.574219 2.976562 31.652344 3.285156 31.652344 C 3.523438 31.652344 3.773438 31.625 4.035156 31.570312 Z M 4.140625 32.625 "/>
<path style=" stroke:none;fill-rule:nonzero;fill:rgb(80%,80%,80%);fill-opacity:1;" d="M 57.152344 27.59375 C 56.832031 27.519531 56.507812 27.484375 56.179688 27.484375 C 55.007812 27.484375 54.421875 28.253906 54.421875 29.785156 C 54.421875 31.0625 54.828125 31.699219 55.628906 31.699219 C 56.09375 31.699219 56.46875 31.464844 56.757812 30.992188 C 57.019531 30.558594 57.152344 30.054688 57.152344 29.476562 Z M 57.152344 35.664062 L 57.152344 32.675781 C 57.152344 32.214844 57.179688 31.839844 57.234375 31.542969 L 57.210938 31.53125 C 56.867188 32.363281 56.234375 32.78125 55.3125 32.78125 C 53.804688 32.78125 53.050781 31.828125 53.050781 29.917969 C 53.050781 28.847656 53.339844 28.003906 53.910156 27.390625 C 54.488281 26.765625 55.292969 26.453125 56.320312 26.453125 C 57.078125 26.453125 57.789062 26.507812 58.453125 26.621094 L 58.453125 35.664062 Z M 50.367188 32.660156 L 50.367188 26.550781 L 51.675781 26.550781 L 51.675781 32.660156 Z M 51.863281 24.644531 C 51.863281 24.867188 51.777344 25.0625 51.613281 25.226562 C 51.449219 25.386719 51.25 25.464844 51.023438 25.464844 C 50.792969 25.464844 50.59375 25.386719 50.425781 25.226562 C 50.261719 25.070312 50.179688 24.875 50.179688 24.644531 C 50.179688 24.417969 50.261719 24.222656 50.425781 24.0625 C 50.59375 23.898438 50.792969 23.816406 51.023438 23.816406 C 51.25 23.816406 51.449219 23.898438 51.613281 24.0625 C 51.777344 24.222656 51.863281 24.417969 51.863281 24.644531 Z M 51.863281 24.644531 "/>
<path style=" stroke:none;fill-rule:nonzero;fill:rgb(80%,80%,80%);fill-opacity:1;" d="M 48.273438 31.910156 C 48.273438 32.394531 48.097656 32.8125 47.75 33.15625 C 47.402344 33.5 46.992188 33.671875 46.507812 33.671875 C 46.027344 33.671875 45.621094 33.5 45.273438 33.15625 C 44.925781 32.8125 44.75 32.394531 44.75 31.910156 C 44.75 31.425781 44.925781 31.007812 45.273438 30.664062 C 45.621094 30.320312 46.027344 30.152344 46.507812 30.152344 C 46.992188 30.152344 47.402344 30.320312 47.75 30.664062 C 48.097656 31.007812 48.273438 31.425781 48.273438 31.910156 Z M 48.273438 31.910156 "/>
<path style=" stroke:none;fill-rule:evenodd;fill:rgb(80%,80%,80%);fill-opacity:1;" d="M 32.429688 55.421875 L 24.878906 50.144531 L 24.878906 60.695312 Z M 32.429688 55.421875 "/>
<path style=" stroke:none;fill-rule:nonzero;fill:rgb(80%,80%,80%);fill-opacity:1;" d="M 116.628906 36.558594 C 118.972656 36.558594 120.757812 34.644531 120.757812 32.355469 C 120.757812 30.007812 118.972656 28.15625 116.628906 28.15625 C 114.34375 28.15625 112.554688 30.070312 112.554688 32.355469 C 112.554688 34.707031 114.34375 36.558594 116.628906 36.558594 Z M 126.863281 36.558594 C 129.148438 36.558594 130.933594 34.644531 130.933594 32.355469 C 130.933594 30.007812 129.148438 28.15625 126.863281 28.15625 C 124.582031 28.15625 122.796875 30.070312 122.796875 32.355469 C 122.796875 34.707031 124.582031 36.558594 126.863281 36.558594 Z M 126.863281 36.558594 "/>
<path style=" stroke:none;fill-rule:nonzero;fill:rgb(80%,80%,80%);fill-opacity:1;" d="M 58.816406 75.6875 C 58.816406 73.339844 57.03125 71.484375 54.746094 71.484375 C 52.464844 71.484375 50.679688 73.402344 50.679688 75.6875 C 50.679688 78.035156 52.464844 79.890625 54.746094 79.890625 C 57.03125 79.890625 58.816406 77.972656 58.816406 75.6875 Z M 48.640625 75.6875 C 48.640625 73.339844 46.855469 71.484375 44.511719 71.484375 C 42.226562 71.484375 40.441406 73.402344 40.441406 75.6875 C 40.441406 78.035156 42.226562 79.890625 44.511719 79.890625 C 46.855469 79.890625 48.640625 77.972656 48.640625 75.6875 Z M 48.640625 75.6875 "/>
</g>
</svg>
