<?xml version="1.0" encoding="UTF-8"?>
<svg width="281pt" height="100pt" version="1.1" viewBox="0 0 281 100" xmlns="http://www.w3.org/2000/svg">
<g fill="#999">
<path d="m125.77 15.105h-8.4453v-11.02h8.4453zm-4.2227 2.9414c-0.47656 0-0.86328-0.38281-0.86328-0.85547 0-0.47656 0.39062-0.85938 0.86328-0.85938 0.46875 0 0.85547 0.38281 0.85547 0.85938 0 0.47266-0.38281 0.85547-0.85547 0.85547zm-1.918-15.414h3.8359c0.097656 0 0.17578 0.14453 0.17578 0.32031 0 0.17969-0.078125 0.32812-0.17578 0.32812h-3.8359c-0.10156 0-0.17578-0.14453-0.17578-0.32812 0-0.17969 0.078125-0.32031 0.17578-0.32031zm5.8047-0.82031h-7.7734c-0.74219 0-1.3438 0.60547-1.3438 1.3477v14.871c0 0.74609 0.60156 1.3438 1.3438 1.3438h7.7734c0.74219 0 1.3438-0.59766 1.3438-1.3438v-14.871c0-0.74219-0.60156-1.3477-1.3438-1.3477z"/>
<path d="m127.2 97.406c-0.53516-0.47266-1.1211-0.87891-1.75-1.2031 0.32813-1.1289 0.51563-2.4023 0.54688-3.7227h3.3008c-0.097657 1.9023-0.875 3.6211-2.0977 4.9258zm-3.5547 2.1562c0.41406-0.41406 0.78906-0.94922 1.1211-1.6016 0.16016-0.32031 0.30859-0.66406 0.4375-1.0234 0.51172 0.27344 0.99609 0.60938 1.4414 0.99609-0.85547 0.75-1.875 1.3164-3 1.6289zm-1.7109 0.17188v-3.6953c0.89453 0.042969 1.7695 0.23828 2.582 0.57422-0.12891 0.35938-0.26953 0.69531-0.43359 1.0117-0.60156 1.1953-1.3555 1.9336-2.1484 2.1094zm-3.582-3.8477c-0.28906-1.0391-0.45703-2.1953-0.48438-3.4023h3.2969v2.7891c-0.97266 0.042968-1.9258 0.25-2.8125 0.61328zm2.8125 3.8477c-0.79297-0.17578-1.543-0.91406-2.1484-2.1094-0.16016-0.31641-0.30469-0.65234-0.43359-1.0117 0.81641-0.33594 1.6875-0.53516 2.582-0.57422zm-4.7148-1.7969c0.44531-0.39062 0.92969-0.72266 1.4414-0.99609 0.13281 0.35938 0.27734 0.69922 0.44141 1.0195 0.32812 0.65234 0.70703 1.1875 1.1172 1.6055-1.1211-0.31641-2.1445-0.87891-3-1.6289zm-2.6445-5.457h3.3008c0.03125 1.3242 0.21875 2.5938 0.54688 3.7227-0.62891 0.32031-1.2148 0.72266-1.75 1.2031-1.2266-1.3047-2.0039-3.0234-2.0977-4.9258zm2.082-5.6797c0.54297 0.48047 1.1289 0.88281 1.7578 1.2109-0.32031 1.125-0.51172 2.3867-0.53906 3.7031h-3.3008c0.09375-1.8984 0.86719-3.6133 2.082-4.9141zm3.5664-2.168c-0.41406 0.41016-0.78906 0.94922-1.1211 1.5977-0.16016 0.32812-0.3125 0.67578-0.44922 1.043-0.51172-0.27734-0.99609-0.61328-1.4453-1 0.85938-0.75781 1.8867-1.3242 3.0156-1.6367zm1.7109-0.17187v3.7188c-0.89844-0.042969-1.7734-0.24219-2.5898-0.57813 0.12891-0.36328 0.27344-0.71094 0.4375-1.0352 0.60547-1.1953 1.3594-1.9297 2.1523-2.1055zm0 7.2539h-3.3008c0.027344-1.207 0.19141-2.3594 0.47656-3.3828 0.89062 0.35938 1.8438 0.57031 2.8164 0.61328v2.7734h0.007812zm3.582-3.3828c0.28516 1.0312 0.44922 2.1836 0.47656 3.3867h-3.293v-2.7695c0.98047-0.042969 1.9258-0.25781 2.8164-0.61328zm-2.8164-3.8711c0.79297 0.17578 1.543 0.91016 2.1523 2.1055 0.16016 0.32422 0.30859 0.67188 0.4375 1.0352-0.82031 0.33594-1.6914 0.53516-2.5898 0.57813zm4.7266 1.8086c-0.44531 0.39062-0.92969 0.72656-1.4492 1.0039-0.13281-0.37109-0.28125-0.71875-0.44531-1.043-0.32812-0.65234-0.70703-1.1914-1.1211-1.6016 1.1328 0.31641 2.1562 0.88281 3.0156 1.6367zm-4.7266 6.2109h3.2969c-0.027344 1.207-0.19531 2.3672-0.48438 3.4023-0.89062-0.35937-1.8359-0.56641-2.8125-0.61328v-2.793zm7.3633-0.76172h-3.3008c-0.035156-1.3164-0.21484-2.582-0.54297-3.707 0.62891-0.32031 1.2188-0.72656 1.7578-1.207 1.2148 1.3008 1.9922 3.0156 2.0859 4.9141zm-1.7266-5.6406c-1.6055-1.6133-3.75-2.4961-6.0195-2.4961-2.2734 0-4.418 0.88281-6.0234 2.4961-1.6055 1.6094-2.4961 3.75-2.4961 6.0234 0 2.2734 0.88672 4.418 2.4961 6.0234s3.75 2.4961 6.0234 2.4961c2.2734 0 4.4141-0.88672 6.0195-2.4961 1.6055-1.6133 2.4961-3.75 2.4961-6.0234 0-2.2734-0.88672-4.4141-2.4961-6.0234z"/>
<path d="m114.69 43.418c-0.11328 0-0.21875-0.03125-0.32422-0.066407l4.9531-5.6602 1.8555 1.5898c0.10547 0.089844 0.23828 0.14062 0.37109 0.14062 0.13281 0 0.26172-0.050781 0.37109-0.14062l1.8555-1.5898 4.9531 5.6602c-0.10547 0.035157-0.21094 0.066407-0.32812 0.066407zm-1.0938-0.91797c-0.019531-0.074219-0.046875-0.14453-0.046875-0.22266v-9.1406c0-0.11719 0.03125-0.22656 0.066406-0.33203l4.8359 4.1406-4.8555 5.5508zm14.801-10.504c0.078125 0 0.14453 0.027344 0.21484 0.042968l-7.0664 6.0586-7.0664-6.0586c0.074219-0.015624 0.14063-0.042968 0.21484-0.042968h13.707zm-3.7578 4.9531 4.832-4.1445c0.035156 0.10547 0.070312 0.21484 0.070312 0.33594v9.1367c0 0.078125-0.03125 0.14844-0.046874 0.22656l-4.8555-5.5508zm3.7578-6.0977h-13.707c-1.2578 0-2.2852 1.0234-2.2852 2.2891v9.1367c0 1.2617 1.0234 2.2852 2.2852 2.2852h13.707c1.2617 0 2.2852-1.0195 2.2852-2.2852v-9.1367c0-1.2656-1.0234-2.2891-2.2852-2.2891z"/>
<path d="m146.81 5.9141h0.88672c-1.3594 2.082-2.0391 4.6602-2.0391 7.7383 0 2.7148 0.67969 5.293 2.0391 7.7422h-0.88672c-1.8047-2.2969-2.7031-4.8789-2.7031-7.7422 0-2.8594 0.90234-5.4414 2.7031-7.7383zm5.2734 12.309v-3.793h-4.0742v-1.1367h4.0742v-3.793h1.2227v3.793h4.0742v1.1367h-4.0742v3.793zm6.4766-2.6914h1.6289c0 0.51953 0.15234 0.94531 0.45312 1.2852 0.30469 0.33594 0.72656 0.50781 1.2695 0.50781 0.92578 0 1.5859-0.53516 1.9805-1.6016 0.22266-0.625 0.33203-1.3125 0.33203-2.0703v-0.96484h-0.035156c-0.53125 0.90625-1.3672 1.3594-2.5039 1.3594-1.1094 0-1.9688-0.35547-2.5742-1.0664-0.56641-0.67969-0.85156-1.6094-0.85156-2.793 0-1.2305 0.31641-2.2188 0.94531-2.9648 0.65625-0.80469 1.5742-1.2109 2.7578-1.2109 1.6055 0 2.7109 0.65234 3.3164 1.9492 0.38281 0.85156 0.57422 2.1328 0.57422 3.8477 0 1.9648-0.19141 3.4258-0.57422 4.3789-0.59375 1.5156-1.7266 2.2734-3.4062 2.2734-1.3086 0-2.2422-0.41797-2.7969-1.2578-0.34766-0.50391-0.51953-1.0625-0.51953-1.6719zm5.4844-5.5508c0-0.76953-0.14062-1.4023-0.42969-1.8984-0.35547-0.62109-0.90625-0.92969-1.6484-0.92969-0.73828 0-1.2891 0.3125-1.6484 0.92969-0.28125 0.49609-0.42578 1.1289-0.42578 1.8984 0 1.8828 0.69141 2.8281 2.0742 2.8281s2.0742-0.94531 2.0742-2.8281zm9.7734-1.0352h-1.6289c0-0.52734-0.15234-0.95703-0.45703-1.293-0.30078-0.33203-0.72266-0.5-1.2656-0.5-0.92969 0-1.5859 0.53516-1.9844 1.6055-0.22266 0.60938-0.33203 1.2969-0.33203 2.0703v0.96484h0.035156c0.53125-0.91016 1.3672-1.3633 2.5039-1.3633 1.1094 0 1.9688 0.35547 2.5742 1.0703 0.56641 0.67578 0.85156 1.6094 0.85156 2.7891 0 1.2305-0.30859 2.2188-0.92578 2.9688-0.66797 0.80078-1.5938 1.207-2.7773 1.207-1.6055 0-2.707-0.64844-3.2969-1.9492-0.39453-0.85156-0.59375-2.1328-0.59375-3.8438 0-1.9648 0.19141-3.4258 0.57031-4.3789 0.59375-1.5156 1.7305-2.2773 3.4102-2.2773 1.3086 0 2.2383 0.41797 2.7969 1.2578 0.34375 0.50781 0.51562 1.0664 0.51562 1.6719zm-5.4805 5.5508c0 0.77344 0.14062 1.4023 0.42578 1.8984 0.35547 0.62109 0.90625 0.92969 1.6484 0.92969 0.73828 0 1.2891-0.30859 1.6484-0.92969 0.28125-0.49609 0.42578-1.125 0.42578-1.8984 0-1.8828-0.6875-2.8242-2.0742-2.8242-1.3828 0-2.0742 0.94141-2.0742 2.8242zm11.086-6.1016-3.332 5.6367h3.332zm-4.7383 5.5156 4.7383-7.8945h1.5547v8.0156h1.4844v1.2422h-1.4844v2.9492h-1.5547v-2.9492h-4.7383zm8.6797 7.4844h-0.89063c1.3594-2.082 2.0391-4.6602 2.0391-7.7422 0-2.7109-0.67969-5.293-2.0391-7.7383h0.89063c1.8047 2.2969 2.7031 4.8789 2.7031 7.7383 0 2.8633-0.90234 5.4453-2.7031 7.7422zm7.9961-13.793v-1.3438h7.4844v1.2578c-1.0391 1.2656-1.8945 2.6602-2.5742 4.1914-1.0039 2.2383-1.6016 4.4141-1.7969 6.5156h-1.8164c0.25-1.875 0.78516-3.7422 1.6133-5.6055 0.81641-1.8242 1.8477-3.5 3.0938-5.0156zm8.2539 0v-1.3438h7.4844v1.2578c-1.0391 1.2656-1.8945 2.6602-2.5742 4.1914-1 2.2383-1.5977 4.4141-1.7969 6.5156h-1.8125c0.24609-1.875 0.78125-3.7422 1.6133-5.6055 0.8125-1.8242 1.8438-3.5 3.0898-5.0156zm15.664 9.2773v1.3438h-7.2969c0-1.8516 0.9375-3.5195 2.8164-5l1.0703-0.84375c0.58594-0.47266 1.0117-0.89844 1.2656-1.2773 0.30469-0.48047 0.46094-1.0312 0.46094-1.6562 0-0.59375-0.14062-1.0898-0.42578-1.4805-0.33594-0.47266-0.82812-0.70703-1.4805-0.70703-1.3828 0-2.0742 0.87891-2.0742 2.6367h-1.6328c0-2.5859 1.2422-3.8789 3.7227-3.8789 1.3359 0 2.3008 0.41016 2.9102 1.2266 0.40625 0.5625 0.60937 1.2383 0.60937 2.0312 0 0.875-0.20312 1.6289-0.61328 2.2617-0.32422 0.51562-0.89062 1.1016-1.6992 1.7578l-1.8633 1.5c-0.78516 0.63281-1.2617 1.3281-1.4336 2.0859zm1.0898-1.3438h1.6289c0 0.51562 0.15234 0.94531 0.45312 1.2812 0.30469 0.33984 0.72656 0.50781 1.2695 0.50781 0.92578 0 1.5859-0.53125 1.9805-1.6016 0.22266-0.62109 0.33203-1.3125 0.33203-2.0703v-0.96484h-0.039062c-0.53125 0.91016-1.3633 1.3633-2.5 1.3633-1.1133 0-1.9688-0.35547-2.5742-1.0703-0.57031-0.67969-0.85156-1.6094-0.85156-2.7891 0-1.2305 0.31641-2.2188 0.94531-2.9688 0.65234-0.80078 1.5742-1.207 2.7578-1.207 1.6055 0 2.7109 0.64844 3.3164 1.9492 0.37891 0.85156 0.57031 2.1328 0.57031 3.8438 0 1.9648-0.19141 3.4258-0.57031 4.3789-0.59375 1.5156-1.7305 2.2773-3.4102 2.2773-1.3086 0-2.2383-0.41797-2.7969-1.2578-0.34375-0.50781-0.51562-1.0625-0.51562-1.6719zm5.4805-5.5508c0-0.77344-0.14062-1.4023-0.42578-1.8984-0.35938-0.62109-0.90625-0.92969-1.6484-0.92969-0.74219 0-1.293 0.30859-1.6484 0.92969-0.28125 0.49609-0.42578 1.125-0.42578 1.8984 0 1.8828 0.69141 2.8242 2.0742 2.8242 1.3828 0 2.0742-0.94141 2.0742-2.8242zm9.9414 6.8945v1.3477h-7.293c0-1.8516 0.9375-3.5195 2.8125-5.0039l1.0664-0.84375c0.58594-0.47266 1.0117-0.89453 1.2695-1.2734 0.30469-0.48438 0.45703-1.0352 0.45703-1.6562 0-0.59766-0.14062-1.0898-0.42578-1.4844-0.33203-0.46875-0.82813-0.70703-1.4844-0.70703-1.3789 0-2.0742 0.87891-2.0742 2.6406h-1.6289c0-2.5898 1.2422-3.8789 3.7227-3.8789 1.332 0 2.3047 0.41016 2.9062 1.2227 0.40625 0.56641 0.61328 1.2422 0.61328 2.0352 0 0.875-0.20703 1.6289-0.61328 2.2578-0.32422 0.51953-0.89062 1.1055-1.6992 1.7617l-1.8633 1.5c-0.78516 0.62891-1.2656 1.3242-1.4375 2.0859h5.668zm4.5898 1.5898c-1.582 0-2.6484-0.66797-3.2031-2.0039-0.35938-0.87109-0.53906-2.2617-0.53906-4.1719 0-1.8594 0.17969-3.2461 0.53906-4.1562 0.56641-1.4102 1.6367-2.1172 3.2031-2.1172 1.582 0 2.6484 0.67188 3.2031 2.0156 0.35937 0.875 0.53906 2.293 0.53906 4.2578 0 1.8047-0.17969 3.1562-0.53906 4.0508-0.58203 1.4141-1.6484 2.1211-3.2031 2.1211zm-2.1133-6.1758c0 1.6328 0.10547 2.793 0.31641 3.4844 0.29687 1.0352 0.89453 1.5508 1.7969 1.5508 0.90234 0 1.5039-0.51953 1.8125-1.5508 0.19922-0.69141 0.30078-1.8516 0.30078-3.4844 0-1.6875-0.10156-2.8828-0.30078-3.5859-0.30859-1.0352-0.91016-1.5508-1.8125-1.5508-0.90234 0-1.5 0.51562-1.7969 1.5508-0.21094 0.70312-0.31641 1.8984-0.31641 3.5859zm10.367 6.1758c-1.582 0-2.6484-0.66797-3.2031-2.0039-0.35938-0.87109-0.53906-2.2617-0.53906-4.1719 0-1.8594 0.17969-3.2461 0.53906-4.1562 0.56641-1.4102 1.6367-2.1172 3.2031-2.1172 1.582 0 2.6484 0.67188 3.2031 2.0156 0.35938 0.875 0.53906 2.293 0.53906 4.2578 0 1.8047-0.17969 3.1562-0.53906 4.0508-0.58203 1.4141-1.6484 2.1211-3.2031 2.1211zm-2.1133-6.1758c0 1.6328 0.10547 2.793 0.31641 3.4844 0.29688 1.0352 0.89453 1.5508 1.7969 1.5508 0.90234 0 1.5039-0.51953 1.8125-1.5508 0.19922-0.69141 0.29688-1.8516 0.29688-3.4844 0-1.6875-0.097656-2.8828-0.29688-3.5859-0.30859-1.0352-0.91016-1.5508-1.8125-1.5508-0.90234 0-1.5 0.51562-1.7969 1.5508-0.21094 0.70312-0.31641 1.8984-0.31641 3.5859zm10.367 6.1758c-1.582 0-2.6484-0.66797-3.2031-2.0039-0.35938-0.87109-0.53906-2.2617-0.53906-4.1719 0-1.8594 0.17969-3.2461 0.53906-4.1562 0.56641-1.4102 1.6367-2.1172 3.2031-2.1172 1.5781 0 2.6445 0.67188 3.2031 2.0156 0.35547 0.875 0.53516 2.293 0.53516 4.2578 0 1.8047-0.17969 3.1562-0.53516 4.0508-0.58203 1.4141-1.6523 2.1211-3.2031 2.1211zm-2.1133-6.1758c0 1.6328 0.10547 2.793 0.31641 3.4844 0.29297 1.0352 0.89453 1.5508 1.7969 1.5508s1.5039-0.51953 1.8125-1.5508c0.19531-0.69141 0.29688-1.8516 0.29688-3.4844 0-1.6875-0.097656-2.8828-0.29688-3.5859-0.30859-1.0352-0.91016-1.5508-1.8125-1.5508s-1.5039 0.51562-1.7969 1.5508c-0.21094 0.70312-0.31641 1.8984-0.31641 3.5859zm14.035 4.5859v1.3477h-7.2969c0-1.8516 0.9375-3.5195 2.8125-5.0039l1.0703-0.84375c0.58594-0.47266 1.0117-0.89453 1.2695-1.2734 0.30469-0.48438 0.45703-1.0352 0.45703-1.6562 0-0.59766-0.14062-1.0898-0.42578-1.4844-0.33203-0.46875-0.82812-0.70703-1.4844-0.70703-1.3789 0-2.0742 0.87891-2.0742 2.6406h-1.6289c0-2.5898 1.2422-3.8789 3.7227-3.8789 1.332 0 2.3008 0.41016 2.9062 1.2227 0.40625 0.56641 0.61328 1.2422 0.61328 2.0352 0 0.875-0.20703 1.6289-0.61328 2.2578-0.32422 0.51953-0.89062 1.1055-1.6992 1.7617l-1.8633 1.5c-0.78516 0.62891-1.2656 1.3242-1.4375 2.0859h5.668zm4.5859 1.5898c-1.582 0-2.6484-0.66797-3.2031-2.0039-0.35937-0.87109-0.53906-2.2617-0.53906-4.1719 0-1.8594 0.17969-3.2461 0.53906-4.1562 0.57031-1.4102 1.6367-2.1172 3.2031-2.1172 1.582 0 2.6484 0.67188 3.2031 2.0156 0.35547 0.875 0.53516 2.293 0.53516 4.2578 0 1.8047-0.17969 3.1562-0.53516 4.0508-0.58203 1.4141-1.6484 2.1211-3.2031 2.1211zm-2.1133-6.1758c0 1.6328 0.10938 2.793 0.31641 3.4844 0.29688 1.0352 0.89453 1.5508 1.7969 1.5508 0.90234 0 1.5078-0.51953 1.8164-1.5508 0.19922-0.69141 0.29688-1.8516 0.29688-3.4844 0-1.6875-0.097657-2.8828-0.29688-3.5859-0.30859-1.0352-0.91406-1.5508-1.8164-1.5508-0.90234 0-1.5 0.51562-1.7969 1.5508-0.20703 0.70312-0.31641 1.8984-0.31641 3.5859zm10.367 6.1758c-1.582 0-2.6484-0.66797-3.2031-2.0039-0.35938-0.87109-0.53906-2.2617-0.53906-4.1719 0-1.8594 0.17969-3.2461 0.53906-4.1562 0.56641-1.4102 1.6367-2.1172 3.2031-2.1172 1.582 0 2.6484 0.67188 3.2031 2.0156 0.35547 0.875 0.53906 2.293 0.53906 4.2578 0 1.8047-0.17969 3.1562-0.53906 4.0508-0.58203 1.4141-1.6484 2.1211-3.2031 2.1211zm-2.1133-6.1758c0 1.6328 0.10547 2.793 0.31641 3.4844 0.29688 1.0352 0.89453 1.5508 1.7969 1.5508s1.5039-0.51953 1.8164-1.5508c0.19531-0.69141 0.29688-1.8516 0.29688-3.4844 0-1.6875-0.10156-2.8828-0.29688-3.5859-0.30859-1.0352-0.91406-1.5508-1.8164-1.5508s-1.5 0.51562-1.7969 1.5508c-0.21094 0.70312-0.31641 1.8984-0.31641 3.5859zm-127.31 31.742v-9.2422h1.5547v9.2422zm0-10.652v-1.6562h1.5547v1.6562zm3.0508 10.652v-9.2422h1.4844v1.0859h0.035156c0.19922-0.41406 0.53125-0.74219 1.0039-0.98047 0.42969-0.23047 0.89844-0.34375 1.4062-0.34375 1.1367 0 1.8945 0.35156 2.2773 1.0508 0.22266 0.40234 0.33594 1.0273 0.33594 1.8789v6.5508h-1.5586v-6.3789c0-1.2383-0.48828-1.8633-1.4609-1.8633-0.49219 0-0.92578 0.14453-1.2969 0.42969-0.44531 0.34766-0.66797 0.82422-0.66797 1.4336v6.3789zm8.4062 0v-8.1016h-1.4453v-1.1367h1.4453v-1.082c0-1.4023 0.71484-2.1094 2.1484-2.1094h1.1289v1.2422h-0.72266c-0.66797 0-1 0.28906-1 0.87109v1.0781h1.7031v1.1367h-1.7031v8.1016h-1.5586zm3.2148-4.6211c0-3.2383 1.1914-4.8594 3.5742-4.8594 2.3828 0 3.5742 1.6211 3.5742 4.8594 0 3.2422-1.1875 4.8633-3.5742 4.8633-2.3828 0-3.5742-1.6211-3.5742-4.8633zm3.5391 3.7266c1.3203 0 1.9805-1.2422 1.9805-3.7266 0-1.1602-0.12109-2.0312-0.37109-2.6172-0.30859-0.73828-0.84766-1.1055-1.6094-1.1055-1.2734 0-1.9102 1.2422-1.9102 3.7227 0 2.4844 0.63672 3.7266 1.9102 3.7266zm7.957-4.1562c0 0.48438 0.16406 0.88281 0.48828 1.1914 0.32813 0.3125 0.74609 0.46484 1.25 0.46484 0.79297 0 1.4844-0.44531 2.0742-1.3438 0.53125-0.78125 0.79688-1.5508 0.79688-2.3086 0-0.42578-0.13281-0.8125-0.39062-1.1562-0.29688-0.37891-0.66406-0.56641-1.1094-0.56641-0.85156 0-1.5938 0.41797-2.2227 1.2578-0.59375 0.78125-0.89062 1.6055-0.89062 2.4648zm5.2578-3.3438 0.40625-1.0859h1.0391l-1.5547 4.8594c-0.11328 0.34375-0.16797 0.60547-0.16797 0.77734 0 0.29688 0.17969 0.44531 0.53516 0.44531 0.82812 0 1.5508-0.37891 2.168-1.1445 0.61719-0.76563 0.92969-1.6367 0.92969-2.6133 0-1.2852-0.54297-2.3359-1.6211-3.1445-1.0781-0.8125-2.4219-1.2148-4.0273-1.2148-1.5898 0-2.9336 0.51562-4.0195 1.5508-1.0859 1.0312-1.6289 2.3047-1.6289 3.8086 0 1.5273 0.54297 2.8047 1.6289 3.8281 1.0859 1.0234 2.4258 1.5352 4.0195 1.5352 2.3359 0 4.0078-0.63672 5.0195-1.918h1.168c-1.2227 1.9688-3.2852 2.9492-6.1836 2.9492-1.9023 0-3.5234-0.625-4.8633-1.8672-1.3359-1.2461-2.0078-2.7578-2.0078-4.5273 0-1.7695 0.67187-3.2773 2.0078-4.5234 1.3398-1.2461 2.9609-1.8711 4.8633-1.8711 2 0 3.6445 0.5 4.9336 1.5 1.293 1 1.9375 2.2773 1.9375 3.8281 0 1.4141-0.52734 2.5977-1.5742 3.5547-0.94922 0.87109-2.0195 1.3086-3.2031 1.3086-0.77734 0-1.2109-0.33594-1.2969-1.0156h-0.039062c-0.70312 0.67969-1.4727 1.0156-2.3125 1.0156-0.70312 0-1.3086-0.24219-1.8125-0.72266-0.54297-0.49609-0.81641-1.1172-0.81641-1.8633 0-1.2539 0.39453-2.3633 1.1875-3.3281 0.85156-1.0234 1.8984-1.5352 3.1445-1.5352 1.0625 0 1.7695 0.47266 2.1133 1.4141h0.039062zm5.9609-0.84375v-2.6914h1.5547v2.6914h1.7227v1.1367h-1.7227v5.9453c0 0.37891 0.070312 0.64844 0.21484 0.80469 0.14063 0.15234 0.41016 0.23047 0.80469 0.23047 0.125 0 0.35156-0.023437 0.68359-0.066406v1.207c-0.40625 0.066406-0.82812 0.10156-1.2578 0.10156-0.76562 0-1.3047-0.15234-1.6094-0.46484-0.26172-0.26562-0.39062-0.72266-0.39062-1.3633v-6.3906h-1.4453v-1.1367h1.4453zm5.0156 2.793h-1.5586c0-1.0586 0.26563-1.8281 0.78906-2.3086 0.52344-0.48438 1.375-0.72656 2.5469-0.72656 1.3086 0 2.1914 0.32031 2.6484 0.96875 0.24609 0.35547 0.37109 0.92187 0.37109 1.6953v5.1758c0 0.49609 0.16016 0.74219 0.48047 0.74219 0.16406 0 0.28516-0.039063 0.37109-0.12109v1.0508c-0.37109 0.058594-0.67188 0.085938-0.90625 0.085938-0.41797 0-0.71484-0.050782-0.88672-0.16016-0.30859-0.16406-0.48438-0.50781-0.51953-1.0469h-0.039063c-0.24609 0.40234-0.58594 0.72656-1.0273 0.96484-0.4375 0.24219-0.89063 0.36328-1.3594 0.36328-1.8047 0-2.7031-0.89844-2.7031-2.6914 0-1.3594 0.62109-2.207 1.8711-2.5547l2.0898-0.58594c0.51953-0.14844 0.84766-0.32812 0.98438-0.53516 0.097656-0.13672 0.14844-0.42188 0.14844-0.85938 0-0.91016-0.53125-1.3633-1.5938-1.3633-1.1328 0-1.7031 0.60547-1.7031 1.8086v0.085937zm3.2383 3.793v-2.3828c-0.21875 0.22266-0.64844 0.42188-1.2773 0.60547-0.73828 0.21875-1.1953 0.37891-1.3711 0.48047-0.50391 0.28906-0.76172 0.77734-0.76172 1.4688 0 1.0586 0.47266 1.5859 1.4102 1.5859 0.51562 0 0.98047-0.17578 1.3867-0.52734 0.40625-0.35156 0.61328-0.76172 0.61328-1.2305zm5.3516-3.0898v-1.1367h0.81641c0.66406 0 1.1719-0.20703 1.5156-0.62109 0.32031-0.37891 0.48438-0.89062 0.48438-1.5352 0-1.3555-0.57031-2.0312-1.707-2.0312-1.2578 0-1.8906 0.79297-1.8906 2.3789h-1.6289c0-1.0898 0.27734-1.9336 0.83594-2.5352 0.59375-0.65234 1.4727-0.98047 2.6445-0.98047 1.2383 0 2.1445 0.35547 2.7227 1.0664 0.43359 0.55078 0.64844 1.2539 0.64844 2.1016 0 0.64453-0.16406 1.1953-0.5 1.6562-0.37109 0.49609-0.88281 0.81641-1.5352 0.96484v0.035156c1.6172 0.30078 2.4258 1.2461 2.4258 2.8477 0 1.1484-0.30469 2.0547-0.90625 2.7227-0.65625 0.69922-1.5938 1.0508-2.8164 1.0508-1.4922 0-2.5547-0.5-3.1836-1.5-0.35938-0.57812-0.53906-1.2109-0.53906-1.8984v-0.15625h1.6289c0 0.64453 0.16016 1.1875 0.48438 1.6211 0.37891 0.52734 0.91797 0.79297 1.6094 0.79297 1.3945 0 2.0938-0.83984 2.0938-2.5156 0-1.5508-0.79297-2.3281-2.3711-2.3281zm6.0312 5.7422v-12.312h1.5547v12.312zm4.4023-5.5859h3.5391v-0.5c0-1.5078-0.57422-2.2617-1.7227-2.2617-0.62891 0-1.1055 0.27344-1.4297 0.8125-0.25781 0.44531-0.38672 0.98438-0.38672 1.6055zm5.168 1.1367h-5.2227c0 1.0586 0.082032 1.8242 0.24219 2.3086 0.26953 0.82812 0.82422 1.2422 1.6641 1.2422 0.64453 0 1.1133-0.27344 1.4102-0.8125 0.18359-0.37109 0.27734-0.8125 0.27734-1.3281h1.5508c0 0.72656-0.21094 1.3945-0.64453 2.0039-0.60547 0.85156-1.5 1.2734-2.6875 1.2734-1.1953 0-2.0742-0.39453-2.6289-1.1875-0.54297-0.75781-0.81641-1.9453-0.81641-3.5547 0-3.3203 1.1797-4.9805 3.5391-4.9805 1.3438 0 2.2773 0.49219 2.7969 1.4805 0.34375 0.66797 0.51562 1.6562 0.51562 2.9688v0.58594zm2.4219-1.1367h3.5391v-0.5c0-1.5078-0.57422-2.2617-1.7266-2.2617-0.62891 0-1.1016 0.27344-1.4219 0.8125-0.26172 0.44531-0.39062 0.98438-0.39062 1.6055zm5.168 1.1367h-5.2227c0 1.0586 0.082031 1.8242 0.23828 2.3086 0.27344 0.82812 0.82812 1.2422 1.668 1.2422 0.64062 0 1.1133-0.27344 1.4062-0.8125 0.1875-0.37109 0.28125-0.8125 0.28125-1.3281h1.5547c0 0.72656-0.21484 1.3945-0.64844 2.0039-0.60547 0.85156-1.5 1.2734-2.6836 1.2734-1.1992 0-2.0742-0.39453-2.6289-1.1875-0.54297-0.75781-0.81641-1.9453-0.81641-3.5547 0-3.3203 1.1797-4.9805 3.5352-4.9805 1.3438 0 2.2773 0.49219 2.7969 1.4805 0.34766 0.66797 0.51953 1.6562 0.51953 2.9688zm1.2148 4.4453v-9.2422h1.4844v1.0859h0.039063c0.19531-0.41406 0.53125-0.74219 1-0.98047 0.42969-0.23047 0.90234-0.34375 1.4062-0.34375 1.1367 0 1.8516 0.48438 2.1484 1.4648 0.23438-0.42578 0.55859-0.77734 0.98047-1.0508 0.42188-0.27734 0.87891-0.41406 1.3711-0.41406 1.1328 0 1.8945 0.35156 2.2773 1.0508 0.22266 0.40234 0.33594 1.0273 0.33594 1.8789v6.5508h-1.5586v-6.3789c0-1.2422-0.44531-1.8633-1.332-1.8633-0.45703 0-0.85938 0.12891-1.207 0.37891-0.42969 0.34375-0.64844 0.83984-0.64844 1.4844v6.3789h-1.5547v-6.3789c0-1.2422-0.44531-1.8633-1.3359-1.8633-0.45703 0-0.85938 0.12891-1.2031 0.37891-0.43359 0.34375-0.64844 0.83984-0.64844 1.4844v6.3789h-1.5586zm12.941 0v-1.8281h1.7031v1.8281zm3.5508 0v-9.2422h1.5586v9.2422zm0-10.656v-1.6523h1.5586v1.6523zm8.1445 6.0352c0-1.1953-0.11328-2.0625-0.34766-2.6016-0.30859-0.67578-0.85937-1.0195-1.6484-1.0195-1.2109 0-1.8125 1.1484-1.8125 3.4492 0 1.2773 0.12109 2.207 0.37109 2.793 0.28125 0.66797 0.76562 1 1.4453 1 1.332 0 2-1.207 2-3.6211zm-0.089844 7.6562v-4.0859c-0.17188 0.39062-0.45312 0.70703-0.83984 0.94141s-0.80078 0.35156-1.25 0.35156c-2.1758 0-3.2617-1.6758-3.2617-5.0352 0-3.125 1.0742-4.6875 3.2188-4.6875 0.51563 0 0.98047 0.14062 1.3945 0.42969 0.37891 0.26172 0.625 0.57812 0.73828 0.94531h0.070313v-1.1367h1.4805v12.273h-1.5547zm-105.02 22.777 3.8164-12.309h2.1836l3.5586 12.309h-1.7031l-0.94531-3.3789h-4.2227l-0.98047 3.3789zm4.8555-10.57-1.8359 5.9492h3.5547l-1.6836-5.9492h-0.039063zm5.0312 10.57v-12.309h1.5586v12.309zm3.0312-4.2227v-1.3477h4.5195v1.3477zm11.719-8.0898v8.7734c0 1.2188-0.21094 2.1211-0.62891 2.707-0.51953 0.71484-1.4141 1.0703-2.6875 1.0703-1.0352 0-1.8242-0.28125-2.3672-0.84375-0.48438-0.50781-0.72266-1.1602-0.72266-1.9648v-1.0195h1.5547v0.89844c0 1.125 0.50391 1.6875 1.5195 1.6875 0.69141 0 1.1602-0.21484 1.4062-0.65234 0.19531-0.35547 0.29687-1 0.29687-1.9297v-8.7266zm2.7539 5.8633h-1.5547c0-1.0586 0.26172-1.8281 0.78906-2.3086 0.52344-0.48438 1.375-0.72656 2.5469-0.72656 1.3086 0 2.1914 0.32031 2.6484 0.96875 0.24609 0.35547 0.37109 0.92188 0.37109 1.6953v5.1758c0 0.49609 0.16016 0.74219 0.48047 0.74219 0.16406 0 0.28516-0.039062 0.37109-0.12109v1.0508c-0.37109 0.058594-0.67188 0.085937-0.90625 0.085937-0.41797 0-0.71484-0.050781-0.89062-0.16016-0.30859-0.16406-0.48047-0.50781-0.51562-1.0469h-0.039063c-0.24609 0.40234-0.58984 0.72656-1.0273 0.96484-0.4375 0.24219-0.89062 0.36328-1.3633 0.36328-1.8047 0-2.7031-0.89844-2.7031-2.6914 0-1.3594 0.625-2.207 1.8711-2.5547l2.0938-0.58594c0.51953-0.14844 0.84766-0.32812 0.98438-0.53516 0.097656-0.13672 0.14844-0.42188 0.14844-0.85938 0-0.91016-0.53125-1.3633-1.5938-1.3633-1.1367 0-1.7031 0.60547-1.7031 1.8086v0.085937zm3.2422 3.793v-2.3828c-0.22266 0.22266-0.64844 0.42187-1.2773 0.60547-0.74219 0.21484-1.1992 0.37891-1.3711 0.48047-0.50781 0.28906-0.76172 0.77734-0.76172 1.4688 0 1.0586 0.46875 1.5859 1.4062 1.5859 0.51953 0 0.98438-0.17578 1.3906-0.52734 0.40625-0.35156 0.61328-0.76172 0.61328-1.2305zm4.3125-1.9688c0 1.1953 0.125 2.0742 0.37109 2.6406 0.28516 0.65234 0.76562 0.98047 1.4453 0.98047 0.79297 0 1.3398-0.33594 1.6523-1.0156 0.23438-0.54297 0.34766-1.4102 0.34766-2.6055 0-2.4141-0.66406-3.6211-2-3.6211-0.67969 0-1.1602 0.33203-1.4453 0.98438-0.24609 0.5625-0.37109 1.4414-0.37109 2.6367zm5.2773-7.6914v12.312h-1.4805v-1.1367h-0.074219c-0.10938 0.36719-0.35156 0.68359-0.73438 0.94531-0.41406 0.28906-0.88281 0.42969-1.3945 0.42969-2.1445 0-3.2188-1.6172-3.2188-4.8594s1.0469-4.8633 3.1484-4.8633c0.46094 0 0.89844 0.12109 1.3164 0.35547 0.41797 0.23437 0.71094 0.54687 0.88672 0.9375v-4.1211h1.5586zm1.3867 12.312v-9.2422h1.5547v1.3789c0.54688-1.082 1.2734-1.6211 2.1758-1.6211 0.30859 0 0.54297 0.035156 0.69531 0.10547v1.4102c-0.39453-0.042969-0.67188-0.066406-0.83594-0.066406-0.46875 0-0.90625 0.17187-1.3125 0.51562-0.48438 0.42578-0.72266 0.98438-0.72266 1.6758v5.8438zm4.9414 0v-9.2422h1.5547v9.2422zm0-10.656v-1.6562h1.5547v1.6562zm5.1406 10.844-2.9258-9.4297h1.707l1.9648 7.4141h0.035156l1.7422-7.4141h1.7031l-2.8672 9.8633c-0.23438 0.80469-0.48828 1.3672-0.76172 1.6914-0.41797 0.48047-1.0469 0.72266-1.8906 0.72266-0.23438 0-0.60938-0.015625-1.1289-0.050781v-1.1367c0.22266 0.035156 0.52734 0.046875 0.90625 0.046875 0.59375 0 1-0.29688 1.2227-0.89453l0.29687-0.8125zm6.1094-6.6367h-1.5586c0-1.0586 0.26172-1.8281 0.78906-2.3086 0.52344-0.48438 1.375-0.72656 2.5469-0.72656 1.3086 0 2.1914 0.32031 2.6484 0.96875 0.24609 0.35938 0.37109 0.92578 0.37109 1.6992v5.1719c0 0.5 0.16016 0.74219 0.48047 0.74219 0.16406 0 0.28516-0.039062 0.37109-0.12109v1.0508c-0.37109 0.058593-0.67188 0.085937-0.90625 0.085937-0.41797 0-0.71484-0.050781-0.88672-0.15625-0.30859-0.16406-0.48438-0.51172-0.51953-1.0508h-0.039063c-0.24609 0.40234-0.58594 0.72656-1.0273 0.96484-0.44141 0.24219-0.89062 0.36328-1.3633 0.36328-1.8008 0-2.7031-0.89844-2.7031-2.6914 0-1.3555 0.625-2.207 1.8711-2.5508l2.0898-0.58594c0.51953-0.14844 0.84766-0.32812 0.98438-0.53516 0.097656-0.14063 0.14844-0.42578 0.14844-0.86328 0-0.90625-0.53125-1.3633-1.5898-1.3633-1.1367 0-1.7031 0.60547-1.7031 1.8086v0.085937zm3.2383 3.793v-2.3789c-0.22266 0.21875-0.64844 0.41797-1.2773 0.60156-0.73828 0.21875-1.1953 0.37891-1.3711 0.48438-0.50391 0.28516-0.76172 0.77344-0.76172 1.4648 0 1.0586 0.47266 1.5859 1.4062 1.5859 0.51953 0 0.98438-0.17578 1.3906-0.52344 0.41016-0.35156 0.61328-0.76562 0.61328-1.2344zm7.4609-1.5703v-1.3438h4.5156v1.3438zm12.031-1.6367v4.6211h2.2227c1.543 0 2.3164-0.75781 2.3164-2.2773 0-0.80078-0.25391-1.4062-0.76172-1.8086-0.45703-0.35938-1.0703-0.53516-1.8359-0.53516h-1.9453zm-1.6289 5.8633v-12.312h4.0547c0.97266 0 1.7539 0.22656 2.332 0.67188 0.70703 0.54297 1.0586 1.3672 1.0586 2.4844 0 0.57812-0.17969 1.1094-0.52734 1.5938-0.35156 0.48828-0.82031 0.81641-1.3984 0.97266v0.039062c1.5703 0.33984 2.3516 1.3555 2.3516 3.0312 0 2.3477-1.4258 3.5195-4.2773 3.5195zm1.6289-11.07v4.0703h1.8711c1.4922 0 2.2422-0.68359 2.2422-2.0508 0-1.3438-0.76172-2.0156-2.2812-2.0156h-1.832zm8.6055 4.6211h-1.5547c0-1.0586 0.26172-1.8281 0.78906-2.3086 0.52344-0.48438 1.375-0.72656 2.5469-0.72656 1.3086 0 2.1914 0.32031 2.6445 0.96875 0.25 0.35938 0.375 0.92578 0.375 1.6992v5.1719c0 0.5 0.16016 0.74219 0.48047 0.74219 0.16016 0 0.28516-0.039062 0.37109-0.12109v1.0508c-0.37109 0.058593-0.67187 0.085937-0.90625 0.085937-0.41797 0-0.71484-0.050781-0.89062-0.15625-0.30859-0.16406-0.48047-0.51172-0.51563-1.0508h-0.039062c-0.24609 0.40234-0.58984 0.72656-1.0273 0.96484-0.44141 0.24219-0.89062 0.36328-1.3633 0.36328-1.8047 0-2.7031-0.89844-2.7031-2.6914 0-1.3555 0.625-2.207 1.8711-2.5508l2.0898-0.58594c0.51953-0.14844 0.84766-0.32812 0.98437-0.53516 0.097657-0.14063 0.14844-0.42578 0.14844-0.86328 0-0.90625-0.53125-1.3633-1.5898-1.3633-1.1367 0-1.7031 0.60547-1.7031 1.8086v0.085937zm3.2422 3.793v-2.3789c-0.22266 0.21875-0.64844 0.41797-1.2773 0.60156-0.74219 0.21875-1.1992 0.37891-1.3711 0.48438-0.50781 0.28516-0.76172 0.77344-0.76172 1.4648 0 1.0586 0.46875 1.5859 1.4062 1.5859 0.51953 0 0.98438-0.17578 1.3906-0.52344 0.40625-0.35156 0.61328-0.76562 0.61328-1.2344zm6.1289-5.5859c-0.67969 0-1.1602 0.32812-1.4453 0.98047-0.25 0.56641-0.37109 1.4453-0.37109 2.6406 0 2.25 0.59766 3.375 1.7969 3.375 0.77734 0 1.3281-0.32812 1.6484-0.98047 0.24609-0.51953 0.37109-1.3164 0.37109-2.3945 0-2.418-0.66797-3.6211-2-3.6211zm3.4609-1v8.6523c0 2.5078-1.125 3.7578-3.3711 3.7578-2 0-3.0859-0.76953-3.2578-2.3086h1.5586c0.070312 0.78125 0.60156 1.1719 1.5898 1.1719 0.86328 0 1.4375-0.26172 1.7227-0.79297 0.13672-0.26562 0.20312-0.6875 0.20312-1.2734v-1.2109h-0.035156c-0.16406 0.38281-0.44922 0.68359-0.86328 0.90625-0.41406 0.22656-0.875 0.33594-1.3789 0.33594-1.2461 0-2.1172-0.61328-2.6094-1.8438-0.30859-0.75-0.46484-1.6719-0.46484-2.7734 0-3.2422 1.0781-4.8633 3.2422-4.8633 0.51562 0 0.98828 0.14453 1.4062 0.42969 0.38281 0.27734 0.62891 0.60547 0.74219 0.98438h0.035156v-1.1719h1.4844zm1.3867 9.2422v-12.312h1.5547v4.1211c0.20312-0.36719 0.53516-0.67188 1.0039-0.92188 0.47656-0.24609 0.94531-0.37109 1.4023-0.37109 1.1211 0 1.8711 0.35156 2.2578 1.0508 0.21094 0.40234 0.31641 1.0312 0.31641 1.8828v6.5508h-1.5547v-6.3789c0-1.2422-0.48828-1.8633-1.4609-1.8633-0.49609 0-0.92578 0.14453-1.2969 0.42969-0.44531 0.34375-0.66797 0.82031-0.66797 1.4336v6.3789z"/>
<path d="m255.73 65.227c0 1.1953 0.125 2.0742 0.37109 2.6367 0.28516 0.65234 0.76563 0.98438 1.4453 0.98438 0.79297 0 1.3398-0.33984 1.6484-1.0195 0.23438-0.54297 0.35156-1.4062 0.35156-2.6016 0-2.418-0.66797-3.6211-2-3.6211-0.67969 0-1.1602 0.32812-1.4453 0.98047-0.25 0.56641-0.37109 1.4453-0.37109 2.6406zm5.2773-7.6914v12.309h-1.4805v-1.1367h-0.074219c-0.11328 0.36719-0.35547 0.68359-0.73438 0.94922-0.41797 0.28516-0.88281 0.42578-1.3984 0.42578-2.1445 0-3.2188-1.6172-3.2188-4.8594 0-3.2422 1.0469-4.8594 3.1523-4.8594 0.45703 0 0.89453 0.11719 1.3125 0.35156 0.41797 0.23438 0.71094 0.54688 0.88672 0.94141v-4.1211zm2.6992 5.8594h-1.5547c0-1.0586 0.26172-1.8242 0.78516-2.3086 0.52344-0.48047 1.375-0.72266 2.5469-0.72266 1.3086 0 2.1953 0.32031 2.6484 0.96484 0.24609 0.35938 0.37109 0.92578 0.37109 1.6992v5.1758c0 0.49609 0.16406 0.74219 0.48438 0.74219 0.16016 0 0.28125-0.042968 0.37109-0.12109v1.0508c-0.37109 0.058594-0.67188 0.085938-0.90625 0.085938-0.42188 0-0.71484-0.054688-0.89062-0.16016-0.30859-0.16406-0.48438-0.51172-0.51953-1.0469h-0.035157c-0.25 0.39844-0.58984 0.72266-1.0312 0.96484-0.4375 0.24219-0.89062 0.35938-1.3594 0.35938-1.8047 0-2.7031-0.89453-2.7031-2.6914 0-1.3555 0.625-2.2031 1.8672-2.5508l2.0938-0.58594c0.51562-0.14844 0.84766-0.32812 0.98047-0.53516 0.10156-0.14062 0.15234-0.42578 0.15234-0.86328 0-0.90625-0.53125-1.3594-1.5938-1.3594-1.1367 0-1.7031 0.60156-1.7031 1.8086v0.085938zm3.2422 3.793v-2.3789c-0.22266 0.21875-0.64844 0.41797-1.2812 0.60547-0.73828 0.21484-1.1953 0.37891-1.3711 0.48047-0.50391 0.28906-0.75781 0.77734-0.75781 1.4648 0 1.0586 0.46875 1.5859 1.4062 1.5859 0.51563 0 0.98047-0.17187 1.3906-0.52344 0.40625-0.35156 0.60937-0.76172 0.60937-1.2344zm4.3125-1.9648c0 1.1953 0.12109 2.0742 0.36719 2.6367 0.28516 0.65625 0.76562 0.98438 1.4453 0.98438 0.79297 0 1.3398-0.33984 1.6484-1.0195 0.23438-0.53906 0.35156-1.4062 0.35156-2.6016 0-2.4141-0.66797-3.6211-2.0039-3.6211-0.67969 0-1.1562 0.32813-1.4453 0.98438-0.24219 0.5625-0.36719 1.4414-0.36719 2.6367zm5.2773-7.6914v12.309h-1.4844v-1.1367h-0.074219c-0.10938 0.37109-0.35156 0.6875-0.73438 0.94922-0.41797 0.28906-0.88281 0.42969-1.3984 0.42969-2.1445 0-3.2188-1.6211-3.2188-4.8633s1.0469-4.8594 3.1484-4.8594c0.46094 0 0.89844 0.11719 1.3164 0.35156 0.41406 0.23828 0.71094 0.55078 0.88672 0.94141v-4.1211zm-130.73 38.121-2.3164-9.2422h1.6289l1.5938 7.5547h0.039062l1.6836-7.5547h1.8359l1.6484 7.5547h0.035157l1.5391-7.5547h1.6289l-2.3516 9.2422h-1.7031l-1.7422-7.5508h-0.039062l-1.6641 7.5508zm11.363 0-2.3125-9.2422h1.6289l1.5898 7.5547h0.039063l1.6836-7.5547h1.8359l1.6484 7.5547h0.039063l1.5352-7.5547h1.6289l-2.3516 9.2422h-1.7031l-1.7383-7.5508h-0.039063l-1.668 7.5508zm11.367 0-2.3125-9.2422h1.6289l1.5898 7.5547h0.039062l1.6836-7.5547h1.8359l1.6484 7.5547h0.039062l1.5352-7.5547h1.6289l-2.3516 9.2422h-1.7031l-1.7422-7.5508h-0.035156l-1.668 7.5508zm10.238 0v-1.8242h1.7031v1.8242zm3.9219-9.2422v-2.6914h1.5547v2.6914h1.7227v1.1367h-1.7227v5.9453c0 0.37891 0.070313 0.64844 0.21484 0.80469 0.14062 0.15234 0.41016 0.23047 0.80469 0.23047 0.125 0 0.35156-0.019532 0.68359-0.066406v1.207c-0.40625 0.070312-0.82813 0.10547-1.2617 0.10547-0.76172 0-1.3008-0.15625-1.6094-0.46484-0.26172-0.26953-0.39062-0.72266-0.39062-1.3672v-6.3906h-1.4453v-1.1367h1.4453zm5.0156 2.793h-1.5586c0-1.0586 0.26562-1.8281 0.78906-2.3086 0.52344-0.48438 1.375-0.72656 2.5469-0.72656 1.3086 0 2.1914 0.32031 2.6484 0.96875 0.24609 0.35938 0.37109 0.92578 0.37109 1.6992v5.1719c0 0.5 0.16016 0.74219 0.48047 0.74219 0.16406 0 0.28516-0.039062 0.37109-0.12109v1.0508c-0.37109 0.058593-0.67188 0.085937-0.90625 0.085937-0.41797 0-0.71484-0.050781-0.88672-0.15625-0.30859-0.16406-0.48438-0.51172-0.51953-1.0508h-0.039063c-0.24219 0.40234-0.58594 0.72656-1.0273 0.96484-0.4375 0.24219-0.89062 0.36328-1.3594 0.36328-1.8047 0-2.707-0.89844-2.707-2.6914 0-1.3555 0.625-2.207 1.875-2.5508l2.0898-0.58594c0.51953-0.15234 0.84766-0.33203 0.98438-0.53906 0.097656-0.13672 0.14453-0.42188 0.14453-0.85938 0-0.90625-0.52734-1.3633-1.5898-1.3633-1.1367 0-1.7031 0.60547-1.7031 1.8086v0.085937zm3.2383 3.793v-2.3789c-0.21875 0.21875-0.64844 0.41797-1.2773 0.60156-0.73828 0.21875-1.1953 0.37891-1.3711 0.48438-0.50391 0.28516-0.76172 0.77344-0.76172 1.4648 0 1.0586 0.47266 1.5859 1.4102 1.5859 0.51562 0 0.98047-0.17578 1.3867-0.52734 0.40625-0.34766 0.61328-0.76172 0.61328-1.2305zm5.3516-3.0898v-1.1367h0.8125c0.66797 0 1.1758-0.20703 1.5195-0.62109 0.32031-0.37891 0.48438-0.89063 0.48438-1.5312 0-1.3594-0.57031-2.0352-1.707-2.0352-1.2578 0-1.8906 0.79297-1.8906 2.3789h-1.6289c0-1.0898 0.27734-1.9336 0.83594-2.5352 0.59375-0.65234 1.4727-0.98047 2.6445-0.98047 1.2383 0 2.1445 0.35547 2.7227 1.0664 0.43359 0.55078 0.64844 1.2539 0.64844 2.1055 0 0.64453-0.16406 1.1953-0.5 1.6523-0.37109 0.49609-0.88281 0.81641-1.5352 0.96484v0.035156c1.6172 0.30078 2.4258 1.2461 2.4258 2.8477 0 1.1484-0.30469 2.0547-0.90625 2.7227-0.65625 0.69922-1.5938 1.0508-2.8164 1.0508-1.4922 0-2.5547-0.5-3.1836-1.5-0.35938-0.57812-0.53906-1.207-0.53906-1.8984v-0.15234h1.6289c0 0.64453 0.16016 1.1836 0.48438 1.6172 0.37891 0.52734 0.91797 0.79297 1.6094 0.79297 1.3945 0 2.0938-0.83594 2.0938-2.5156 0-1.5508-0.79297-2.3281-2.3711-2.3281zm6.0312 5.7422v-12.309h1.5547v12.309zm4.4023-5.5859h3.5391v-0.5c0-1.5078-0.57422-2.2578-1.7227-2.2578-0.62891 0-1.1094 0.26953-1.4297 0.80859-0.25781 0.44922-0.38672 0.98438-0.38672 1.6055zm5.168 1.1367h-5.2227c0 1.0586 0.082031 1.8281 0.23828 2.3086 0.27344 0.82813 0.82812 1.2422 1.668 1.2422 0.64453 0 1.1133-0.26953 1.4102-0.8125 0.18359-0.36719 0.27734-0.8125 0.27734-1.3242h1.5547c0 0.72266-0.21484 1.3906-0.64453 2-0.60547 0.85156-1.5039 1.2734-2.6875 1.2734-1.1992 0-2.0742-0.39453-2.6289-1.1875-0.54297-0.75781-0.81641-1.9453-0.81641-3.5547 0-3.3203 1.1797-4.9805 3.5352-4.9805 1.3438 0 2.2773 0.49609 2.7969 1.4844 0.34766 0.66406 0.51953 1.6523 0.51953 2.9648zm2.4219-1.1367h3.5391v-0.5c0-1.5078-0.57422-2.2578-1.7266-2.2578-0.62891 0-1.1016 0.26953-1.4219 0.80859-0.26172 0.44922-0.39062 0.98438-0.39062 1.6055zm5.168 1.1367h-5.2227c0 1.0586 0.082031 1.8281 0.23828 2.3086 0.27344 0.82813 0.82812 1.2422 1.668 1.2422 0.64062 0 1.1133-0.26953 1.4062-0.8125 0.1875-0.36719 0.28125-0.8125 0.28125-1.3242h1.5547c0 0.72266-0.21484 1.3906-0.64844 2-0.60547 0.85156-1.5 1.2734-2.6836 1.2734-1.1992 0-2.0742-0.39453-2.6289-1.1875-0.54297-0.75781-0.81641-1.9453-0.81641-3.5547 0-3.3203 1.1797-4.9805 3.5352-4.9805 1.3477 0 2.2812 0.49609 2.7969 1.4844 0.34766 0.66406 0.51953 1.6523 0.51953 2.9648zm1.2148 4.4453v-9.2422h1.4844v1.0859h0.039062c0.19531-0.41406 0.53125-0.74219 1-0.98047 0.42969-0.23047 0.90234-0.34375 1.4062-0.34375 1.1328 0 1.8516 0.48828 2.1484 1.4648 0.23438-0.42578 0.55859-0.77734 0.98047-1.0508 0.42187-0.27734 0.87891-0.41406 1.3711-0.41406 1.1328 0 1.8945 0.35156 2.2773 1.0508 0.22266 0.40234 0.33203 1.0273 0.33203 1.8789v6.5508h-1.5547v-6.3789c0-1.2383-0.44531-1.8633-1.3359-1.8633-0.45703 0-0.85938 0.12891-1.2031 0.37891-0.43359 0.34375-0.65234 0.83984-0.65234 1.4844v6.3789h-1.5547v-6.3789c0-1.2383-0.44531-1.8633-1.332-1.8633-0.46094 0-0.85938 0.12891-1.207 0.37891-0.43359 0.34375-0.64844 0.83984-0.64844 1.4844v6.3789h-1.5586zm12.941 0v-1.8242h1.707v1.8242zm3.5508 0v-9.2422h1.5586v9.2422zm0-10.652v-1.6562h1.5586v1.6562zm8.1445 6.0312c0-1.1953-0.11328-2.0625-0.34766-2.6016-0.30859-0.67578-0.85938-1.0195-1.6523-1.0195-1.2109 0-1.8125 1.1523-1.8125 3.4492 0 1.2773 0.125 2.2109 0.37109 2.793 0.28125 0.66797 0.76562 1 1.4453 1 1.332 0 2-1.207 2-3.6211zm-0.09375 7.6562v-4.0859c-0.17187 0.39453-0.44922 0.70703-0.83594 0.94141s-0.80078 0.35156-1.25 0.35156c-2.1758 0-3.2617-1.6758-3.2617-5.0352 0-3.125 1.0742-4.6875 3.2188-4.6875 0.51562 0 0.98047 0.14453 1.3945 0.42969 0.37891 0.26562 0.625 0.58203 0.73437 0.94531h0.074219v-1.1367h1.4805v12.277z"/>
<path d="m122.25 58.926c1.7305 0 3.1367 1.4023 3.1367 3.1367 0 1.7305-1.4062 3.1328-3.1367 3.1328-1.7305 0-3.1328-1.4023-3.1328-3.1328s1.4023-3.1367 3.1328-3.1367zm0-4.9883 0.39062 0.007812c2.0938 0.097657 4.0273 0.99219 5.4336 2.3828 1.418 1.3984 2.3086 3.3008 2.3086 5.4062l-0.011718 0.35547c-0.046876 0.95312-0.22266 1.8516-0.49219 2.6523-0.29688 0.86328-0.70703 1.6289-1.1836 2.2383-1.1445 1.457-2.082 2.6289-2.9961 3.7344-0.90234 1.0938-1.8242 2.1602-2.957 3.4258l-0.49219 0.55078-0.48828-0.54688c-1.1172-1.2383-2.1367-2.4102-3.1016-3.5781-0.96875-1.168-1.8789-2.3438-2.7812-3.582-0.41406-0.57422-0.84375-1.25-1.1758-2.0586-0.33594-0.82031-0.56641-1.7656-0.57422-2.8672l-0.003906-0.046875c0-2.2227 0.91016-4.2383 2.375-5.6992 1.4609-1.457 3.4766-2.3594 5.6992-2.375l0.050782-0.003906zm0.32812 1.3242-0.37109-0.003907c-1.8594 0.007813-3.5508 0.76953-4.7773 1.9922-1.2227 1.2227-1.9805 2.9023-1.9805 4.7656v0.042969c0.003907 0.90625 0.19531 1.6914 0.47266 2.3672 0.28125 0.68359 0.66016 1.2734 1.0312 1.7852 0.87891 1.2109 1.7734 2.3633 2.7266 3.5156 0.8125 0.98047 1.6641 1.9648 2.5742 2.9883 0.87109-0.98438 1.6406-1.8828 2.4336-2.8398 0.92578-1.1172 1.8516-2.2773 2.9766-3.7109 0.38672-0.49609 0.72266-1.125 0.96875-1.8438 0.23438-0.69141 0.39062-1.4688 0.42578-2.293l0.007812-0.29297c0-1.7383-0.73828-3.3125-1.9102-4.4688-1.1875-1.168-2.8086-1.918-4.5742-2.0039z" fill-rule="evenodd"/>
<path d="m0 97.418h4.6406v-4.6406h-4.6406zm4.6406 0h4.6367v-4.6406h-4.6367zm4.6367 0h4.6406v-4.6406h-4.6406zm4.6406 0h4.6367v-4.6406h-4.6367zm4.6367 0h4.6367v-4.6406h-4.6367zm4.6367 0h4.6406v-4.6406h-4.6406zm4.6406 0h4.6367v-4.6406h-4.6367zm9.2773 0h4.6367v-4.6406h-4.6367zm9.2734 0h4.6367v-4.6406h-4.6367zm4.6367 0h4.6406v-4.6406h-4.6406zm13.914 0h4.6406v-4.6406h-4.6406zm13.918 0h4.6367v-4.6406h-4.6367zm9.2773 0h4.6367v-4.6406h-4.6367zm-88.129-4.6406h4.6367v-4.6367h-4.6367zm27.828 0h4.6406v-4.6367h-4.6406zm9.2773 0h4.6367v-4.6367h-4.6367zm13.914 0h4.6406v-4.6367h-4.6406zm4.6406 0h4.6367v-4.6367h-4.6367zm4.6367 0h4.6367v-4.6367h-4.6367zm9.2773 0h4.6367v-4.6367h-4.6367zm9.2773 0h4.6367v-4.6367h-4.6367zm4.6367 0h4.6406v-4.6367h-4.6406zm-83.488-4.6367h4.6367v-4.6406h-4.6367zm9.2734 0h4.6406v-4.6406h-4.6406zm4.6406 0h4.6367v-4.6406h-4.6367zm4.6367 0h4.6406v-4.6406h-4.6406zm9.2773 0h4.6406v-4.6406h-4.6406zm9.2773 0h4.6367v-4.6406h-4.6367zm4.6367 0h4.6406v-4.6406h-4.6406zm13.918 0h4.6367v-4.6406h-4.6367zm4.6367 0h4.6367v-4.6406h-4.6367zm-60.297-4.6406h4.6367v-4.6367h-4.6367zm9.2734 0h4.6406v-4.6367h-4.6406zm4.6406 0h4.6367v-4.6367h-4.6367zm4.6367 0h4.6406v-4.6367h-4.6406zm9.2773 0h4.6406v-4.6367h-4.6406zm9.2773 0h4.6367v-4.6367h-4.6367zm4.6367 0h4.6406v-4.6367h-4.6406zm18.555 0h4.6367v-4.6367h-4.6367zm9.2773 0h4.6367v-4.6367h-4.6367zm4.6367 0h4.6406v-4.6367h-4.6406zm4.6406 0h4.6367v-4.6367h-4.6367zm-78.852-4.6367h4.6367v-4.6367h-4.6367zm9.2734 0h4.6406v-4.6367h-4.6406zm4.6406 0h4.6367v-4.6367h-4.6367zm4.6367 0h4.6406v-4.6367h-4.6406zm9.2773 0h4.6406v-4.6367h-4.6406zm9.2773 0h4.6367v-4.6367h-4.6367zm4.6367 0h4.6406v-4.6367h-4.6406zm9.2773 0h4.6406v-4.6367h-4.6406zm13.914 0h4.6406v-4.6367h-4.6406zm4.6406 0h4.6367v-4.6367h-4.6367zm18.555 0h4.6367v-4.6367h-4.6367zm4.6367 0h4.6367v-4.6367h-4.6367zm-92.766-4.6367h4.6406v-4.6406h-4.6406zm27.832 0h4.6367v-4.6406h-4.6367zm18.555 0h4.6367v-4.6406h-4.6367zm13.914 0h4.6406v-4.6406h-4.6406zm23.191 0h4.6406v-4.6406h-4.6406zm9.2773 0h4.6406v-4.6406h-4.6406zm-92.762-4.6406h4.6367v-4.6406h-4.6367zm4.6367 0h4.6367v-4.6406h-4.6367zm4.6367 0h4.6406v-4.6406h-4.6406zm4.6406 0h4.6367v-4.6406h-4.6367zm4.6367 0h4.6406v-4.6406h-4.6406zm4.6406 0h4.6367v-4.6406h-4.6367zm4.6367 0h4.6367v-4.6406h-4.6367zm9.2773 0h4.6367v-4.6406h-4.6367zm4.6367 0h4.6406v-4.6406h-4.6406zm4.6406 0h4.6367v-4.6406h-4.6367zm4.6367 0h4.6367v-4.6406h-4.6367zm4.6367 0h4.6367v-4.6406h-4.6367zm4.6367 0h4.6406v-4.6406h-4.6406zm9.2773 0h4.6406v-4.6406h-4.6406zm9.2773 0h4.6367v-4.6406h-4.6367zm9.2773 0h4.6367v-4.6406h-4.6367zm-51.023-4.6406h4.6406v-4.6367h-4.6406zm23.191 0h4.6406v-4.6367h-4.6406zm13.918 0h4.6367v-4.6367h-4.6367zm4.6367 0h4.6367v-4.6367h-4.6367zm4.6367 0h4.6406v-4.6367h-4.6406zm4.6406 0h4.6367v-4.6367h-4.6367zm4.6367 0h4.6406v-4.6367h-4.6406zm-88.125-4.6367h4.6367v-4.6406h-4.6367zm4.6367 0h4.6406v-4.6406h-4.6406zm4.6406 0h4.6367v-4.6406h-4.6367zm4.6367 0h4.6406v-4.6406h-4.6406zm9.2773 0h4.6367v-4.6406h-4.6367zm9.2773 0h4.6367v-4.6406h-4.6367zm27.828 0h4.6406v-4.6406h-4.6406zm4.6406 0h4.6367v-4.6406h-4.6367zm9.2773 0h4.6367v-4.6406h-4.6367zm9.2734 0h4.6406v-4.6406h-4.6406zm-88.125-4.6406h4.6367v-4.6367h-4.6367zm4.6367 0h4.6367v-4.6367h-4.6367zm9.2773 0h4.6367v-4.6367h-4.6367zm18.551 0h4.6406v-4.6367h-4.6406zm4.6406 0h4.6367v-4.6367h-4.6367zm13.914 0h4.6406v-4.6367h-4.6406zm4.6406 0h4.6367v-4.6367h-4.6367zm4.6367 0h4.6367v-4.6367h-4.6367zm13.914 0h4.6406v-4.6367h-4.6406zm4.6406 0h4.6367v-4.6367h-4.6367zm4.6367 0h4.6367v-4.6367h-4.6367zm4.6367 0h4.6406v-4.6367h-4.6406zm4.6406 0h4.6367v-4.6367h-4.6367zm-88.125-4.6367h4.6367v-4.6406h-4.6367zm4.6367 0h4.6367v-4.6406h-4.6367zm13.914 0h4.6406v-4.6406h-4.6406zm4.6406 0h4.6367v-4.6406h-4.6367zm4.6367 0h4.6406v-4.6406h-4.6406zm4.6406 0h4.6367v-4.6406h-4.6367zm9.2734 0h4.6367v-4.6406h-4.6367zm4.6367 0h4.6406v-4.6406h-4.6406zm4.6406 0h4.6367v-4.6406h-4.6367zm23.191 0h4.6367v-4.6406h-4.6367zm9.2734 0h4.6406v-4.6406h-4.6406zm-78.852-4.6406h4.6406v-4.6367h-4.6406zm9.2773 0h4.6406v-4.6367h-4.6406zm18.555 0h4.6367v-4.6367h-4.6367zm4.6367 0h4.6406v-4.6367h-4.6406zm4.6406 0h4.6367v-4.6367h-4.6367zm4.6367 0h4.6367v-4.6367h-4.6367zm9.2734 0h4.6406v-4.6367h-4.6406zm4.6406 0h4.6367v-4.6367h-4.6367zm4.6367 0h4.6406v-4.6367h-4.6406zm4.6406 0h4.6367v-4.6367h-4.6367zm4.6367 0h4.6367v-4.6367h-4.6367zm4.6367 0h4.6406v-4.6367h-4.6406zm4.6406 0h4.6367v-4.6367h-4.6367zm4.6367 0h4.6406v-4.6367h-4.6406zm-92.762-4.6367h4.6367v-4.6406h-4.6367zm4.6367 0h4.6367v-4.6406h-4.6367zm4.6367 0h4.6406v-4.6406h-4.6406zm4.6406 0h4.6367v-4.6406h-4.6367zm4.6367 0h4.6406v-4.6406h-4.6406zm9.2773 0h4.6367v-4.6406h-4.6367zm4.6367 0h4.6406v-4.6406h-4.6406zm4.6406 0h4.6367v-4.6406h-4.6367zm4.6367 0h4.6406v-4.6406h-4.6406zm13.918 0h4.6367v-4.6406h-4.6367zm4.6367 0h4.6367v-4.6406h-4.6367zm9.2773 0h4.6367v-4.6406h-4.6367zm9.2773 0h4.6367v-4.6406h-4.6367zm9.2734 0h4.6406v-4.6406h-4.6406zm-41.742-4.6406h4.6367v-4.6367h-4.6367zm4.6367 0h4.6367v-4.6367h-4.6367zm4.6367 0h4.6367v-4.6367h-4.6367zm-55.66-4.6367h4.6367v-4.6406h-4.6367zm4.6367 0h4.6406v-4.6406h-4.6406zm4.6406 0h4.6367v-4.6406h-4.6367zm4.6367 0h4.6406v-4.6406h-4.6406zm4.6406 0h4.6367v-4.6406h-4.6367zm4.6367 0h4.6367v-4.6406h-4.6367zm4.6367 0h4.6406v-4.6406h-4.6406zm9.2773 0h4.6406v-4.6406h-4.6406zm9.2773 0h4.6367v-4.6406h-4.6367zm9.2773 0h4.6367v-4.6406h-4.6367zm9.2773 0h4.6367v-4.6406h-4.6367zm4.6367 0h4.6406v-4.6406h-4.6406zm4.6406 0h4.6367v-4.6406h-4.6367zm4.6367 0h4.6367v-4.6406h-4.6367zm4.6367 0h4.6406v-4.6406h-4.6406zm4.6406 0h4.6367v-4.6406h-4.6367zm4.6367 0h4.6406v-4.6406h-4.6406zm-92.762-4.6406h4.6367v-4.6406h-4.6367zm27.828 0h4.6367v-4.6406h-4.6367zm9.2773 0h4.6367v-4.6406h-4.6367zm4.6367 0h4.6406v-4.6406h-4.6406zm4.6406 0h4.6367v-4.6406h-4.6367zm9.2773 0h4.6367v-4.6406h-4.6367zm9.2734 0h4.6406v-4.6406h-4.6406zm27.832 0h4.6367v-4.6406h-4.6367zm-92.766-4.6406h4.6406v-4.6367h-4.6406zm9.2773 0h4.6367v-4.6367h-4.6367zm4.6367 0h4.6406v-4.6367h-4.6406zm4.6406 0h4.6367v-4.6367h-4.6367zm9.2773 0h4.6367v-4.6367h-4.6367zm18.555 0h4.6367v-4.6367h-4.6367zm9.2773 0h4.6367v-4.6367h-4.6367zm9.2773 0h4.6367v-4.6367h-4.6367zm9.2773 0h4.6367v-4.6367h-4.6367zm4.6367 0h4.6367v-4.6367h-4.6367zm4.6367 0h4.6406v-4.6367h-4.6406zm9.2773 0h4.6406v-4.6367h-4.6406zm-92.762-4.6367h4.6367v-4.6406h-4.6367zm9.2734 0h4.6406v-4.6406h-4.6406zm4.6406 0h4.6367v-4.6406h-4.6367zm4.6367 0h4.6406v-4.6406h-4.6406zm9.2773 0h4.6367v-4.6406h-4.6367zm9.2773 0h4.6367v-4.6406h-4.6367zm13.914 0h4.6406v-4.6406h-4.6406zm13.914 0h4.6406v-4.6406h-4.6406zm9.2773 0h4.6406v-4.6406h-4.6406zm4.6406 0h4.6367v-4.6406h-4.6367zm4.6367 0h4.6367v-4.6406h-4.6367zm9.2773 0h4.6367v-4.6406h-4.6367zm-92.766-4.6406h4.6406v-4.6367h-4.6406zm9.2773 0h4.6367v-4.6367h-4.6367zm4.6367 0h4.6406v-4.6367h-4.6406zm4.6406 0h4.6367v-4.6367h-4.6367zm9.2773 0h4.6367v-4.6367h-4.6367zm13.914 0h4.6367v-4.6367h-4.6367zm23.191 0h4.6367v-4.6367h-4.6367zm9.2773 0h4.6367v-4.6367h-4.6367zm4.6367 0h4.6406v-4.6367h-4.6406zm4.6406 0h4.6367v-4.6367h-4.6367zm9.2734 0h4.6406v-4.6367h-4.6406zm-92.762-4.6367h4.6367v-4.6406h-4.6367zm27.828 0h4.6406v-4.6406h-4.6406zm9.2773 0h4.6406v-4.6406h-4.6406zm13.914 0h4.6406v-4.6406h-4.6406zm13.918 0h4.6367v-4.6406h-4.6367zm27.828 0h4.6406v-4.6406h-4.6406zm-92.766-4.6406h4.6406v-4.6367h-4.6406zm4.6406 0h4.6367v-4.6367h-4.6367zm4.6367 0h4.6406v-4.6367h-4.6406zm4.6406 0h4.6367v-4.6367h-4.6367zm4.6367 0h4.6406v-4.6367h-4.6406zm4.6406 0h4.6367v-4.6367h-4.6367zm4.6367 0h4.6367v-4.6367h-4.6367zm13.914 0h4.6406v-4.6367h-4.6406zm13.914 0h4.6406v-4.6367h-4.6406zm9.2773 0h4.6406v-4.6367h-4.6406zm4.6406 0h4.6367v-4.6367h-4.6367zm4.6367 0h4.6406v-4.6367h-4.6406zm4.6406 0h4.6367v-4.6367h-4.6367zm4.6367 0h4.6367v-4.6367h-4.6367zm4.6367 0h4.6406v-4.6367h-4.6406zm4.6406 0h4.6367v-4.6367h-4.6367z"/>
</g>
</svg>
