<svg xmlns="http://www.w3.org/2000/svg" xmlns:xlink="http://www.w3.org/1999/xlink" width="68.554" height="67.143" viewBox="0 0 68.554 67.143">
  <defs>
    <clipPath id="clip-path">
      <rect id="Rectangle_23" data-name="Rectangle 23" width="68.554" height="67.143" transform="translate(0 0)" fill="none"/>
    </clipPath>
  </defs>
  <g id="Vector_Smart_Object" data-name="Vector Smart Object" transform="translate(-2358.087 -529.802)">
    <g id="Vector_Smart_Object-2" data-name="Vector Smart Object" transform="translate(2358.088 529.802)">
      <g id="Group_48" data-name="Group 48">
        <g id="Group_47" data-name="Group 47" clip-path="url(#clip-path)">
          <path id="Path_85" data-name="Path 85" d="M49.908,57.006H36.852a4.551,4.551,0,0,0-3.337,1.455,4.551,4.551,0,0,0-3.337-1.455H6.772V24.431H28.837a3.455,3.455,0,0,1,3.451,3.45V54.8a1.227,1.227,0,0,0,2.454,0V27.882a3.455,3.455,0,0,1,3.451-3.45H60.259V49.353a1.227,1.227,0,0,0,2.453,0V23.2a1.227,1.227,0,0,0-1.227-1.226H38.193a5.9,5.9,0,0,0-4.678,2.307,5.9,5.9,0,0,0-4.678-2.307H5.545A1.227,1.227,0,0,0,4.318,23.2V58.233a1.227,1.227,0,0,0,1.227,1.226H30.179a2.112,2.112,0,0,1,2.11,2.11,1.227,1.227,0,0,0,2.454,0,2.112,2.112,0,0,1,2.11-2.11H49.908a1.226,1.226,0,1,0,0-2.453"/>
          <path id="Path_86" data-name="Path 86" d="M68.195,62.066l-3.3-3.3,2.047-2.047a1.226,1.226,0,0,0-.363-1.985L50.412,47.453a1.227,1.227,0,0,0-1.623,1.622l7.287,16.165a1.227,1.227,0,0,0,1.986.363l2.117-2.116,3.3,3.3a1.227,1.227,0,0,0,1.735,0L68.195,63.8a1.226,1.226,0,0,0,0-1.734m-3.852,2.116-3.3-3.3a1.227,1.227,0,0,0-1.735,0l-1.728,1.728L52.358,51.02l11.6,5.225L62.3,57.9a1.226,1.226,0,0,0,0,1.735l3.3,3.3Z"/>
          <path id="Path_87" data-name="Path 87" d="M49.9,60.931H37.932a1.226,1.226,0,0,0-.241.024l-.491.1a1.226,1.226,0,0,0-.986,1.2,2.407,2.407,0,0,1-2.4,2.4h-.687a2.407,2.407,0,0,1-2.4-2.4,1.227,1.227,0,0,0-1.227-1.226H3.68A1.228,1.228,0,0,1,2.453,59.8V27.424a1.227,1.227,0,0,0-2.453,0V59.8a3.684,3.684,0,0,0,3.68,3.679H28.422a4.866,4.866,0,0,0,4.7,3.63h.687a4.866,4.866,0,0,0,4.726-3.728H49.9a1.226,1.226,0,1,0,0-2.453"/>
          <path id="Path_88" data-name="Path 88" d="M23.7,38.168a1.226,1.226,0,1,0,0-2.453H15.555a1.226,1.226,0,1,0,0,2.453Z"/>
          <path id="Path_89" data-name="Path 89" d="M26.155,40.522H12.709a1.226,1.226,0,1,0,0,2.453H26.155a1.226,1.226,0,1,0,0-2.453"/>
          <path id="Path_90" data-name="Path 90" d="M26.155,45.33H12.709a1.226,1.226,0,1,0,0,2.453H26.155a1.226,1.226,0,1,0,0-2.453"/>
          <path id="Path_91" data-name="Path 91" d="M26.155,50.138H12.709a1.227,1.227,0,1,0,0,2.453H26.155a1.227,1.227,0,1,0,0-2.453"/>
          <path id="Path_92" data-name="Path 92" d="M65.509,52.591a1.227,1.227,0,0,0,1.227-1.226V27.424a1.227,1.227,0,0,0-2.453,0V51.364a1.227,1.227,0,0,0,1.227,1.226"/>
          <path id="Path_93" data-name="Path 93" d="M33.515,9.517a1.227,1.227,0,0,0,1.227-1.226V1.227a1.227,1.227,0,0,0-2.454,0V8.291a1.227,1.227,0,0,0,1.227,1.226"/>
          <path id="Path_94" data-name="Path 94" d="M11.89,13.828l6.082,3.6a1.227,1.227,0,1,0,1.249-2.111l-6.082-3.6a1.227,1.227,0,1,0-1.249,2.111"/>
          <path id="Path_95" data-name="Path 95" d="M23.873,10.67a1.227,1.227,0,0,0,1.957-1.48L23.574,6.209a1.227,1.227,0,0,0-1.957,1.48Z"/>
          <path id="Path_96" data-name="Path 96" d="M48.435,17.6a1.221,1.221,0,0,0,.623-.171l6.082-3.6a1.227,1.227,0,1,0-1.249-2.111l-6.082,3.6a1.227,1.227,0,0,0,.626,2.282"/>
          <path id="Path_97" data-name="Path 97" d="M41.439,10.909a1.227,1.227,0,0,0,1.719-.238l2.256-2.981a1.227,1.227,0,0,0-1.957-1.48L41.2,9.191a1.226,1.226,0,0,0,.238,1.718"/>
        </g>
      </g>
    </g>
    <path id="Color_Overlay" data-name="Color Overlay" d="M2421.563,596.586l-3.3-3.3-2.117,2.116a1.228,1.228,0,0,1-1.986-.363l-7.286-16.166a1.227,1.227,0,0,1,1.623-1.622l16.169,7.285a1.226,1.226,0,0,1,.364,1.985l-2.048,2.047,3.3,3.3a1.226,1.226,0,0,1,0,1.734l-2.984,2.983a1.228,1.228,0,0,1-1.735,0Zm-2.428-5.9,3.3,3.295,1.249-1.248-3.3-3.3a1.225,1.225,0,0,1,0-1.734l1.658-1.659-11.6-5.224,5.226,11.594,1.728-1.727a1.225,1.225,0,0,1,1.735,0Zm-27.924,6.225a4.866,4.866,0,0,1-4.7-3.631h-24.742a3.684,3.684,0,0,1-3.68-3.679V557.226a1.227,1.227,0,1,1,2.453,0V589.6a1.228,1.228,0,0,0,1.227,1.227h25.811a1.226,1.226,0,0,1,1.227,1.227,2.408,2.408,0,0,0,2.4,2.4h.687a2.407,2.407,0,0,0,2.4-2.4,1.228,1.228,0,0,1,.986-1.2l.491-.1a1.269,1.269,0,0,1,.24-.023h11.974a1.226,1.226,0,1,1,0,2.452h-11.37a4.867,4.867,0,0,1-4.726,3.729Zm-.834-5.544a2.112,2.112,0,0,0-2.11-2.109h-24.634a1.227,1.227,0,0,1-1.227-1.227V553.007a1.227,1.227,0,0,1,1.227-1.227h23.292a5.9,5.9,0,0,0,9.356,0h23.292a1.226,1.226,0,0,1,1.227,1.227v26.149a1.227,1.227,0,0,1-2.453,0V554.234h-22.065a3.455,3.455,0,0,0-3.452,3.451V584.6a1.227,1.227,0,1,1-2.453,0V557.684a3.455,3.455,0,0,0-3.451-3.451h-22.065v32.575h23.407a4.555,4.555,0,0,0,6.674,0H2408a1.227,1.227,0,1,1,0,2.453H2394.94a2.112,2.112,0,0,0-2.111,2.109,1.227,1.227,0,1,1-2.453,0Zm31.994-10.2v-23.94a1.227,1.227,0,1,1,2.453,0v23.94a1.227,1.227,0,1,1-2.453,0Zm-51.574,1.227a1.226,1.226,0,1,1,0-2.453h13.446a1.226,1.226,0,1,1,0,2.453Zm0-4.808a1.226,1.226,0,1,1,0-2.453h13.446a1.226,1.226,0,1,1,0,2.453Zm0-4.808a1.226,1.226,0,1,1,0-2.453h13.446a1.226,1.226,0,1,1,0,2.453Zm2.847-4.808a1.226,1.226,0,1,1,0-2.453h8.146a1.226,1.226,0,1,1,0,2.453Zm31.823-21.174a1.226,1.226,0,0,1,.431-1.68l6.082-3.6a1.226,1.226,0,1,1,1.248,2.111l-6.081,3.6a1.226,1.226,0,0,1-1.68-.431Zm-29.406.431-6.082-3.6a1.227,1.227,0,0,1,1.249-2.111l6.082,3.6a1.227,1.227,0,1,1-1.249,2.111Zm23.467-6.515a1.227,1.227,0,0,1-.238-1.718l2.255-2.982a1.227,1.227,0,0,1,1.958,1.48l-2.256,2.982a1.227,1.227,0,0,1-1.719.238Zm-17.565-.238-2.256-2.982a1.227,1.227,0,0,1,1.957-1.48l2.256,2.982a1.227,1.227,0,1,1-1.957,1.48Zm8.415-2.38v-7.064a1.227,1.227,0,1,1,2.453,0v7.064a1.227,1.227,0,1,1-2.453,0Z" fill="#f93"/>
  </g>
</svg>
