<svg xmlns="http://www.w3.org/2000/svg" xmlns:xlink="http://www.w3.org/1999/xlink" width="46.697" height="57.927" viewBox="0 0 46.697 57.927">
  <defs>
    <clipPath id="clip-path">
      <rect id="Rectangle_29" data-name="Rectangle 29" width="46.696" height="57.927" transform="translate(0 0)" fill="none"/>
    </clipPath>
  </defs>
  <g id="Vector_Smart_Object" data-name="Vector Smart Object" transform="translate(-654 -880.073)">
    <g id="Vector_Smart_Object-2" data-name="Vector Smart Object" transform="translate(654 880.073)">
      <g id="Group_60" data-name="Group 60">
        <g id="Group_59" data-name="Group 59" clip-path="url(#clip-path)">
          <path id="Path_121" data-name="Path 121" d="M14.213,44.038a1.194,1.194,0,0,1-1.193-1.193V26.324a1.193,1.193,0,0,1,2.387,0V42.845a1.194,1.194,0,0,1-1.193,1.193" fill="#424242"/>
          <path id="Path_122" data-name="Path 122" d="M23.348,44.038a1.194,1.194,0,0,1-1.193-1.193V26.324a1.193,1.193,0,0,1,2.387,0V42.845a1.194,1.194,0,0,1-1.193,1.193" fill="#424242"/>
          <path id="Path_123" data-name="Path 123" d="M32.483,44.038a1.194,1.194,0,0,1-1.193-1.193V26.324a1.193,1.193,0,0,1,2.387,0V42.845a1.194,1.194,0,0,1-1.193,1.193" fill="#424242"/>
          <path id="Path_124" data-name="Path 124" d="M43.612,14.948H3.084A3.087,3.087,0,0,1,0,11.865V9.1A3.087,3.087,0,0,1,3.084,6.018H43.612A3.087,3.087,0,0,1,46.7,9.1v2.764a3.087,3.087,0,0,1-3.084,3.083M3.084,8.4a.7.7,0,0,0-.7.7v2.764a.7.7,0,0,0,.7.7H43.612a.7.7,0,0,0,.7-.7V9.1a.7.7,0,0,0-.7-.7Z" fill="#424242"/>
          <path id="Path_125" data-name="Path 125" d="M16.355,6.018a.61.61,0,0,1,0-.067V3.083a.7.7,0,0,1,.7-.7h12.6a.7.7,0,0,1,.7.7V5.951a.611.611,0,0,1,0,.067h2.385c0-.023.006-.044.006-.067V3.083A3.087,3.087,0,0,0,29.648,0h-12.6a3.087,3.087,0,0,0-3.083,3.083V5.951c0,.023.006.044.007.067Z" fill="#424242"/>
          <path id="Path_126" data-name="Path 126" d="M41.074,14.948,38.427,53.512a2.175,2.175,0,0,1-2.165,2.028H10.433a2.176,2.176,0,0,1-2.166-2.031L5.622,14.948H3.23L5.886,53.669a4.569,4.569,0,0,0,4.547,4.257H36.262a4.568,4.568,0,0,0,4.547-4.255l2.657-38.724Z" fill="#424242"/>
        </g>
      </g>
    </g>
    <path id="Color_Overlay" data-name="Color Overlay" d="M664.433,938a4.569,4.569,0,0,1-4.547-4.257l-2.656-38.722h-.146A3.088,3.088,0,0,1,654,891.938v-2.764a3.087,3.087,0,0,1,3.084-3.083h10.886c0-.023-.006-.044-.006-.067v-2.867a3.088,3.088,0,0,1,3.083-3.083h12.6a3.087,3.087,0,0,1,3.083,3.083v2.867c0,.023-.005.044-.006.067h10.887a3.087,3.087,0,0,1,3.084,3.083v2.764a3.088,3.088,0,0,1-3.084,3.083h-.146l-2.657,38.723A4.568,4.568,0,0,1,690.263,938Zm-2.165-4.418a2.177,2.177,0,0,0,2.165,2.031h25.83a2.175,2.175,0,0,0,2.164-2.028l2.647-38.564H659.623Zm-5.881-44.408v2.764a.7.7,0,0,0,.7.7h40.528a.7.7,0,0,0,.7-.7v-2.764a.7.7,0,0,0-.7-.7H657.085A.7.7,0,0,0,656.387,889.174Zm13.964-6.017v2.867c0,.023,0,.045,0,.067h13.986c0-.022,0-.044,0-.067v-2.867a.7.7,0,0,0-.7-.7h-12.6A.7.7,0,0,0,670.352,883.156Zm14.938,39.761V906.4a1.193,1.193,0,1,1,2.387,0v16.52a1.193,1.193,0,1,1-2.387,0Zm-9.135,0V906.4a1.193,1.193,0,1,1,2.387,0v16.52a1.193,1.193,0,1,1-2.387,0Zm-9.134,0V906.4a1.193,1.193,0,1,1,2.387,0v16.52a1.193,1.193,0,1,1-2.387,0Z" fill="#5c5c5c"/>
  </g>
</svg>
