<svg xmlns="http://www.w3.org/2000/svg" xmlns:xlink="http://www.w3.org/1999/xlink" width="44.001" height="59.001" viewBox="0 0 44.001 59.001">
  <defs>
    <clipPath id="clip-path">
      <rect id="Rectangle_16" data-name="Rectangle 16" width="44" height="59" fill="none"/>
    </clipPath>
  </defs>
  <g id="Vector_Smart_Object" data-name="Vector Smart Object" transform="translate(-2095.999 -537.999)">
    <g id="Vector_Smart_Object-2" data-name="Vector Smart Object" transform="translate(2092 534)">
      <g id="Vector_Smart_Object-3" data-name="Vector Smart Object">
        <g id="Vector_Smart_Object-4" data-name="Vector Smart Object" transform="translate(4 4)">
          <g id="Group_34" data-name="Group 34">
            <g id="Group_33" data-name="Group 33" clip-path="url(#clip-path)">
              <path id="Path_46" data-name="Path 46" d="M18.394,27.9a.953.953,0,0,0,.755.369h.007a.954.954,0,0,0,.757-.379L33.882,9.566l0,0a.965.965,0,0,0-.157-1.332L29.089,4.419A.958.958,0,0,0,27.7,4.6L19.132,16.378l-3.5-4.392a.958.958,0,0,0-1.449-.063l-4,4.236a.977.977,0,0,0-.055,1.265ZM14.825,13.967l3.589,4.507a.958.958,0,0,0,1.527-.033L28.647,6.476,31.87,9.124l-12.733,16.7-7.062-8.949Z" fill="#1a1a1a"/>
              <path id="Path_47" data-name="Path 47" d="M37.489,0H6.511A6.535,6.535,0,0,0,0,6.544V52.456A6.535,6.535,0,0,0,6.511,59h7.458L44,51.044V6.544A6.535,6.535,0,0,0,37.489,0M17.348,56.167,31.676,43.253a3.391,3.391,0,0,1,4.934.417l4.838,6.112ZM42.136,47.64,38.07,42.5a5.249,5.249,0,0,0-7.638-.645L13.491,57.126H6.511a4.664,4.664,0,0,1-4.646-4.67V6.544a4.663,4.663,0,0,1,4.646-4.67H37.489a4.664,4.664,0,0,1,4.646,4.67Z" fill="#1a1a1a"/>
              <path id="Path_48" data-name="Path 48" d="M36.353,31.465H8.668a.937.937,0,0,0,0,1.874H36.353a.937.937,0,0,0,0-1.874" fill="#1a1a1a"/>
              <path id="Path_49" data-name="Path 49" d="M36.353,36.806H8.668a.937.937,0,0,0,0,1.874H36.353a.937.937,0,0,0,0-1.874" fill="#1a1a1a"/>
              <path id="Path_50" data-name="Path 50" d="M22.511,42.146H8.668a.937.937,0,0,0,0,1.874H22.511a.937.937,0,0,0,0-1.874" fill="#1a1a1a"/>
              <path id="Path_51" data-name="Path 51" d="M16.778,47.486H8.668a.937.937,0,0,0,0,1.874h8.11a.937.937,0,0,0,0-1.874" fill="#1a1a1a"/>
            </g>
          </g>
        </g>
        <path id="Color_Overlay" data-name="Color Overlay" d="M10.51,63A6.535,6.535,0,0,1,4,56.455V10.543A6.535,6.535,0,0,1,10.51,4H41.489A6.535,6.535,0,0,1,48,10.543v44.5L17.969,63ZM5.864,10.543V56.455a4.664,4.664,0,0,0,4.646,4.671h6.98L34.431,45.858a5.25,5.25,0,0,1,7.638.645l4.065,5.136v-41.1a4.664,4.664,0,0,0-4.646-4.67H10.51A4.664,4.664,0,0,0,5.864,10.543ZM35.676,47.253,21.348,60.167l24.1-6.386-4.837-6.112a3.368,3.368,0,0,0-2.378-1.278c-.1-.008-.2-.013-.3-.013A3.353,3.353,0,0,0,35.676,47.253ZM12.668,53.36a.937.937,0,0,1,0-1.874h8.11a.937.937,0,0,1,0,1.874Zm0-5.341a.937.937,0,0,1,0-1.874H26.51a.937.937,0,0,1,0,1.874Zm0-5.341a.937.937,0,0,1,0-1.874H40.352a.937.937,0,0,1,0,1.874Zm0-5.34a.937.937,0,0,1,0-1.874H40.352a.937.937,0,0,1,0,1.874ZM23.15,32.268a.953.953,0,0,1-.756-.369L14.127,21.424a.978.978,0,0,1,.055-1.265l4-4.236a.958.958,0,0,1,1.449.064l3.5,4.391L31.7,8.6a.972.972,0,0,1,.658-.388.959.959,0,0,1,.726.211l4.639,3.812a.964.964,0,0,1,.158,1.332l0,0L23.913,31.889a.954.954,0,0,1-.757.379ZM16.075,20.876l7.062,8.949,12.733-16.7-3.224-2.649L23.94,22.441a.959.959,0,0,1-1.527.033l-3.588-4.507Z" fill="#019d29"/>
      </g>
    </g>
    <path id="Color_Overlay-2" data-name="Color Overlay" d="M2102.51,597a6.535,6.535,0,0,1-6.51-6.545V544.543a6.535,6.535,0,0,1,6.51-6.544h30.979a6.535,6.535,0,0,1,6.51,6.544v44.5L2109.968,597Zm-4.645-52.456v45.912a4.663,4.663,0,0,0,4.645,4.671h6.981l16.94-15.268a5.25,5.25,0,0,1,7.638.645l4.066,5.136v-41.1a4.664,4.664,0,0,0-4.647-4.67H2102.51A4.663,4.663,0,0,0,2097.865,544.543Zm29.811,36.709-14.328,12.914,24.1-6.385-4.837-6.112a3.367,3.367,0,0,0-2.378-1.278c-.1-.008-.2-.013-.3-.013A3.354,3.354,0,0,0,2127.676,581.252Zm-23.008,6.107a.937.937,0,0,1,0-1.874h8.11a.937.937,0,0,1,0,1.874Zm0-5.341a.937.937,0,0,1,0-1.874h13.843a.937.937,0,0,1,0,1.874Zm0-5.341a.937.937,0,0,1,0-1.874h27.685a.937.937,0,0,1,0,1.874Zm0-5.34a.937.937,0,0,1,0-1.874h27.685a.937.937,0,0,1,0,1.874Zm10.483-5.072a.954.954,0,0,1-.757-.369l-8.267-10.475a.978.978,0,0,1,.055-1.265l4-4.236a.959.959,0,0,1,1.45.064l3.5,4.391L2123.7,542.6a.972.972,0,0,1,.659-.388.958.958,0,0,1,.725.211l4.639,3.811a.959.959,0,0,1,.354.745.971.971,0,0,1-.2.587l0,0-13.969,18.323a.953.953,0,0,1-.757.379Zm-7.076-11.391,7.063,8.949,12.733-16.7-3.224-2.649-8.707,11.966a.959.959,0,0,1-1.527.033l-3.588-4.507Z" fill="#10b114"/>
  </g>
</svg>
