<svg id="Vector_Smart_Object" data-name="Vector Smart Object" xmlns="http://www.w3.org/2000/svg" xmlns:xlink="http://www.w3.org/1999/xlink" width="44.993" height="44.993" viewBox="0 0 44.993 44.993">
  <defs>
    <clipPath id="clip-path">
      <rect id="Rectangle_33" data-name="Rectangle 33" width="44.993" height="44.993" transform="translate(0 0)" fill="none"/>
    </clipPath>
  </defs>
  <g id="Group_68" data-name="Group 68">
    <g id="Group_67" data-name="Group 67" clip-path="url(#clip-path)">
      <path id="Path_197" data-name="Path 197" d="M30.14,20.808a8.2,8.2,0,0,1,.175,1.689A7.82,7.82,0,1,1,22.5,14.513a7.685,7.685,0,0,1,1.46.139" fill="none" stroke="#555" stroke-linecap="round" stroke-linejoin="round" stroke-width="1.895"/>
      <path id="Path_198" data-name="Path 198" d="M44.056,19.705a1.618,1.618,0,0,0-1.6-1.636H41.348a3.237,3.237,0,0,1-2.906-2.133,3.323,3.323,0,0,1,.584-3.582l.785-.8a1.659,1.659,0,0,0,0-2.312L35.946,5.292a1.578,1.578,0,0,0-2.264,0l-.785.8a3.154,3.154,0,0,1-3.508.6A3.3,3.3,0,0,1,27.3,3.723V2.593A1.618,1.618,0,0,0,25.7.957H19.3a1.618,1.618,0,0,0-1.6,1.636V3.723a3.3,3.3,0,0,1-2.089,2.968,3.154,3.154,0,0,1-3.508-.6l-.785-.8a1.578,1.578,0,0,0-2.264,0L5.183,9.24a1.659,1.659,0,0,0,0,2.312l.785.8a3.322,3.322,0,0,1,.584,3.582,3.237,3.237,0,0,1-2.906,2.133H2.538a1.618,1.618,0,0,0-1.6,1.636v5.582a1.619,1.619,0,0,0,1.6,1.636H3.645a3.237,3.237,0,0,1,2.906,2.134,3.322,3.322,0,0,1-.584,3.582l-.784.8a1.659,1.659,0,0,0,0,2.312l1.572,1.606L9.048,39.7a1.577,1.577,0,0,0,2.264,0l.785-.8a3.153,3.153,0,0,1,3.508-.6,3.3,3.3,0,0,1,2.088,2.968V42.4a1.618,1.618,0,0,0,1.6,1.635h6.4A1.618,1.618,0,0,0,27.3,42.4V41.271A3.3,3.3,0,0,1,29.389,38.3a3.153,3.153,0,0,1,3.508.6l.785.8a1.577,1.577,0,0,0,2.264,0l2.293-2.342,1.572-1.606a1.659,1.659,0,0,0,0-2.312l-.784-.8a3.323,3.323,0,0,1-.585-3.582,3.238,3.238,0,0,1,2.906-2.134h1.107a1.619,1.619,0,0,0,1.6-1.636Z" fill="none" stroke="#555" stroke-linecap="round" stroke-linejoin="round" stroke-width="1.895"/>
    </g>
  </g>
</svg>
