<svg xmlns="http://www.w3.org/2000/svg" width="67.317" height="40.318" viewBox="0 0 67.317 40.318">
  <path id="Color_Overlay" data-name="Color Overlay" d="M1853.816,589.758l-8.055-4.232a2.659,2.659,0,0,0-2.471,0l-8.054,4.232a3.414,3.414,0,0,1-5.018-3,3.559,3.559,0,0,1,.052-.61l1.538-8.963a2.655,2.655,0,0,0-.763-2.347l-2.668-2.6-.639,6.075-1.407-.739a1.847,1.847,0,0,0-1.718,0l-5.6,2.944a2.375,2.375,0,0,1-3.454-2.508l1.07-6.234a1.884,1.884,0,0,0,.027-.309,1.844,1.844,0,0,0-.558-1.325l-4.532-4.415a2.336,2.336,0,0,1-.722-1.694,2.375,2.375,0,0,1,2.041-2.364l6.264-.909a1.848,1.848,0,0,0,1.391-1.01l2.8-5.673a2.382,2.382,0,0,1,4.27,0l2.211,4.478-.386,3.664,6-.871a2.658,2.658,0,0,0,2-1.451l4.027-8.155a3.423,3.423,0,0,1,6.138,0l4.027,8.155a2.656,2.656,0,0,0,2,1.451l5.945.863-.385-3.656,2.211-4.478a2.382,2.382,0,0,1,4.27,0l2.8,5.673a1.847,1.847,0,0,0,1.391,1.01l6.264.909a2.375,2.375,0,0,1,2.041,2.364,2.336,2.336,0,0,1-.722,1.694l-4.533,4.415a1.847,1.847,0,0,0-.557,1.325,1.781,1.781,0,0,0,.026.309l1.07,6.234a2.465,2.465,0,0,1,.036.424,2.383,2.383,0,0,1-3.49,2.084l-5.6-2.944a1.846,1.846,0,0,0-1.718,0l-1.407.739-.635-6.028-2.62,2.551a2.655,2.655,0,0,0-.763,2.347l1.539,8.963a3.637,3.637,0,0,1,.052.609,3.414,3.414,0,0,1-5.018,3Zm10.31-5.378,2.277,2.275Zm0,0,2.277,2.275Zm-39.275.077-2.2,2.2Zm0,0-2.2,2.2Zm30.532-32.538-.675,2.128Zm0,0-.675,2.128Zm-21.712,0,.675,2.128Zm0,0,.675,2.128Z" transform="translate(-1810.841 -549.841)" fill="#ff0054"/>
</svg>
