<svg xmlns="http://www.w3.org/2000/svg" xmlns:xlink="http://www.w3.org/1999/xlink" width="69" height="42" viewBox="0 0 69 42">
  <defs>
    <clipPath id="clip-path">
      <rect id="Rectangle_12" data-name="Rectangle 12" width="69" height="42" fill="none"/>
    </clipPath>
  </defs>
  <g id="Vector_Smart_Object" data-name="Vector Smart Object" transform="translate(-1812 -549)">
    <g id="Vector_Smart_Object-2" data-name="Vector Smart Object" transform="translate(1808 546)">
      <g id="Vector_Smart_Object-3" data-name="Vector Smart Object">
        <g id="Vector_Smart_Object-4" data-name="Vector Smart Object" transform="translate(4 3)">
          <g id="Group_26" data-name="Group 26">
            <g id="Group_25" data-name="Group 25" clip-path="url(#clip-path)">
              <path id="Path_34" data-name="Path 34" d="M37.6,2.747,41.623,10.9a2.654,2.654,0,0,0,2,1.451l9.005,1.308a3.42,3.42,0,0,1,1.9,5.834l-6.517,6.348a2.652,2.652,0,0,0-.763,2.348l1.538,8.963a3.422,3.422,0,0,1-4.966,3.605l-8.055-4.232a2.656,2.656,0,0,0-2.47,0l-8.055,4.232a3.422,3.422,0,0,1-4.966-3.605l1.538-8.963a2.651,2.651,0,0,0-.763-2.348l-6.516-6.348a3.42,3.42,0,0,1,1.9-5.834l9.005-1.308a2.654,2.654,0,0,0,2-1.451l4.027-8.155A3.424,3.424,0,0,1,37.6,2.747Z" fill="none" stroke="#0078d2" stroke-linecap="round" stroke-linejoin="round" stroke-width="1.682"/>
              <path id="Path_35" data-name="Path 35" d="M19.819,9.561,17.608,5.084a2.381,2.381,0,0,0-4.27,0l-2.8,5.672a1.846,1.846,0,0,1-1.39,1.009l-6.264.91a2.379,2.379,0,0,0-1.319,4.058L6.1,21.148a1.844,1.844,0,0,1,.531,1.633l-1.07,6.235a2.38,2.38,0,0,0,3.454,2.508l5.6-2.943a1.847,1.847,0,0,1,1.718,0l1.407.739" fill="none" stroke="#373c46" stroke-linecap="round" stroke-linejoin="round" stroke-width="1.682"/>
              <line id="Line_1" data-name="Line 1" x1="0.675" y2="2.128" transform="translate(44.707 2.92)" fill="none" stroke="#0078d2" stroke-linecap="round" stroke-linejoin="round" stroke-width="1.682"/>
              <line id="Line_2" data-name="Line 2" x2="2.277" y2="2.275" transform="translate(54.126 35.381)" fill="none" stroke="#0078d2" stroke-linecap="round" stroke-linejoin="round" stroke-width="1.682"/>
              <line id="Line_3" data-name="Line 3" y1="2.199" x2="2.201" transform="translate(12.65 35.457)" fill="none" stroke="#0078d2" stroke-linecap="round" stroke-linejoin="round" stroke-width="1.682"/>
              <path id="Path_36" data-name="Path 36" d="M49.181,9.561l2.211-4.477a2.381,2.381,0,0,1,4.27,0l2.8,5.672a1.846,1.846,0,0,0,1.39,1.009l6.264.91a2.379,2.379,0,0,1,1.319,4.058L62.9,21.148a1.844,1.844,0,0,0-.531,1.633l1.07,6.235a2.38,2.38,0,0,1-3.454,2.508l-5.6-2.943a1.846,1.846,0,0,0-1.718,0l-1.407.739" fill="none" stroke="#373c46" stroke-linecap="round" stroke-linejoin="round" stroke-width="1.682"/>
              <line id="Line_4" data-name="Line 4" x2="0.675" y2="2.128" transform="translate(23.671 2.92)" fill="none" stroke="#0078d2" stroke-linecap="round" stroke-linejoin="round" stroke-width="1.682"/>
            </g>
          </g>
        </g>
        <path id="Color_Overlay" data-name="Color Overlay" d="M47.816,43.758l-8.055-4.232a2.658,2.658,0,0,0-2.471,0l-8.054,4.232a3.414,3.414,0,0,1-4.966-3.605l1.538-8.963a2.651,2.651,0,0,0-.763-2.347l-2.668-2.6-.639,6.075-1.407-.739a1.847,1.847,0,0,0-1.718,0l-5.6,2.944a2.381,2.381,0,0,1-3.454-2.508l1.07-6.234a1.844,1.844,0,0,0-.531-1.633L5.563,19.733a2.379,2.379,0,0,1,1.319-4.058l6.264-.909a1.848,1.848,0,0,0,1.391-1.01l2.8-5.673a2.382,2.382,0,0,1,4.27,0l2.211,4.477-.386,3.664,6-.871a2.657,2.657,0,0,0,2-1.451l4.028-8.155a3.423,3.423,0,0,1,6.138,0L45.623,13.9a2.656,2.656,0,0,0,2,1.451l5.944.863L53.18,12.56l2.211-4.477a2.382,2.382,0,0,1,4.27,0l2.8,5.673a1.846,1.846,0,0,0,1.391,1.01l6.264.909a2.379,2.379,0,0,1,1.319,4.058L66.9,24.148a1.847,1.847,0,0,0-.531,1.633l1.07,6.234a2.381,2.381,0,0,1-3.454,2.508l-5.6-2.944a1.847,1.847,0,0,0-1.718,0l-1.407.739-.635-6.028-2.62,2.552a2.653,2.653,0,0,0-.763,2.347l1.539,8.963a3.414,3.414,0,0,1-4.966,3.605Zm10.31-5.377L60.4,40.656Zm-39.275.076-2.2,2.2ZM49.382,5.919l-.675,2.128Zm-21.712,0,.675,2.128Z" fill="#b40140"/>
      </g>
    </g>
    <path id="Color_Overlay-2" data-name="Color Overlay" d="M1855.816,589.758l-8.055-4.232a2.658,2.658,0,0,0-2.47,0l-8.054,4.232a3.414,3.414,0,0,1-5.018-3,3.571,3.571,0,0,1,.052-.61l1.538-8.963a2.657,2.657,0,0,0-.763-2.347l-2.668-2.6-.639,6.075-1.407-.739a1.847,1.847,0,0,0-1.718,0l-5.6,2.944a2.375,2.375,0,0,1-3.454-2.508l1.07-6.234a1.883,1.883,0,0,0,.027-.309,1.844,1.844,0,0,0-.558-1.325l-4.532-4.415a2.337,2.337,0,0,1-.722-1.694,2.375,2.375,0,0,1,2.041-2.364l6.264-.909a1.848,1.848,0,0,0,1.391-1.01l2.8-5.673a2.382,2.382,0,0,1,4.27,0l2.211,4.478-.386,3.664,6-.871a2.657,2.657,0,0,0,2-1.451l4.027-8.155a3.423,3.423,0,0,1,6.138,0l4.027,8.155a2.656,2.656,0,0,0,2,1.451l5.944.863-.385-3.656,2.211-4.478a2.382,2.382,0,0,1,4.27,0l2.8,5.673a1.846,1.846,0,0,0,1.391,1.01l6.264.909a2.375,2.375,0,0,1,2.041,2.364,2.336,2.336,0,0,1-.722,1.694l-4.533,4.415a1.847,1.847,0,0,0-.557,1.325,1.793,1.793,0,0,0,.026.309l1.07,6.234a2.453,2.453,0,0,1,.036.424,2.383,2.383,0,0,1-3.49,2.084l-5.6-2.944a1.847,1.847,0,0,0-1.718,0l-1.407.739-.634-6.028-2.62,2.551a2.657,2.657,0,0,0-.763,2.347l1.539,8.963a3.649,3.649,0,0,1,.052.609,3.414,3.414,0,0,1-5.018,3Zm10.309-5.378,2.277,2.275Zm0,0,2.277,2.275Zm-39.275.077-2.2,2.2Zm0,0-2.2,2.2Zm30.532-32.538-.675,2.128Zm0,0-.675,2.128Zm-21.712,0,.675,2.128Zm0,0,.675,2.128Z" fill="#e9eaf4"/>
  </g>
</svg>
