<?xml version="1.0" standalone="no"?>
<!DOCTYPE svg PUBLIC "-//W3C//DTD SVG 1.1//EN" "http://www.w3.org/Graphics/SVG/1.1/DTD/svg11.dtd" >
<svg xmlns="http://www.w3.org/2000/svg" xmlns:xlink="http://www.w3.org/1999/xlink" version="1.1">
<metadata></metadata>
<defs>
<font id="bahij_thesansarabicsemibold" horiz-adv-x="1126" >
<font-face units-per-em="2048" ascent="1638" descent="-410" />
<missing-glyph horiz-adv-x="400" />
<glyph unicode="&#xfb01;" horiz-adv-x="1212" d="M16 848v170h195v41q0 450 485 450q149 0 301 -39l-39 -182q-130 41 -250 41q-280 0 -280 -252v-59h624v-1018h-217v848h-407v-848h-217v848h-195z" />
<glyph unicode="&#xfb02;" horiz-adv-x="1212" d="M16 848v170h195v108q0 383 483 383q162 0 358 -32v-1477h-217v1317q-77 14 -162 14q-245 0 -245 -219v-94h254v-170h-254v-848h-217v848h-195z" />
<glyph horiz-adv-x="0" />
<glyph horiz-adv-x="682" />
<glyph unicode=" "  horiz-adv-x="400" />
<glyph unicode="&#x09;" horiz-adv-x="400" />
<glyph unicode="&#xa0;" horiz-adv-x="400" />
<glyph unicode="!" horiz-adv-x="655" d="M204 117q0 57 41 96t100 39t99 -39q41 -39 41 -96q0 -58 -41 -98q-40 -39 -99 -39q-60 0 -100 39q-41 39 -41 98zM216 1444h258l-34 -1082h-187z" />
<glyph unicode="&#x22;" horiz-adv-x="784" d="M98 1436h225l-30 -494h-162zM460 1436h226l-33 -494h-162z" />
<glyph unicode="#" horiz-adv-x="1185" d="M61 379v151h193l36 332h-178v152h193l39 368h176l-41 -368h295l39 368h176l-39 -368h174v-152h-191l-34 -332h176v-151h-193l-39 -379h-176l41 379h-295l-39 -379h-176l39 379h-176zM430 530h293l36 332h-295z" />
<glyph unicode="$" horiz-adv-x="1005" d="M108 918q0 133 89 229q89 97 237 123v211h159v-201q115 -3 213 -25l-16 -190q-120 35 -229 35q-230 0 -230 -160q0 -79 90 -133q24 -15 196 -88q286 -121 286 -348q0 -142 -91 -244q-92 -104 -251 -137v-258h-160v248q-127 2 -250 28l12 201q123 -45 264 -45 q246 0 246 182q0 83 -88 137q-27 17 -194 87q-283 117 -283 348z" />
<glyph unicode="%" horiz-adv-x="1546" d="M86 1075q0 145 87 237q87 93 224 93q295 0 295 -311q0 -149 -87 -243q-88 -93 -226 -93q-293 0 -293 317zM188 55l1022 1368l140 -100l-1020 -1366zM258 1085q0 -186 135 -186q57 0 92 49q37 50 37 133q0 183 -133 183q-57 0 -94 -49t-37 -130zM852 295q0 145 88 237 q87 93 225 93q295 0 295 -312q0 -147 -88 -240t-225 -93q-295 0 -295 315zM1024 305q0 -184 135 -184q56 0 92 48q37 50 37 132q0 182 -133 182q-58 0 -94 -47q-37 -49 -37 -131z" />
<glyph unicode="&#x26;" horiz-adv-x="1630" d="M106 381q0 223 274 436q-184 218 -184 369q0 137 99 227q107 96 284 96q164 0 256 -80q88 -78 88 -208q0 -202 -250 -400q225 -224 418 -375v-2q143 208 131 482h217q10 -344 -186 -600q147 -116 274 -201l-143 -168q-173 120 -285 211q-231 -188 -536 -188 q-221 0 -344 117q-113 109 -113 284zM331 410q0 -102 72 -171q76 -73 197 -73q193 0 342 123q-236 189 -435 399q-176 -144 -176 -278zM413 1198q0 -97 135 -252q160 134 160 256q0 141 -145 141q-66 0 -108 -40t-42 -105z" />
<glyph unicode="'" horiz-adv-x="421" d="M98 1436h225l-30 -494h-162z" />
<glyph unicode="(" horiz-adv-x="622" d="M126 582q0 547 303 1024l158 -76q-246 -429 -246 -938q0 -523 252 -948l-166 -76q-301 474 -301 1014z" />
<glyph unicode=")" horiz-adv-x="622" d="M40 1528l164 78q299 -474 299 -1016q0 -546 -303 -1022l-158 74q248 429 248 938q0 519 -250 948z" />
<glyph unicode="*" horiz-adv-x="774" d="M71 1092l209 88l-209 88l80 137l180 -135l-29 225h160l-26 -225l180 135l78 -135l-209 -88l209 -88l-80 -140l-181 138l29 -226h-160l27 226l-180 -138z" />
<glyph unicode="+" d="M83 518v182h375v398h207v-398h376v-182h-376v-399h-207v399h-375z" />
<glyph unicode="," horiz-adv-x="493" d="M53 -252q178 192 88 303q-52 63 -19 137q34 76 121 76q65 0 105 -50q42 -51 40 -133q-5 -202 -243 -415z" />
<glyph unicode="-" horiz-adv-x="679" d="M94 492v176h492v-176h-492z" />
<glyph unicode="." horiz-adv-x="493" d="M102 125q0 60 43 103q43 42 102 42q60 0 103 -42q43 -43 43 -103t-43 -103q-43 -42 -103 -42q-59 0 -102 42q-43 43 -43 103z" />
<glyph unicode="/" horiz-adv-x="919" d="M-8 -330l719 1880h213l-717 -1880h-215z" />
<glyph unicode="0" horiz-adv-x="1202" d="M88 676q0 353 157 546q142 177 371 177q498 0 498 -694q0 -352 -157 -546q-143 -177 -371 -177q-498 0 -498 694zM321 694q0 -528 277 -528q283 0 283 522q0 529 -277 529q-283 0 -283 -523z" />
<glyph unicode="1" horiz-adv-x="727" d="M47 1264l334 118h176v-1382h-225v1157l-250 -98z" />
<glyph unicode="2" horiz-adv-x="1024" d="M114 0v182l236 271q294 328 294 532q0 97 -54 156q-60 63 -169 63q-134 0 -262 -82l-35 199q164 82 357 82q194 0 303 -111q102 -103 102 -270q0 -263 -332 -637l-157 -180l2 -2q174 8 532 8v-211h-817z" />
<glyph unicode="3" horiz-adv-x="987" d="M104 6l25 195q74 -29 208 -29q142 0 225 68q81 66 81 170q0 100 -82 158q-87 61 -248 61q-83 0 -135 -8v176q418 -12 418 235q0 185 -213 185q-118 0 -234 -60l-18 184q143 62 305 62q190 0 294 -95q97 -88 97 -233q0 -240 -227 -321l-2 -6q128 -28 204 -116t76 -210 q0 -193 -154 -317q-154 -123 -393 -123q-132 0 -227 24z" />
<glyph unicode="4" horiz-adv-x="1124" d="M34 487l535 895h294v-868h220v-201h-220v-313h-217v313h-596zM245 506q106 6 405 6v668h-2z" />
<glyph unicode="5" horiz-adv-x="946" d="M102 4l25 197q76 -25 194 -25q151 0 237 72q85 71 85 190q0 236 -371 236q-68 0 -123 -6v714h655v-208l-450 2v-326q256 1 391 -102q131 -100 131 -287q0 -215 -161 -347q-158 -130 -408 -130q-116 0 -205 20z" />
<glyph unicode="6" horiz-adv-x="1181" d="M122 578q0 404 205 621q187 200 500 200q93 0 139 -6v-197q-69 14 -148 14q-365 0 -448 -385l-17 -77l2 -3q115 134 318 134q193 0 307 -114q113 -112 113 -298q0 -214 -139 -351q-139 -136 -361 -136q-250 0 -372 193q-99 156 -99 405zM364 453q0 -132 64 -209 q66 -78 183 -78q112 0 182 73q70 75 70 195q0 121 -63 190q-65 72 -182 72q-114 0 -186 -73q-68 -70 -68 -170z" />
<glyph unicode="7" horiz-adv-x="933" d="M47 1167v215h834v-188q-254 -556 -392 -1194h-245q152 650 391 1174q-105 -7 -588 -7z" />
<glyph unicode="8" horiz-adv-x="1134" d="M100 332q0 197 268 368q-243 137 -243 334q0 170 128 274q127 103 332 103q188 0 302 -95q112 -93 112 -239q0 -182 -252 -350q281 -153 281 -362q0 -182 -143 -288q-133 -100 -341 -100q-209 0 -329 99q-115 96 -115 256zM331 352q0 -88 63 -140t173 -52q100 0 164 48 q67 51 67 136q0 133 -254 266q-213 -133 -213 -258zM348 1057q0 -121 221 -240q205 125 205 240q0 76 -52 124q-56 52 -157 52q-102 0 -160 -49q-57 -48 -57 -127z" />
<glyph unicode="9" horiz-adv-x="1191" d="M100 915q0 210 137 348q139 140 355 140q255 0 378 -193q99 -155 99 -403q0 -403 -189 -617q-184 -208 -522 -208q-97 0 -174 12v201q85 -25 195 -25q342 0 421 356q12 35 23 101l-2 2q-98 -135 -307 -135q-190 0 -302 115q-112 114 -112 306zM327 946q0 -120 62 -189 q65 -73 182 -73q110 0 184 77q68 71 68 167q0 135 -66 212t-182 77q-109 0 -178 -74q-70 -75 -70 -197z" />
<glyph unicode=":" horiz-adv-x="598" d="M180 125q0 60 43 103q43 42 102 42q60 0 103 -42q43 -43 43 -103t-43 -103q-43 -42 -103 -42q-59 0 -102 42q-43 43 -43 103zM180 715q0 60 43 102q43 43 102 43q60 0 103 -43q43 -42 43 -102t-43 -103t-103 -43q-59 0 -102 43t-43 103z" />
<glyph unicode=";" horiz-adv-x="598" d="M135 -252q179 193 86 303q-50 63 -17 137q34 76 121 76q64 0 105 -50q41 -51 39 -133q-4 -202 -242 -415zM180 715q0 60 43 102q43 43 102 43q60 0 103 -43q43 -42 43 -102t-43 -103t-103 -43q-59 0 -102 43t-43 103z" />
<glyph unicode="&#x3c;" d="M139 618l649 590l142 -143l-510 -444l512 -445l-142 -149z" />
<glyph unicode="=" d="M112 336v178h901v-178h-901zM112 702v179h901v-179h-901z" />
<glyph unicode="&#x3e;" d="M194 1059l141 149l652 -590l-650 -591l-141 143l510 446z" />
<glyph unicode="?" horiz-adv-x="917" d="M155 1262l29 198q294 -9 465 -130q157 -112 157 -275q0 -157 -194 -342q-84 -80 -111 -141q-39 -90 -4 -210h-213q-75 228 91 398q15 16 66 64q41 38 61 62q63 72 63 144q0 98 -110 160q-111 64 -300 72zM253 117q0 57 41 96q40 39 99 39t99 -39t40 -96q0 -59 -40 -98 t-99 -39t-99 39q-41 40 -41 98z" />
<glyph unicode="@" horiz-adv-x="1996" d="M169 575q0 401 265 668q260 262 638 262q352 0 551 -198q182 -183 182 -469q0 -272 -136 -427q-130 -147 -341 -147q-114 0 -171 64q-52 59 -44 149h-6q-32 -75 -110 -139q-92 -74 -189 -74q-203 0 -203 285q0 239 116 387q126 162 353 162q132 0 252 -35l-76 -424 q-37 -199 107 -199q111 0 179 96q73 103 73 291q0 212 -125 346q-146 156 -426 156q-291 0 -487 -202q-201 -208 -201 -527q0 -279 152 -433q158 -159 458 -159q168 0 350 55l33 -172q-190 -63 -410 -63q-373 0 -581 202q-203 199 -203 545zM781 586q0 -146 78 -146 q74 0 141 97q75 107 113 299l19 98q-41 14 -107 14q-114 0 -184 -126q-60 -107 -60 -236z" />
<glyph unicode="A" horiz-adv-x="1269" d="M12 0l492 1382h256l497 -1382h-248l-104 305h-561l-107 -305h-225zM399 483h449l-166 469q-41 123 -58 189h-4q-23 -94 -55 -187z" />
<glyph unicode="B" horiz-adv-x="1175" d="M159 0v1382q326 7 430 7q451 0 451 -336q0 -232 -226 -316v-4q120 -20 193 -106q74 -87 74 -209q0 -173 -121 -287q-145 -137 -426 -137zM382 184q87 -10 164 -10q146 0 225 67q72 62 72 169q0 219 -338 219q-92 0 -123 -2v-443zM382 797q37 -2 119 -2q303 0 303 223 q0 194 -254 194q-69 0 -168 -4v-411z" />
<glyph unicode="C" horiz-adv-x="1179" d="M88 653q0 337 167 532q179 210 515 210q166 0 307 -43l-33 -205q-144 51 -292 51q-208 0 -319 -146q-101 -135 -101 -362q0 -506 438 -506q160 0 285 66l37 -197q-170 -69 -371 -69q-328 0 -490 195q-143 173 -143 474z" />
<glyph unicode="D" horiz-adv-x="1378" d="M159 0v1380l428 9q705 0 705 -678q0 -347 -214 -538q-204 -181 -552 -181q-84 0 -196 3zM382 193q75 -11 166 -11q233 0 364 123q142 133 142 389q0 510 -483 510q-90 0 -189 -4v-1007z" />
<glyph unicode="E" horiz-adv-x="1019" d="M159 0v1382h729v-186h-506v-393h482v-182h-482v-431h506v-190h-729z" />
<glyph unicode="F" horiz-adv-x="956" d="M159 0v1382h721v-188h-498v-406h471v-182h-471v-606h-223z" />
<glyph unicode="G" horiz-adv-x="1390" d="M81 653q0 340 192 539q200 209 562 209q198 0 387 -58l-47 -204q-171 67 -357 67q-250 0 -381 -156q-116 -139 -116 -366q0 -240 125 -373t354 -133q111 0 213 33v502h223v-650q-216 -83 -463 -83q-330 0 -513 180q-179 177 -179 493z" />
<glyph unicode="H" horiz-adv-x="1419" d="M159 0v1382h223v-571h654v571h221v-1382h-221v621h-654v-621h-223z" />
<glyph unicode="I" horiz-adv-x="544" d="M159 0v1382h223v-1382h-223z" />
<glyph unicode="J" horiz-adv-x="679" d="M2 0v193q70 -21 133 -21q84 0 121 43q43 48 43 168v999h221v-1009q0 -389 -358 -389q-74 0 -160 16z" />
<glyph unicode="K" horiz-adv-x="1208" d="M159 0v1382h223v-641l504 641h274l-548 -667l569 -715h-297l-502 676v-676h-223z" />
<glyph unicode="L" horiz-adv-x="874" d="M159 0v1382h223v-1187h475v-195h-698z" />
<glyph unicode="M" horiz-adv-x="1814" d="M83 0l207 1382h266l266 -802q37 -108 78 -283h2q51 196 78 274l270 811h269l211 -1382h-232l-110 741q-21 157 -43 349h-5q-32 -152 -73 -285l-264 -805h-226l-250 752q-59 185 -90 338h-2q-17 -193 -39 -369l-88 -721h-225z" />
<glyph unicode="N" horiz-adv-x="1441" d="M159 0v1382h295l481 -813q86 -150 144 -280q-15 276 -15 743v350h215v-1382h-295l-489 831q-81 145 -135 271q14 -237 14 -721v-381h-215z" />
<glyph unicode="O" horiz-adv-x="1441" d="M77 672q0 336 195 539q185 192 469 192q307 0 468 -189q154 -180 154 -503q0 -337 -195 -539q-185 -192 -468 -192q-308 0 -469 188q-154 180 -154 504zM315 702q0 -243 99 -380q105 -144 304 -144q177 0 289 130q119 138 119 372q0 243 -101 381q-105 145 -303 145 q-176 0 -289 -131q-118 -138 -118 -373z" />
<glyph unicode="P" horiz-adv-x="1089" d="M159 0v1382q186 9 365 9q243 0 376 -110q131 -109 131 -304q0 -213 -139 -343q-146 -136 -395 -136q-62 0 -115 6v-504h-223zM382 694q60 -10 131 -10q287 0 287 266q0 256 -295 256q-63 0 -123 -2v-510z" />
<glyph unicode="Q" horiz-adv-x="1439" d="M77 672q0 336 195 539q185 192 469 192q307 0 468 -189q154 -180 154 -503q0 -459 -313 -602q46 0 173 -35q79 -21 154 -21q32 0 62 4v-194q-55 -7 -108 -7q-134 0 -259 47q-198 77 -317 77h-55q-308 0 -469 188q-154 180 -154 504zM315 702q0 -243 99 -380 q105 -144 304 -144q175 0 288 131q120 139 120 371q0 243 -101 381q-105 145 -303 145q-176 0 -289 -131q-118 -138 -118 -373z" />
<glyph unicode="R" horiz-adv-x="1144" d="M159 0v1382q134 9 371 9q483 0 483 -375q0 -160 -111 -267q-104 -101 -266 -120q100 -126 115 -148l352 -481h-278l-418 598h-25v-598h-223zM382 766q41 -4 109 -4q134 0 212 63q77 62 77 166q0 217 -281 217q-51 0 -117 -4v-438z" />
<glyph unicode="S" horiz-adv-x="1030" d="M94 999q0 182 130 291q135 113 370 113q126 0 250 -27l-23 -196q-117 39 -238 39q-253 0 -253 -193q0 -90 95 -151q34 -21 211 -95q144 -61 210 -125q96 -94 96 -241q0 -191 -143 -312q-144 -122 -377 -122q-172 0 -312 38l25 213q148 -57 295 -57q270 0 270 211 q0 95 -95 156q-36 23 -208 93q-143 58 -208 122q-95 93 -95 243z" />
<glyph unicode="T" horiz-adv-x="1052" d="M34 1194v188h983v-188h-381v-1194h-223v1194h-379z" />
<glyph unicode="U" horiz-adv-x="1406" d="M159 471v911h223v-895q0 -154 63 -230q76 -93 255 -93q172 0 248 79q79 83 79 273v866h219v-850q0 -552 -561 -552q-526 0 -526 491z" />
<glyph unicode="V" horiz-adv-x="1273" d="M14 1382h246l291 -852q44 -123 86 -276h2q36 137 92 291l297 837h229l-498 -1382h-253z" />
<glyph unicode="W" horiz-adv-x="1949" d="M61 1382h238l213 -839q37 -153 53 -273h2q25 161 55 262l236 850h243l242 -852q34 -121 55 -254h2q20 116 50 242l215 864h223l-359 -1382h-274l-236 854q-27 103 -53 260h-2q-15 -125 -49 -256l-233 -858h-263z" />
<glyph unicode="X" horiz-adv-x="1253" d="M28 0l449 711l-422 671h258l307 -505l303 505h252l-414 -667l463 -715h-281l-327 543l-326 -543h-262z" />
<glyph unicode="Y" horiz-adv-x="1122" d="M12 1382h244l205 -436q55 -123 98 -233h4q37 100 115 258l194 411h236l-441 -888v-494h-223v494z" />
<glyph unicode="Z" horiz-adv-x="1101" d="M92 0v170l545 866q66 101 102 150q-59 -2 -280 -2h-347v198h891v-176l-573 -895q-29 -49 -74 -110q39 4 326 4h330v-205h-920z" />
<glyph unicode="[" horiz-adv-x="663" d="M161 -412v1997h426v-172h-221v-1651h221v-174h-426z" />
<glyph unicode="\" horiz-adv-x="940" d="M18 1550h213l719 -1880h-215z" />
<glyph unicode="]" horiz-adv-x="663" d="M75 -238h221v1651h-221v172h426v-1997h-426v174z" />
<glyph unicode="^" d="M122 774l338 608h172l352 -604l-160 -82l-284 527l-271 -527z" />
<glyph unicode="_" d="M0 -332h1126v-176h-1126v176z" />
<glyph unicode="`" horiz-adv-x="759" d="M159 1452l145 113l248 -320l-117 -92z" />
<glyph unicode="a" horiz-adv-x="1071" d="M88 262q0 170 160 262q157 90 440 90v43q0 111 -44 160q-47 51 -157 51q-149 0 -307 -71l-39 170q179 71 377 71q213 0 306 -95q83 -85 83 -261v-403q0 -150 6 -279h-211q0 119 11 188l-2 2q-86 -210 -338 -210q-130 0 -208 79q-77 77 -77 203zM301 289q0 -60 37 -98 q39 -39 102 -39q107 0 179 89q69 86 69 199v27q-387 0 -387 -178z" />
<glyph unicode="b" horiz-adv-x="1142" d="M159 27v1468h219v-469q0 -115 -18 -195h4q87 207 323 207q181 0 278 -124t97 -355q0 -265 -143 -420q-145 -155 -398 -155q-196 0 -362 43zM378 178q65 -20 160 -20q293 0 293 381q0 317 -201 317q-116 0 -187 -117q-65 -105 -65 -245v-316z" />
<glyph unicode="c" horiz-adv-x="882" d="M77 475q0 253 125 401q134 158 381 158q139 0 237 -39l-36 -188q-108 43 -213 43q-127 0 -197 -97q-68 -93 -68 -253q0 -328 267 -328q126 0 219 45l33 -182q-124 -51 -295 -51q-453 0 -453 491z" />
<glyph unicode="d" horiz-adv-x="1140" d="M77 459q0 264 143 419q143 156 389 156q43 0 154 -8v469h217v-1495h-207q0 110 15 190h-4q-94 -210 -332 -210q-184 0 -281 129q-94 124 -94 350zM308 479q0 -319 203 -319q115 0 187 118q65 106 65 248v316q-83 18 -162 18q-293 0 -293 -381z" />
<glyph unicode="e" horiz-adv-x="1046" d="M77 502q0 235 124 382q129 154 345 154q207 0 315 -125q97 -112 97 -299q0 -73 -9 -131h-647v-18q0 -309 301 -309q153 0 293 59l29 -170q-171 -65 -361 -65q-487 0 -487 522zM304 635h435v11q0 105 -53 166q-55 62 -152 62q-93 0 -154 -63q-62 -64 -76 -176z" />
<glyph unicode="f" horiz-adv-x="720" d="M16 848v170h195v78q0 413 397 413q86 0 166 -18l-17 -180q-64 20 -139 20q-190 0 -190 -231v-82h264v-170h-264v-848h-217v848h-195z" />
<glyph unicode="g" horiz-adv-x="1112" d="M75 -215q0 170 166 262q-100 44 -100 154q0 121 116 176q-151 85 -151 278q0 163 112 269q121 114 328 114q65 0 154 -20h346v-172h-156q68 -58 68 -162q0 -166 -108 -264q-115 -105 -324 -105q-48 0 -97 13q-59 -28 -59 -76q0 -68 168 -74l172 -6q344 -13 344 -295 q0 -168 -151 -281q-155 -116 -396 -116q-202 0 -316 78q-116 80 -116 227zM292 -176q0 -81 70 -128q68 -46 180 -46q139 0 219 57q76 53 76 139q0 143 -189 152l-241 6q-115 -81 -115 -180zM319 672q0 -203 213 -203q100 0 157 54q58 54 58 149q0 205 -211 205 q-101 0 -160 -59q-57 -56 -57 -146z" />
<glyph unicode="h" horiz-adv-x="1173" d="M159 0v1495h219v-463q0 -131 -18 -205l4 -2q98 213 346 213q303 0 303 -325v-713h-217v653q0 203 -152 203q-114 0 -190 -106t-76 -261v-489h-219z" />
<glyph unicode="i" horiz-adv-x="538" d="M129 1335q0 57 41 97q42 41 100 41q57 0 98 -41q42 -40 42 -97q0 -56 -42 -97q-41 -40 -98 -40q-58 0 -100 40q-41 39 -41 97zM160 0v1018h219v-1018h-219z" />
<glyph unicode="j" horiz-adv-x="548" d="M-122 -496l14 189q61 -23 127 -23q89 0 122 46q32 45 32 167v1135h217v-1114q0 -214 -80 -312q-87 -106 -291 -106q-80 0 -141 18zM140 1335q0 57 42 97q41 41 99 41q59 0 99 -41q41 -40 41 -97t-41 -97q-40 -40 -99 -40q-58 0 -99 40q-42 39 -42 97z" />
<glyph unicode="k" horiz-adv-x="1036" d="M159 0v1495h219v-913l330 436h268l-377 -465l406 -553h-279l-348 516v-516h-219z" />
<glyph unicode="l" horiz-adv-x="538" d="M159 0v1495h219v-1495h-219z" />
<glyph unicode="m" horiz-adv-x="1787" d="M159 0v1018h209q0 -115 -14 -201l4 -2q98 223 344 223q243 0 282 -219q98 219 340 219q303 0 303 -336v-702h-217v649q0 207 -147 207q-104 0 -180 -101q-82 -107 -82 -270v-485h-215v649q0 207 -148 207q-106 0 -182 -105q-78 -107 -78 -266v-485h-219z" />
<glyph unicode="n" horiz-adv-x="1173" d="M159 0v1018h209q0 -121 -14 -201h2q100 221 354 221q303 0 303 -325v-713h-217v653q0 203 -152 203q-114 0 -190 -106t-76 -261v-489h-219z" />
<glyph unicode="o" horiz-adv-x="1124" d="M75 496q0 234 138 386q141 156 368 156q216 0 336 -120q131 -131 131 -390q0 -237 -140 -392q-143 -156 -368 -156q-465 0 -465 516zM302 518q0 -350 260 -350q113 0 182 85q76 92 76 261q0 340 -256 340q-109 0 -181 -80q-81 -91 -81 -256z" />
<glyph unicode="p" horiz-adv-x="1142" d="M159 -500v1518h207q0 -108 -12 -191h4q93 211 329 211q181 0 278 -124t97 -355q0 -270 -138 -421q-139 -152 -392 -152q-90 0 -154 12v-498h-219zM378 178q67 -20 160 -20q293 0 293 381q0 319 -201 319q-116 0 -187 -118q-65 -106 -65 -248v-314z" />
<glyph unicode="q" horiz-adv-x="1142" d="M81 457q0 267 143 421q145 156 402 156q190 0 356 -28v-1506h-217v498q0 114 14 188l-4 2q-86 -208 -317 -208q-377 0 -377 477zM310 479q0 -319 201 -319q116 0 188 118q66 108 66 252v314q-80 18 -162 18q-293 0 -293 -383z" />
<glyph unicode="r" horiz-adv-x="727" d="M159 0v1018h209q0 -114 -21 -225h5q80 245 293 245q21 0 44 -2l-10 -215q-33 6 -63 6q-238 0 -238 -413v-414h-219z" />
<glyph unicode="s" horiz-adv-x="862" d="M94 723q0 140 103 224q110 91 313 91q93 0 192 -20l-12 -176q-92 28 -193 28q-178 0 -178 -127q0 -65 71 -104q19 -10 155 -59q225 -80 225 -269q0 -146 -118 -238q-121 -93 -320 -93q-127 0 -226 28l17 187q100 -39 223 -39q87 0 140 35q54 37 54 98q0 68 -69 106 q-20 11 -154 57q-223 77 -223 271z" />
<glyph unicode="t" horiz-adv-x="763" d="M8 848v170h195v323l219 60v-383h266v-170h-266v-488q0 -113 28 -153q28 -39 105 -39q60 0 125 14l18 -176q-105 -24 -213 -24q-161 0 -223 70q-59 68 -59 241v555h-195z" />
<glyph unicode="u" horiz-adv-x="1173" d="M159 305v713h217v-653q0 -203 152 -203q114 0 190 106t76 260v490h219v-1018h-209q0 120 14 201h-2q-100 -221 -354 -221q-303 0 -303 325z" />
<glyph unicode="v" horiz-adv-x="1013" d="M16 1018h238l192 -565q34 -107 64 -226h2q27 117 59 224l193 567h233l-365 -1018h-258z" />
<glyph unicode="w" horiz-adv-x="1626" d="M26 1018h240l135 -473q63 -230 76 -285h2q16 81 71 279l152 479h221l154 -471q58 -196 79 -287h3q19 92 71 277l142 481h227l-326 -1018h-241l-177 532q-29 88 -59 216h-2q-14 -61 -70 -256l-153 -492h-232z" />
<glyph unicode="x" horiz-adv-x="1071" d="M32 0l365 512l-345 506h265l227 -363l231 363h244l-336 -502l353 -516h-279l-229 369l-232 -369h-264z" />
<glyph unicode="y" horiz-adv-x="1003" d="M-43 -504l25 191q55 -17 125 -17q168 0 253 230l37 100l-381 1018h244l168 -465q47 -142 80 -266h2q28 113 100 317l146 414h235l-411 -1090q-94 -250 -208 -349q-109 -95 -286 -95q-59 0 -129 12z" />
<glyph unicode="z" horiz-adv-x="919" d="M96 0v156l453 669q-103 -4 -246 -4h-197v197h703v-154l-447 -667q103 4 256 4h199v-201h-721z" />
<glyph unicode="{" horiz-adv-x="716" d="M57 561v168q118 6 162 50q49 48 49 171v213q0 422 344 422h39v-172q-104 0 -142 -50q-38 -51 -38 -196v-211q0 -274 -189 -309v-2q189 -29 189 -317v-320q0 -144 38 -196q38 -50 142 -50v-174h-39q-183 0 -265 104q-79 100 -79 320v322q0 122 -49 173q-47 48 -162 54z " />
<glyph unicode="|" horiz-adv-x="585" d="M202 -500v2048h174v-2048h-174z" />
<glyph unicode="}" horiz-adv-x="712" d="M75 -238q104 0 142 50q38 52 38 196v320q0 288 189 317v2q-189 26 -189 303v217q0 145 -38 196q-38 50 -142 50v172h39q344 0 344 -422v-207q0 -128 49 -176q44 -45 162 -51v-168q-114 -6 -161 -54q-50 -52 -50 -173v-322q0 -220 -79 -320q-82 -104 -265 -104h-39v174z " />
<glyph unicode="~" d="M100 891v27q0 141 78 226q78 87 211 87q127 0 219 -111q92 -110 145 -110q110 0 113 176h162v-29q0 -141 -78 -226q-79 -87 -211 -87q-127 0 -219 110q-92 111 -146 111q-109 0 -112 -174h-162z" />
<glyph unicode="&#xa1;" horiz-adv-x="655" d="M172 901q0 59 40 98t99 39t99 -39q41 -40 41 -98q0 -57 -41 -96q-40 -39 -99 -39t-99 39t-40 96zM180 -426l35 1081h186l37 -1081h-258z" />
<glyph unicode="&#xa2;" horiz-adv-x="931" d="M83 555q0 197 103 332q105 137 284 168v188h168v-178q104 -3 199 -39l-19 -186q-97 47 -215 47q-135 0 -213 -84q-80 -85 -80 -236q0 -309 289 -309q124 0 225 57l17 -192q-100 -41 -203 -49v-213h-168v215q-187 20 -288 146q-99 124 -99 333z" />
<glyph unicode="&#xa3;" horiz-adv-x="968" d="M61 639v168h188q-24 177 -24 223q0 181 105 278q104 95 296 95q133 0 221 -29l-36 -182q-89 33 -179 33q-186 0 -186 -187q0 -55 23 -231h294v-168h-274q8 -66 8 -121q0 -205 -157 -338q79 13 215 13h358v-193h-827v154q194 141 194 344q0 54 -10 141h-209z" />
<glyph unicode="&#xa4;" d="M108 231l143 181q-75 95 -75 260q0 152 86 254l-154 192l164 119l149 -205q69 33 158 33q90 0 147 -29l150 201l162 -121l-152 -190q64 -91 64 -238q0 -145 -80 -248l168 -209l-164 -120l-162 217q-75 -41 -168 -41q-69 0 -127 22l-143 -196zM370 678q0 -232 195 -232 q78 0 132 61q58 66 58 177q0 219 -196 219q-80 0 -133 -59q-56 -62 -56 -166z" />
<glyph unicode="&#xa5;" horiz-adv-x="1220" d="M63 1382h244l202 -419q43 -89 101 -240h2q42 119 117 264l198 395h236l-391 -770h276v-143h-330v-131h330v-145h-330v-193h-221v193h-328v145h328v131h-328v143h277z" />
<glyph unicode="&#xa6;" horiz-adv-x="585" d="M202 274h174v-774h-174v774zM202 795v753h174v-753h-174z" />
<glyph unicode="&#xa7;" horiz-adv-x="1073" d="M137 682q0 174 158 293q-78 100 -78 213q0 141 93 226q104 95 302 95q83 0 162 -16l-14 -184q-71 22 -144 22q-166 0 -166 -133q0 -80 230 -296q229 -216 229 -410q0 -175 -158 -293q78 -103 78 -213q0 -136 -99 -225q-114 -101 -323 -101q-75 0 -164 21l15 184 q89 -25 155 -25q183 0 183 144q0 82 -230 292q-229 210 -229 406zM340 711q0 -91 83 -191q38 -45 208 -205q77 55 77 148q0 94 -91 199q-31 35 -94 95l-105 103q-78 -57 -78 -149z" />
<glyph unicode="&#xa8;" horiz-adv-x="1118" d="M217 1335q0 51 35 87q36 36 88 36t88 -36q37 -36 37 -87q0 -52 -37 -88q-36 -37 -88 -37t-88 37q-35 36 -35 88zM618 1335q0 51 37 87q36 36 88 36q51 0 87 -36t36 -87q0 -52 -36 -88q-36 -37 -87 -37q-52 0 -88 37q-37 36 -37 88z" />
<glyph unicode="&#xa9;" horiz-adv-x="1552" d="M79 684q0 287 203 490q203 202 491 202q289 0 491 -201q201 -202 201 -489t-202 -490q-202 -202 -490 -202q-292 0 -494 201q-200 200 -200 489zM249 686q0 -218 153 -373q154 -155 371 -155q218 0 371 154q154 154 154 372q0 217 -154 373q-153 155 -371 155t-371 -154 t-153 -372zM446 676q0 161 83 261q94 114 273 114q87 0 166 -29l-23 -152q-62 35 -139 35q-176 0 -176 -223q0 -207 168 -207q81 0 151 31l27 -146q-97 -38 -205 -38q-159 0 -245 98q-80 94 -80 256z" />
<glyph unicode="&#xaa;" horiz-adv-x="808" d="M92 856q0 124 112 192q108 66 291 64v35q0 110 -127 110q-112 0 -219 -55l-16 154q113 45 264 45q275 0 275 -234v-305q0 -135 2 -176h-172q0 64 10 105l-4 2q-50 -123 -207 -123q-209 0 -209 186zM110 399v172h611v-172h-611zM262 883q0 -72 82 -72q72 0 116 61 q35 50 35 105v18q-233 0 -233 -112z" />
<glyph unicode="&#xab;" horiz-adv-x="1064" d="M100 600l229 385l166 -80l-182 -305l186 -299l-174 -82zM516 600l250 379l163 -82l-198 -297l200 -291l-169 -84z" />
<glyph unicode="&#xac;" d="M83 518v182h909v-495h-192v313h-717z" />
<glyph unicode="&#xad;" horiz-adv-x="679" d="M94 492v176h492v-176h-492z" />
<glyph unicode="&#xae;" horiz-adv-x="1153" d="M112 1083q0 192 135 327q136 134 328 134q195 0 330 -133t135 -328q0 -188 -137 -323t-328 -135q-195 0 -329 133t-134 325zM251 1087q0 -135 95 -233q96 -98 229 -98q135 0 230 96q95 95 95 229q0 136 -95 234q-96 98 -230 98t-229 -96t-95 -230zM417 856v461h174 q162 0 162 -125q0 -107 -102 -131q16 -17 36 -57l80 -148h-133l-96 184h-10v-184h-111zM528 1114h24q80 0 80 66q0 53 -65 53h-39v-119z" />
<glyph unicode="&#xaf;" horiz-adv-x="808" d="M139 1247v160h530v-160h-530z" />
<glyph unicode="&#xb0;" horiz-adv-x="780" d="M98 1239q0 124 92 203q84 71 199 71q141 0 216 -79q66 -71 66 -189q0 -126 -91 -203q-84 -71 -203 -71q-130 0 -204 72q-75 72 -75 196zM266 1243q0 -133 119 -133q53 0 87 38t34 95q0 131 -119 131q-53 0 -87 -36q-34 -37 -34 -95z" />
<glyph unicode="&#xb1;" d="M83 696v183h375v387h209v-387h374v-183h-374v-389h-209v389h-375zM87 0v182h950v-182h-950z" />
<glyph unicode="&#xb2;" horiz-adv-x="745" d="M75 741v148l172 172q174 177 174 274q0 127 -133 127q-90 0 -176 -45l-29 154q117 51 256 51q140 0 219 -64q80 -65 80 -184q0 -169 -172 -344l-123 -125q86 4 326 4v-168h-594z" />
<glyph unicode="&#xb3;" horiz-adv-x="727" d="M65 745l23 146q67 -23 163 -23q176 0 176 127q0 68 -75 100q-81 34 -226 15v137q275 0 275 135q0 101 -129 101q-95 0 -172 -37l-21 137q107 39 238 39q289 0 289 -213q0 -148 -135 -199q165 -43 165 -202q0 -129 -104 -206q-103 -77 -274 -77q-101 0 -193 20z" />
<glyph unicode="&#xb4;" horiz-adv-x="800" d="M227 1245l250 320l143 -113l-278 -299z" />
<glyph unicode="&#xb5;" horiz-adv-x="1198" d="M159 -500v1518h219v-666q0 -190 152 -190q117 0 191 103q75 104 75 267v486h217v-660q0 -119 24 -158q23 -36 95 -36v-172q-44 -8 -90 -8q-219 0 -215 213l-2 2q-89 -215 -316 -215q-105 0 -151 61l24 -545h-223z" />
<glyph unicode="&#xb6;" horiz-adv-x="1198" d="M124 940q0 197 130 320q130 122 339 122v-890q-231 -2 -356 132q-113 120 -113 316zM603 -25h148v1407h329v-172h-139v-1407h-338v172z" />
<glyph unicode="&#xb7;" horiz-adv-x="512" d="M106 608q0 63 44 106q44 44 106 44q61 0 104 -44q43 -43 43 -106q0 -61 -43 -104t-104 -43q-62 0 -106 43t-44 104z" />
<glyph unicode="&#xb8;" horiz-adv-x="819" d="M313 -481q82 99 90 170q10 78 -61 166l184 63q146 -194 -43 -399h-170z" />
<glyph unicode="&#xb9;" horiz-adv-x="583" d="M28 1522l242 86h176v-867h-209v680l-176 -65z" />
<glyph unicode="&#xba;" horiz-adv-x="864" d="M88 1034q0 165 101 268q98 101 251 101q328 0 328 -356q0 -169 -101 -273q-99 -102 -255 -102q-324 0 -324 362zM119 399v172h620v-172h-620zM274 1038q0 -209 150 -209q160 0 160 215q0 201 -154 201q-156 0 -156 -207z" />
<glyph unicode="&#xbb;" horiz-adv-x="1064" d="M135 307l199 297l-199 291l168 84l246 -375l-252 -379zM567 299l184 305l-184 299l174 82l225 -381l-231 -385z" />
<glyph unicode="&#xbc;" horiz-adv-x="1708" d="M28 1522l242 86h176v-867h-209v680l-176 -65zM69 -201l1321 1852l137 -97l-1319 -1851zM902 102l318 543h283v-522h133v-158h-133v-186h-187v186h-401zM1085 119q61 4 229 4v393z" />
<glyph unicode="&#xbd;" horiz-adv-x="1740" d="M28 1522l242 86h176v-867h-209v680l-176 -65zM69 -201l1321 1852l137 -97l-1319 -1851zM1052 -74l174 172q172 176 172 275q0 127 -133 127q-90 0 -176 -45l-27 153q114 51 254 51t219 -64q80 -65 80 -183q0 -168 -170 -344l-125 -125q86 4 326 4v-168h-594v147z" />
<glyph unicode="&#xbe;" horiz-adv-x="1746" d="M65 745l23 146q67 -23 163 -23q176 0 176 127q0 68 -75 100q-81 34 -226 15v137q275 0 275 135q0 101 -129 101q-95 0 -172 -37l-21 137q107 39 238 39q289 0 289 -213q0 -148 -135 -199q165 -43 165 -202q0 -129 -104 -206q-103 -77 -274 -77q-101 0 -193 20zM110 -201 l1319 1852l139 -97l-1321 -1851zM942 102l319 543h283v-522h133v-158h-133v-186h-189v186h-399zM1124 119q61 4 229 4v393z" />
<glyph unicode="&#xbf;" horiz-adv-x="917" d="M110 -37q0 157 194 342q84 80 111 141q40 90 4 209h213q75 -227 -92 -397q-15 -16 -66 -64q-41 -38 -62 -62q-62 -72 -62 -144q0 -98 110 -161q112 -63 301 -71l-28 -198q-295 8 -466 130q-157 112 -157 275zM382 901q0 58 41 98q41 39 101 39q58 0 99 -39q40 -40 40 -98 q0 -57 -40 -96q-41 -39 -99 -39q-60 0 -101 39t-41 96z" />
<glyph unicode="&#xc0;" horiz-adv-x="1269" d="M12 0l492 1382h256l497 -1382h-248l-104 305h-561l-107 -305h-225zM329 1589l56 162l395 -152l-39 -122zM399 483h449l-166 469q-41 123 -58 189h-4q-23 -94 -55 -187z" />
<glyph unicode="&#xc1;" horiz-adv-x="1269" d="M12 0l492 1382h256l497 -1382h-248l-104 305h-561l-107 -305h-225zM399 483h449l-166 469q-41 123 -58 189h-4q-23 -94 -55 -187zM469 1599l395 152l55 -162l-411 -112z" />
<glyph unicode="&#xc2;" horiz-adv-x="1269" d="M12 0l492 1382h256l497 -1382h-248l-104 305h-561l-107 -305h-225zM299 1589l329 174l334 -166l-59 -122l-281 118l-270 -118zM399 483h449l-166 469q-41 123 -58 189h-4q-23 -94 -55 -187z" />
<glyph unicode="&#xc3;" horiz-adv-x="1269" d="M12 0l492 1382h256l497 -1382h-248l-104 305h-561l-107 -305h-225zM264 1587q89 160 242 160q76 0 154 -51t114 -51q67 0 123 90l110 -78q-91 -158 -241 -158q-77 0 -154 51q-78 52 -115 52q-70 0 -123 -91zM399 483h449l-166 469q-41 123 -58 189h-4q-23 -94 -55 -187z " />
<glyph unicode="&#xc4;" horiz-adv-x="1269" d="M12 0l492 1382h256l497 -1382h-248l-104 305h-561l-107 -305h-225zM288 1602q0 50 36 85q35 35 85 35q51 0 86 -35t35 -85q0 -51 -35 -85t-86 -34t-85 34q-36 34 -36 85zM399 483h449l-166 469q-41 123 -58 189h-4q-23 -94 -55 -187zM729 1602q0 50 35 85t86 35 q50 0 85 -35t35 -85q0 -51 -35 -85q-34 -34 -85 -34t-86 34t-35 85z" />
<glyph unicode="&#xc5;" horiz-adv-x="1269" d="M12 0l492 1382h256l497 -1382h-248l-104 305h-561l-107 -305h-225zM399 483h449l-166 469q-41 123 -58 189h-4q-23 -94 -55 -187zM411 1675q0 92 68 156q67 63 160 63q96 0 161 -60q66 -62 66 -155q0 -90 -68 -156q-68 -65 -161 -65q-95 0 -160 61q-66 62 -66 156z M538 1677q0 -42 29 -72t72 -30q41 0 71 30q29 31 29 72q0 42 -29 72q-30 31 -71 31q-43 0 -72 -31q-29 -30 -29 -72z" />
<glyph unicode="&#xc6;" horiz-adv-x="1603" d="M-83 0l713 1382h827v-186h-496v-393h478v-182h-478v-431h512v-190h-729v322h-434l-162 -322h-231zM388 498h356v696h-4q-73 -167 -133 -283z" />
<glyph unicode="&#xc7;" horiz-adv-x="1179" d="M88 653q0 337 167 532q179 210 515 210q166 0 307 -43l-33 -205q-144 51 -292 51q-208 0 -319 -146q-101 -135 -101 -362q0 -506 438 -506q160 0 285 66l37 -197q-170 -69 -371 -69q-328 0 -490 195q-143 173 -143 474zM524 -481q82 99 91 170q9 78 -62 166l184 63 q146 -194 -43 -399h-170z" />
<glyph unicode="&#xc8;" horiz-adv-x="1019" d="M159 0v1382h729v-186h-506v-393h482v-182h-482v-431h506v-190h-729zM222 1589l56 162l395 -152l-39 -122z" />
<glyph unicode="&#xc9;" horiz-adv-x="1019" d="M159 0v1382h729v-186h-506v-393h482v-182h-482v-431h506v-190h-729zM362 1599l395 152l55 -162l-411 -112z" />
<glyph unicode="&#xca;" horiz-adv-x="1019" d="M159 0v1382h729v-186h-506v-393h482v-182h-482v-431h506v-190h-729zM192 1589l329 174l334 -166l-59 -122l-281 118l-270 -118z" />
<glyph unicode="&#xcb;" horiz-adv-x="1019" d="M159 0v1382h729v-186h-506v-393h482v-182h-482v-431h506v-190h-729zM173 1602q0 50 35 85t86 35t86 -35t35 -85q0 -51 -35 -85t-86 -34t-86 34t-35 85zM614 1602q0 50 35 85t85 35q51 0 86 -35t35 -85q0 -51 -35 -85t-86 -34q-50 0 -85 34t-35 85z" />
<glyph unicode="&#xcc;" horiz-adv-x="544" d="M-30 1589l55 162l396 -152l-39 -122zM160 0v1382h224v-1382h-224z" />
<glyph unicode="&#xcd;" horiz-adv-x="544" d="M126 1599l395 152l56 -162l-412 -112zM159 0v1382h223v-1382h-223z" />
<glyph unicode="&#xce;" horiz-adv-x="544" d="M-57 1589l330 174l334 -166l-60 -122l-280 118l-271 -118zM160 0v1382h223v-1382h-223z" />
<glyph unicode="&#xcf;" horiz-adv-x="544" d="M-69 1602q0 50 35 85t86 35t86 -35t35 -85q0 -51 -35 -85t-86 -34t-86 34t-35 85zM160 0v1382h224v-1382h-224zM371 1602q0 50 35 85t86 35t86 -35t35 -85q0 -51 -35 -85t-86 -34t-86 34t-35 85z" />
<glyph unicode="&#xd0;" horiz-adv-x="1396" d="M8 625v170h170v585l428 9q705 0 705 -678q0 -343 -211 -533q-203 -185 -555 -186q-84 0 -196 3l-171 5v625h-170zM399 193q75 -11 166 -11q233 0 365 123q143 133 143 389q0 510 -485 510q-91 0 -189 -4v-405h275v-170h-275v-432z" />
<glyph unicode="&#xd1;" horiz-adv-x="1441" d="M159 0v1382h295l481 -813q86 -150 144 -280q-15 276 -15 743v350h215v-1382h-295l-489 831q-81 145 -135 271q14 -237 14 -721v-381h-215zM349 1587q90 160 242 160q76 0 154 -51t114 -51q67 0 123 90l111 -78q-92 -158 -242 -158q-76 0 -154 51q-78 52 -114 52 q-70 0 -123 -91z" />
<glyph unicode="&#xd2;" horiz-adv-x="1441" d="M77 672q0 336 195 539q185 192 469 192q307 0 468 -189q154 -180 154 -503q0 -337 -195 -539q-185 -192 -468 -192q-308 0 -469 188q-154 180 -154 504zM315 702q0 -243 99 -380q105 -144 304 -144q177 0 289 130q119 138 119 372q0 243 -101 381q-105 145 -303 145 q-176 0 -289 -131q-118 -138 -118 -373zM413 1589l55 162l395 -152l-38 -122z" />
<glyph unicode="&#xd3;" horiz-adv-x="1441" d="M77 672q0 336 195 539q185 192 469 192q307 0 468 -189q154 -180 154 -503q0 -337 -195 -539q-185 -192 -468 -192q-308 0 -469 188q-154 180 -154 504zM315 702q0 -243 99 -380q105 -144 304 -144q177 0 289 130q119 138 119 372q0 243 -101 381q-105 145 -303 145 q-176 0 -289 -131q-118 -138 -118 -373zM593 1599l395 152l56 -162l-412 -112z" />
<glyph unicode="&#xd4;" horiz-adv-x="1441" d="M77 672q0 336 195 539q185 192 469 192q307 0 468 -189q154 -180 154 -503q0 -337 -195 -539q-185 -192 -468 -192q-308 0 -469 188q-154 180 -154 504zM315 702q0 -243 99 -380q105 -144 304 -144q177 0 289 130q119 138 119 372q0 243 -101 381q-105 145 -303 145 q-176 0 -289 -131q-118 -138 -118 -373zM403 1589l329 174l334 -166l-59 -122l-281 118l-270 -118z" />
<glyph unicode="&#xd5;" horiz-adv-x="1441" d="M77 672q0 336 195 539q185 192 469 192q307 0 468 -189q154 -180 154 -503q0 -337 -195 -539q-185 -192 -468 -192q-308 0 -469 188q-154 180 -154 504zM315 702q0 -243 99 -380q105 -144 304 -144q177 0 289 130q119 138 119 372q0 243 -101 381q-105 145 -303 145 q-176 0 -289 -131q-118 -138 -118 -373zM349 1587q90 160 242 160q76 0 154 -51t114 -51q67 0 123 90l111 -78q-92 -158 -242 -158q-76 0 -154 51q-78 52 -114 52q-70 0 -123 -91z" />
<glyph unicode="&#xd6;" horiz-adv-x="1441" d="M77 672q0 336 195 539q185 192 469 192q307 0 468 -189q154 -180 154 -503q0 -337 -195 -539q-185 -192 -468 -192q-308 0 -469 188q-154 180 -154 504zM315 702q0 -243 99 -380q105 -144 304 -144q177 0 289 130q119 138 119 372q0 243 -101 381q-105 145 -303 145 q-176 0 -289 -131q-118 -138 -118 -373zM388 1602q0 50 35 85t86 35t86 -35t35 -85q0 -51 -35 -85t-86 -34t-86 34t-35 85zM829 1602q0 50 35 85t85 35q51 0 86 -35t35 -85q0 -51 -35 -85t-86 -34q-50 0 -85 34t-35 85z" />
<glyph unicode="&#xd7;" d="M104 270l332 332l-332 330l135 135l330 -332l332 332l121 -121l-332 -332l332 -329l-136 -135l-329 331l-332 -331z" />
<glyph unicode="&#xd8;" horiz-adv-x="1441" d="M77 676q0 334 195 535q185 192 469 192q88 0 174 -17l86 203l159 -67l-84 -199q287 -156 287 -618q0 -336 -193 -535q-184 -190 -477 -190q-105 0 -184 20l-88 -209l-160 68l90 209q-274 159 -274 608zM308 702q0 -304 142 -426l381 922h-2q-43 14 -109 14 q-173 0 -287 -129q-125 -140 -125 -381zM595 188q59 -16 115 -16q181 0 295 125q127 137 127 387q0 318 -152 438z" />
<glyph unicode="&#xd9;" horiz-adv-x="1406" d="M159 471v911h223v-895q0 -154 63 -230q76 -93 255 -93q172 0 248 79q79 83 79 273v866h219v-850q0 -552 -561 -552q-526 0 -526 491zM362 1589l55 162l395 -152l-39 -122z" />
<glyph unicode="&#xda;" horiz-adv-x="1406" d="M159 471v911h223v-895q0 -154 63 -230q76 -93 255 -93q172 0 248 79q79 83 79 273v866h219v-850q0 -552 -561 -552q-526 0 -526 491zM626 1599l395 152l56 -162l-412 -112z" />
<glyph unicode="&#xdb;" horiz-adv-x="1406" d="M159 471v911h223v-895q0 -154 63 -230q76 -93 255 -93q172 0 248 79q79 83 79 273v866h219v-850q0 -552 -561 -552q-526 0 -526 491zM376 1589l330 174l334 -166l-60 -122l-280 118l-271 -118z" />
<glyph unicode="&#xdc;" horiz-adv-x="1406" d="M159 471v911h223v-895q0 -154 63 -230q76 -93 255 -93q172 0 248 79q79 83 79 273v866h219v-850q0 -552 -561 -552q-526 0 -526 491zM362 1602q0 50 35 85t86 35q50 0 85 -35t35 -85q0 -51 -35 -85t-85 -34q-51 0 -86 34t-35 85zM802 1602q0 50 35 85t86 35t86 -35 t35 -85q0 -51 -35 -85t-86 -34t-86 34t-35 85z" />
<glyph unicode="&#xdd;" horiz-adv-x="1122" d="M12 1382h244l205 -436q55 -123 98 -233h4q37 100 115 258l194 411h236l-441 -888v-494h-223v494zM471 1599l395 152l55 -162l-411 -112z" />
<glyph unicode="&#xde;" horiz-adv-x="1099" d="M159 0v1382h223v-202q77 6 162 6q245 0 380 -111q138 -113 138 -325q0 -215 -156 -349q-157 -135 -409 -135q-78 0 -115 4v-270h-223zM382 457q52 -8 131 -8q149 0 233 72q87 75 87 214q0 269 -326 269q-53 0 -125 -11v-536z" />
<glyph unicode="&#xdf;" horiz-adv-x="1226" d="M159 0v1018q0 253 139 379q121 110 332 110q182 0 288 -79q105 -78 105 -209q0 -148 -130 -247t-130 -171q0 -64 61 -114q20 -17 134 -85q194 -117 194 -289q0 -149 -113 -241q-114 -92 -302 -92q-122 0 -209 24l14 186q88 -38 186 -38q199 0 199 137q0 65 -60 116 q-22 17 -134 83q-193 114 -193 288q0 128 128 235t128 191q0 135 -176 135q-242 0 -242 -307v-1030h-219z" />
<glyph unicode="&#xe0;" horiz-adv-x="1071" d="M88 262q0 170 160 262q157 90 440 90v43q0 111 -44 160q-47 51 -157 51q-149 0 -307 -71l-39 170q179 71 377 71q213 0 306 -95q83 -85 83 -261v-403q0 -150 6 -279h-211q0 119 11 188l-2 2q-86 -210 -338 -210q-130 0 -208 79q-77 77 -77 203zM252 1452l145 113 l248 -320l-117 -92zM301 289q0 -60 37 -98q39 -39 102 -39q107 0 179 89q69 86 69 199v27q-387 0 -387 -178z" />
<glyph unicode="&#xe1;" horiz-adv-x="1071" d="M88 262q0 170 160 262q157 90 440 90v43q0 111 -44 160q-47 51 -157 51q-149 0 -307 -71l-39 170q179 71 377 71q213 0 306 -95q83 -85 83 -261v-403q0 -150 6 -279h-211q0 119 11 188l-2 2q-86 -210 -338 -210q-130 0 -208 79q-77 77 -77 203zM301 289q0 -60 37 -98 q39 -39 102 -39q107 0 179 89q69 86 69 199v27q-387 0 -387 -178zM414 1245l249 320l144 -113l-279 -299z" />
<glyph unicode="&#xe2;" horiz-adv-x="1071" d="M88 262q0 170 160 262q157 90 440 90v43q0 111 -44 160q-47 51 -157 51q-149 0 -307 -71l-39 170q179 71 377 71q213 0 306 -95q83 -85 83 -261v-403q0 -150 6 -279h-211q0 119 11 188l-2 2q-86 -210 -338 -210q-130 0 -208 79q-77 77 -77 203zM238 1260l299 272 l296 -270l-92 -103l-207 170l-208 -170zM301 289q0 -60 37 -98q39 -39 102 -39q107 0 179 89q69 86 69 199v27q-387 0 -387 -178z" />
<glyph unicode="&#xe3;" horiz-adv-x="1071" d="M88 262q0 170 160 262q157 90 440 90v43q0 111 -44 160q-47 51 -157 51q-149 0 -307 -71l-39 170q179 71 377 71q213 0 306 -95q83 -85 83 -261v-403q0 -150 6 -279h-211q0 119 11 188l-2 2q-86 -210 -338 -210q-130 0 -208 79q-77 77 -77 203zM172 1296q85 170 235 170 q73 0 148 -54q74 -54 108 -54q66 0 119 94l107 -82q-87 -170 -234 -170q-74 0 -149 54q-74 55 -109 55q-65 0 -119 -95zM301 289q0 -60 37 -98q39 -39 102 -39q107 0 179 89q69 86 69 199v27q-387 0 -387 -178z" />
<glyph unicode="&#xe4;" horiz-adv-x="1071" d="M88 262q0 170 160 262q157 90 440 90v43q0 111 -44 160q-47 51 -157 51q-149 0 -307 -71l-39 170q179 71 377 71q213 0 306 -95q83 -85 83 -261v-403q0 -150 6 -279h-211q0 119 11 188l-2 2q-86 -210 -338 -210q-130 0 -208 79q-77 77 -77 203zM207 1335q0 51 35 87 q36 36 88 36t88 -36q37 -36 37 -87q0 -52 -37 -88q-36 -37 -88 -37t-88 37q-35 36 -35 88zM301 289q0 -60 37 -98q39 -39 102 -39q107 0 179 89q69 86 69 199v27q-387 0 -387 -178zM608 1335q0 51 37 87q36 36 88 36q51 0 87 -36t36 -87q0 -52 -36 -88q-36 -37 -87 -37 q-52 0 -88 37q-37 36 -37 88z" />
<glyph unicode="&#xe5;" horiz-adv-x="1071" d="M88 262q0 170 160 262q157 90 440 90v43q0 111 -44 160q-47 51 -157 51q-149 0 -307 -71l-39 170q179 71 377 71q213 0 306 -95q83 -85 83 -261v-403q0 -150 6 -279h-211q0 119 11 188l-2 2q-86 -210 -338 -210q-130 0 -208 79q-77 77 -77 203zM293 1360q0 100 74 169 q72 68 174 68q103 0 174 -65q71 -67 71 -166q0 -98 -73 -169t-174 -71q-103 0 -174 66q-72 66 -72 168zM301 289q0 -60 37 -98q39 -39 102 -39q107 0 179 89q69 86 69 199v27q-387 0 -387 -178zM430 1362q0 -47 32 -79q32 -34 79 -34q45 0 77 34q31 32 31 79q0 48 -31 80 q-31 33 -77 33q-48 0 -79 -33q-32 -32 -32 -80z" />
<glyph unicode="&#xe6;" horiz-adv-x="1646" d="M88 262q0 170 160 263q158 91 440 91v60q0 192 -213 192q-150 0 -291 -73l-43 176q178 67 371 67q238 0 317 -145h2q107 145 312 145q208 0 317 -129q98 -117 98 -311q0 -42 -6 -106h-649q-9 -336 301 -336q158 0 293 61l29 -172q-163 -65 -361 -65q-319 0 -407 223h-2 q-110 -223 -379 -223q-132 0 -211 79q-78 77 -78 203zM299 289q0 -60 37 -98q39 -39 102 -39q108 0 181 89q69 85 69 199v29q-389 0 -389 -180zM907 641h432q3 109 -52 171t-152 62q-91 0 -153 -62q-61 -64 -75 -171z" />
<glyph unicode="&#xe7;" horiz-adv-x="882" d="M77 475q0 253 125 401q134 158 381 158q139 0 237 -39l-36 -188q-108 43 -213 43q-127 0 -197 -97q-68 -93 -68 -253q0 -328 267 -328q126 0 219 45l33 -182q-124 -51 -295 -51q-453 0 -453 491zM351 -481q82 99 91 170q9 78 -62 166l184 63q146 -194 -43 -399h-170z" />
<glyph unicode="&#xe8;" horiz-adv-x="1046" d="M77 502q0 235 124 382q129 154 345 154q207 0 315 -125q97 -112 97 -299q0 -73 -9 -131h-647q-9 -327 301 -327q153 0 293 59l29 -170q-171 -65 -361 -65q-487 0 -487 522zM255 1452l146 113l247 -320l-116 -92zM304 635h435q3 113 -53 177q-55 62 -152 62 q-93 0 -154 -63q-62 -64 -76 -176z" />
<glyph unicode="&#xe9;" horiz-adv-x="1046" d="M77 502q0 235 124 382q129 154 345 154q207 0 315 -125q97 -112 97 -299q0 -73 -9 -131h-647q-9 -327 301 -327q153 0 293 59l29 -170q-171 -65 -361 -65q-487 0 -487 522zM304 635h435q3 113 -53 177q-55 62 -152 62q-93 0 -154 -63q-62 -64 -76 -176zM411 1245l250 320 l143 -113l-278 -299z" />
<glyph unicode="&#xea;" horiz-adv-x="1046" d="M77 502q0 235 124 382q129 154 345 154q207 0 315 -125q97 -112 97 -299q0 -73 -9 -131h-647q-9 -327 301 -327q153 0 293 59l29 -170q-171 -65 -361 -65q-487 0 -487 522zM243 1260l299 272l297 -270l-92 -103l-207 170l-209 -170zM304 635h435q3 113 -53 177 q-55 62 -152 62q-93 0 -154 -63q-62 -64 -76 -176z" />
<glyph unicode="&#xeb;" horiz-adv-x="1046" d="M77 502q0 235 124 382q129 154 345 154q207 0 315 -125q97 -112 97 -299q0 -73 -9 -131h-647q-9 -327 301 -327q153 0 293 59l29 -170q-171 -65 -361 -65q-487 0 -487 522zM216 1335q0 51 36 87q35 36 87 36t89 -36q36 -36 36 -87q0 -52 -36 -88q-37 -37 -89 -37t-87 37 q-36 36 -36 88zM304 635h435q3 113 -53 177q-55 62 -152 62q-93 0 -154 -63q-62 -64 -76 -176zM618 1335q0 51 36 87q37 36 89 36q50 0 86 -36t36 -87q0 -52 -36 -88q-36 -37 -86 -37q-53 0 -89 37q-36 36 -36 88z" />
<glyph unicode="&#xec;" horiz-adv-x="538" d="M4 1452l145 113l248 -320l-117 -92zM160 0v1018h219v-1018h-219z" />
<glyph unicode="&#xed;" horiz-adv-x="538" d="M139 1245l250 320l143 -113l-278 -299zM159 0v1018h220v-1018h-220z" />
<glyph unicode="&#xee;" horiz-adv-x="538" d="M0 1260l270 272l267 -270l-91 -103l-180 170l-182 -170zM160 0v1018h219v-1018h-219z" />
<glyph unicode="&#xef;" horiz-adv-x="538" d="M-38 1335q0 51 36 87q37 36 89 36t87 -35q36 -35 36 -88q0 -52 -36 -88q-36 -37 -87 -37q-53 0 -89 37q-36 36 -36 88zM161 0v1018h219v-1018h-219zM329 1335q0 51 36 87t89 36q52 0 88 -35q36 -36 36 -88t-36 -88q-36 -37 -88 -37q-53 0 -89 37q-36 36 -36 88z" />
<glyph unicode="&#xf0;" d="M75 496q0 236 134 386q136 152 351 152q142 0 193 -80q-3 6 -57 97q-50 85 -121 159l-201 -88l-90 107l184 82q-61 53 -162 127l218 92q81 -66 147 -131l195 84l90 -109l-189 -82q277 -331 277 -729q0 -284 -145 -440q-134 -143 -353 -143q-217 0 -340 125 q-131 135 -131 391zM300 514q0 -166 72 -257q71 -89 197 -89q247 0 247 367q0 319 -256 319q-109 0 -180 -82q-80 -92 -80 -258z" />
<glyph unicode="&#xf1;" horiz-adv-x="1173" d="M159 0v1018h209q0 -121 -14 -201h2q100 221 354 221q303 0 303 -325v-713h-217v653q0 203 -152 203q-114 0 -190 -106t-76 -261v-489h-219zM233 1296q85 170 235 170q73 0 147 -54q75 -54 109 -54q66 0 119 94l107 -82q-87 -170 -234 -170q-74 0 -149 54q-75 55 -109 55 q-65 0 -119 -95z" />
<glyph unicode="&#xf2;" horiz-adv-x="1124" d="M75 496q0 234 138 386q141 156 368 156q216 0 336 -120q131 -131 131 -390q0 -237 -140 -392q-143 -156 -368 -156q-465 0 -465 516zM286 1452l145 113l248 -320l-117 -92zM302 518q0 -350 260 -350q113 0 182 85q76 92 76 261q0 340 -256 340q-109 0 -181 -80 q-81 -91 -81 -256z" />
<glyph unicode="&#xf3;" horiz-adv-x="1124" d="M75 496q0 234 138 386q141 156 368 156q216 0 336 -120q131 -131 131 -390q0 -237 -140 -392q-143 -156 -368 -156q-465 0 -465 516zM302 518q0 -350 260 -350q113 0 182 85q76 92 76 261q0 340 -256 340q-109 0 -181 -80q-81 -91 -81 -256zM437 1245l250 320l144 -113 l-279 -299z" />
<glyph unicode="&#xf4;" horiz-adv-x="1124" d="M75 496q0 234 138 386q141 156 368 156q216 0 336 -120q131 -131 131 -390q0 -237 -140 -392q-143 -156 -368 -156q-465 0 -465 516zM272 1260l299 272l297 -270l-93 -103l-206 170l-209 -170zM302 518q0 -350 260 -350q113 0 182 85q76 92 76 261q0 340 -256 340 q-109 0 -181 -80q-81 -91 -81 -256z" />
<glyph unicode="&#xf5;" horiz-adv-x="1124" d="M75 496q0 234 138 386q141 156 368 156q216 0 336 -120q131 -131 131 -390q0 -237 -140 -392q-143 -156 -368 -156q-465 0 -465 516zM216 1296q85 170 236 170q73 0 147 -54t109 -54q65 0 119 94l106 -82q-86 -170 -233 -170q-75 0 -149 54q-75 55 -109 55 q-66 0 -119 -95zM302 518q0 -350 260 -350q113 0 182 85q76 92 76 261q0 340 -256 340q-109 0 -181 -80q-81 -91 -81 -256z" />
<glyph unicode="&#xf6;" horiz-adv-x="1124" d="M75 496q0 234 138 386q141 156 368 156q216 0 336 -120q131 -131 131 -390q0 -237 -140 -392q-143 -156 -368 -156q-465 0 -465 516zM243 1335q0 51 35 87q36 36 88 36t88 -36q37 -36 37 -87q0 -52 -37 -88q-36 -37 -88 -37t-88 37q-35 36 -35 88zM302 518 q0 -350 260 -350q113 0 182 85q76 92 76 261q0 340 -256 340q-109 0 -181 -80q-81 -91 -81 -256zM644 1335q0 51 37 87q36 36 88 36q51 0 87 -36t36 -87q0 -52 -36 -88q-36 -37 -87 -37q-52 0 -88 37q-37 36 -37 88z" />
<glyph unicode="&#xf7;" d="M83 518v182h958v-182h-958zM421 197q0 58 40 99q41 42 99 42t99 -42q40 -41 40 -99t-40 -98q-41 -42 -99 -42t-99 42q-40 40 -40 98zM421 1020q0 58 40 99q41 40 99 40q59 0 99 -40q40 -41 40 -99t-40 -99q-40 -40 -99 -40q-58 0 -99 40q-40 41 -40 99z" />
<glyph unicode="&#xf8;" d="M75 496q0 235 136 386q141 156 372 156q59 0 131 -14l88 184l127 -55l-86 -182q207 -124 207 -443q0 -238 -138 -392q-141 -156 -368 -156q-85 0 -162 22l-94 -205l-129 56l96 206q-180 124 -180 437zM286 518q0 -173 80 -256l258 598q-28 6 -60 6q-114 0 -189 -79 q-89 -92 -89 -269zM474 170q38 -14 90 -14q123 0 196 88q79 95 79 270q0 193 -100 266z" />
<glyph unicode="&#xf9;" horiz-adv-x="1173" d="M159 305v713h217v-653q0 -203 152 -203q114 0 190 106t76 260v490h219v-1018h-209q0 120 14 201h-2q-100 -221 -354 -221q-303 0 -303 325zM292 1452l146 113l247 -320l-116 -92z" />
<glyph unicode="&#xfa;" horiz-adv-x="1173" d="M159 305v713h217v-653q0 -203 152 -203q114 0 190 106t76 260v490h219v-1018h-209q0 120 14 201h-2q-100 -221 -354 -221q-303 0 -303 325zM474 1245l250 320l144 -113l-279 -299z" />
<glyph unicode="&#xfb;" horiz-adv-x="1173" d="M159 305v713h217v-653q0 -203 152 -203q114 0 190 106t76 260v490h219v-1018h-209q0 120 14 201h-2q-100 -221 -354 -221q-303 0 -303 325zM288 1260l299 272l297 -270l-92 -103l-207 170l-209 -170z" />
<glyph unicode="&#xfc;" horiz-adv-x="1173" d="M159 305v713h217v-653q0 -203 152 -203q114 0 190 106t76 260v490h219v-1018h-209q0 120 14 201h-2q-100 -221 -354 -221q-303 0 -303 325zM261 1335q0 51 36 87q35 36 87 36t89 -36q36 -36 36 -87q0 -52 -36 -88q-36 -37 -89 -37q-52 0 -87 37q-36 36 -36 88zM663 1335 q0 51 36 87q37 36 89 36q50 0 87 -36q36 -36 36 -87q0 -52 -36 -88q-36 -37 -87 -37q-52 0 -89 37q-36 36 -36 88z" />
<glyph unicode="&#xfd;" horiz-adv-x="1003" d="M-43 -504l25 191q55 -17 125 -17q168 0 253 230l37 100l-381 1018h244l168 -465q47 -142 80 -266h2q28 113 100 317l146 414h235l-411 -1090q-94 -250 -208 -349q-109 -95 -286 -95q-59 0 -129 12zM406 1245l249 320l144 -113l-279 -299z" />
<glyph unicode="&#xfe;" horiz-adv-x="1142" d="M159 -500v1995h219v-434q0 -133 -12 -219h4q90 196 317 196q181 0 278 -124t97 -355q0 -270 -138 -421q-139 -152 -392 -152q-90 0 -154 12v-498h-219zM378 178q67 -20 160 -20q293 0 293 381q0 319 -201 319q-116 0 -187 -118q-65 -106 -65 -248v-314z" />
<glyph unicode="&#xff;" horiz-adv-x="1003" d="M-43 -504l25 191q55 -17 125 -17q168 0 253 230l37 100l-381 1018h244l168 -465q47 -142 80 -266h2q28 113 100 317l146 414h235l-411 -1090q-94 -250 -208 -349q-109 -95 -286 -95q-59 0 -129 12zM184 1335q0 51 36 87q35 36 87 36t89 -36q36 -36 36 -87q0 -52 -36 -88 q-37 -37 -89 -37t-87 37q-36 36 -36 88zM586 1335q0 51 36 87q37 36 89 36q50 0 86 -36q37 -36 37 -87q0 -52 -37 -88q-35 -37 -86 -37q-53 0 -89 37q-36 36 -36 88z" />
<glyph unicode="&#x152;" horiz-adv-x="1765" d="M77 676q0 333 194 535q184 192 463 192q118 0 211 -21h691v-186h-508v-393h481v-182h-481v-431h508v-190h-713q-120 -20 -223 -20q-308 0 -469 189q-154 180 -154 507zM315 702q0 -243 98 -379q104 -145 303 -145q91 0 190 31v969q-89 28 -184 28q-171 0 -284 -127 q-123 -139 -123 -377z" />
<glyph unicode="&#x153;" horiz-adv-x="1775" d="M73 496q0 235 138 387q141 155 370 155q241 0 352 -174q120 174 338 174q207 0 317 -129q99 -117 99 -311q0 -42 -6 -106h-650q-8 -336 302 -336q154 0 292 61l29 -172q-162 -65 -360 -65q-274 0 -385 190q-127 -190 -369 -190q-467 0 -467 516zM300 518q0 -350 260 -350 q113 0 183 85q78 93 78 261q0 340 -259 340q-109 0 -181 -80q-81 -91 -81 -256zM1036 641h432q3 109 -53 171q-55 62 -152 62q-91 0 -152 -62q-62 -64 -75 -171z" />
<glyph unicode="&#x178;" horiz-adv-x="1122" d="M12 1382h244l205 -436q55 -123 98 -233h4q37 100 115 258l194 411h236l-441 -888v-494h-223v494zM225 1602q0 50 35 85t86 35t86 -35t35 -85q0 -51 -35 -85t-86 -34t-86 34t-35 85zM665 1602q0 50 35 85t86 35t86 -35t35 -85q0 -51 -35 -85t-86 -34t-86 34t-35 85z" />
<glyph unicode="&#x2c6;" horiz-adv-x="880" d="M139 1260l299 272l297 -270l-92 -103l-207 170l-209 -170z" />
<glyph unicode="&#x2dc;" horiz-adv-x="976" d="M133 1296q85 170 236 170q72 0 147 -54q74 -54 109 -54q65 0 118 94l107 -82q-87 -170 -234 -170q-74 0 -149 54q-74 55 -109 55q-65 0 -119 -95z" />
<glyph unicode="&#x2000;" horiz-adv-x="947" />
<glyph unicode="&#x2001;" horiz-adv-x="1894" />
<glyph unicode="&#x2002;" horiz-adv-x="947" />
<glyph unicode="&#x2003;" horiz-adv-x="1894" />
<glyph unicode="&#x2004;" horiz-adv-x="631" />
<glyph unicode="&#x2005;" horiz-adv-x="473" />
<glyph unicode="&#x2006;" horiz-adv-x="315" />
<glyph unicode="&#x2007;" horiz-adv-x="315" />
<glyph unicode="&#x2008;" horiz-adv-x="236" />
<glyph unicode="&#x2009;" horiz-adv-x="378" />
<glyph unicode="&#x200a;" horiz-adv-x="105" />
<glyph unicode="&#x2010;" horiz-adv-x="679" d="M94 492v176h492v-176h-492z" />
<glyph unicode="&#x2011;" horiz-adv-x="679" d="M94 492v176h492v-176h-492z" />
<glyph unicode="&#x2012;" horiz-adv-x="679" d="M94 492v176h492v-176h-492z" />
<glyph unicode="&#x2013;" d="M0 514v191h1126v-191h-1126z" />
<glyph unicode="&#x2014;" horiz-adv-x="2048" d="M235 514v191h1577v-191h-1577z" />
<glyph unicode="&#x2018;" horiz-adv-x="520" d="M108 1126q3 202 241 414l92 -82q-178 -189 -86 -303q51 -61 17 -135q-33 -76 -119 -76q-65 0 -105 50q-42 51 -40 132z" />
<glyph unicode="&#x2019;" horiz-adv-x="520" d="M77 1010q175 190 86 303q-52 61 -19 136q34 77 121 77q65 0 105 -50q42 -51 40 -133q-4 -203 -241 -415z" />
<glyph unicode="&#x201a;" horiz-adv-x="520" d="M77 -252q176 192 86 303q-52 63 -19 137q34 76 121 76q65 0 105 -50q42 -51 40 -133q-4 -202 -241 -415z" />
<glyph unicode="&#x201c;" horiz-adv-x="933" d="M108 1126q3 202 241 414l92 -82q-178 -189 -86 -303q51 -61 17 -135q-33 -76 -119 -76q-65 0 -105 50q-42 51 -40 132zM522 1126q5 201 243 414l92 -82q-179 -189 -86 -303q51 -61 17 -135q-34 -76 -121 -76q-65 0 -105 50q-42 50 -40 132z" />
<glyph unicode="&#x201d;" horiz-adv-x="933" d="M77 1010q175 190 86 303q-52 61 -19 136q34 77 121 77q65 0 105 -50q42 -51 40 -133q-4 -203 -241 -415zM491 1010q177 191 86 303q-51 61 -17 136q34 77 121 77q65 0 105 -50q41 -51 40 -133q-5 -203 -243 -415z" />
<glyph unicode="&#x201e;" horiz-adv-x="933" d="M77 -252q176 192 86 303q-52 63 -19 137q34 76 121 76q65 0 105 -50q42 -51 40 -133q-4 -202 -241 -415zM491 -252q179 193 86 303q-51 63 -17 137q34 76 121 76q65 0 105 -50q41 -51 40 -133q-5 -202 -243 -415z" />
<glyph unicode="&#x2022;" horiz-adv-x="862" d="M159 608q0 113 79 193q80 80 193 80t193 -80q80 -81 80 -193t-80 -192t-193 -80t-193 80q-79 80 -79 192z" />
<glyph unicode="&#x2026;" horiz-adv-x="1415" d="M102 119q0 58 41 100q41 41 98 41q59 0 100 -41q42 -42 42 -100q0 -57 -42 -98t-100 -41q-57 0 -98 41t-41 98zM559 119q0 58 41 100q41 41 98 41q58 0 100 -41q41 -42 41 -100q0 -57 -41 -98q-42 -41 -100 -41q-57 0 -98 41t-41 98zM1015 119q0 58 42 100q41 41 100 41 q57 0 98 -41q41 -42 41 -100q0 -57 -41 -98t-98 -41q-58 0 -100 41t-42 98z" />
<glyph unicode="&#x202f;" horiz-adv-x="378" />
<glyph unicode="&#x2039;" horiz-adv-x="641" d="M98 600l242 383l164 -84l-193 -299l195 -293l-170 -86z" />
<glyph unicode="&#x203a;" horiz-adv-x="641" d="M137 305l193 299l-193 293l170 86l236 -379l-242 -383z" />
<glyph unicode="&#x205f;" horiz-adv-x="473" />
<glyph unicode="&#x20ac;" horiz-adv-x="1212" d="M26 463v135h160v53q0 43 4 121h-164v135h178q96 496 594 496q196 0 340 -78l-59 -174q-125 72 -289 72q-286 0 -344 -316h430v-135h-449q-2 -27 -2 -84q0 -61 2 -90h449v-135h-434q51 -303 356 -303q148 0 295 92l63 -164q-176 -108 -393 -108q-498 0 -567 483h-170z" />
<glyph unicode="&#x2122;" horiz-adv-x="1421" d="M75 1249v133h451v-133h-144v-442h-160v442h-147zM552 807l90 575h199l80 -286l20 -90l17 81l84 295h196l92 -575h-165l-41 278l-13 105l-20 -94l-82 -289h-156l-80 295l-20 88l-6 -76l-43 -307h-152z" />
<glyph unicode="&#x25fc;" horiz-adv-x="1020" d="M0 0v1020h1020v-1020h-1020z" />
</font>
</defs>
</svg>
