<?xml version="1.0" standalone="no"?>
<!DOCTYPE svg PUBLIC "-//W3C//DTD SVG 1.1//EN" "http://www.w3.org/Graphics/SVG/1.1/DTD/svg11.dtd" >
<svg xmlns="http://www.w3.org/2000/svg" xmlns:xlink="http://www.w3.org/1999/xlink" version="1.1">
<metadata></metadata>
<defs>
<font id="bahij_thesansarabicextralight" horiz-adv-x="1126" >
<font-face units-per-em="2048" ascent="1638" descent="-410" />
<missing-glyph horiz-adv-x="400" />
<glyph unicode="&#xfb01;" horiz-adv-x="1198" d="M12 932v86h242v53q0 432 446 432q125 0 258 -37l-24 -92q-127 41 -246 41q-326 0 -326 -321v-76h631v-1018h-109v932h-522v-932h-108v932h-242z" />
<glyph unicode="&#xfb02;" horiz-adv-x="1198" d="M12 932v86h242v135q0 350 434 350q143 0 305 -24v-1479h-109v1399q-107 18 -208 18q-164 0 -239 -67q-75 -68 -75 -217v-115h326v-86h-326v-932h-108v932h-242z" />
<glyph horiz-adv-x="0" />
<glyph horiz-adv-x="682" />
<glyph unicode=" "  horiz-adv-x="400" />
<glyph unicode="&#x09;" horiz-adv-x="400" />
<glyph unicode="&#xa0;" horiz-adv-x="400" />
<glyph unicode="!" horiz-adv-x="651" d="M258 74q0 37 26 62q25 26 62 26t63 -26q25 -25 25 -62t-25 -63q-26 -25 -63 -25t-62 25q-26 26 -26 63zM281 1430h131l-23 -1125h-86z" />
<glyph unicode="&#x22;" horiz-adv-x="671" d="M122 1425h127l-25 -421h-77zM421 1425h127l-25 -421h-77z" />
<glyph unicode="#" horiz-adv-x="1169" d="M75 412v73h219l47 428h-215v74h221l43 395h91l-44 -395h357l43 395h90l-43 -395h207v-74h-213l-47 -428h211v-73h-219l-43 -412h-91l43 412h-356l-43 -412h-90l43 412h-211zM384 485h357l47 428h-357z" />
<glyph unicode="$" horiz-adv-x="993" d="M141 946q0 131 92 220q92 88 244 104v225h88v-221q119 -3 221 -25l-6 -104q-117 37 -236 37q-156 0 -234 -69q-65 -58 -65 -150q0 -105 97 -175q50 -36 213 -104q149 -62 212 -118q97 -85 97 -216q0 -142 -90 -238q-94 -100 -258 -122v-283h-88v279q-147 0 -260 32l6 111 q116 -49 274 -49q305 0 305 250q0 107 -95 176q-50 35 -211 102q-148 61 -210 117q-96 86 -96 221z" />
<glyph unicode="%" horiz-adv-x="1515" d="M102 1077q0 140 76 229q80 93 217 93q272 0 272 -303q0 -144 -76 -233q-79 -93 -217 -93q-272 0 -272 307zM206 1092q0 -238 185 -238q76 0 124 64q48 63 48 163q0 234 -182 234q-78 0 -127 -63q-48 -62 -48 -160zM213 12l1009 1405l76 -51l-1010 -1405zM847 291 q0 140 76 228q80 93 217 93q273 0 273 -303q0 -144 -76 -232q-79 -93 -217 -93q-273 0 -273 307zM952 305q0 -237 184 -237q77 0 125 63q47 64 47 164q0 233 -182 233q-78 0 -126 -62t-48 -161z" />
<glyph unicode="&#x26;" horiz-adv-x="1624" d="M131 377q0 225 311 463q-207 238 -207 381q0 119 84 198q89 84 238 84q138 0 217 -74q74 -69 74 -180q0 -204 -264 -407q249 -276 530 -504v-2q176 231 154 559h112q13 -365 -192 -619q184 -145 295 -221l-68 -86q-168 115 -301 230q-229 -215 -551 -215q-200 0 -317 109 q-115 108 -115 284zM242 393q0 -135 94 -225q97 -92 252 -92q264 0 456 180q-317 266 -544 522q-258 -200 -258 -385zM344 1225q0 -113 182 -320q213 170 213 328q0 184 -196 184q-88 0 -143 -53q-56 -54 -56 -139z" />
<glyph unicode="'" horiz-adv-x="372" d="M122 1425h127l-25 -421h-77z" />
<glyph unicode="(" horiz-adv-x="614" d="M180 580q0 535 297 1009l74 -43q-267 -442 -267 -954q0 -530 269 -965l-78 -43q-295 469 -295 996z" />
<glyph unicode=")" horiz-adv-x="614" d="M77 1546l78 43q295 -468 295 -995q0 -535 -297 -1010l-74 43q266 443 266 955q0 529 -268 964z" />
<glyph unicode="*" horiz-adv-x="743" d="M92 1102l213 104l-213 105l45 78l197 -129l-15 235h90l-14 -235l197 129l43 -76l-213 -105l213 -104l-45 -80l-197 131l14 -235h-90l15 235l-197 -131z" />
<glyph unicode="+" d="M92 563v92h418v439h102v-439h422v-92h-422v-440h-102v440h-418z" />
<glyph unicode="," horiz-adv-x="409" d="M49 -233q162 176 92 274q-28 40 -7 81q20 40 65 40q41 0 66 -34q25 -35 20 -93q-11 -144 -185 -314z" />
<glyph unicode="-" horiz-adv-x="667" d="M102 561v92h463v-92h-463z" />
<glyph unicode="." horiz-adv-x="409" d="M116 74q0 37 26 62q25 26 62 26t63 -26q25 -25 25 -62t-25 -63q-26 -25 -63 -25t-62 25q-26 26 -26 63z" />
<glyph unicode="/" horiz-adv-x="845" d="M32 -330l717 1880h98l-717 -1880h-98z" />
<glyph unicode="0" horiz-adv-x="1191" d="M122 680q0 356 140 545q129 174 347 174q459 0 459 -697q0 -356 -140 -545q-129 -173 -347 -173q-459 0 -459 696zM239 696q0 -620 356 -620q162 0 254 139q102 156 102 471q0 623 -356 623q-162 0 -253 -141q-103 -157 -103 -472z" />
<glyph unicode="1" horiz-adv-x="706" d="M67 1264l324 118h94v-1382h-113v1276l-282 -113z" />
<glyph unicode="2" horiz-adv-x="1030" d="M145 0v86l307 360q291 344 291 580q0 124 -68 200q-75 83 -215 83t-284 -88l-17 98q157 80 326 80q174 0 275 -103q98 -98 98 -258q0 -255 -346 -659l-242 -285q157 6 647 6v-100h-772z" />
<glyph unicode="3" horiz-adv-x="1032" d="M149 6l16 105q80 -29 213 -29q175 0 281 91q100 88 100 222q0 135 -111 211q-112 78 -311 78q-53 0 -114 -6v90q479 -12 479 303q0 114 -71 176q-70 62 -191 62q-131 0 -252 -66l-10 98q138 58 276 58q182 0 277 -93q86 -83 86 -221q0 -253 -244 -344v-4 q135 -27 216 -112q87 -90 87 -224q0 -177 -145 -296q-146 -119 -365 -119q-132 0 -217 20z" />
<glyph unicode="4" horiz-adv-x="1093" d="M34 424l612 958h148v-940h254v-100h-254v-342h-109v342h-645zM149 436q151 6 536 6v832h-2z" />
<glyph unicode="5" horiz-adv-x="950" d="M141 6l16 105q86 -29 203 -29q180 0 286 93q105 92 105 249q0 305 -460 305q-66 0 -101 -2v655h592v-106h-487v-453q571 6 571 -379q0 -203 -147 -331q-146 -127 -373 -127q-115 0 -205 20z" />
<glyph unicode="6" horiz-adv-x="1177" d="M163 573q0 422 201 637q178 189 481 189q55 0 88 -4v-99q-46 7 -106 7q-452 0 -537 -523q-12 -86 -16 -102l2 -2q115 184 366 184q190 0 302 -112t112 -297q0 -197 -124 -330q-129 -137 -329 -137q-440 0 -440 589zM288 449q0 -170 87 -272q89 -103 241 -103 q141 0 233 96q94 99 94 260q0 152 -82 244q-87 96 -239 96q-148 0 -243 -97q-91 -92 -91 -224z" />
<glyph unicode="7" horiz-adv-x="923" d="M57 1276v106h799v-94q-298 -626 -449 -1288h-127q179 694 455 1280q-51 -4 -678 -4z" />
<glyph unicode="8" horiz-adv-x="1116" d="M141 311q0 198 309 398q-286 163 -286 360q0 150 109 243q112 95 298 95q170 0 271 -90q98 -87 98 -225q0 -180 -297 -369q325 -179 325 -387q0 -160 -122 -258q-120 -94 -308 -94q-192 0 -298 95q-99 89 -99 232zM258 324q0 -113 79 -179q81 -67 220 -67q125 0 205 59 q88 65 88 178q0 111 -97 202q-61 57 -215 142q-280 -173 -280 -335zM276 1083q0 -155 279 -311q268 168 268 309q0 103 -68 167q-72 69 -198 69q-128 0 -205 -65q-76 -63 -76 -169z" />
<glyph unicode="9" horiz-adv-x="1193" d="M135 932q0 196 124 329q129 138 331 138q438 0 438 -590q0 -421 -200 -636q-177 -189 -474 -189q-83 0 -151 10v108q85 -20 168 -20q446 0 530 520q12 86 16 103l-2 2q-115 -185 -366 -185q-190 0 -302 113q-112 111 -112 297zM248 952q0 -152 82 -243q87 -97 239 -97 q148 0 243 97q91 93 91 225q0 169 -87 271q-89 104 -241 104q-141 0 -233 -96q-94 -100 -94 -261z" />
<glyph unicode=":" horiz-adv-x="563" d="M229 74q0 37 26 62q25 26 62 26t63 -26q25 -25 25 -62t-25 -63q-26 -25 -63 -25t-62 25q-26 26 -26 63zM229 692q0 37 26 63q25 25 62 25t63 -25q25 -26 25 -63t-25 -62q-26 -26 -63 -26t-62 26q-26 25 -26 62z" />
<glyph unicode=";" horiz-adv-x="563" d="M165 -233q162 176 92 274q-28 40 -7 81q20 40 65 40q41 0 66 -34q25 -35 20 -93q-11 -144 -185 -314zM228 692q0 37 26 63q26 25 63 25q36 0 62 -25q26 -26 26 -63t-26 -62q-26 -26 -62 -26q-37 0 -63 26q-26 25 -26 62z" />
<glyph unicode="&#x3c;" d="M163 623l643 559l68 -68l-572 -489l572 -484l-68 -75z" />
<glyph unicode="=" d="M118 408v94h889v-94h-889zM118 717v94h889v-94h-889z" />
<glyph unicode="&#x3e;" d="M251 133l571 490l-571 483l68 76l643 -557l-643 -559z" />
<glyph unicode="?" horiz-adv-x="901" d="M204 1339l14 101q232 -11 384 -120q149 -107 149 -255q0 -109 -66 -201q-20 -28 -136 -145q-176 -180 -107 -414h-107q-73 239 99 428q133 146 132 144q64 85 64 176q0 113 -117 194q-120 83 -309 92zM300 74q0 37 26 62q25 26 62 26t63 -26q25 -25 25 -62t-25 -63 q-26 -25 -63 -25t-62 25q-26 26 -26 63z" />
<glyph unicode="@" horiz-adv-x="2019" d="M186 578q0 394 266 660q259 257 625 257q355 0 557 -209q180 -187 180 -469q0 -256 -127 -408q-121 -145 -309 -145q-130 0 -189 80q-51 70 -30 168h-6q-21 -75 -111 -155q-104 -93 -213 -93q-192 0 -192 258q0 237 113 389q123 164 335 164q137 0 250 -20l-86 -465 q-42 -230 154 -230q135 0 219 118q88 123 88 333q0 246 -148 409q-172 189 -493 189q-327 0 -550 -230q-227 -232 -227 -581q0 -317 179 -501q182 -187 501 -187q175 0 334 47l15 -96q-159 -47 -361 -47q-357 0 -566 207q-208 207 -208 557zM745 547q0 -182 111 -182 q98 0 189 122q99 134 145 363l24 125q-54 14 -147 14q-156 0 -247 -156q-75 -128 -75 -286z" />
<glyph unicode="A" horiz-adv-x="1239" d="M36 0l526 1382h117l522 -1382h-129l-131 362h-653l-133 -362h-119zM321 453h587l-229 624q-36 101 -63 185h-2q-25 -76 -62 -181z" />
<glyph unicode="B" horiz-adv-x="1146" d="M204 0v1382l145 2q113 2 205 2q422 0 422 -321q0 -255 -266 -336v-2q142 -12 226 -100q85 -88 85 -226q0 -155 -103 -264q-136 -143 -415 -143zM315 96q82 -12 206 -12q196 0 297 89q91 80 91 216q0 285 -453 285q-105 0 -141 -2v-576zM315 762q47 -2 143 -2 q405 0 405 287q0 251 -329 251q-88 0 -219 -4v-532z" />
<glyph unicode="C" horiz-adv-x="1228" d="M110 666q0 328 153 518q171 213 509 213q175 0 335 -47l-22 -103q-175 60 -344 60q-261 0 -394 -186q-118 -164 -118 -437q0 -602 532 -602q186 0 342 80l25 -94q-189 -82 -402 -82q-300 0 -459 177q-157 175 -157 503z" />
<glyph unicode="D" horiz-adv-x="1411" d="M204 0v1382l379 7q717 0 717 -689q0 -345 -221 -531q-207 -175 -562 -175q-66 0 -175 4q-70 2 -113 2h-25zM315 98q114 -14 221 -14q301 0 469 147q180 158 180 463q0 606 -619 606q-67 0 -251 -6v-1196z" />
<glyph unicode="E" horiz-adv-x="1044" d="M204 0v1382h672v-88h-561v-536h534v-88h-534v-580h561v-90h-672z" />
<glyph unicode="F" horiz-adv-x="966" d="M204 0v1382h672v-88h-561v-536h530v-88h-530v-670h-111z" />
<glyph unicode="G" horiz-adv-x="1411" d="M102 668q0 324 179 520q192 211 540 211q181 0 375 -60l-29 -100q-176 70 -365 70q-293 0 -448 -192q-135 -166 -135 -429q0 -293 157 -454q153 -158 422 -158q165 0 310 47v561h110v-627q-209 -73 -440 -73q-313 0 -493 179q-183 182 -183 505z" />
<glyph unicode="H" horiz-adv-x="1452" d="M204 0v1382h111v-618h821v618h110v-1382h-110v674h-821v-674h-111z" />
<glyph unicode="I" horiz-adv-x="520" d="M204 0v1382h111v-1382h-111z" />
<glyph unicode="J" horiz-adv-x="663" d="M2 4v105q80 -27 156 -27q99 0 141 52q49 60 49 214v1034h111v-1046q0 -348 -320 -348q-59 0 -137 16z" />
<glyph unicode="K" horiz-adv-x="1171" d="M204 0v1382h111v-675l649 675h141l-659 -669l680 -713h-162l-649 707v-707h-111z" />
<glyph unicode="L" horiz-adv-x="868" d="M204 0v1382h111v-1292h540v-90h-651z" />
<glyph unicode="M" horiz-adv-x="1837" d="M133 0l190 1382h150l352 -1026q47 -136 80 -260h2q43 147 76 242l358 1044h162l201 -1382h-117l-133 932q-35 243 -45 352h-4q-26 -93 -64 -205l-368 -1079h-142l-348 1014q-43 122 -86 270h-2q-8 -131 -37 -364l-108 -920h-117z" />
<glyph unicode="N" horiz-adv-x="1466" d="M204 0v1382h150l638 -995q100 -155 173 -283q-15 474 -15 920v358h111v-1382h-152l-645 1008q-101 157 -164 276q15 -401 15 -889v-395h-111z" />
<glyph unicode="O" horiz-adv-x="1445" d="M102 678q0 338 188 535q176 186 449 186q297 0 455 -192q149 -182 149 -502q0 -338 -188 -536q-176 -185 -449 -185q-297 0 -455 192q-149 181 -149 502zM221 705q0 -287 125 -452q132 -175 377 -175q210 0 351 156q150 168 150 446q0 285 -125 451q-132 176 -376 176 q-211 0 -352 -158q-150 -168 -150 -444z" />
<glyph unicode="P" horiz-adv-x="1058" d="M204 0v1382q172 7 307 7q219 0 344 -108q119 -103 119 -273q0 -202 -138 -324q-137 -121 -364 -121q-84 0 -157 8v-571h-111zM315 670q79 -15 174 -15q182 0 278 91q90 87 90 239q0 311 -372 311q-93 0 -170 -4v-622z" />
<glyph unicode="Q" horiz-adv-x="1443" d="M102 678q0 338 188 535q176 186 449 186q297 0 455 -192q149 -182 149 -502q0 -236 -95 -408q-101 -180 -288 -252h5q63 0 212 -47q111 -34 212 -34q30 0 59 3v-104q-43 -5 -85 -5q-139 0 -273 51q-197 75 -337 75h-47q-297 0 -455 192q-149 181 -149 502zM221 705 q0 -287 125 -452q132 -175 377 -175q209 0 350 157q151 169 151 445q0 285 -125 451q-132 176 -376 176q-211 0 -352 -158q-150 -168 -150 -444z" />
<glyph unicode="R" horiz-adv-x="1105" d="M204 0v1382q120 7 295 7q438 0 438 -332q0 -187 -143 -295q-130 -98 -326 -98q103 -113 127 -142l428 -522h-149l-533 666h-26v-666h-111zM315 756q49 -4 139 -4q173 0 272 79q96 77 96 203q0 145 -94 209q-85 57 -266 57q-77 0 -147 -6v-538z" />
<glyph unicode="S" horiz-adv-x="1032" d="M124 1030q0 162 115 263q121 106 331 106q128 0 248 -27l-16 -102q-121 37 -240 37q-327 0 -327 -265q0 -115 105 -188q54 -38 230 -108q163 -64 231 -123q105 -91 105 -236q0 -180 -132 -291q-134 -112 -357 -112q-156 0 -289 41l21 108q134 -51 278 -51q161 0 256 65 q111 76 111 226q0 117 -105 192q-55 39 -230 109q-163 64 -230 123q-105 90 -105 233z" />
<glyph unicode="T" horiz-adv-x="1069" d="M40 1292v90h987v-90h-438v-1292h-111v1292h-438z" />
<glyph unicode="U" horiz-adv-x="1441" d="M204 451v931h111v-917q0 -391 399 -391q212 0 310 97q104 103 104 337v874h108v-862q0 -536 -532 -536q-500 0 -500 467z" />
<glyph unicode="V" horiz-adv-x="1243" d="M36 1382h129l348 -966q58 -158 101 -297h2q37 124 106 307l363 956h116l-532 -1382h-117z" />
<glyph unicode="W" horiz-adv-x="1951" d="M90 1382h119l276 -1034q41 -156 60 -252h2q28 143 57 240l299 1046h145l316 -1065q34 -117 55 -221h2q14 72 43 187l289 1099h109l-375 -1382h-142l-321 1094q-38 133 -51 194h-2q-18 -92 -50 -198l-311 -1090h-143z" />
<glyph unicode="X" horiz-adv-x="1167" d="M49 0l467 717l-438 665h129l370 -575l367 575h125l-430 -653l479 -729h-137l-406 633l-401 -633h-125z" />
<glyph unicode="Y" horiz-adv-x="1050" d="M32 1382h123l256 -532q54 -112 113 -252h2q42 108 124 272l250 512h117l-442 -876v-506h-111v506z" />
<glyph unicode="Z" horiz-adv-x="1107" d="M96 0v76l659 1011q82 125 138 201q-168 -4 -355 -4h-417v98h888v-75l-694 -1065q-31 -49 -98 -148q51 6 389 6h410v-100h-920z" />
<glyph unicode="[" horiz-adv-x="647" d="M204 -395v1964h360v-80h-260v-1802h260v-82h-360z" />
<glyph unicode="\" horiz-adv-x="829" d="M32 1550h98l717 -1880h-98z" />
<glyph unicode="]" horiz-adv-x="647" d="M81 -313h260v1802h-260v80h360v-1964h-360v82z" />
<glyph unicode="^" d="M149 758l342 624h96l357 -622l-86 -45l-322 577l-307 -577z" />
<glyph unicode="_" d="M0 -432h1126v-84h-1126v84z" />
<glyph unicode="`" horiz-adv-x="747" d="M188 1462l86 66l219 -293l-65 -51z" />
<glyph unicode="a" horiz-adv-x="1060" d="M112 244q0 153 159 245q169 99 474 99v57q0 156 -53 225q-58 74 -195 74q-153 0 -305 -78l-29 92q170 76 350 76q340 0 340 -354v-356q0 -136 4 -324h-112q0 158 12 231l-4 2q-39 -107 -133 -176q-102 -73 -234 -73q-118 0 -194 68q-80 72 -80 192zM225 264 q0 -82 51 -135t135 -53q145 0 242 126q92 118 92 273v25q-520 0 -520 -236z" />
<glyph unicode="b" horiz-adv-x="1142" d="M204 25v1470h109v-549q0 -105 -19 -182l4 -2q94 272 365 272q377 0 377 -481q0 -272 -142 -421q-136 -142 -372 -142q-180 0 -322 35zM313 106q92 -30 225 -30q387 0 387 469q0 401 -275 401q-158 0 -255 -158q-82 -134 -82 -296v-386z" />
<glyph unicode="c" horiz-adv-x="913" d="M98 473q0 258 122 406q125 151 349 151q159 0 277 -49l-27 -92q-133 53 -272 53q-157 0 -247 -125q-87 -120 -87 -317q0 -420 340 -420q150 0 274 57l25 -88q-143 -61 -322 -61q-432 0 -432 485z" />
<glyph unicode="d" horiz-adv-x="1138" d="M98 465q0 272 142 421q136 142 372 142q93 0 213 -12v479h109v-1495h-115q0 150 20 244l-4 2q-94 -262 -360 -262q-377 0 -377 481zM213 473q0 -401 274 -401q159 0 256 158q82 134 82 296v389q-112 27 -225 27q-387 0 -387 -469z" />
<glyph unicode="e" horiz-adv-x="1026" d="M98 506q0 232 115 378q119 150 319 150q194 0 296 -122q89 -107 89 -281q0 -47 -2 -82h-700q-1 -21 -1 -42q0 -427 361 -427q159 0 287 59l24 -94q-148 -61 -335 -61q-453 0 -453 522zM221 635h577v11q0 136 -70 217q-74 83 -204 83q-120 0 -200 -81q-82 -83 -103 -230z " />
<glyph unicode="f" horiz-adv-x="706" d="M12 932v86h242v67q0 418 374 418q85 0 168 -18l-12 -94q-83 24 -172 24q-250 0 -250 -325v-72h326v-86h-326v-932h-108v932h-242z" />
<glyph unicode="g" horiz-adv-x="1097" d="M94 -227q0 181 184 290q-102 40 -102 148q0 104 106 162q-149 91 -149 284q0 158 109 264q117 113 307 113q47 0 123 -16h346v-86h-199q113 -86 113 -246q0 -161 -105 -262q-113 -111 -317 -111q-76 0 -137 21q-84 -37 -84 -107q0 -88 192 -94l213 -8q164 -6 252 -84 q86 -75 86 -205q0 -160 -146 -264q-147 -104 -372 -104q-191 0 -305 80q-115 82 -115 225zM207 -211q0 -107 94 -170q90 -59 233 -59q180 0 284 74q99 71 99 188q0 191 -254 201l-219 8q-51 0 -71 2q-166 -109 -166 -244zM248 670q0 -269 282 -269q133 0 210 71 q77 72 77 200t-72 201q-73 73 -205 73q-136 0 -216 -80q-76 -76 -76 -196z" />
<glyph unicode="h" horiz-adv-x="1187" d="M204 0v1495h109v-526q0 -135 -17 -201l4 -2q98 268 375 268q307 0 307 -327v-707h-108v662q0 143 -46 209q-52 75 -173 75q-152 0 -247 -130q-95 -129 -95 -331v-485h-109z" />
<glyph unicode="i" horiz-adv-x="518" d="M178 1352q0 33 24 58q24 24 58 24q82 0 82 -82q0 -34 -24 -58t-58 -24q-82 0 -82 82zM205 0v1018h108v-1018h-108z" />
<glyph unicode="j" horiz-adv-x="536" d="M-112 -514l14 100q67 -24 136 -24q111 0 149 58q37 57 37 226v1172h108v-1168q0 -207 -65 -292q-69 -90 -244 -90q-77 0 -135 18zM197 1352q0 33 24 58q24 24 58 24q82 0 82 -82q0 -34 -24 -58t-58 -24q-82 0 -82 82z" />
<glyph unicode="k" horiz-adv-x="952" d="M204 0v1495h109v-946l417 469h131l-424 -463l459 -555h-147l-436 547v-547h-109z" />
<glyph unicode="l" horiz-adv-x="518" d="M204 0v1495h109v-1495h-109z" />
<glyph unicode="m" horiz-adv-x="1824" d="M204 0v1018h113q0 -148 -19 -246l4 -2q95 264 369 264q164 0 238 -104q47 -66 47 -141v-15q94 260 364 260q299 0 299 -327v-707h-108v662q0 140 -42 206q-49 78 -167 78q-138 0 -233 -122q-103 -132 -103 -343v-481h-109v664q0 134 -37 198q-49 84 -172 84 q-143 0 -238 -129q-97 -132 -97 -336v-481h-109z" />
<glyph unicode="n" horiz-adv-x="1187" d="M204 0v1018h113q0 -148 -19 -246l4 -2q95 264 373 264q307 0 307 -327v-707h-108v662q0 143 -46 209q-52 75 -173 75q-152 0 -247 -130q-95 -129 -95 -331v-485h-109z" />
<glyph unicode="o" horiz-adv-x="1101" d="M96 508q0 222 121 368q130 158 350 158q192 0 305 -111q133 -131 133 -399q0 -229 -124 -381q-132 -159 -349 -159q-205 0 -318 129q-118 135 -118 395zM209 516q0 -210 91 -326q90 -116 255 -116q143 0 234 104q104 119 104 340q0 203 -87 314q-88 114 -253 114 q-144 0 -238 -104q-106 -116 -106 -326z" />
<glyph unicode="p" horiz-adv-x="1142" d="M204 -516v1534h115q0 -153 -21 -244l4 -2q94 262 361 262q377 0 377 -481q0 -272 -142 -421q-136 -142 -372 -142q-123 0 -213 14v-520h-109zM313 106q92 -30 225 -30q387 0 387 469q0 401 -275 401q-158 0 -255 -158q-82 -134 -82 -296v-386z" />
<glyph unicode="q" horiz-adv-x="1142" d="M102 465q0 273 142 422q137 143 378 143q153 0 316 -26v-1520h-109v594q0 99 14 166l-4 2q-94 -262 -360 -262q-377 0 -377 481zM217 473q0 -401 274 -401q158 0 255 158q83 135 83 296v392q-112 26 -225 26q-387 0 -387 -471z" />
<glyph unicode="r" horiz-adv-x="724" d="M204 0v1018h113q0 -141 -27 -277l4 -2q33 137 115 216q85 80 208 81q25 0 52 -4l-4 -106q-30 5 -58 5q-294 0 -294 -528v-403h-109z" />
<glyph unicode="s" horiz-adv-x="886" d="M120 748q0 128 97 205q102 81 282 81q101 0 207 -24l-17 -97q-101 33 -209 33q-249 0 -249 -184q0 -92 83 -140q41 -24 183 -63q128 -35 183 -77q83 -65 83 -185q0 -133 -108 -220q-115 -93 -304 -93q-138 0 -227 26l19 109q103 -39 233 -39q122 0 198 53q78 55 78 146 t-83 138q-40 22 -183 61q-127 36 -183 80q-83 66 -83 190z" />
<glyph unicode="t" horiz-adv-x="753" d="M0 932v86h242v348l108 31v-379h322v-86h-322v-592q0 -153 34 -205q34 -51 134 -51q72 0 146 18l16 -96q-89 -20 -188 -20q-142 0 -198 71q-52 65 -52 222v653h-242z" />
<glyph unicode="u" horiz-adv-x="1187" d="M204 311v707h109v-662q0 -143 45 -210q52 -74 174 -74q151 0 247 129q95 129 95 331v486h108v-1018h-112q0 147 18 246l-4 2q-95 -264 -373 -264q-307 0 -307 327z" />
<glyph unicode="v" horiz-adv-x="954" d="M26 1018h127l268 -750q38 -109 54 -162h2q22 70 53 156l276 756h121l-397 -1018h-115z" />
<glyph unicode="w" horiz-adv-x="1617" d="M45 1018h125l201 -696q11 -41 36 -126l29 -102h2q25 95 68 230l223 694h141l228 -694q56 -174 71 -232h2l281 926h121l-338 -1018h-133l-256 743q-28 81 -56 181h-2q-19 -73 -75 -256l-211 -668h-140z" />
<glyph unicode="x" horiz-adv-x="1042" d="M61 0l397 508l-379 510h142l303 -428l311 428h129l-383 -502l400 -516h-150l-315 438l-316 -438h-139z" />
<glyph unicode="y" horiz-adv-x="937" d="M-63 -522l12 102q50 -14 115 -14q100 0 166 62q73 68 141 241l51 131l-395 1018h129l244 -664q40 -112 78 -227h2q19 65 104 305l207 586h121l-428 -1131q-87 -232 -185 -324q-100 -95 -266 -95q-48 0 -96 10z" />
<glyph unicode="z" horiz-adv-x="909" d="M102 0v76l565 850q-151 -4 -319 -4h-236v96h674v-74l-561 -848q135 4 321 4h250v-100h-694z" />
<glyph unicode="{" horiz-adv-x="657" d="M63 608v94q136 8 183 55q44 45 44 167v301q0 344 269 344h30v-80q-111 0 -155 -58q-43 -57 -43 -198v-299q0 -239 -193 -277v-2q193 -29 193 -278v-436q0 -141 43 -197q44 -57 155 -57v-82h-30q-269 0 -269 344v438q0 116 -47 164q-49 50 -180 57z" />
<glyph unicode="|" horiz-adv-x="577" d="M245 -516v2048h86v-2048h-86z" />
<glyph unicode="}" horiz-adv-x="647" d="M83 -313q111 0 155 57q44 56 44 197v436q0 249 192 278v2q-192 26 -192 267v309q0 141 -44 198q-44 58 -155 58v80h31q268 0 268 -344v-291q0 -129 45 -176q46 -48 182 -56v-94q-131 -7 -180 -57q-47 -48 -47 -164v-438q0 -344 -268 -344h-31v82z" />
<glyph unicode="~" d="M135 918v4q0 121 65 197q65 77 175 77q117 0 213 -119q97 -119 176 -119q146 0 149 199h82v-4q0 -121 -64 -197q-66 -77 -175 -77q-117 0 -214 118q-97 119 -176 119q-145 0 -149 -198h-82z" />
<glyph unicode="&#xa1;" horiz-adv-x="651" d="M217 944q0 37 26 63q25 25 62 25t63 -25q25 -26 25 -63t-25 -62q-26 -26 -63 -26t-62 26q-26 25 -26 62zM240 -412l22 1125h86l23 -1125h-131z" />
<glyph unicode="&#xa2;" horiz-adv-x="935" d="M94 569q0 201 112 333q113 133 304 155v186h92v-182q127 -3 244 -49l-9 -101q-115 60 -260 60q-172 0 -271 -106t-99 -292q0 -395 368 -395q153 0 269 72l8 -98q-112 -54 -250 -66v-225h-92v225q-198 14 -306 136q-110 125 -110 347z" />
<glyph unicode="&#xa3;" horiz-adv-x="954" d="M61 698v86h225q-26 200 -26 265q0 165 93 256q94 92 267 92q112 0 201 -27l-21 -98q-100 37 -198 37q-234 0 -234 -238q0 -92 29 -287h342v-86h-330q12 -104 12 -176q0 -151 -40 -240q-43 -92 -162 -194q92 10 198 10h469v-98h-798v78q227 183 227 432q0 59 -14 188h-240 z" />
<glyph unicode="&#xa4;" d="M157 205l158 192q-92 99 -92 281q0 163 102 262l-168 205l72 57l157 -215q77 47 187 47q116 0 194 -47l164 215l68 -57l-172 -213q75 -86 75 -248q0 -154 -88 -252l185 -225l-72 -60l-172 232q-88 -64 -207 -64q-96 0 -166 35l-151 -203zM327 680q0 -279 242 -279 q95 0 160 78q69 81 69 205q0 264 -244 264q-99 0 -163 -73q-64 -75 -64 -195z" />
<glyph unicode="&#xa5;" horiz-adv-x="1191" d="M108 1382h123l256 -532q52 -107 110 -260h3q50 131 124 280l252 512h117l-416 -823h330v-84h-356v-166h356v-84h-356v-225h-111v225h-356v84h356v166h-356v84h330z" />
<glyph unicode="&#xa6;" horiz-adv-x="577" d="M245 258h86v-774h-86v774zM245 778v754h86v-754h-86z" />
<glyph unicode="&#xa7;" horiz-adv-x="1044" d="M174 721q0 157 164 285q-82 112 -82 213q0 123 78 201q84 83 229 83q77 0 141 -18l-12 -94q-73 22 -139 22q-186 0 -186 -180q0 -114 236 -361q237 -246 237 -415q0 -162 -164 -283q82 -113 82 -213q0 -123 -83 -205q-87 -88 -233 -88q-77 0 -153 23l12 94 q85 -27 152 -27q89 0 142 53q52 52 52 136q0 113 -236 359q-237 246 -237 415zM285 735q0 -113 115 -251q36 -45 108 -119q83 -86 112 -119q109 74 109 196q0 113 -114 252q-36 44 -108 120q-82 86 -112 120q-110 -77 -110 -199z" />
<glyph unicode="&#xa8;" horiz-adv-x="1118" d="M276 1352q0 80 80 80t80 -80t-80 -80t-80 80zM649 1352q0 80 80 80q79 0 79 -80t-79 -80q-80 0 -80 80z" />
<glyph unicode="&#xa9;" horiz-adv-x="1536" d="M88 686q0 280 197 477q198 197 479 197t477 -194q197 -195 197 -476q0 -279 -197 -476q-198 -198 -477 -198q-289 0 -483 195q-193 192 -193 475zM184 690q0 -242 169 -414q170 -174 411 -174t410 171q169 170 169 413q0 241 -169 413q-170 173 -410 173 q-241 0 -411 -170q-169 -169 -169 -412zM446 676q0 162 78 260q93 117 277 117q73 0 155 -23l-6 -90q-78 33 -164 33q-235 0 -235 -289q0 -274 227 -274q95 0 178 30l6 -84q-89 -30 -196 -30q-320 0 -320 350z" />
<glyph unicode="&#xaa;" horiz-adv-x="765" d="M116 883q0 103 98 167q106 68 297 68v43q0 150 -145 150q-111 0 -207 -54l-6 97q94 41 227 41q232 0 232 -217l-2 -256l2 -183h-107q0 59 12 117l-4 2q-17 -50 -76 -89q-63 -42 -131 -42q-190 0 -190 156zM130 504v88h545v-88h-545zM220 901q0 -88 101 -88q92 0 147 84 q43 64 43 129v16q-291 0 -291 -141z" />
<glyph unicode="&#xab;" horiz-adv-x="993" d="M135 602l244 344l75 -51l-202 -291l202 -287l-77 -53zM479 602l260 344l76 -51l-219 -291l219 -287l-78 -53z" />
<glyph unicode="&#xac;" d="M92 563v92h881v-428h-93v336h-788z" />
<glyph unicode="&#xad;" horiz-adv-x="667" d="M102 561v92h463v-92h-463z" />
<glyph unicode="&#xae;" horiz-adv-x="1148" d="M149 1079q0 175 124 300q125 124 300 124q180 0 302 -122t122 -302q0 -172 -126 -298t-298 -126q-181 0 -303 123q-121 122 -121 301zM237 1083q0 -140 98 -243q99 -103 238 -103q140 0 238 99t98 239q0 141 -98 243q-99 103 -238 103q-140 0 -238 -99t-98 -239zM438 844 v477h135q158 0 158 -119q0 -126 -129 -139q16 -19 47 -68l104 -151h-96l-139 215h-4v-215h-76zM514 1108h34q105 0 105 84q0 68 -84 68h-55v-152z" />
<glyph unicode="&#xaf;" horiz-adv-x="808" d="M163 1296v86h481v-86h-481z" />
<glyph unicode="&#xb0;" horiz-adv-x="745" d="M131 1262q0 107 75 175q70 64 169 64q113 0 178 -70q59 -65 59 -165q0 -103 -77 -171q-73 -65 -171 -65q-107 0 -170 64q-63 63 -63 168zM227 1266q0 -158 142 -158q63 0 105 43q42 44 42 113q0 159 -147 159q-60 0 -100 -43q-42 -45 -42 -114z" />
<glyph unicode="&#xb1;" d="M92 0v92h942v-92h-942zM92 666v92h420v426h102v-426h420v-92h-420v-428h-102v428h-420z" />
<glyph unicode="&#xb2;" horiz-adv-x="700" d="M88 758v78l233 231q148 147 148 274q0 177 -168 177q-101 0 -182 -54l-21 80q107 58 221 58q122 0 191 -71q65 -66 65 -173q0 -166 -174 -334l-180 -176q103 4 397 4v-94h-530z" />
<glyph unicode="&#xb3;" horiz-adv-x="677" d="M88 760l14 96q74 -25 160 -25q201 0 201 162q0 187 -318 148v86q287 0 287 162q0 127 -154 127q-81 0 -161 -37l-15 86q102 37 195 37q111 0 175 -53q67 -54 67 -150q0 -152 -152 -199q82 -12 134 -68q50 -55 50 -128q0 -116 -95 -189q-93 -72 -234 -72q-72 0 -154 17z " />
<glyph unicode="&#xb4;" horiz-adv-x="786" d="M241 1235l221 293l84 -66l-242 -278z" />
<glyph unicode="&#xb5;" horiz-adv-x="1208" d="M204 -516v1534h109v-682q0 -264 219 -264q151 0 247 129q95 129 95 331v486h108v-680q0 -162 27 -212q25 -46 104 -46v-90q-22 -2 -51 -2q-202 0 -174 258l-2 2q-98 -264 -375 -264q-150 0 -209 92l15 -592h-113z" />
<glyph unicode="&#xb6;" horiz-adv-x="1142" d="M157 967q0 176 116 294q120 121 310 121v-841q-206 -2 -321 124q-105 116 -105 302zM577 -117h155v1499h267v-79h-156v-1500h-266v80z" />
<glyph unicode="&#xb7;" horiz-adv-x="409" d="M110 608q0 40 27 67t67 27t67 -27t27 -67t-27 -67t-67 -27t-67 27t-27 67z" />
<glyph unicode="&#xb8;" horiz-adv-x="819" d="M385 -483q91 116 103 185q13 78 -56 161l103 53q134 -170 -48 -399h-102z" />
<glyph unicode="&#xb9;" horiz-adv-x="526" d="M38 1501l238 86h79v-829h-102v729l-195 -78z" />
<glyph unicode="&#xba;" horiz-adv-x="845" d="M114 1067q0 142 86 235q87 95 223 95q295 0 295 -324q0 -153 -88 -249q-88 -95 -229 -95q-287 0 -287 338zM145 504v88h544v-88h-544zM229 1067q0 -246 182 -246q192 0 192 254q0 232 -184 232q-79 0 -130 -56q-60 -64 -60 -184z" />
<glyph unicode="&#xbb;" horiz-adv-x="993" d="M176 315l221 291l-217 287l78 53l256 -338l-262 -344zM536 315l205 291l-200 287l77 53l240 -338l-246 -344z" />
<glyph unicode="&#xbc;" horiz-adv-x="1624" d="M38 1501l238 86h79v-829h-102v729l-195 -78zM93 -215l1284 1851l80 -55l-1284 -1851zM882 61l362 564h144v-543h145v-90h-145v-197h-103v197h-395zM992 78q80 4 293 4v455z" />
<glyph unicode="&#xbd;" horiz-adv-x="1697" d="M38 1501l238 86h79v-829h-102v729l-195 -78zM93 -215l1284 1851l80 -55l-1284 -1851zM1052 -127l233 231q148 148 148 275q0 176 -168 176q-101 0 -183 -53l-20 80q107 57 221 57q122 0 191 -70q65 -67 65 -174q0 -165 -174 -334l-180 -176q102 4 397 4v-94h-530v78z" />
<glyph unicode="&#xbe;" horiz-adv-x="1671" d="M88 760l14 96q74 -25 160 -25q201 0 201 162q0 187 -318 148v86q287 0 287 162q0 127 -154 127q-81 0 -161 -37l-15 86q102 37 195 37q111 0 175 -53q67 -54 67 -150q0 -152 -152 -199q82 -12 134 -68q50 -55 50 -128q0 -116 -95 -189q-93 -72 -234 -72q-72 0 -154 17z M141 -215l1284 1851l80 -55l-1284 -1851zM930 61l362 564h144v-543h145v-90h-145v-197h-103v197h-395zM1040 78q80 4 293 4v455z" />
<glyph unicode="&#xbf;" horiz-adv-x="901" d="M149 -47q0 109 66 200q20 28 135 146q177 180 108 414h107q72 -239 -99 -428q-133 -146 -132 -144q-64 -86 -64 -176q0 -113 117 -194q120 -83 309 -93l-15 -100q-231 11 -383 120q-149 107 -149 255zM423 944q0 37 26 63q26 25 62 25q37 0 63 -25q26 -26 26 -63t-26 -62 q-26 -26 -63 -26q-36 0 -62 26q-26 25 -26 62z" />
<glyph unicode="&#xc0;" horiz-adv-x="1239" d="M36 0l526 1382h117l522 -1382h-129l-131 362h-653l-133 -362h-119zM321 453h587l-229 624q-36 101 -63 185h-2q-25 -76 -62 -181zM349 1624l45 98l322 -149l-29 -70z" />
<glyph unicode="&#xc1;" horiz-adv-x="1239" d="M36 0l526 1382h117l522 -1382h-129l-131 362h-653l-133 -362h-119zM321 453h587l-229 624q-36 101 -63 185h-2q-25 -76 -62 -181zM505 1573l322 149l45 -98l-338 -121z" />
<glyph unicode="&#xc2;" horiz-adv-x="1239" d="M36 0l526 1382h117l522 -1382h-129l-131 362h-653l-133 -362h-119zM308 1571l308 170l313 -164l-45 -78l-275 135l-262 -135zM321 453h587l-229 624q-36 101 -63 185h-2q-25 -76 -62 -181z" />
<glyph unicode="&#xc3;" horiz-adv-x="1239" d="M36 0l526 1382h117l522 -1382h-129l-131 362h-653l-133 -362h-119zM284 1587q74 133 203 133q73 0 155 -58t125 -58q75 0 137 96l62 -47q-78 -133 -203 -133q-74 0 -156 58t-125 58q-78 0 -137 -96zM321 453h587l-229 624q-36 101 -63 185h-2q-25 -76 -62 -181z" />
<glyph unicode="&#xc4;" horiz-adv-x="1239" d="M36 0l526 1382h117l522 -1382h-129l-131 362h-653l-133 -362h-119zM321 453h587l-229 624q-36 101 -63 185h-2q-25 -76 -62 -181zM321 1589q0 80 80 80q79 0 79 -80t-79 -80q-80 0 -80 80zM755 1589q0 80 80 80t80 -80t-80 -80t-80 80z" />
<glyph unicode="&#xc5;" horiz-adv-x="1239" d="M36 0l526 1382h117l522 -1382h-129l-131 362h-653l-133 -362h-119zM321 453h587l-229 624q-36 101 -63 185h-2q-25 -76 -62 -181zM431 1649q0 79 60 137q60 57 139 57q83 0 139 -53q55 -53 55 -133q0 -76 -59 -135q-60 -60 -139 -60q-83 0 -138 52q-57 53 -57 135z M519 1653q0 -47 32 -80q31 -33 77 -33t77 33t31 80q0 46 -31 79t-77 33t-77 -33q-32 -33 -32 -79z" />
<glyph unicode="&#xc6;" horiz-adv-x="1589" d="M-96 0l782 1382h711v-88h-547v-536h527v-88h-527v-580h572v-90h-682v362h-514l-201 -362h-121zM275 453h465v835h-7q-65 -131 -143 -270z" />
<glyph unicode="&#xc7;" horiz-adv-x="1228" d="M110 666q0 328 153 518q171 213 509 213q175 0 335 -47l-22 -103q-175 60 -344 60q-261 0 -394 -186q-118 -164 -118 -437q0 -602 532 -602q186 0 342 80l25 -94q-189 -82 -402 -82q-300 0 -459 177q-157 175 -157 503zM575 -483q90 116 103 185q13 78 -56 161l102 53 q135 -170 -47 -399h-102z" />
<glyph unicode="&#xc8;" horiz-adv-x="1044" d="M204 0v1382h672v-88h-561v-536h534v-88h-534v-580h561v-90h-672zM274 1624l45 98l321 -149l-28 -70z" />
<glyph unicode="&#xc9;" horiz-adv-x="1044" d="M204 0v1382h672v-88h-561v-536h534v-88h-534v-580h561v-90h-672zM425 1573l322 149l45 -98l-338 -121z" />
<glyph unicode="&#xca;" horiz-adv-x="1044" d="M204 0v1382h672v-88h-561v-536h534v-88h-534v-580h561v-90h-672zM229 1571l307 170l313 -164l-45 -78l-274 135l-263 -135z" />
<glyph unicode="&#xcb;" horiz-adv-x="1044" d="M204 0v1382h672v-88h-561v-536h534v-88h-534v-580h561v-90h-672zM229 1589q0 80 79 80q80 0 80 -80t-80 -80q-79 0 -79 80zM663 1589q0 80 80 80q79 0 79 -80t-79 -80q-80 0 -80 80z" />
<glyph unicode="&#xcc;" horiz-adv-x="520" d="M-12 1624l45 98l322 -149l-29 -70zM205 0v1382h111v-1382h-111z" />
<glyph unicode="&#xcd;" horiz-adv-x="520" d="M169 1573l322 149l45 -98l-338 -121zM204 0v1382h110v-1382h-110z" />
<glyph unicode="&#xce;" horiz-adv-x="520" d="M-47 1571l307 170l314 -164l-46 -78l-274 135l-262 -135zM205 0v1382h110v-1382h-110z" />
<glyph unicode="&#xcf;" horiz-adv-x="520" d="M-36 1589q0 80 80 80t80 -80t-80 -80t-80 80zM206 0v1382h110v-1382h-110zM398 1589q0 80 80 80t80 -80t-80 -80t-80 80z" />
<glyph unicode="&#xd0;" horiz-adv-x="1427" d="M4 670v88h217v624l379 7q717 0 717 -689q0 -345 -221 -531q-207 -175 -562 -175q-66 0 -175 4q-94 3 -138 2v670h-217zM332 98q114 -14 221 -14q301 0 469 147q180 158 180 463q0 606 -618 606q-68 0 -252 -6v-536h338v-88h-338v-572z" />
<glyph unicode="&#xd1;" horiz-adv-x="1466" d="M204 0v1382h150l638 -995q100 -155 173 -283q-15 474 -15 920v358h111v-1382h-152l-645 1008q-101 157 -164 276q15 -401 15 -889v-395h-111zM390 1587q75 133 203 133q74 0 156 -58t125 -58q75 0 137 96l61 -47q-78 -133 -202 -133q-74 0 -156 58t-125 58 q-78 0 -137 -96z" />
<glyph unicode="&#xd2;" horiz-adv-x="1445" d="M102 678q0 338 188 535q176 186 449 186q297 0 455 -192q149 -182 149 -502q0 -338 -188 -536q-176 -185 -449 -185q-297 0 -455 192q-149 181 -149 502zM221 705q0 -287 125 -452q132 -175 377 -175q210 0 351 156q150 168 150 446q0 285 -125 451q-132 176 -376 176 q-211 0 -352 -158q-150 -168 -150 -444zM434 1624l45 98l321 -149l-28 -70z" />
<glyph unicode="&#xd3;" horiz-adv-x="1445" d="M102 678q0 338 188 535q176 186 449 186q297 0 455 -192q149 -182 149 -502q0 -338 -188 -536q-176 -185 -449 -185q-297 0 -455 192q-149 181 -149 502zM221 705q0 -287 125 -452q132 -175 377 -175q210 0 351 156q150 168 150 446q0 285 -125 451q-132 176 -376 176 q-211 0 -352 -158q-150 -168 -150 -444zM653 1573l321 149l46 -98l-338 -121z" />
<glyph unicode="&#xd4;" horiz-adv-x="1445" d="M102 678q0 338 188 535q176 186 449 186q297 0 455 -192q149 -182 149 -502q0 -338 -188 -536q-176 -185 -449 -185q-297 0 -455 192q-149 181 -149 502zM221 705q0 -287 125 -452q132 -175 377 -175q210 0 351 156q150 168 150 446q0 285 -125 451q-132 176 -376 176 q-211 0 -352 -158q-150 -168 -150 -444zM421 1571l308 170l313 -164l-45 -78l-274 135l-263 -135z" />
<glyph unicode="&#xd5;" horiz-adv-x="1445" d="M102 678q0 338 188 535q176 186 449 186q297 0 455 -192q149 -182 149 -502q0 -338 -188 -536q-176 -185 -449 -185q-297 0 -455 192q-149 181 -149 502zM221 705q0 -287 125 -452q132 -175 377 -175q210 0 351 156q150 168 150 446q0 285 -125 451q-132 176 -376 176 q-211 0 -352 -158q-150 -168 -150 -444zM378 1587q75 133 203 133q74 0 156 -58t125 -58q75 0 137 96l61 -47q-77 -133 -202 -133q-74 0 -156 58t-125 58q-78 0 -137 -96z" />
<glyph unicode="&#xd6;" horiz-adv-x="1445" d="M102 678q0 338 188 535q176 186 449 186q297 0 455 -192q149 -182 149 -502q0 -338 -188 -536q-176 -185 -449 -185q-297 0 -455 192q-149 181 -149 502zM221 705q0 -287 125 -452q132 -175 377 -175q210 0 351 156q150 168 150 446q0 285 -125 451q-132 176 -376 176 q-211 0 -352 -158q-150 -168 -150 -444zM432 1589q0 80 80 80q79 0 79 -80t-79 -80q-80 0 -80 80zM866 1589q0 80 80 80t80 -80t-80 -80t-80 80z" />
<glyph unicode="&#xd7;" d="M129 236l371 370l-371 371l66 65l370 -370l371 370l61 -61l-370 -371l370 -370l-65 -66l-371 371l-371 -371z" />
<glyph unicode="&#xd8;" horiz-adv-x="1445" d="M102 678q0 338 188 535q176 186 449 186q107 0 186 -21l76 203l88 -33l-76 -200q330 -142 330 -652q0 -338 -185 -530q-175 -182 -460 -182q-107 0 -193 24l-81 -217l-89 33l82 217q-315 152 -315 637zM221 705q0 -420 233 -564l439 1145q-65 21 -170 21 q-211 0 -352 -158q-150 -168 -150 -444zM540 102q74 -24 170 -24q229 0 369 155q145 162 145 443q0 429 -248 575z" />
<glyph unicode="&#xd9;" horiz-adv-x="1441" d="M204 451v931h111v-917q0 -391 399 -391q212 0 310 97q104 103 104 337v874h108v-862q0 -536 -532 -536q-500 0 -500 467zM427 1624l45 98l322 -149l-29 -70z" />
<glyph unicode="&#xda;" horiz-adv-x="1441" d="M204 451v931h111v-917q0 -391 399 -391q212 0 310 97q104 103 104 337v874h108v-862q0 -536 -532 -536q-500 0 -500 467zM669 1573l321 149l45 -98l-337 -121z" />
<glyph unicode="&#xdb;" horiz-adv-x="1441" d="M204 451v931h111v-917q0 -391 399 -391q212 0 310 97q104 103 104 337v874h108v-862q0 -536 -532 -536q-500 0 -500 467zM415 1571l307 170l313 -164l-45 -78l-274 135l-262 -135z" />
<glyph unicode="&#xdc;" horiz-adv-x="1441" d="M204 451v931h111v-917q0 -391 399 -391q212 0 310 97q104 103 104 337v874h108v-862q0 -536 -532 -536q-500 0 -500 467zM421 1589q0 80 80 80t80 -80t-80 -80t-80 80zM855 1589q0 80 80 80t80 -80t-80 -80t-80 80z" />
<glyph unicode="&#xdd;" horiz-adv-x="1050" d="M32 1382h123l256 -532q54 -112 113 -252h2q42 108 124 272l250 512h117l-442 -876v-506h-111v506zM470 1573l322 149l45 -98l-338 -121z" />
<glyph unicode="&#xde;" horiz-adv-x="1058" d="M204 0v1382h111v-225q98 6 192 6q240 0 372 -104q134 -107 134 -303q0 -211 -159 -337q-153 -122 -394 -122q-85 0 -145 8v-305h-111zM315 399q78 -10 163 -10q201 0 311 93q109 92 109 261q0 328 -422 328q-82 0 -161 -12v-660z" />
<glyph unicode="&#xdf;" horiz-adv-x="1183" d="M204 0v1034q0 469 426 469q159 0 248 -74q82 -69 82 -178q0 -156 -159 -254q-88 -55 -109 -75q-50 -46 -50 -111q0 -81 69 -140q34 -30 151 -93q221 -120 221 -287q0 -133 -103 -218q-108 -89 -291 -89q-106 0 -188 16l12 109q89 -29 189 -29q133 0 205 58q65 51 65 134 q0 86 -69 146q-35 31 -151 93q-220 119 -220 292q0 130 159 233q160 103 160 201q0 178 -233 178q-305 0 -305 -371v-1044h-109z" />
<glyph unicode="&#xe0;" horiz-adv-x="1060" d="M112 244q0 153 159 245q169 99 474 99v57q0 156 -53 225q-58 74 -195 74q-153 0 -305 -78l-29 92q170 76 350 76q340 0 340 -354v-356q0 -136 4 -324h-112q0 158 12 231l-4 2q-39 -107 -133 -176q-102 -73 -234 -73q-118 0 -194 68q-80 72 -80 192zM225 264 q0 -82 51 -135t135 -53q145 0 242 126q92 118 92 273v25q-520 0 -520 -236zM280 1462l86 66l219 -293l-65 -51z" />
<glyph unicode="&#xe1;" horiz-adv-x="1060" d="M112 244q0 153 159 245q169 99 474 99v57q0 156 -53 225q-58 74 -195 74q-153 0 -305 -78l-29 92q170 76 350 76q340 0 340 -354v-356q0 -136 4 -324h-112q0 158 12 231l-4 2q-39 -107 -133 -176q-102 -73 -234 -73q-118 0 -194 68q-80 72 -80 192zM225 264 q0 -82 51 -135t135 -53q145 0 242 126q92 118 92 273v25q-520 0 -520 -236zM456 1235l221 293l84 -66l-241 -278z" />
<glyph unicode="&#xe2;" horiz-adv-x="1060" d="M112 244q0 153 159 245q169 99 474 99v57q0 156 -53 225q-58 74 -195 74q-153 0 -305 -78l-29 92q170 76 350 76q340 0 340 -354v-356q0 -136 4 -324h-112q0 158 12 231l-4 2q-39 -107 -133 -176q-102 -73 -234 -73q-118 0 -194 68q-80 72 -80 192zM225 264 q0 -82 51 -135t135 -53q145 0 242 126q92 118 92 273v25q-520 0 -520 -236zM259 1243l259 260l253 -256l-61 -57l-197 180l-196 -180z" />
<glyph unicode="&#xe3;" horiz-adv-x="1060" d="M112 244q0 153 159 245q169 99 474 99v57q0 156 -53 225q-58 74 -195 74q-153 0 -305 -78l-29 92q170 76 350 76q340 0 340 -354v-356q0 -136 4 -324h-112q0 158 12 231l-4 2q-39 -107 -133 -176q-102 -73 -234 -73q-118 0 -194 68q-80 72 -80 192zM175 1317 q75 135 199 135q71 0 150 -59q79 -60 120 -60q73 0 132 99l59 -50q-74 -135 -199 -135q-70 0 -149 60q-80 59 -121 59q-73 0 -131 -98zM225 264q0 -82 51 -135t135 -53q145 0 242 126q92 118 92 273v25q-520 0 -520 -236z" />
<glyph unicode="&#xe4;" horiz-adv-x="1060" d="M112 244q0 153 159 245q169 99 474 99v57q0 156 -53 225q-58 74 -195 74q-153 0 -305 -78l-29 92q170 76 350 76q340 0 340 -354v-356q0 -136 4 -324h-112q0 158 12 231l-4 2q-39 -107 -133 -176q-102 -73 -234 -73q-118 0 -194 68q-80 72 -80 192zM225 264 q0 -82 51 -135t135 -53q145 0 242 126q92 118 92 273v25q-520 0 -520 -236zM243 1352q0 80 80 80t80 -80t-80 -80t-80 80zM616 1352q0 80 80 80t80 -80t-80 -80t-80 80z" />
<glyph unicode="&#xe5;" horiz-adv-x="1060" d="M112 244q0 153 159 245q169 99 474 99v57q0 156 -53 225q-58 74 -195 74q-153 0 -305 -78l-29 92q170 76 350 76q340 0 340 -354v-356q0 -136 4 -324h-112q0 158 12 231l-4 2q-39 -107 -133 -176q-102 -73 -234 -73q-118 0 -194 68q-80 72 -80 192zM225 264 q0 -82 51 -135t135 -53q145 0 242 126q92 118 92 273v25q-520 0 -520 -236zM317 1343q0 84 63 145q62 60 146 60q87 0 146 -56q58 -56 58 -140q0 -81 -62 -143q-63 -62 -146 -62q-88 0 -146 54q-59 56 -59 142zM405 1348q0 -52 34 -87q34 -36 85 -36q50 0 84 36q34 35 34 87 q0 51 -34 86q-34 36 -84 36q-51 0 -85 -36q-34 -35 -34 -86z" />
<glyph unicode="&#xe6;" horiz-adv-x="1665" d="M112 244q0 153 159 245q169 99 474 99v84q0 137 -53 201q-59 71 -195 71q-164 0 -303 -80l-31 94q170 76 350 76q256 0 312 -190h2q110 190 344 190q194 0 295 -122q90 -107 90 -281q0 -35 -2 -70h-701q-20 -481 361 -481q158 0 287 59l24 -94q-149 -61 -336 -61 q-327 0 -403 258h-2q-46 -106 -145 -177q-113 -81 -253 -81q-118 0 -194 68q-80 72 -80 192zM225 264q0 -82 51 -135t135 -53q145 0 242 126q92 118 92 273v25q-520 0 -520 -236zM862 647h575q3 135 -70 216q-75 83 -204 83q-119 0 -199 -80q-81 -80 -102 -219z" />
<glyph unicode="&#xe7;" horiz-adv-x="913" d="M98 473q0 258 122 406q125 151 349 151q159 0 277 -49l-27 -92q-133 53 -272 53q-157 0 -247 -125q-87 -120 -87 -317q0 -420 340 -420q150 0 274 57l25 -88q-143 -61 -322 -61q-432 0 -432 485zM405 -483q91 116 103 185q14 78 -56 161l103 53q134 -170 -47 -399h-103z " />
<glyph unicode="&#xe8;" horiz-adv-x="1026" d="M98 506q0 232 115 378q119 150 319 150q194 0 296 -122q89 -107 89 -281q0 -47 -2 -82h-700q-18 -469 360 -469q159 0 287 59l24 -94q-148 -61 -335 -61q-453 0 -453 522zM221 635h577q3 144 -70 228q-74 83 -204 83q-120 0 -200 -81q-82 -83 -103 -230zM284 1462l86 66 l220 -293l-66 -51z" />
<glyph unicode="&#xe9;" horiz-adv-x="1026" d="M98 506q0 232 115 378q119 150 319 150q194 0 296 -122q89 -107 89 -281q0 -47 -2 -82h-700q-18 -469 360 -469q159 0 287 59l24 -94q-148 -61 -335 -61q-453 0 -453 522zM221 635h577q3 144 -70 228q-74 83 -204 83q-120 0 -200 -81q-82 -83 -103 -230zM458 1235 l222 293l84 -66l-242 -278z" />
<glyph unicode="&#xea;" horiz-adv-x="1026" d="M98 506q0 232 115 378q119 150 319 150q194 0 296 -122q89 -107 89 -281q0 -47 -2 -82h-700q-18 -469 360 -469q159 0 287 59l24 -94q-148 -61 -335 -61q-453 0 -453 522zM221 635h577q3 144 -70 228q-74 83 -204 83q-120 0 -200 -81q-82 -83 -103 -230zM272 1243 l258 260l254 -256l-61 -57l-197 180l-197 -180z" />
<glyph unicode="&#xeb;" horiz-adv-x="1026" d="M98 506q0 232 115 378q119 150 319 150q194 0 296 -122q89 -107 89 -281q0 -47 -2 -82h-700q-18 -469 360 -469q159 0 287 59l24 -94q-148 -61 -335 -61q-453 0 -453 522zM221 635h577q3 144 -70 228q-74 83 -204 83q-120 0 -200 -81q-82 -83 -103 -230zM262 1352 q0 80 80 80t80 -80t-80 -80t-80 80zM635 1352q0 80 79 80q80 0 80 -80t-80 -80q-79 0 -79 80z" />
<glyph unicode="&#xec;" horiz-adv-x="518" d="M28 1462l86 66l219 -293l-65 -51zM204 0v1018h109v-1018h-109z" />
<glyph unicode="&#xed;" horiz-adv-x="518" d="M184 1235l221 293l84 -66l-242 -278zM204 0v1018h109v-1018h-109z" />
<glyph unicode="&#xee;" horiz-adv-x="518" d="M24 1243l236 258l231 -254l-59 -57l-177 180l-172 -180zM204 0v1018h109v-1018h-109z" />
<glyph unicode="&#xef;" horiz-adv-x="518" d="M10 1352q0 80 80 80t80 -80t-80 -80t-80 80zM205 0v1018h108v-1018h-108zM348 1352q0 80 80 80t80 -80t-80 -80t-80 80z" />
<glyph unicode="&#xf0;" horiz-adv-x="1101" d="M94 508q0 222 121 368q130 158 350 158q198 0 266 -123q-16 34 -41 76l-30 51q-60 106 -154 209l-227 -102l-52 69l216 97q-62 58 -179 151l115 49q85 -67 168 -153l227 100l51 -69l-219 -97q295 -348 295 -743q0 -278 -133 -427q-124 -138 -332 -138q-205 0 -321 129 q-121 136 -121 395zM207 516q0 -209 94 -326q93 -116 258 -116q144 0 231 105q99 120 99 356q0 191 -86 299q-88 112 -252 112q-144 0 -238 -104q-106 -116 -106 -326z" />
<glyph unicode="&#xf1;" horiz-adv-x="1187" d="M204 0v1018h113q0 -148 -19 -246l4 -2q95 264 373 264q307 0 307 -327v-707h-108v662q0 143 -46 209q-52 75 -173 75q-152 0 -247 -130q-95 -129 -95 -331v-485h-109zM272 1317q74 135 198 135q71 0 150 -59q79 -60 121 -60q72 0 131 99l59 -50q-74 -135 -199 -135 q-70 0 -149 60q-80 59 -121 59q-73 0 -131 -98z" />
<glyph unicode="&#xf2;" horiz-adv-x="1101" d="M96 508q0 222 121 368q130 158 350 158q192 0 305 -111q133 -131 133 -399q0 -229 -124 -381q-132 -159 -349 -159q-205 0 -318 129q-118 135 -118 395zM209 516q0 -210 91 -326q90 -116 255 -116q143 0 234 104q104 119 104 340q0 203 -87 314q-88 114 -253 114 q-144 0 -238 -104q-106 -116 -106 -326zM323 1462l86 66l219 -293l-65 -51z" />
<glyph unicode="&#xf3;" horiz-adv-x="1101" d="M96 508q0 222 121 368q130 158 350 158q192 0 305 -111q133 -131 133 -399q0 -229 -124 -381q-132 -159 -349 -159q-205 0 -318 129q-118 135 -118 395zM209 516q0 -210 91 -326q90 -116 255 -116q143 0 234 104q104 119 104 340q0 203 -87 314q-88 114 -253 114 q-144 0 -238 -104q-106 -116 -106 -326zM491 1235l221 293l84 -66l-241 -278z" />
<glyph unicode="&#xf4;" horiz-adv-x="1101" d="M96 508q0 222 121 368q130 158 350 158q192 0 305 -111q133 -131 133 -399q0 -229 -124 -381q-132 -159 -349 -159q-205 0 -318 129q-118 135 -118 395zM209 516q0 -210 91 -326q90 -116 255 -116q143 0 234 104q104 119 104 340q0 203 -87 314q-88 114 -253 114 q-144 0 -238 -104q-106 -116 -106 -326zM293 1243l258 260l254 -256l-62 -57l-196 180l-197 -180z" />
<glyph unicode="&#xf5;" horiz-adv-x="1101" d="M96 508q0 222 121 368q130 158 350 158q192 0 305 -111q133 -131 133 -399q0 -229 -124 -381q-132 -159 -349 -159q-205 0 -318 129q-118 135 -118 395zM209 516q0 -210 91 -326q90 -116 255 -116q143 0 234 104q104 119 104 340q0 203 -87 314q-88 114 -253 114 q-144 0 -238 -104q-106 -116 -106 -326zM227 1317q74 135 199 135q70 0 149 -59q80 -60 121 -60q73 0 131 99l60 -50q-74 -135 -199 -135q-71 0 -150 60q-79 59 -120 59q-73 0 -132 -98z" />
<glyph unicode="&#xf6;" horiz-adv-x="1101" d="M96 508q0 222 121 368q130 158 350 158q192 0 305 -111q133 -131 133 -399q0 -229 -124 -381q-132 -159 -349 -159q-205 0 -318 129q-118 135 -118 395zM209 516q0 -210 91 -326q90 -116 255 -116q143 0 234 104q104 119 104 340q0 203 -87 314q-88 114 -253 114 q-144 0 -238 -104q-106 -116 -106 -326zM280 1352q0 80 80 80t80 -80t-80 -80t-80 80zM653 1352q0 80 80 80t80 -80t-80 -80t-80 80z" />
<glyph unicode="&#xf7;" d="M92 563v92h942v-92h-942zM471 195q0 36 25 62q26 26 63 26t62 -26q26 -26 26 -62q0 -37 -26 -63q-25 -26 -62 -26t-63 26q-25 26 -25 63zM471 1020q0 37 25 62q26 26 63 26t62 -26q26 -25 26 -62t-26 -63q-25 -25 -62 -25t-63 25q-25 26 -25 63z" />
<glyph unicode="&#xf8;" horiz-adv-x="1101" d="M96 508q0 222 121 368q130 158 350 158q49 0 107 -10l73 193l88 -31l-73 -191q243 -112 243 -471q0 -229 -124 -381q-130 -159 -345 -159q-80 0 -151 22l-82 -215l-88 31l86 221q-205 125 -205 465zM207 516q0 -262 133 -371l301 793q-48 10 -92 10q-139 0 -231 -95 q-111 -115 -111 -337zM420 96q58 -24 137 -24q143 0 234 105q104 120 104 341q0 293 -168 387z" />
<glyph unicode="&#xf9;" horiz-adv-x="1187" d="M204 311v707h109v-662q0 -143 45 -210q52 -74 174 -74q151 0 247 129q95 129 95 331v486h108v-1018h-112q0 147 18 246l-4 2q-95 -264 -373 -264q-307 0 -307 327zM345 1462l86 66l219 -293l-65 -51z" />
<glyph unicode="&#xfa;" horiz-adv-x="1187" d="M204 311v707h109v-662q0 -143 45 -210q52 -74 174 -74q151 0 247 129q95 129 95 331v486h108v-1018h-112q0 147 18 246l-4 2q-95 -264 -373 -264q-307 0 -307 327zM538 1235l221 293l84 -66l-242 -278z" />
<glyph unicode="&#xfb;" horiz-adv-x="1187" d="M204 311v707h109v-662q0 -143 45 -210q52 -74 174 -74q151 0 247 129q95 129 95 331v486h108v-1018h-112q0 147 18 246l-4 2q-95 -264 -373 -264q-307 0 -307 327zM337 1243l258 260l254 -256l-61 -57l-197 180l-197 -180z" />
<glyph unicode="&#xfc;" horiz-adv-x="1187" d="M204 311v707h109v-662q0 -143 45 -210q52 -74 174 -74q151 0 247 129q95 129 95 331v486h108v-1018h-112q0 147 18 246l-4 2q-95 -264 -373 -264q-307 0 -307 327zM325 1352q0 80 80 80t80 -80t-80 -80t-80 80zM698 1352q0 80 79 80q80 0 80 -80t-80 -80q-79 0 -79 80z " />
<glyph unicode="&#xfd;" horiz-adv-x="937" d="M-63 -522l12 102q50 -14 115 -14q100 0 166 62q73 68 141 241l51 131l-395 1018h129l244 -664q40 -112 78 -227h2q19 65 104 305l207 586h121l-428 -1131q-87 -232 -185 -324q-100 -95 -266 -95q-48 0 -96 10zM420 1235l222 293l83 -66l-241 -278z" />
<glyph unicode="&#xfe;" horiz-adv-x="1142" d="M204 -516v2011h109v-477q0 -175 -15 -244l4 -2q94 262 361 262q377 0 377 -481q0 -272 -142 -421q-136 -142 -372 -142q-123 0 -213 14v-520h-109zM313 106q92 -30 225 -30q387 0 387 469q0 401 -275 401q-158 0 -255 -158q-82 -134 -82 -296v-386z" />
<glyph unicode="&#xff;" horiz-adv-x="937" d="M-63 -522l12 102q50 -14 115 -14q100 0 166 62q73 68 141 241l51 131l-395 1018h129l244 -664q40 -112 78 -227h2q19 65 104 305l207 586h121l-428 -1131q-87 -232 -185 -324q-100 -95 -266 -95q-48 0 -96 10zM207 1352q0 80 80 80t80 -80t-80 -80t-80 80zM580 1352 q0 80 80 80t80 -80t-80 -80t-80 80z" />
<glyph unicode="&#x152;" horiz-adv-x="1773" d="M102 678q0 338 188 535q176 186 449 186q100 0 199 -17h667v-88h-561v-536h535v-88h-535v-580h561v-90h-672q-124 -16 -227 -16q-297 0 -455 192q-149 181 -149 502zM221 705q0 -287 125 -452q132 -175 377 -175q112 0 210 24v1176q-105 29 -206 29q-214 0 -355 -158 q-151 -167 -151 -444z" />
<glyph unicode="&#x153;" horiz-adv-x="1812" d="M94 508q0 222 121 368q130 158 350 158q282 0 385 -233q115 233 369 233q193 0 295 -122q90 -107 90 -281q0 -35 -2 -70h-701q-20 -481 361 -481q158 0 286 59l25 -94q-149 -61 -336 -61q-310 0 -405 247q-126 -247 -402 -247q-205 0 -318 129q-118 135 -118 395z M207 516q0 -210 91 -326q90 -116 255 -116q143 0 234 104q104 119 104 340q0 203 -87 314q-88 114 -253 114q-144 0 -238 -104q-106 -116 -106 -326zM1009 647h576q3 135 -70 216q-75 83 -204 83q-119 0 -199 -80q-81 -80 -103 -219z" />
<glyph unicode="&#x178;" horiz-adv-x="1050" d="M32 1382h123l256 -532q54 -112 113 -252h2q42 108 124 272l250 512h117l-442 -876v-506h-111v506zM233 1589q0 80 80 80q79 0 79 -80t-79 -80q-80 0 -80 80zM667 1589q0 80 80 80t80 -80t-80 -80t-80 80z" />
<glyph unicode="&#x2c6;" horiz-adv-x="901" d="M188 1243l258 260l254 -256l-61 -57l-197 180l-197 -180z" />
<glyph unicode="&#x2dc;" horiz-adv-x="1052" d="M196 1317q74 135 199 135q70 0 149 -59q80 -60 121 -60q73 0 131 99l59 -50q-74 -135 -198 -135q-71 0 -150 60q-79 59 -121 59q-72 0 -131 -98z" />
<glyph unicode="&#x2000;" horiz-adv-x="921" />
<glyph unicode="&#x2001;" horiz-adv-x="1843" />
<glyph unicode="&#x2002;" horiz-adv-x="921" />
<glyph unicode="&#x2003;" horiz-adv-x="1843" />
<glyph unicode="&#x2004;" horiz-adv-x="614" />
<glyph unicode="&#x2005;" horiz-adv-x="460" />
<glyph unicode="&#x2006;" horiz-adv-x="307" />
<glyph unicode="&#x2007;" horiz-adv-x="307" />
<glyph unicode="&#x2008;" horiz-adv-x="230" />
<glyph unicode="&#x2009;" horiz-adv-x="368" />
<glyph unicode="&#x200a;" horiz-adv-x="102" />
<glyph unicode="&#x2010;" horiz-adv-x="667" d="M102 561v92h463v-92h-463z" />
<glyph unicode="&#x2011;" horiz-adv-x="667" d="M102 561v92h463v-92h-463z" />
<glyph unicode="&#x2012;" horiz-adv-x="667" d="M102 561v92h463v-92h-463z" />
<glyph unicode="&#x2013;" d="M0 563v92h1126v-92h-1126z" />
<glyph unicode="&#x2014;" horiz-adv-x="2048" d="M256 563v92h1536v-92h-1536z" />
<glyph unicode="&#x2018;" horiz-adv-x="452" d="M127 1211q11 143 185 313l51 -45q-162 -176 -92 -275q28 -40 7 -81q-20 -40 -65 -40q-41 0 -66 34q-25 36 -20 94z" />
<glyph unicode="&#x2019;" horiz-adv-x="452" d="M88 1118q162 176 92 275q-28 40 -7 81q20 39 65 39q41 0 66 -33q25 -36 20 -94q-11 -144 -185 -313z" />
<glyph unicode="&#x201a;" horiz-adv-x="452" d="M88 -233q162 176 92 274q-28 40 -7 81q20 40 65 40q41 0 66 -34q25 -35 20 -93q-11 -144 -185 -314z" />
<glyph unicode="&#x201c;" horiz-adv-x="784" d="M127 1211q11 143 185 313l51 -45q-162 -176 -92 -275q28 -40 7 -81q-20 -40 -65 -40q-41 0 -66 34q-25 36 -20 94zM458 1211q12 143 186 313l51 -45q-163 -176 -92 -275q28 -40 7 -81q-20 -40 -65 -40q-42 0 -66 34q-25 36 -21 94z" />
<glyph unicode="&#x201d;" horiz-adv-x="784" d="M88 1118q162 176 92 275q-28 40 -7 81q20 39 65 39q41 0 66 -33q25 -36 20 -94q-11 -144 -185 -313zM420 1118q162 176 92 275q-29 40 -7 81q20 39 64 39q42 0 66 -33q26 -36 21 -94q-12 -144 -185 -313z" />
<glyph unicode="&#x201e;" horiz-adv-x="784" d="M88 -233q162 176 92 274q-28 40 -7 81q20 40 65 40q41 0 66 -34q25 -35 20 -93q-11 -144 -185 -314zM420 -233q162 176 92 274q-29 40 -7 81q20 40 64 40q42 0 66 -34q26 -35 21 -93q-12 -144 -185 -314z" />
<glyph unicode="&#x2022;" horiz-adv-x="856" d="M235 608q0 80 56 136q57 57 137 57q79 0 136 -57q56 -56 56 -136t-56 -136q-57 -56 -136 -56q-80 0 -137 56q-56 56 -56 136z" />
<glyph unicode="&#x2026;" horiz-adv-x="1245" d="M116 74q0 37 26 62q25 26 62 26t63 -26q25 -25 25 -62t-25 -63q-26 -25 -63 -25t-62 25q-26 26 -26 63zM519 74q0 37 26 62q26 26 63 26q36 0 62 -26q26 -25 26 -62t-26 -63q-26 -25 -62 -25q-37 0 -63 25q-26 26 -26 63zM923 74q0 37 26 62q25 26 62 26t62 -26 q26 -25 26 -62t-26 -63q-25 -25 -62 -25t-62 25q-26 26 -26 63z" />
<glyph unicode="&#x202f;" horiz-adv-x="368" />
<glyph unicode="&#x2039;" horiz-adv-x="643" d="M135 602l254 344l74 -55l-213 -287l213 -282l-76 -58z" />
<glyph unicode="&#x203a;" horiz-adv-x="643" d="M178 319l215 287l-211 283l76 57l250 -338l-256 -344z" />
<glyph unicode="&#x205f;" horiz-adv-x="460" />
<glyph unicode="&#x20ac;" horiz-adv-x="1212" d="M28 492v83h197q-2 29 -2 89q0 45 4 127h-199v83h207q38 271 197 405q141 120 358 120q197 0 344 -88l-45 -84q-141 86 -322 86q-159 0 -268 -102q-122 -114 -152 -337h515v-83h-519q-4 -70 -4 -109q0 -72 2 -107h521v-83h-515q48 -416 426 -416q181 0 340 106l39 -82 q-190 -116 -409 -116q-220 0 -352 131q-133 131 -160 377h-203z" />
<glyph unicode="&#x2122;" horiz-adv-x="1449" d="M120 1313v69h424v-69h-164v-506h-96v506h-164zM599 807l86 575h133l113 -376l25 -105l20 92l123 389h129l84 -575h-92l-70 477l-29 -102l-118 -375h-109l-115 379l-26 98l-6 -78l-62 -399h-86z" />
<glyph unicode="&#x25fc;" horiz-adv-x="1020" d="M0 0v1020h1020v-1020h-1020z" />
</font>
</defs>
</svg>
