<?xml version="1.0" standalone="no"?>
<!DOCTYPE svg PUBLIC "-//W3C//DTD SVG 1.1//EN" "http://www.w3.org/Graphics/SVG/1.1/DTD/svg11.dtd" >
<svg xmlns="http://www.w3.org/2000/svg" xmlns:xlink="http://www.w3.org/1999/xlink" version="1.1">
<metadata></metadata>
<defs>
<font id="bahij_thesansarabiclight" horiz-adv-x="1126" >
<font-face units-per-em="2048" ascent="1638" descent="-410" />
<missing-glyph horiz-adv-x="400" />
<glyph unicode="&#xfb01;" horiz-adv-x="1200" d="M12 915v103h233v51q0 436 455 436q133 0 264 -39l-26 -108q-127 41 -246 41q-318 0 -318 -307v-74h629v-1018h-127v915h-502v-915h-129v915h-233z" />
<glyph unicode="&#xfb02;" horiz-adv-x="1200" d="M12 915v103h233v131q0 356 445 356q131 0 313 -26v-1479h-127v1384q-111 17 -200 17q-157 0 -229 -64q-73 -65 -73 -209v-110h312v-103h-312v-915h-129v915h-233z" />
<glyph horiz-adv-x="0" />
<glyph horiz-adv-x="682" />
<glyph unicode=" "  horiz-adv-x="400" />
<glyph unicode="&#x09;" horiz-adv-x="400" />
<glyph unicode="&#xa0;" horiz-adv-x="400" />
<glyph unicode="!" horiz-adv-x="651" d="M247 82q0 40 28 68q29 28 70 28q42 0 70 -28q29 -28 29 -68q0 -42 -29 -70q-28 -28 -70 -28q-41 0 -70 28q-28 28 -28 70zM267 1432h156l-24 -1117h-105z" />
<glyph unicode="&#x22;" horiz-adv-x="692" d="M118 1427h145l-26 -436h-94zM429 1427h144l-25 -436h-94z" />
<glyph unicode="#" horiz-adv-x="1173" d="M73 406v88h213l45 409h-207v88h215l43 391h105l-41 -391h344l43 391h106l-43 -391h201v-88h-209l-45 -409h205v-88h-215l-41 -406h-107l43 406h-346l-41 -406h-106l43 406h-205zM392 494h345l45 409h-344z" />
<glyph unicode="$" horiz-adv-x="995" d="M135 940q0 132 92 222q91 91 242 108v223h102v-217q114 -3 219 -25l-8 -121q-120 37 -233 37q-150 0 -224 -65q-63 -55 -63 -144q0 -100 95 -166q47 -33 209 -101q146 -61 209 -118q95 -86 95 -219q0 -142 -90 -240q-93 -100 -256 -124v-279h-100v273q-144 2 -260 32 l8 127q114 -47 272 -47q295 0 295 236q0 103 -94 169q-47 33 -208 100q-145 60 -208 117q-94 86 -94 222z" />
<glyph unicode="%" horiz-adv-x="1521" d="M98 1077q0 141 79 230q82 94 218 94q276 0 276 -305q0 -145 -77 -235q-81 -93 -220 -93q-276 0 -276 309zM209 20l1011 1399l88 -61l-1011 -1397zM217 1090q0 -228 174 -228q73 0 119 61q45 61 45 158q0 224 -172 224q-75 0 -121 -60q-45 -60 -45 -155zM848 291 q0 140 78 230q82 93 219 93q276 0 276 -305q0 -144 -78 -233q-81 -92 -219 -92q-276 0 -276 307zM966 305q0 -227 174 -227q73 0 118 61q46 61 46 158q0 223 -172 223q-75 0 -120 -60q-46 -59 -46 -155z" />
<glyph unicode="&#x26;" horiz-adv-x="1626" d="M126 377q0 225 303 459q-201 232 -201 378q0 123 86 204q91 87 246 87q143 0 224 -75q77 -72 77 -187q0 -202 -262 -405q252 -272 510 -480v-2q170 224 150 545h131q12 -362 -191 -616q186 -145 291 -217l-82 -101q-162 111 -297 226q-229 -209 -549 -209 q-203 0 -322 110q-114 107 -114 283zM257 395q0 -128 90 -213q93 -90 242 -90q251 0 436 170q-314 262 -524 500q-244 -189 -244 -367zM355 1221q0 -112 174 -308q203 163 203 314q0 176 -186 176q-85 0 -138 -51q-53 -50 -53 -131z" />
<glyph unicode="'" horiz-adv-x="382" d="M118 1427h145l-26 -436h-94z" />
<glyph unicode="(" horiz-adv-x="616" d="M169 580q0 534 299 1011l88 -47q-262 -443 -262 -952q0 -530 266 -961l-94 -51q-297 471 -297 1000z" />
<glyph unicode=")" horiz-adv-x="616" d="M71 1542l94 49q295 -469 295 -997q0 -537 -299 -1014l-88 49q262 443 262 953q0 528 -264 960z" />
<glyph unicode="*" horiz-adv-x="749" d="M88 1100l213 102l-213 101l51 90l195 -131l-17 233h103l-17 -233l193 131l49 -88l-211 -101l211 -102l-51 -90l-193 131l17 -234h-103l17 234l-195 -131z" />
<glyph unicode="+" d="M90 555v109h410v430h122v-430h414v-109h-414v-432h-122v432h-410z" />
<glyph unicode="," horiz-adv-x="425" d="M49 -238q168 179 92 281q-33 44 -9 91q23 46 75 46q46 0 73 -36q29 -38 24 -101q-10 -154 -196 -332z" />
<glyph unicode="-" horiz-adv-x="669" d="M100 549v106h469v-106h-469z" />
<glyph unicode="." horiz-adv-x="425" d="M114 84q0 40 28 69q29 29 70 29t70 -29t29 -69q0 -42 -29 -71q-28 -29 -70 -29q-41 0 -70 29q-28 29 -28 71z" />
<glyph unicode="/" horiz-adv-x="860" d="M24 -330l717 1880h121l-717 -1880h-121z" />
<glyph unicode="0" horiz-adv-x="1193" d="M116 680q0 355 143 544q132 175 353 175q465 0 465 -697q0 -354 -144 -544q-131 -174 -352 -174q-465 0 -465 696zM253 696q0 -604 342 -604q344 0 344 594q0 606 -342 606q-156 0 -245 -136q-99 -153 -99 -460z" />
<glyph unicode="1" horiz-adv-x="710" d="M63 1264l326 118h110v-1382h-135v1253l-276 -110z" />
<glyph unicode="2" horiz-adv-x="1028" d="M139 0v104l295 345q291 337 291 569q0 119 -66 192q-71 80 -205 80q-138 0 -282 -88l-19 117q157 80 332 80q177 0 280 -104q99 -99 99 -259q0 -256 -344 -655l-225 -266q162 6 624 6v-121h-780z" />
<glyph unicode="3" horiz-adv-x="1024" d="M141 6l18 121q80 -29 211 -29q169 0 270 88q97 83 97 211q0 129 -105 202q-107 75 -298 75q-58 0 -119 -6v106q467 -12 467 291q0 108 -68 168q-66 59 -184 59q-129 0 -250 -65l-10 114q138 58 280 58q184 0 281 -93q88 -84 88 -223q0 -249 -242 -340v-4 q134 -27 214 -112q85 -90 85 -221q0 -181 -146 -300q-148 -120 -370 -120q-134 0 -219 20z" />
<glyph unicode="4" horiz-adv-x="1099" d="M34 436l598 946h174v-925h248v-121h-248v-336h-127v336h-637zM167 449q143 6 512 6v800h-2z" />
<glyph unicode="5" horiz-adv-x="950" d="M135 6l16 121q86 -29 203 -29q173 0 275 90q102 89 102 238q0 293 -444 293q-68 0 -105 -2v665h604v-125h-481v-430q563 6 563 -378q0 -206 -150 -336q-147 -127 -378 -127q-115 0 -205 20z" />
<glyph unicode="6" horiz-adv-x="1177" d="M155 573q0 419 202 634q181 192 484 192q62 0 98 -4v-117q-46 8 -114 8q-436 0 -520 -498q-13 -81 -17 -98l2 -2q115 176 359 176q189 0 302 -113q111 -113 111 -298q0 -199 -126 -332q-131 -137 -335 -137q-446 0 -446 589zM302 449q0 -162 83 -260q85 -99 231 -99 q135 0 223 93q90 95 90 247q0 147 -79 234q-82 92 -228 92q-142 0 -233 -92q-87 -88 -87 -215z" />
<glyph unicode="7" horiz-adv-x="925" d="M55 1255v127h805v-112q-288 -607 -438 -1270h-148q175 691 443 1260q-56 -5 -662 -5z" />
<glyph unicode="8" horiz-adv-x="1120" d="M133 315q0 198 303 392q-280 157 -280 356q0 153 112 248q115 96 305 96q174 0 277 -90q100 -88 100 -227q0 -181 -289 -367q318 -171 318 -381q0 -165 -126 -265q-122 -95 -312 -95q-196 0 -306 96q-102 90 -102 237zM272 330q0 -109 76 -173q77 -65 211 -65 q120 0 197 58q84 63 84 172q0 105 -93 191q-58 54 -206 138q-269 -167 -269 -321zM289 1079q0 -150 268 -299q258 161 258 297q0 98 -65 159q-69 64 -191 64q-123 0 -197 -61q-73 -61 -73 -160z" />
<glyph unicode="9" horiz-adv-x="1193" d="M129 928q0 199 127 333q130 138 334 138q446 0 446 -590q0 -419 -198 -633q-178 -192 -484 -192q-84 0 -155 10v125q88 -21 174 -21q426 0 510 490q11 82 18 102l-2 2q-115 -176 -356 -176q-190 0 -302 114q-112 112 -112 298zM262 950q0 -145 79 -232q83 -91 228 -91 q142 0 233 92q87 88 87 213q0 163 -84 261q-85 99 -230 99q-134 0 -222 -92q-91 -96 -91 -250z" />
<glyph unicode=":" horiz-adv-x="569" d="M221 84q0 40 28 69q29 29 70 29t70 -29t29 -69q0 -42 -29 -71q-28 -29 -70 -29q-41 0 -70 29q-28 29 -28 71zM221 696q0 42 28 70q29 29 70 29q42 0 70 -29q29 -28 29 -70q0 -41 -29 -70q-28 -28 -70 -28q-41 0 -70 28q-28 29 -28 70z" />
<glyph unicode=";" horiz-adv-x="569" d="M159 -238q166 181 92 281q-33 44 -10 91q23 46 76 46q45 0 72 -36q29 -39 24 -101q-10 -154 -195 -332zM220 696q0 42 29 70q28 29 70 29q41 0 70 -29q28 -28 28 -70q0 -41 -28 -70q-29 -28 -70 -28q-42 0 -70 28q-29 29 -29 70z" />
<glyph unicode="&#x3c;" d="M159 623l643 563l82 -80l-559 -481l559 -478l-82 -88z" />
<glyph unicode="=" d="M116 393v111h893v-111h-893zM116 715v108h893v-108h-893z" />
<glyph unicode="&#x3e;" d="M241 139l559 482l-559 477l82 88l643 -563l-643 -564z" />
<glyph unicode="?" horiz-adv-x="903" d="M196 1325l16 119q244 -11 399 -122q150 -108 150 -259q0 -109 -65 -200q-22 -31 -135 -145q-175 -176 -109 -403h-127q-73 237 98 423q137 148 131 141q64 83 64 170q0 109 -116 187q-119 80 -306 89zM292 82q0 40 28 68q29 28 69 28q41 0 69 -28q29 -28 29 -68 q0 -42 -29 -70q-28 -28 -69 -28t-69 28q-28 29 -28 70z" />
<glyph unicode="@" horiz-adv-x="2015" d="M184 578q0 395 266 661q259 258 627 258q354 0 555 -207q180 -187 180 -469q0 -259 -129 -412q-122 -145 -313 -145q-128 0 -187 77q-51 68 -32 165h-6q-23 -76 -110 -152q-102 -90 -210 -90q-195 0 -195 262q0 238 115 390q123 163 338 163q130 0 250 -22l-84 -457 q-42 -225 145 -225q132 0 213 114q84 119 84 324q0 241 -143 398q-167 184 -481 184q-320 0 -538 -225q-222 -228 -222 -572q0 -309 174 -488q178 -182 494 -182q179 0 335 49l19 -110q-169 -51 -371 -51q-359 0 -567 207q-207 205 -207 555zM751 555q0 -176 105 -176 q94 0 180 117q96 129 139 352l25 119q-55 14 -142 14q-147 0 -235 -150q-72 -124 -72 -276z" />
<glyph unicode="A" horiz-adv-x="1245" d="M32 0l520 1382h142l518 -1382h-152l-125 352h-637l-129 -352h-137zM335 459h561l-217 596q-41 112 -61 184h-2q-24 -75 -62 -180z" />
<glyph unicode="B" horiz-adv-x="1153" d="M196 0v1382l154 2q119 2 211 2q428 0 428 -323q0 -251 -261 -332v-2q139 -14 221 -101q83 -88 83 -222q0 -160 -106 -270q-138 -142 -417 -142zM327 113q82 -13 199 -13q187 0 283 85q87 77 87 208q0 273 -430 273q-102 0 -139 -2v-551zM327 768q45 -2 139 -2 q387 0 387 274q0 242 -315 242q-84 0 -211 -4v-510z" />
<glyph unicode="C" horiz-adv-x="1218" d="M106 664q0 330 155 521q173 212 511 212q172 0 329 -47l-24 -121q-163 57 -334 57q-251 0 -381 -179q-115 -158 -115 -421q0 -586 516 -586q177 0 332 78l27 -112q-184 -80 -398 -80q-305 0 -464 180q-154 175 -154 498z" />
<glyph unicode="D" horiz-adv-x="1404" d="M196 0v1382l387 7q715 0 715 -687q0 -345 -220 -532q-206 -176 -558 -176q-67 0 -180 4q-74 2 -118 2h-26zM327 117q108 -15 211 -15q288 0 450 143q173 153 173 449q0 588 -594 588q-62 0 -240 -6v-1159z" />
<glyph unicode="E" horiz-adv-x="1040" d="M196 0v1382h682v-106h-551v-510h524v-104h-524v-553h551v-109h-682z" />
<glyph unicode="F" horiz-adv-x="964" d="M196 0v1382h680v-106h-549v-512h520v-107h-520v-657h-131z" />
<glyph unicode="G" horiz-adv-x="1406" d="M98 666q0 326 181 523q194 210 544 210q186 0 377 -60l-31 -118q-172 69 -364 69q-285 0 -436 -185q-132 -161 -132 -417q0 -284 152 -440q148 -154 409 -154q152 0 293 45v551h131v-631q-206 -75 -444 -75q-317 0 -497 179q-183 180 -183 503z" />
<glyph unicode="H" horiz-adv-x="1445" d="M196 0v1382h131v-610h791v610h131v-1382h-131v664h-791v-664h-131z" />
<glyph unicode="I" horiz-adv-x="524" d="M196 0v1382h131v-1382h-131z" />
<glyph unicode="J" horiz-adv-x="665" d="M2 4v121q76 -27 152 -27q95 0 136 51q48 58 48 205v1028h133v-1040q0 -354 -328 -354q-63 0 -141 16z" />
<glyph unicode="K" horiz-adv-x="1177" d="M196 0v1382h131v-669l623 669h166l-639 -669l659 -713h-186l-623 700v-700h-131z" />
<glyph unicode="L" horiz-adv-x="870" d="M196 0v1382h131v-1273h528v-109h-659z" />
<glyph unicode="M" horiz-adv-x="1832" d="M124 0l193 1382h172l335 -985q46 -132 80 -264h2q52 179 76 248l342 1001h180l203 -1382h-137l-129 897q-27 194 -45 350h-4q-28 -109 -66 -219l-348 -1028h-158l-329 965q-41 116 -86 282h-2q-10 -128 -37 -364l-107 -883h-135z" />
<glyph unicode="N" horiz-adv-x="1462" d="M196 0v1382h176l610 -962q92 -144 166 -281q-14 454 -14 887v356h131v-1382h-178l-617 975q-107 172 -159 276q14 -290 14 -858v-393h-129z" />
<glyph unicode="O" horiz-adv-x="1445" d="M98 676q0 338 189 536q178 187 452 187q299 0 458 -191q150 -181 150 -501q0 -338 -189 -537q-178 -186 -454 -186q-299 0 -456 191q-150 180 -150 501zM239 705q0 -279 120 -439q127 -170 364 -170q204 0 339 152q144 162 144 432q0 277 -120 438q-128 170 -363 170 q-204 0 -340 -153q-144 -162 -144 -430z" />
<glyph unicode="P" horiz-adv-x="1064" d="M196 0v1382q174 7 317 7q225 0 350 -108q121 -104 121 -280q0 -203 -138 -326q-138 -124 -369 -124q-80 0 -150 8v-559h-131zM327 674q76 -12 166 -12q175 0 267 87q87 83 87 230q0 301 -358 301q-88 0 -162 -4v-602z" />
<glyph unicode="Q" horiz-adv-x="1443" d="M98 676q0 338 189 536q178 187 452 187q299 0 458 -191q150 -181 150 -501q0 -504 -370 -650h3q58 0 206 -45q103 -32 198 -32q31 0 62 4v-121q-44 -5 -88 -5q-139 0 -272 51q-196 75 -333 75h-49q-299 0 -456 191q-150 180 -150 501zM239 705q0 -279 120 -439 q127 -170 364 -170q202 0 338 153q145 163 145 431q0 277 -120 438q-128 170 -363 170q-204 0 -340 -153q-144 -162 -144 -430z" />
<glyph unicode="R" horiz-adv-x="1114" d="M196 0v1382q126 7 309 7q447 0 447 -340q0 -182 -138 -290q-125 -98 -315 -102q76 -84 125 -143l414 -514h-174l-510 653h-27v-653h-131zM327 758q49 -4 133 -4q166 0 262 76q92 74 92 196q0 258 -346 258q-73 0 -141 -6v-520z" />
<glyph unicode="S" horiz-adv-x="1032" d="M118 1024q0 166 118 268q123 107 339 107q128 0 248 -27l-17 -119q-121 37 -239 37q-316 0 -316 -252q0 -110 103 -181q52 -34 228 -105q159 -63 227 -123q104 -92 104 -238q0 -181 -135 -293q-136 -114 -361 -114q-163 0 -293 39l23 129q139 -54 280 -54q153 0 244 63 q104 72 104 214q0 113 -102 185q-53 37 -226 106q-159 64 -226 123q-103 91 -103 235z" />
<glyph unicode="T" horiz-adv-x="1064" d="M38 1274v108h987v-108h-428v-1274h-131v1274h-428z" />
<glyph unicode="U" horiz-adv-x="1435" d="M196 455v927h131v-913q0 -379 385 -379q204 0 298 94q99 100 99 326v872h129v-860q0 -538 -538 -538q-504 0 -504 471z" />
<glyph unicode="V" horiz-adv-x="1249" d="M32 1382h152l335 -946q58 -154 99 -293h2q42 141 104 306l350 933h138l-527 -1382h-141z" />
<glyph unicode="W" horiz-adv-x="1951" d="M83 1382h141l265 -997q39 -151 59 -256h2q29 148 57 244l287 1009h164l301 -1026q34 -117 55 -227h2q17 98 45 197l275 1056h129l-371 -1382h-166l-305 1049q-21 69 -53 206h-2q-15 -95 -49 -208l-295 -1047h-166z" />
<glyph unicode="X" horiz-adv-x="1183" d="M45 0l463 715l-434 667h153l359 -563l354 563h149l-428 -655l478 -727h-164l-391 616l-387 -616h-152z" />
<glyph unicode="Y" horiz-adv-x="1062" d="M28 1382h145l246 -514q59 -121 111 -250h2q29 75 123 271l239 493h140l-443 -878v-504h-131v504z" />
<glyph unicode="Z" horiz-adv-x="1105" d="M96 0v92l637 985q66 102 131 193q-160 -4 -340 -4h-405v116h888v-94l-671 -1034q-42 -67 -93 -139q50 4 377 4h396v-119h-920z" />
<glyph unicode="[" horiz-adv-x="651" d="M196 -399v1970h373v-96h-252v-1774h252v-100h-373z" />
<glyph unicode="\" horiz-adv-x="849" d="M30 1550h119l717 -1880h-119z" />
<glyph unicode="]" horiz-adv-x="651" d="M79 -299h254v1774h-254v96h373v-1970h-373v100z" />
<glyph unicode="^" d="M145 762l340 620h111l356 -618l-100 -53l-316 569l-299 -569z" />
<glyph unicode="_" d="M0 -414h1126v-100h-1126v100z" />
<glyph unicode="`" horiz-adv-x="749" d="M182 1460l98 74l224 -297l-74 -59z" />
<glyph unicode="a" horiz-adv-x="1062" d="M108 248q0 156 159 248q166 96 468 96v55q0 148 -52 213q-55 70 -188 70q-150 0 -305 -76l-31 107q165 73 355 73q350 0 350 -354v-365q0 -131 4 -315h-131q0 152 12 223l-4 2q-39 -104 -132 -170q-100 -71 -229 -71q-120 0 -197 70q-79 73 -79 194zM239 268 q0 -78 48 -127q50 -51 130 -51q137 0 230 120q88 112 88 259v25q-496 0 -496 -226z" />
<glyph unicode="b" horiz-adv-x="1142" d="M196 25v1470h129v-534q0 -108 -18 -185l4 -2q91 260 356 260q377 0 377 -479q0 -272 -142 -422q-138 -145 -376 -145q-176 0 -330 37zM325 121q87 -31 213 -31q371 0 371 453q0 387 -262 387q-151 0 -243 -151q-79 -129 -79 -287v-371z" />
<glyph unicode="c" horiz-adv-x="907" d="M94 473q0 258 123 405q126 152 354 152q157 0 271 -47l-29 -109q-134 52 -262 52q-151 0 -237 -120q-83 -116 -83 -306q0 -404 326 -404q140 0 264 56l27 -105q-138 -59 -318 -59q-436 0 -436 485z" />
<glyph unicode="d" horiz-adv-x="1138" d="M94 463q0 271 142 422q138 145 376 145q90 0 201 -12v477h129v-1495h-131q0 138 18 233l-4 3q-91 -252 -354 -252q-377 0 -377 479zM231 475q0 -387 260 -387q151 0 243 151q79 129 79 287v375q-107 27 -213 27q-369 0 -369 -453z" />
<glyph unicode="e" horiz-adv-x="1030" d="M94 506q0 232 116 378q121 150 324 150q197 0 300 -122q91 -108 91 -285q0 -54 -4 -90h-690q-1 -17 -1 -34q0 -409 351 -409q156 0 287 60l25 -109q-152 -61 -340 -61q-459 0 -459 522zM237 635h551v11q0 130 -67 206q-70 80 -195 80q-115 0 -191 -77q-78 -79 -98 -220z " />
<glyph unicode="f" horiz-adv-x="708" d="M12 915v103h233v69q0 418 379 418q85 0 168 -18l-12 -111q-73 23 -166 23q-240 0 -240 -307v-74h314v-103h-314v-915h-129v915h-233z" />
<glyph unicode="g" horiz-adv-x="1099" d="M90 -225q0 178 182 284q-102 43 -102 150q0 108 108 164q-149 91 -149 284q0 158 109 264q117 113 311 113q50 0 129 -16h346v-103h-193q105 -78 105 -229q0 -162 -105 -263q-113 -110 -319 -110q-68 0 -129 19q-80 -35 -80 -101q0 -84 188 -90l207 -8q163 -6 251 -83 q87 -75 87 -206q0 -162 -147 -268q-148 -106 -377 -106q-193 0 -306 80q-116 82 -116 225zM223 -205q0 -102 90 -162q86 -57 223 -57q173 0 272 71q95 68 95 179q0 183 -242 192l-213 9h-69q-156 -102 -156 -232zM260 670q0 -256 270 -256q127 0 201 67q74 69 74 191 t-69 191q-70 71 -195 71q-131 0 -208 -76q-73 -73 -73 -188z" />
<glyph unicode="h" horiz-adv-x="1185" d="M196 0v1495h129v-514q0 -134 -16 -203l4 -2q97 258 368 258q308 0 308 -325v-709h-129v659q0 271 -207 271q-144 0 -236 -126q-92 -125 -92 -319v-485h-129z" />
<glyph unicode="i" horiz-adv-x="522" d="M169 1348q0 38 27 65t65 27q39 0 65 -26q27 -27 27 -66q0 -38 -27 -65q-27 -28 -65 -28t-65 27t-27 66zM196 0v1018h129v-1018h-129z" />
<glyph unicode="j" horiz-adv-x="538" d="M-114 -510l14 117q67 -25 133 -25q109 0 145 56q36 54 36 215v1165h129v-1157q0 -208 -69 -296q-72 -93 -251 -93q-79 0 -137 18zM187 1348q0 38 27 65t65 27q39 0 65 -26q27 -27 27 -66q0 -38 -27 -65q-27 -28 -65 -28t-65 27t-27 66z" />
<glyph unicode="k" horiz-adv-x="968" d="M196 0v1495h129v-940l401 463h156l-414 -463l449 -555h-172l-420 541v-541h-129z" />
<glyph unicode="l" horiz-adv-x="522" d="M196 0v1495h129v-1495h-129z" />
<glyph unicode="m" horiz-adv-x="1818" d="M196 0v1018h131q0 -139 -18 -238l4 -2q94 256 364 256q158 0 233 -98q52 -68 52 -154q34 94 112 162q104 90 246 90q301 0 301 -327v-707h-129v659q0 134 -39 197q-46 74 -157 74q-132 0 -225 -119q-99 -127 -99 -330v-481h-129v662q0 127 -35 188q-46 80 -161 80 q-136 0 -228 -125q-94 -128 -94 -324v-481h-129z" />
<glyph unicode="n" horiz-adv-x="1185" d="M196 0v1018h131q0 -142 -18 -238l4 -2q94 256 368 256q308 0 308 -325v-709h-129v659q0 271 -207 271q-144 0 -236 -126q-92 -125 -92 -319v-485h-129z" />
<glyph unicode="o" horiz-adv-x="1105" d="M92 506q0 223 124 371q133 157 353 157q197 0 311 -113q134 -131 134 -397q0 -230 -128 -381q-134 -159 -352 -159q-208 0 -322 127q-120 134 -120 395zM225 516q0 -203 87 -314q87 -112 245 -112q137 0 225 102q98 115 98 326q0 195 -82 302q-84 110 -243 110 q-137 0 -228 -100q-102 -113 -102 -314z" />
<glyph unicode="p" horiz-adv-x="1142" d="M196 -514v1532h131q0 -155 -18 -234l4 -2q94 252 354 252q377 0 377 -479q0 -272 -141 -421q-137 -144 -375 -144q-115 0 -203 12v-516h-129zM325 121q87 -31 213 -31q371 0 371 453q0 387 -262 387q-151 0 -243 -151q-79 -129 -79 -287v-371z" />
<glyph unicode="q" horiz-adv-x="1142" d="M98 463q0 272 142 422q139 145 382 145q157 0 324 -26v-1518h-129v577q0 101 14 170l-4 3q-91 -252 -352 -252q-377 0 -377 479zM235 475q0 -387 260 -387q150 0 242 151q80 129 80 287v377q-104 27 -213 27q-369 0 -369 -455z" />
<glyph unicode="r" horiz-adv-x="724" d="M196 0v1018h131q0 -136 -27 -266l5 -2q73 286 311 286q28 0 57 -4l-6 -125q-31 5 -59 5q-283 0 -283 -506v-406h-129z" />
<glyph unicode="s" horiz-adv-x="882" d="M116 743q0 131 98 209q103 82 287 82q108 0 205 -22l-17 -111q-105 31 -206 31q-236 0 -236 -174q0 -87 81 -133q38 -22 178 -62q124 -36 178 -79q81 -65 81 -185q0 -135 -110 -223q-116 -92 -308 -92q-135 0 -227 26l19 123q103 -39 231 -39q115 0 188 50q74 52 74 137 q0 87 -81 132q-36 20 -177 61q-123 35 -177 80q-81 66 -81 189z" />
<glyph unicode="t" horiz-adv-x="755" d="M2 915v103h233v344l127 35v-379h314v-103h-314v-571q0 -145 34 -195q33 -49 128 -49q79 0 142 17l18 -111q-92 -20 -195 -20q-144 0 -201 70q-53 66 -53 225v634h-233z" />
<glyph unicode="u" horiz-adv-x="1185" d="M196 309v709h129v-660q0 -136 43 -199q48 -71 164 -71q144 0 236 126q92 124 92 318v486h129v-1018h-131q0 142 18 238l-4 2q-94 -256 -369 -256q-307 0 -307 325z" />
<glyph unicode="v" horiz-adv-x="964" d="M24 1018h147l254 -715q37 -107 56 -174h2q23 77 55 168l260 721h141l-391 -1018h-141z" />
<glyph unicode="w" horiz-adv-x="1619" d="M40 1018h147l256 -893h3q24 102 67 237l211 656h156l213 -653q44 -136 73 -242h2q9 33 70 237l199 658h139l-334 -1018h-153l-242 705q-32 95 -55 186h-2q-19 -73 -76 -256l-201 -635h-156z" />
<glyph unicode="x" horiz-adv-x="1048" d="M55 0l391 508l-371 510h164l289 -416l297 416h150l-375 -502l391 -516h-174l-299 426l-299 -426h-164z" />
<glyph unicode="y" horiz-adv-x="950" d="M-59 -518l14 119q49 -17 117 -17q183 0 297 291l49 125l-393 1018h152l229 -627q57 -168 78 -235h2q18 70 102 309l197 553h141l-424 -1122q-88 -236 -189 -330q-102 -96 -270 -96q-45 0 -102 12z" />
<glyph unicode="z" horiz-adv-x="911" d="M100 0v90l545 817q-139 -4 -305 -4h-230v115h680v-88l-540 -815q131 4 311 4h239v-119h-700z" />
<glyph unicode="{" horiz-adv-x="667" d="M61 600v107q134 7 180 54q45 45 45 167v284q0 359 283 359h33v-96q-111 0 -154 -57q-43 -56 -43 -197v-283q0 -244 -190 -283v-2q190 -30 190 -284v-416q0 -142 43 -197t154 -55v-100h-33q-283 0 -283 360v416q0 117 -47 165q-49 50 -178 58z" />
<glyph unicode="|" horiz-adv-x="579" d="M237 -514v2048h102v-2048h-102z" />
<glyph unicode="}" horiz-adv-x="659" d="M81 -299q111 0 154 55t43 197v416q0 254 190 284v2q-190 27 -190 273v293q0 141 -43 197q-44 57 -154 57v96h33q282 0 282 -359v-274q0 -128 45 -176q46 -48 179 -55v-107q-128 -8 -177 -58q-47 -48 -47 -165v-416q0 -360 -282 -360h-33v100z" />
<glyph unicode="~" d="M129 913v9q0 124 67 201q68 79 181 79q119 0 215 -117q97 -116 170 -116q140 0 143 194h96v-10q0 -124 -67 -202q-68 -79 -180 -79q-120 0 -216 117t-169 117q-140 0 -144 -193h-96z" />
<glyph unicode="&#xa1;" horiz-adv-x="651" d="M208 936q0 41 28 70q29 28 70 28q40 0 68 -28q29 -29 29 -70q0 -40 -29 -68q-28 -28 -68 -28q-41 0 -70 28q-28 28 -28 68zM228 -414l25 1116h105l24 -1116h-154z" />
<glyph unicode="&#xa2;" horiz-adv-x="935" d="M92 567q0 200 111 333q111 134 301 157v186h104v-182q128 -3 236 -47l-11 -117q-108 57 -252 57q-165 0 -260 -101q-96 -103 -96 -282q0 -378 354 -378q146 0 261 69l10 -117q-107 -49 -242 -61v-223h-104v223q-412 32 -412 483z" />
<glyph unicode="&#xa3;" horiz-adv-x="956" d="M61 688v100h219q-26 191 -26 256q0 170 96 262q96 93 272 93q117 0 203 -29l-23 -113q-91 35 -194 35q-225 0 -225 -227q0 -92 28 -277h332v-100h-320q13 -98 13 -166q0 -144 -40 -231q-41 -89 -155 -187q92 11 201 11h448v-115h-802v92q221 177 221 416q0 57 -15 180 h-233z" />
<glyph unicode="&#xa4;" d="M147 209l156 190q-88 98 -88 277q0 164 98 262l-164 203l88 67l156 -213q78 45 182 45q110 0 184 -45l162 213l86 -69l-170 -209q74 -84 74 -246q0 -154 -86 -250l182 -223l-90 -70l-170 228q-87 -60 -199 -60q-91 0 -159 33l-150 -201zM335 680q0 -270 234 -270 q91 0 154 74q67 78 67 200q0 256 -235 256q-96 0 -157 -71q-63 -72 -63 -189z" />
<glyph unicode="&#xa5;" horiz-adv-x="1198" d="M100 1382h145l246 -512q56 -111 109 -256h2q59 151 123 279l243 489h138l-410 -813h319v-96h-352v-158h352v-96h-352v-219h-131v219h-350v96h350v158h-350v96h319z" />
<glyph unicode="&#xa6;" horiz-adv-x="579" d="M237 260h102v-774h-102v774zM237 780v754h102v-754h-102z" />
<glyph unicode="&#xa7;" horiz-adv-x="1050" d="M167 713q0 161 162 286q-80 110 -80 213q0 128 80 208q87 85 244 85q78 0 143 -18l-12 -111q-74 23 -140 23q-182 0 -182 -172q0 -108 235 -349q234 -241 234 -415q0 -163 -162 -285q80 -106 80 -213q0 -125 -85 -208q-92 -91 -249 -91q-79 0 -155 23l12 110 q92 -26 154 -26q88 0 140 51q50 49 50 129q0 108 -235 347q-234 239 -234 413zM294 731q0 -108 109 -240q37 -44 106 -116l113 -117q102 71 102 188q0 110 -110 242q-35 43 -105 115q-83 86 -111 117q-104 -71 -104 -189z" />
<glyph unicode="&#xa8;" horiz-adv-x="1118" d="M266 1348q0 88 88 88t88 -88q0 -37 -25 -63q-26 -25 -63 -25q-88 0 -88 88zM643 1348q0 88 88 88t88 -88q0 -37 -26 -63q-25 -25 -62 -25t-63 25q-25 26 -25 63z" />
<glyph unicode="&#xa9;" horiz-adv-x="1540" d="M86 686q0 281 199 479q198 197 481 197t480 -195q198 -196 198 -477t-199 -479q-198 -199 -479 -199q-289 0 -485 196q-195 194 -195 478zM197 690q0 -238 166 -408q167 -169 403 -169t403 167q166 168 166 406q0 236 -166 405q-167 171 -403 171q-237 0 -403 -167 t-166 -405zM446 676q0 161 79 260q93 117 276 117q80 0 157 -25l-8 -100q-75 33 -159 33q-226 0 -226 -277q0 -262 217 -262q92 0 172 31l11 -97q-89 -30 -197 -30q-322 0 -322 350z" />
<glyph unicode="&#xaa;" horiz-adv-x="774" d="M112 879q0 107 100 171q107 68 297 66v43q0 141 -143 141q-110 0 -209 -53l-8 107q102 43 233 43q240 0 240 -221v-265q0 -159 2 -182h-119q0 69 10 115l-4 2q-17 -50 -76 -88q-62 -41 -130 -41q-193 0 -193 162zM126 485v103h557v-103h-557zM229 897q0 -84 96 -84 q88 0 142 79q42 62 42 124v18q-280 0 -280 -137z" />
<glyph unicode="&#xab;" horiz-adv-x="1007" d="M129 602l242 352l92 -57l-199 -293l199 -289l-96 -59zM485 602l258 350l93 -57l-215 -291l217 -289l-97 -57z" />
<glyph unicode="&#xac;" d="M90 555v109h887v-441h-111v332h-776z" />
<glyph unicode="&#xad;" horiz-adv-x="669" d="M100 549v106h469v-106h-469z" />
<glyph unicode="&#xae;" horiz-adv-x="1148" d="M143 1079q0 179 126 305q126 127 304 127q183 0 308 -124q124 -125 124 -308q0 -175 -128 -302q-129 -128 -304 -128q-182 0 -306 125t-124 305zM239 1083q0 -139 98 -240q99 -102 236 -102q140 0 237 98t97 238t-97 240q-98 102 -237 102q-138 0 -236 -98t-98 -238z M434 846v475h143q158 0 158 -121q0 -124 -125 -137q10 -12 47 -66l98 -151h-102l-131 209h-6v-209h-82zM516 1110h33q100 0 100 80q0 65 -80 65h-53v-145z" />
<glyph unicode="&#xaf;" horiz-adv-x="808" d="M159 1288v98h489v-98h-489z" />
<glyph unicode="&#xb0;" horiz-adv-x="751" d="M124 1257q0 111 78 181q73 65 174 65q119 0 185 -71q61 -66 61 -170q0 -107 -80 -177q-75 -65 -176 -65q-111 0 -176 65q-66 65 -66 172zM233 1262q0 -71 38 -113q38 -41 99 -41t102 43t41 109q0 155 -141 155q-60 0 -99 -42q-40 -43 -40 -111z" />
<glyph unicode="&#xb1;" d="M90 672v108h412v418h123v-418h411v-108h-411v-422h-123v422h-412zM92 0v109h942v-109h-942z" />
<glyph unicode="&#xb2;" horiz-adv-x="708" d="M86 754v92l221 219q154 156 154 274q0 168 -162 168q-98 0 -182 -51l-21 92q107 58 228 58q124 0 195 -69q69 -67 69 -177q0 -166 -174 -334l-170 -168q100 4 385 4v-108h-543z" />
<glyph unicode="&#xb3;" horiz-adv-x="686" d="M83 758l16 104q74 -24 160 -24q92 0 145 43q52 42 52 112q0 82 -77 120q-83 41 -239 22v96q285 0 285 155q0 123 -149 123q-81 0 -164 -36l-15 96q102 37 203 37q250 0 250 -205q0 -152 -148 -199q82 -13 132 -70q49 -55 49 -128q0 -118 -97 -192q-96 -73 -243 -73 q-68 0 -160 19z" />
<glyph unicode="&#xb4;" horiz-adv-x="788" d="M239 1237l225 297l97 -74l-250 -282z" />
<glyph unicode="&#xb5;" horiz-adv-x="1206" d="M196 -514v1532h129v-680q0 -250 207 -250q145 0 237 126q91 124 91 318v486h129v-676q0 -155 26 -202q24 -44 103 -44v-106q-25 -2 -60 -2q-204 0 -182 250h-2q-95 -254 -363 -254q-143 0 -198 86l16 -584h-133z" />
<glyph unicode="&#xb6;" horiz-adv-x="1153" d="M151 963q0 179 119 298q122 121 315 121v-850q-210 -1 -327 126q-107 117 -107 305zM581 -100h156v1482h276v-96h-151v-1483h-281v97z" />
<glyph unicode="&#xb7;" horiz-adv-x="428" d="M110 608q0 45 30 75t74 30t74 -30q31 -31 31 -75t-31 -74q-30 -30 -74 -30t-74 30t-30 74z" />
<glyph unicode="&#xb8;" horiz-adv-x="819" d="M372 -483q88 112 100 182q13 79 -57 162l117 55q138 -174 -45 -399h-115z" />
<glyph unicode="&#xb9;" horiz-adv-x="536" d="M36 1505l238 86h98v-837h-123v721l-190 -76z" />
<glyph unicode="&#xba;" horiz-adv-x="849" d="M110 1061q0 146 88 241q89 97 227 97q303 0 303 -330q0 -156 -90 -253t-235 -97q-293 0 -293 342zM141 485v103h559v-103h-559zM237 1061q0 -238 176 -238q186 0 186 246q0 225 -178 225q-77 0 -126 -53q-58 -63 -58 -180z" />
<glyph unicode="&#xbb;" horiz-adv-x="1007" d="M167 313l217 293l-213 287l94 59l254 -344l-260 -350zM542 313l200 293l-198 289l96 59l238 -346l-244 -352z" />
<glyph unicode="&#xbc;" horiz-adv-x="1640" d="M36 1505l238 86h98v-837h-123v721l-190 -76zM89 -213l1290 1851l91 -61l-1291 -1851zM886 70l354 559h168v-539h144v-102h-144v-197h-117v197h-397zM1009 86q78 4 282 4v442z" />
<glyph unicode="&#xbd;" horiz-adv-x="1705" d="M36 1505l238 86h98v-837h-123v721l-190 -76zM89 -213l1290 1851l91 -61l-1291 -1851zM1052 -117l223 219q152 155 152 275q0 168 -162 168q-96 0 -180 -51l-23 92q111 57 227 57q125 0 196 -69q69 -66 69 -177q0 -165 -175 -334l-169 -167q100 4 385 4v-109h-543v92z" />
<glyph unicode="&#xbe;" horiz-adv-x="1685" d="M83 758l16 104q74 -24 160 -24q92 0 145 43q52 42 52 112q0 82 -77 120q-83 41 -239 22v96q285 0 285 155q0 123 -149 123q-81 0 -164 -36l-15 96q102 37 203 37q250 0 250 -205q0 -152 -148 -199q82 -13 132 -70q49 -55 49 -128q0 -118 -97 -192q-96 -73 -243 -73 q-68 0 -160 19zM134 -213l1290 1851l93 -61l-1293 -1851zM931 70l354 559h170v-539h144v-102h-144v-197h-119v197h-395zM1056 86q76 4 280 4v442z" />
<glyph unicode="&#xbf;" horiz-adv-x="903" d="M143 -45q0 109 65 200q22 31 135 145q174 176 107 402h127q73 -237 -98 -422q-137 -149 -131 -141q-64 -83 -64 -170q0 -109 116 -187q119 -80 308 -89l-16 -119q-244 11 -399 122q-150 108 -150 259zM415 936q0 41 29 70q28 28 70 28q41 0 70 -28q28 -29 28 -70 q0 -40 -28 -68q-29 -28 -70 -28q-42 0 -70 28q-29 28 -29 68z" />
<glyph unicode="&#xc0;" horiz-adv-x="1245" d="M32 0l520 1382h142l518 -1382h-152l-125 352h-637l-129 -352h-137zM335 459h561l-217 596q-41 112 -61 184h-2q-24 -75 -62 -180zM345 1618l47 111l334 -152l-30 -78z" />
<glyph unicode="&#xc1;" horiz-adv-x="1245" d="M32 0l520 1382h142l518 -1382h-152l-125 352h-637l-129 -352h-137zM335 459h561l-217 596q-41 112 -61 184h-2q-24 -75 -62 -180zM497 1577l336 152l47 -111l-352 -119z" />
<glyph unicode="&#xc2;" horiz-adv-x="1245" d="M32 0l520 1382h142l518 -1382h-152l-125 352h-637l-129 -352h-137zM306 1575l312 170l317 -164l-49 -86l-274 131l-265 -131zM335 459h561l-217 596q-41 112 -61 184h-2q-24 -75 -62 -180z" />
<glyph unicode="&#xc3;" horiz-adv-x="1245" d="M32 0l520 1382h142l518 -1382h-152l-125 352h-637l-129 -352h-137zM280 1587q76 137 211 137q74 0 154 -56q81 -56 122 -56q78 0 135 94l72 -53q-82 -137 -211 -137q-74 0 -155 57q-82 57 -123 57q-78 0 -134 -96zM335 459h561l-217 596q-41 112 -61 184h-2 q-24 -75 -62 -180z" />
<glyph unicode="&#xc4;" horiz-adv-x="1245" d="M32 0l520 1382h142l518 -1382h-152l-125 352h-637l-129 -352h-137zM315 1591q0 88 86 88q37 0 62 -25q26 -26 26 -63q0 -86 -88 -86q-86 0 -86 86zM335 459h561l-217 596q-41 112 -61 184h-2q-24 -75 -62 -180zM749 1591q0 37 25 63q26 25 63 25q86 0 86 -88 q0 -86 -86 -86q-88 0 -88 86z" />
<glyph unicode="&#xc5;" horiz-adv-x="1245" d="M32 0l520 1382h142l518 -1382h-152l-125 352h-637l-129 -352h-137zM335 459h561l-217 596q-41 112 -61 184h-2q-24 -75 -62 -180zM427 1653q0 82 62 141q61 57 143 57q85 0 143 -54q58 -55 58 -136q0 -79 -62 -140t-143 -61q-85 0 -143 54q-58 55 -58 139zM521 1657 q0 -46 32 -79q31 -32 77 -32q45 0 76 32q31 33 31 79q0 45 -31 77q-32 33 -76 33q-46 0 -77 -33q-32 -32 -32 -77z" />
<glyph unicode="&#xc6;" horiz-adv-x="1591" d="M-94 0l770 1382h731v-106h-536v-510h518v-104h-518v-553h561v-109h-692v354h-498l-195 -354h-141zM295 461h445v811h-5q-56 -117 -141 -275z" />
<glyph unicode="&#xc7;" horiz-adv-x="1218" d="M106 664q0 330 155 521q173 212 511 212q172 0 329 -47l-24 -121q-163 57 -334 57q-251 0 -381 -179q-115 -158 -115 -421q0 -586 516 -586q177 0 332 78l27 -112q-184 -80 -398 -80q-305 0 -464 180q-154 175 -154 498zM567 -483q88 112 100 182q12 79 -57 162l117 55 q138 -174 -46 -399h-114z" />
<glyph unicode="&#xc8;" horiz-adv-x="1040" d="M196 0v1382h682v-106h-551v-510h524v-104h-524v-553h551v-109h-682zM266 1618l47 111l334 -152l-31 -78z" />
<glyph unicode="&#xc9;" horiz-adv-x="1040" d="M196 0v1382h682v-106h-551v-510h524v-104h-524v-553h551v-109h-682zM413 1577l336 152l47 -111l-352 -119z" />
<glyph unicode="&#xca;" horiz-adv-x="1040" d="M196 0v1382h682v-106h-551v-510h524v-104h-524v-553h551v-109h-682zM223 1575l311 170l317 -164l-49 -86l-274 131l-264 -131z" />
<glyph unicode="&#xcb;" horiz-adv-x="1040" d="M196 0v1382h682v-106h-551v-510h524v-104h-524v-553h551v-109h-682zM219 1591q0 88 86 88q36 0 62 -25q26 -26 26 -63q0 -86 -88 -86q-86 0 -86 86zM653 1591q0 37 25 63q26 25 63 25q86 0 86 -88q0 -86 -86 -86q-88 0 -88 86z" />
<glyph unicode="&#xcc;" horiz-adv-x="524" d="M-14 1618l47 111l334 -152l-31 -78zM197 0v1382h131v-1382h-131z" />
<glyph unicode="&#xcd;" horiz-adv-x="524" d="M161 1577l336 152l47 -111l-352 -119zM196 0v1382h131v-1382h-131z" />
<glyph unicode="&#xce;" horiz-adv-x="524" d="M-49 1575l311 170l318 -164l-49 -86l-275 131l-264 -131zM197 0v1382h131v-1382h-131z" />
<glyph unicode="&#xcf;" horiz-adv-x="524" d="M-43 1591q0 88 86 88q37 0 62 -25q26 -26 26 -63q0 -86 -88 -86q-86 0 -86 86zM197 0v1382h131v-1382h-131zM391 1591q0 37 26 63q25 25 62 25q86 0 86 -88q0 -86 -86 -86q-88 0 -88 86z" />
<glyph unicode="&#xd0;" horiz-adv-x="1421" d="M4 662v102h209v618l389 7q713 0 713 -687q0 -344 -219 -531q-206 -177 -560 -177q-67 0 -179 4q-98 3 -144 2v662h-209zM344 117q107 -15 211 -15q288 0 449 143q174 153 174 449q0 588 -594 588q-62 0 -240 -6v-512h326v-102h-326v-545z" />
<glyph unicode="&#xd1;" horiz-adv-x="1462" d="M196 0v1382h176l610 -962q92 -144 166 -281q-14 454 -14 887v356h131v-1382h-178l-617 975q-107 172 -159 276q14 -290 14 -858v-393h-129zM382 1587q77 137 211 137q74 0 155 -56q80 -56 122 -56q77 0 135 94l72 -53q-82 -137 -211 -137q-74 0 -156 57q-81 57 -123 57 q-77 0 -133 -96z" />
<glyph unicode="&#xd2;" horiz-adv-x="1445" d="M98 676q0 338 189 536q178 187 452 187q299 0 458 -191q150 -181 150 -501q0 -338 -189 -537q-178 -186 -454 -186q-299 0 -456 191q-150 180 -150 501zM239 705q0 -279 120 -439q127 -170 364 -170q204 0 339 152q144 162 144 432q0 277 -120 438q-128 170 -363 170 q-204 0 -340 -153q-144 -162 -144 -430zM430 1618l47 111l334 -152l-31 -78z" />
<glyph unicode="&#xd3;" horiz-adv-x="1445" d="M98 676q0 338 189 536q178 187 452 187q299 0 458 -191q150 -181 150 -501q0 -338 -189 -537q-178 -186 -454 -186q-299 0 -456 191q-150 180 -150 501zM239 705q0 -279 120 -439q127 -170 364 -170q204 0 339 152q144 162 144 432q0 277 -120 438q-128 170 -363 170 q-204 0 -340 -153q-144 -162 -144 -430zM641 1577l336 152l47 -111l-353 -119z" />
<glyph unicode="&#xd4;" horiz-adv-x="1445" d="M98 676q0 338 189 536q178 187 452 187q299 0 458 -191q150 -181 150 -501q0 -338 -189 -537q-178 -186 -454 -186q-299 0 -456 191q-150 180 -150 501zM239 705q0 -279 120 -439q127 -170 364 -170q204 0 339 152q144 162 144 432q0 277 -120 438q-128 170 -363 170 q-204 0 -340 -153q-144 -162 -144 -430zM417 1575l312 170l317 -164l-49 -86l-274 131l-265 -131z" />
<glyph unicode="&#xd5;" horiz-adv-x="1445" d="M98 676q0 338 189 536q178 187 452 187q299 0 458 -191q150 -181 150 -501q0 -338 -189 -537q-178 -186 -454 -186q-299 0 -456 191q-150 180 -150 501zM239 705q0 -279 120 -439q127 -170 364 -170q204 0 339 152q144 162 144 432q0 277 -120 438q-128 170 -363 170 q-204 0 -340 -153q-144 -162 -144 -430zM372 1587q77 137 211 137q74 0 155 -56q80 -56 122 -56q77 0 135 94l72 -53q-82 -137 -211 -137q-74 0 -156 57q-81 57 -123 57q-77 0 -133 -96z" />
<glyph unicode="&#xd6;" horiz-adv-x="1445" d="M98 676q0 338 189 536q178 187 452 187q299 0 458 -191q150 -181 150 -501q0 -338 -189 -537q-178 -186 -454 -186q-299 0 -456 191q-150 180 -150 501zM239 705q0 -279 120 -439q127 -170 364 -170q204 0 339 152q144 162 144 432q0 277 -120 438q-128 170 -363 170 q-204 0 -340 -153q-144 -162 -144 -430zM426 1591q0 88 86 88q37 0 62 -25q26 -26 26 -63q0 -86 -88 -86q-86 0 -86 86zM860 1591q0 37 25 63q26 25 63 25q86 0 86 -88q0 -86 -86 -86q-88 0 -88 86z" />
<glyph unicode="&#xd7;" d="M124 242l362 364l-362 363l78 78l362 -363l365 363l72 -72l-363 -365l363 -362l-78 -78l-363 362l-364 -362z" />
<glyph unicode="&#xd8;" horiz-adv-x="1445" d="M98 678q0 336 189 535q178 186 452 186q101 0 184 -19l78 203l103 -39l-78 -201q321 -145 321 -645q0 -338 -186 -531q-177 -183 -463 -183q-114 0 -192 22l-82 -215l-103 39l84 215q-307 155 -307 633zM237 705q0 -400 217 -539l426 1104q-55 18 -157 18 q-204 0 -340 -151q-146 -162 -146 -432zM551 119q62 -23 159 -23q221 0 356 150q142 157 142 432q0 409 -231 549z" />
<glyph unicode="&#xd9;" horiz-adv-x="1435" d="M196 455v927h131v-913q0 -379 385 -379q204 0 298 94q99 100 99 326v872h129v-860q0 -538 -538 -538q-504 0 -504 471zM415 1618l47 111l334 -152l-31 -78z" />
<glyph unicode="&#xda;" horiz-adv-x="1435" d="M196 455v927h131v-913q0 -379 385 -379q204 0 298 94q99 100 99 326v872h129v-860q0 -538 -538 -538q-504 0 -504 471zM661 1577l336 152l47 -111l-352 -119z" />
<glyph unicode="&#xdb;" horiz-adv-x="1435" d="M196 455v927h131v-913q0 -379 385 -379q204 0 298 94q99 100 99 326v872h129v-860q0 -538 -538 -538q-504 0 -504 471zM409 1575l311 170l318 -164l-49 -86l-275 131l-264 -131z" />
<glyph unicode="&#xdc;" horiz-adv-x="1435" d="M196 455v927h131v-913q0 -379 385 -379q204 0 298 94q99 100 99 326v872h129v-860q0 -538 -538 -538q-504 0 -504 471zM411 1591q0 88 86 88q37 0 63 -25q25 -26 25 -63q0 -86 -88 -86q-86 0 -86 86zM845 1591q0 37 26 63q25 25 62 25q86 0 86 -88q0 -86 -86 -86 q-88 0 -88 86z" />
<glyph unicode="&#xdd;" horiz-adv-x="1062" d="M28 1382h145l246 -514q59 -121 111 -250h2q29 75 123 271l239 493h140l-443 -878v-504h-131v504zM470 1577l336 152l47 -111l-352 -119z" />
<glyph unicode="&#xde;" horiz-adv-x="1067" d="M196 0v1382h131v-221q95 6 186 6q242 0 374 -105q134 -107 134 -308q0 -211 -157 -339q-154 -124 -398 -124q-82 0 -139 8v-299h-131zM327 410q75 -11 158 -11q190 0 296 90q105 90 105 252q0 318 -403 318q-79 0 -156 -12v-637z" />
<glyph unicode="&#xdf;" horiz-adv-x="1191" d="M196 0v1032q0 471 434 471q163 0 256 -75q86 -70 86 -183q0 -154 -153 -252q-86 -56 -106 -75q-48 -46 -48 -109q0 -78 67 -135q32 -27 148 -91q215 -119 215 -288q0 -136 -105 -222q-109 -89 -292 -89q-111 0 -193 16l15 123q86 -29 186 -29q128 0 197 54q61 49 61 126 q0 82 -67 141q-33 28 -148 92q-215 118 -215 292q0 129 154 233q153 103 153 199q0 170 -223 170q-293 0 -293 -359v-1042h-129z" />
<glyph unicode="&#xe0;" horiz-adv-x="1062" d="M108 248q0 156 159 248q166 96 468 96v55q0 148 -52 213q-55 70 -188 70q-150 0 -305 -76l-31 107q165 73 355 73q350 0 350 -354v-365q0 -131 4 -315h-131q0 152 12 223l-4 2q-39 -104 -132 -170q-100 -71 -229 -71q-120 0 -197 70q-79 73 -79 194zM239 268 q0 -78 48 -127q50 -51 130 -51q137 0 230 120q88 112 88 259v25q-496 0 -496 -226zM274 1460l98 74l223 -297l-73 -59z" />
<glyph unicode="&#xe1;" horiz-adv-x="1062" d="M108 248q0 156 159 248q166 96 468 96v55q0 148 -52 213q-55 70 -188 70q-150 0 -305 -76l-31 107q165 73 355 73q350 0 350 -354v-365q0 -131 4 -315h-131q0 152 12 223l-4 2q-39 -104 -132 -170q-100 -71 -229 -71q-120 0 -197 70q-79 73 -79 194zM239 268 q0 -78 48 -127q50 -51 130 -51q137 0 230 120q88 112 88 259v25q-496 0 -496 -226zM448 1237l225 297l97 -74l-250 -282z" />
<glyph unicode="&#xe2;" horiz-adv-x="1062" d="M108 248q0 156 159 248q166 96 468 96v55q0 148 -52 213q-55 70 -188 70q-150 0 -305 -76l-31 107q165 73 355 73q350 0 350 -354v-365q0 -131 4 -315h-131q0 152 12 223l-4 2q-39 -104 -132 -170q-100 -71 -229 -71q-120 0 -197 70q-79 73 -79 194zM239 268 q0 -78 48 -127q50 -51 130 -51q137 0 230 120q88 112 88 259v25q-496 0 -496 -226zM255 1245l265 264l262 -260l-68 -65l-198 178l-199 -178z" />
<glyph unicode="&#xe3;" horiz-adv-x="1062" d="M108 248q0 156 159 248q166 96 468 96v55q0 148 -52 213q-55 70 -188 70q-150 0 -305 -76l-31 107q165 73 355 73q350 0 350 -354v-365q0 -131 4 -315h-131q0 152 12 223l-4 2q-39 -104 -132 -170q-100 -71 -229 -71q-120 0 -197 70q-79 73 -79 194zM174 1313 q77 141 206 141q71 0 149 -58q78 -59 118 -59q73 0 129 99l67 -56q-74 -141 -205 -141q-70 0 -149 58q-79 59 -119 59q-72 0 -127 -99zM239 268q0 -78 48 -127q50 -51 130 -51q137 0 230 120q88 112 88 259v25q-496 0 -496 -226z" />
<glyph unicode="&#xe4;" horiz-adv-x="1062" d="M108 248q0 156 159 248q166 96 468 96v55q0 148 -52 213q-55 70 -188 70q-150 0 -305 -76l-31 107q165 73 355 73q350 0 350 -354v-365q0 -131 4 -315h-131q0 152 12 223l-4 2q-39 -104 -132 -170q-100 -71 -229 -71q-120 0 -197 70q-79 73 -79 194zM237 1348q0 88 88 88 t88 -88q0 -37 -25 -63q-26 -25 -63 -25q-88 0 -88 88zM239 268q0 -78 48 -127q50 -51 130 -51q137 0 230 120q88 112 88 259v25q-496 0 -496 -226zM614 1348q0 88 88 88t88 -88q0 -37 -26 -63q-25 -25 -62 -25t-63 25q-25 26 -25 63z" />
<glyph unicode="&#xe5;" horiz-adv-x="1062" d="M108 248q0 156 159 248q166 96 468 96v55q0 148 -52 213q-55 70 -188 70q-150 0 -305 -76l-31 107q165 73 355 73q350 0 350 -354v-365q0 -131 4 -315h-131q0 152 12 223l-4 2q-39 -104 -132 -170q-100 -71 -229 -71q-120 0 -197 70q-79 73 -79 194zM239 268 q0 -78 48 -127q50 -51 130 -51q137 0 230 120q88 112 88 259v25q-496 0 -496 -226zM313 1348q0 86 65 149q65 62 152 62q89 0 150 -59t61 -146q0 -84 -64 -147q-64 -64 -151 -64q-91 0 -151 57q-62 58 -62 148zM409 1350q0 -50 34 -85q35 -36 85 -36q49 0 83 36q34 35 34 85 t-34 85t-83 35q-51 0 -85 -35q-34 -34 -34 -85z" />
<glyph unicode="&#xe6;" horiz-adv-x="1660" d="M108 248q0 156 159 249q167 97 468 97v78q0 258 -242 258q-160 0 -301 -78l-33 109q165 73 355 73q250 0 311 -180h2q110 180 338 180q197 0 300 -122q91 -109 91 -287q0 -41 -2 -76h-692q-18 -455 350 -455q157 0 289 60l24 -109q-152 -61 -340 -61q-327 0 -405 249h-2 q-46 -103 -144 -171q-111 -78 -250 -78q-120 0 -197 70q-79 73 -79 194zM239 268q0 -77 48 -127q49 -51 128 -51q139 0 232 120q88 112 88 259v25q-496 0 -496 -226zM870 645h549q3 130 -68 209q-71 80 -194 80q-113 0 -190 -78q-77 -77 -97 -211z" />
<glyph unicode="&#xe7;" horiz-adv-x="907" d="M94 473q0 258 123 405q126 152 354 152q157 0 271 -47l-29 -109q-134 52 -262 52q-151 0 -237 -120q-83 -116 -83 -306q0 -404 326 -404q140 0 264 56l27 -105q-138 -59 -318 -59q-436 0 -436 485zM397 -483q89 112 100 182q13 79 -57 162l117 55q138 -174 -45 -399h-115 z" />
<glyph unicode="&#xe8;" horiz-adv-x="1030" d="M94 506q0 232 116 378q121 150 324 150q197 0 300 -122q91 -108 91 -285q0 -54 -4 -90h-690q-15 -443 350 -443q156 0 287 60l25 -109q-152 -61 -340 -61q-459 0 -459 522zM237 635h551q3 138 -67 217q-70 80 -195 80q-115 0 -191 -77q-78 -79 -98 -220zM278 1460l99 74 l223 -297l-74 -59z" />
<glyph unicode="&#xe9;" horiz-adv-x="1030" d="M94 506q0 232 116 378q121 150 324 150q197 0 300 -122q91 -108 91 -285q0 -54 -4 -90h-690q-15 -443 350 -443q156 0 287 60l25 -109q-152 -61 -340 -61q-459 0 -459 522zM237 635h551q3 138 -67 217q-70 80 -195 80q-115 0 -191 -77q-78 -79 -98 -220zM450 1237 l226 297l96 -74l-250 -282z" />
<glyph unicode="&#xea;" horiz-adv-x="1030" d="M94 506q0 232 116 378q121 150 324 150q197 0 300 -122q91 -108 91 -285q0 -54 -4 -90h-690q-15 -443 350 -443q156 0 287 60l25 -109q-152 -61 -340 -61q-459 0 -459 522zM237 635h551q3 138 -67 217q-70 80 -195 80q-115 0 -191 -77q-78 -79 -98 -220zM268 1245 l264 264l262 -260l-67 -65l-199 178l-198 -178z" />
<glyph unicode="&#xeb;" horiz-adv-x="1030" d="M94 506q0 232 116 378q121 150 324 150q197 0 300 -122q91 -108 91 -285q0 -54 -4 -90h-690q-15 -443 350 -443q156 0 287 60l25 -109q-152 -61 -340 -61q-459 0 -459 522zM237 635h551q3 138 -67 217q-70 80 -195 80q-115 0 -191 -77q-78 -79 -98 -220zM254 1348 q0 88 88 88t88 -88q0 -37 -26 -63q-25 -25 -62 -25q-88 0 -88 88zM631 1348q0 88 88 88t88 -88q0 -37 -26 -63q-25 -25 -62 -25t-63 25q-25 26 -25 63z" />
<glyph unicode="&#xec;" horiz-adv-x="522" d="M22 1460l98 74l224 -297l-74 -59zM196 0v1018h129v-1018h-129z" />
<glyph unicode="&#xed;" horiz-adv-x="522" d="M176 1237l225 297l97 -74l-250 -282zM196 0v1018h130v-1018h-130z" />
<glyph unicode="&#xee;" horiz-adv-x="522" d="M20 1245l242 262l237 -258l-65 -65l-176 178l-175 -178zM196 0v1018h129v-1018h-129z" />
<glyph unicode="&#xef;" horiz-adv-x="522" d="M2 1348q0 88 88 88t88 -88q0 -37 -25 -63q-26 -25 -63 -25q-88 0 -88 88zM197 0v1018h129v-1018h-129zM344 1348q0 88 88 88t88 -88q0 -37 -25 -63q-26 -25 -63 -25t-62 25q-26 26 -26 63z" />
<glyph unicode="&#xf0;" horiz-adv-x="1105" d="M90 506q0 224 124 372q132 156 351 156q186 0 252 -114q-16 30 -40 71l-30 49q-53 98 -147 201l-221 -100l-60 76l209 94q-61 58 -174 147l133 58q96 -79 164 -150l221 96l60 -76l-213 -94q291 -347 291 -741q0 -279 -136 -429q-125 -138 -335 -138q-209 0 -325 128 q-124 136 -124 394zM225 516q0 -202 90 -314q89 -112 246 -112q138 0 220 103q93 115 93 342q0 183 -81 287q-84 108 -240 108q-137 0 -227 -100q-101 -113 -101 -314z" />
<glyph unicode="&#xf1;" horiz-adv-x="1185" d="M196 0v1018h131q0 -142 -18 -238l4 -2q94 256 368 256q308 0 308 -325v-709h-129v659q0 271 -207 271q-144 0 -236 -126q-92 -125 -92 -319v-485h-129zM264 1313q77 141 206 141q71 0 149 -58q78 -59 118 -59q73 0 129 99l67 -56q-74 -141 -205 -141q-70 0 -149 58 q-79 59 -119 59q-71 0 -127 -99z" />
<glyph unicode="&#xf2;" horiz-adv-x="1105" d="M92 506q0 223 124 371q133 157 353 157q197 0 311 -113q134 -131 134 -397q0 -230 -128 -381q-134 -159 -352 -159q-208 0 -322 127q-120 134 -120 395zM225 516q0 -203 87 -314q87 -112 245 -112q137 0 225 102q98 115 98 326q0 195 -82 302q-84 110 -243 110 q-137 0 -228 -100q-102 -113 -102 -314zM315 1460l99 74l223 -297l-74 -59z" />
<glyph unicode="&#xf3;" horiz-adv-x="1105" d="M92 506q0 223 124 371q133 157 353 157q197 0 311 -113q134 -131 134 -397q0 -230 -128 -381q-134 -159 -352 -159q-208 0 -322 127q-120 134 -120 395zM225 516q0 -203 87 -314q87 -112 245 -112q137 0 225 102q98 115 98 326q0 195 -82 302q-84 110 -243 110 q-137 0 -228 -100q-102 -113 -102 -314zM483 1237l225 297l97 -74l-250 -282z" />
<glyph unicode="&#xf4;" horiz-adv-x="1105" d="M92 506q0 223 124 371q133 157 353 157q197 0 311 -113q134 -131 134 -397q0 -230 -128 -381q-134 -159 -352 -159q-208 0 -322 127q-120 134 -120 395zM225 516q0 -203 87 -314q87 -112 245 -112q137 0 225 102q98 115 98 326q0 195 -82 302q-84 110 -243 110 q-137 0 -228 -100q-102 -113 -102 -314zM291 1245l264 264l262 -260l-68 -65l-198 178l-199 -178z" />
<glyph unicode="&#xf5;" horiz-adv-x="1105" d="M92 506q0 223 124 371q133 157 353 157q197 0 311 -113q134 -131 134 -397q0 -230 -128 -381q-134 -159 -352 -159q-208 0 -322 127q-120 134 -120 395zM225 516q0 -203 87 -314q87 -112 245 -112q137 0 225 102q98 115 98 326q0 195 -82 302q-84 110 -243 110 q-137 0 -228 -100q-102 -113 -102 -314zM225 1313q77 141 207 141q71 0 148 -58q78 -59 118 -59q74 0 129 99l68 -56q-74 -141 -205 -141q-71 0 -149 58q-79 59 -119 59q-72 0 -127 -99z" />
<glyph unicode="&#xf6;" horiz-adv-x="1105" d="M92 506q0 223 124 371q133 157 353 157q197 0 311 -113q134 -131 134 -397q0 -230 -128 -381q-134 -159 -352 -159q-208 0 -322 127q-120 134 -120 395zM225 516q0 -203 87 -314q87 -112 245 -112q137 0 225 102q98 115 98 326q0 195 -82 302q-84 110 -243 110 q-137 0 -228 -100q-102 -113 -102 -314zM274 1348q0 88 88 88t88 -88q0 -37 -25 -63q-26 -25 -63 -25q-88 0 -88 88zM651 1348q0 88 88 88t88 -88q0 -37 -25 -63q-26 -25 -63 -25t-62 25q-26 26 -26 63z" />
<glyph unicode="&#xf7;" d="M90 555v109h946v-109h-946zM461 195q0 41 29 69q29 29 69 29q41 0 70 -29q28 -28 28 -69t-28 -69q-29 -28 -70 -28q-40 0 -69 28q-29 29 -29 69zM461 1020q0 41 29 70q29 28 69 28q41 0 70 -28q28 -29 28 -70q0 -42 -28 -70q-29 -28 -70 -28q-40 0 -69 28q-29 29 -29 70z " />
<glyph unicode="&#xf8;" horiz-adv-x="1105" d="M92 506q0 223 124 371q133 157 355 157q49 0 111 -10l76 190l96 -34l-78 -189q238 -115 238 -467q0 -230 -127 -381q-132 -159 -349 -159q-82 0 -153 22l-84 -213l-96 35l88 219q-201 123 -201 459zM221 516q0 -244 123 -348l295 756q-48 10 -88 10q-133 0 -223 -93 q-107 -112 -107 -325zM430 111q51 -23 129 -23q139 0 227 102q99 115 99 328q0 273 -156 365z" />
<glyph unicode="&#xf9;" horiz-adv-x="1185" d="M196 309v709h129v-660q0 -136 43 -199q48 -71 164 -71q144 0 236 126q92 124 92 318v486h129v-1018h-131q0 142 18 238l-4 2q-94 -256 -369 -256q-307 0 -307 325zM335 1460l99 74l223 -297l-74 -59z" />
<glyph unicode="&#xfa;" horiz-adv-x="1185" d="M196 309v709h129v-660q0 -136 43 -199q48 -71 164 -71q144 0 236 126q92 124 92 318v486h129v-1018h-131q0 142 18 238l-4 2q-94 -256 -369 -256q-307 0 -307 325zM528 1237l225 297l96 -74l-250 -282z" />
<glyph unicode="&#xfb;" horiz-adv-x="1185" d="M196 309v709h129v-660q0 -136 43 -199q48 -71 164 -71q144 0 236 126q92 124 92 318v486h129v-1018h-131q0 142 18 238l-4 2q-94 -256 -369 -256q-307 0 -307 325zM329 1245l264 264l262 -260l-67 -65l-199 178l-198 -178z" />
<glyph unicode="&#xfc;" horiz-adv-x="1185" d="M196 309v709h129v-660q0 -136 43 -199q48 -71 164 -71q144 0 236 126q92 124 92 318v486h129v-1018h-131q0 142 18 238l-4 2q-94 -256 -369 -256q-307 0 -307 325zM315 1348q0 88 88 88t88 -88q0 -37 -26 -63q-25 -25 -62 -25q-88 0 -88 88zM692 1348q0 88 88 88t88 -88 q0 -37 -26 -63q-25 -25 -62 -25t-63 25q-25 26 -25 63z" />
<glyph unicode="&#xfd;" horiz-adv-x="950" d="M-59 -518l14 119q49 -17 117 -17q183 0 297 291l49 125l-393 1018h152l229 -627q57 -168 78 -235h2q18 70 102 309l197 553h141l-424 -1122q-88 -236 -189 -330q-102 -96 -270 -96q-45 0 -102 12zM418 1237l225 297l97 -74l-250 -282z" />
<glyph unicode="&#xfe;" horiz-adv-x="1142" d="M196 -514v2009h129v-469q0 -168 -14 -240l4 -2q94 250 352 250q377 0 377 -479q0 -272 -141 -421q-137 -144 -375 -144q-115 0 -203 12v-516h-129zM325 121q87 -31 213 -31q371 0 371 453q0 387 -262 387q-151 0 -243 -151q-79 -129 -79 -287v-371z" />
<glyph unicode="&#xff;" horiz-adv-x="950" d="M-59 -518l14 119q49 -17 117 -17q183 0 297 291l49 125l-393 1018h152l229 -627q57 -168 78 -235h2q18 70 102 309l197 553h141l-424 -1122q-88 -236 -189 -330q-102 -96 -270 -96q-45 0 -102 12zM203 1348q0 88 88 88t88 -88q0 -37 -25 -63q-26 -25 -63 -25 q-88 0 -88 88zM580 1348q0 88 88 88t88 -88q0 -37 -25 -63q-26 -25 -63 -25t-62 25q-26 26 -26 63z" />
<glyph unicode="&#x152;" horiz-adv-x="1771" d="M98 678q0 336 189 535q178 186 452 186q99 0 201 -17h671v-106h-550v-510h524v-104h-524v-553h550v-109h-679q-122 -16 -228 -16q-299 0 -456 191q-150 181 -150 503zM239 705q0 -279 120 -439q126 -170 362 -170q114 0 208 27v1137q-105 28 -202 28q-206 0 -342 -152 q-146 -162 -146 -431z" />
<glyph unicode="&#x153;" horiz-adv-x="1806" d="M90 506q0 223 124 371q133 157 353 157q275 0 381 -221q114 221 363 221q195 0 299 -122q92 -109 92 -287l-4 -76h-690q-18 -455 348 -455q157 0 288 60l25 -109q-152 -61 -340 -61q-304 0 -401 235q-125 -235 -396 -235q-208 0 -322 127q-120 134 -120 395zM225 516 q0 -203 86 -314q86 -112 244 -112q137 0 225 102q98 115 98 326q0 195 -82 302q-84 110 -243 110q-137 0 -227 -100q-101 -113 -101 -314zM1014 645h549q3 130 -67 209q-70 80 -194 80q-113 0 -191 -78q-77 -77 -97 -211z" />
<glyph unicode="&#x178;" horiz-adv-x="1062" d="M28 1382h145l246 -514q59 -121 111 -250h2q29 75 123 271l239 493h140l-443 -878v-504h-131v504zM233 1591q0 88 86 88q37 0 62 -25q26 -26 26 -63q0 -86 -88 -86q-86 0 -86 86zM667 1591q0 37 26 63q25 25 62 25q86 0 86 -88q0 -86 -86 -86q-88 0 -88 86z" />
<glyph unicode="&#x2c6;" horiz-adv-x="897" d="M180 1245l264 264l262 -260l-67 -65l-199 178l-199 -178z" />
<glyph unicode="&#x2dc;" horiz-adv-x="1038" d="M184 1313q77 141 207 141q71 0 148 -58q78 -59 118 -59q74 0 129 99l68 -56q-74 -141 -205 -141q-71 0 -150 58q-78 59 -118 59q-72 0 -127 -99z" />
<glyph unicode="&#x2000;" horiz-adv-x="925" />
<glyph unicode="&#x2001;" horiz-adv-x="1851" />
<glyph unicode="&#x2002;" horiz-adv-x="925" />
<glyph unicode="&#x2003;" horiz-adv-x="1851" />
<glyph unicode="&#x2004;" horiz-adv-x="617" />
<glyph unicode="&#x2005;" horiz-adv-x="462" />
<glyph unicode="&#x2006;" horiz-adv-x="308" />
<glyph unicode="&#x2007;" horiz-adv-x="308" />
<glyph unicode="&#x2008;" horiz-adv-x="231" />
<glyph unicode="&#x2009;" horiz-adv-x="370" />
<glyph unicode="&#x200a;" horiz-adv-x="102" />
<glyph unicode="&#x2010;" horiz-adv-x="669" d="M100 549v106h469v-106h-469z" />
<glyph unicode="&#x2011;" horiz-adv-x="669" d="M100 549v106h469v-106h-469z" />
<glyph unicode="&#x2012;" horiz-adv-x="669" d="M100 549v106h469v-106h-469z" />
<glyph unicode="&#x2013;" d="M0 555v109h1126v-109h-1126z" />
<glyph unicode="&#x2014;" horiz-adv-x="2048" d="M251 555v109h1544v-109h-1544z" />
<glyph unicode="&#x2018;" horiz-adv-x="464" d="M124 1195q10 155 197 333l57 -53q-164 -178 -90 -279q32 -45 9 -93q-23 -46 -75 -46q-46 0 -73 37q-29 38 -25 101z" />
<glyph unicode="&#x2019;" horiz-adv-x="464" d="M86 1098q168 181 90 280q-32 45 -8 91q23 47 76 47q45 0 72 -37q29 -39 24 -101q-10 -155 -195 -331z" />
<glyph unicode="&#x201a;" horiz-adv-x="464" d="M86 -238q168 182 90 281q-32 44 -8 91q23 46 76 46q45 0 72 -36q29 -39 24 -101q-10 -154 -195 -332z" />
<glyph unicode="&#x201c;" horiz-adv-x="813" d="M124 1195q10 155 197 333l57 -53q-164 -178 -90 -279q32 -45 9 -93q-23 -46 -75 -46q-46 0 -73 37q-29 38 -25 101zM472 1195q10 155 195 333l59 -53q-165 -180 -92 -279q33 -45 10 -93q-23 -46 -75 -46q-46 0 -73 37q-28 38 -24 101z" />
<glyph unicode="&#x201d;" horiz-adv-x="813" d="M86 1098q168 181 90 280q-32 45 -8 91q23 47 76 47q45 0 72 -37q29 -39 24 -101q-10 -155 -195 -331zM434 1098q165 179 90 280q-32 44 -8 91q23 47 74 47q46 0 74 -37q28 -39 24 -101q-10 -155 -196 -331z" />
<glyph unicode="&#x201e;" horiz-adv-x="813" d="M86 -238q168 182 90 281q-32 44 -8 91q23 46 76 46q45 0 72 -36q29 -39 24 -101q-10 -154 -195 -332zM434 -238q165 179 90 281q-32 44 -8 91q23 46 74 46q46 0 74 -36q28 -39 24 -101q-10 -154 -196 -332z" />
<glyph unicode="&#x2022;" horiz-adv-x="858" d="M221 608q0 86 60 147q61 60 147 60t147 -60q62 -61 62 -147t-62 -146q-61 -61 -147 -61t-147 61q-60 60 -60 146z" />
<glyph unicode="&#x2026;" horiz-adv-x="1275" d="M114 82q0 41 28 70q28 28 68 28q42 0 70 -28q29 -29 29 -70q0 -40 -29 -69t-70 -29q-39 0 -68 29q-28 29 -28 69zM528 82q0 41 28 70q28 28 68 28q41 0 70 -28q28 -29 28 -70q0 -40 -28 -69q-29 -29 -70 -29q-40 0 -68 29t-28 69zM939 82q0 41 30 70q28 28 69 28t70 -28 q28 -29 28 -70q0 -40 -28 -69q-29 -29 -70 -29q-40 0 -69 29q-30 29 -30 69z" />
<glyph unicode="&#x202f;" horiz-adv-x="370" />
<glyph unicode="&#x2039;" horiz-adv-x="643" d="M129 602l250 350l92 -59l-209 -289l209 -285l-94 -63z" />
<glyph unicode="&#x203a;" horiz-adv-x="643" d="M169 317l211 289l-207 285l92 61l248 -344l-254 -352z" />
<glyph unicode="&#x205f;" horiz-adv-x="462" />
<glyph unicode="&#x20ac;" horiz-adv-x="1212" d="M28 485v95h190q-2 26 -2 82q0 47 5 124h-193v95h201q39 265 199 398q143 120 364 120q202 0 342 -86l-47 -101q-134 84 -316 84q-155 0 -259 -96q-117 -108 -146 -319h498v-95h-504q-4 -65 -4 -102q0 -70 2 -104h506v-95h-498q48 -393 412 -393q176 0 331 103l43 -97 q-186 -114 -405 -114q-462 0 -522 501h-197z" />
<glyph unicode="&#x2122;" horiz-adv-x="1443" d="M112 1300v82h428v-82h-160v-493h-108v493h-160zM591 807l86 575h146l106 -360l25 -102l18 92l117 370h141l86 -575h-106l-51 340l-15 119l-28 -101l-111 -358h-119l-108 362l-25 97l-6 -76l-57 -383h-99z" />
<glyph unicode="&#x25fc;" horiz-adv-x="1020" d="M0 0v1020h1020v-1020h-1020z" />
</font>
</defs>
</svg>
