<?xml version="1.0" standalone="no"?>
<!DOCTYPE svg PUBLIC "-//W3C//DTD SVG 1.1//EN" "http://www.w3.org/Graphics/SVG/1.1/DTD/svg11.dtd" >
<svg xmlns="http://www.w3.org/2000/svg" xmlns:xlink="http://www.w3.org/1999/xlink" version="1.1">
<metadata></metadata>
<defs>
<font id="bahij_thesansarabicplain" horiz-adv-x="1126" >
<font-face units-per-em="2048" ascent="1638" descent="-410" />
<missing-glyph horiz-adv-x="400" />
<glyph unicode="&#xfb01;" horiz-adv-x="1208" d="M14 874v144h209v45q0 444 475 444q143 0 287 -37l-35 -155q-126 41 -248 41q-295 0 -295 -273v-65h627v-1018h-184v874h-443v-874h-184v874h-209z" />
<glyph unicode="&#xfb02;" horiz-adv-x="1208" d="M14 874v144h209v117q0 372 469 372q151 0 342 -30v-1477h-184v1343q-84 15 -177 15q-266 0 -266 -240v-100h277v-144h-277v-874h-184v874h-209z" />
<glyph horiz-adv-x="0" />
<glyph horiz-adv-x="682" />
<glyph unicode=" "  horiz-adv-x="400" />
<glyph unicode="&#x09;" horiz-adv-x="400" />
<glyph unicode="&#xa0;" horiz-adv-x="400" />
<glyph unicode="!" horiz-adv-x="655" d="M221 102q0 51 36 86q37 35 89 35t87 -35q36 -35 36 -86q0 -50 -36 -85q-35 -35 -87 -35t-89 35q-36 35 -36 85zM237 1440h217l-30 -1096h-154z" />
<glyph unicode="&#x22;" horiz-adv-x="749" d="M106 1432h195l-29 -471h-137zM448 1432h195l-29 -471h-137z" />
<glyph unicode="#" horiz-adv-x="1181" d="M65 389v127h201l41 363h-191v127h201l41 376h149l-41 -376h314l41 376h149l-41 -376h185v-127h-197l-39 -363h186v-127h-200l-41 -389h-148l39 389h-313l-41 -389h-148l41 389h-188zM415 516h314l38 363h-313z" />
<glyph unicode="$" horiz-adv-x="1001" d="M118 926q0 133 90 227t238 117v215h137v-207q122 -3 217 -25l-12 -163q-124 36 -232 36q-252 0 -252 -178q0 -87 92 -147q36 -23 201 -93q139 -59 202 -119q91 -89 91 -224q0 -142 -91 -242q-92 -103 -253 -133v-266h-137v258q-146 3 -254 30l12 172q121 -47 266 -47 q265 0 265 203q0 91 -91 150q-36 24 -199 91q-137 57 -199 118q-91 87 -91 227z" />
<glyph unicode="%" horiz-adv-x="1536" d="M90 1075q0 143 84 235q85 93 223 93q289 0 289 -309q0 -147 -85 -239q-85 -93 -222 -93q-289 0 -289 313zM196 43l1018 1378l119 -84l-1018 -1380zM242 1087q0 -202 151 -202q62 0 101 53q40 55 40 143q0 199 -147 199q-65 0 -105 -52q-40 -53 -40 -141zM850 293 q0 143 84 234q85 94 223 94q289 0 289 -308q0 -147 -85 -240t-222 -93q-289 0 -289 313zM1001 305q0 -201 152 -201q62 0 101 53q40 54 40 142q0 199 -147 199q-65 0 -105 -53q-41 -53 -41 -140z" />
<glyph unicode="&#x26;" horiz-adv-x="1628" d="M114 381q0 222 285 444q-191 221 -191 373q0 131 94 217q101 92 271 92q155 0 243 -78q84 -75 84 -198q0 -204 -256 -404q224 -231 453 -415v-2q154 217 139 508h185q9 -354 -189 -609q141 -109 281 -207l-119 -141q-180 124 -291 217q-226 -198 -540 -198 q-214 0 -335 116q-114 109 -114 285zM302 403q0 -111 79 -186q83 -80 214 -80q215 0 379 142q-268 218 -469 438q-203 -162 -203 -314zM390 1206q0 -100 150 -272q176 145 176 278q0 154 -160 154q-72 0 -119 -45q-47 -44 -47 -115z" />
<glyph unicode="'" horiz-adv-x="407" d="M106 1432h195l-29 -471h-137z" />
<glyph unicode="(" horiz-adv-x="620" d="M143 582q0 541 301 1017l133 -63q-254 -436 -254 -944q0 -523 256 -952l-137 -68q-299 474 -299 1010z" />
<glyph unicode=")" horiz-adv-x="620" d="M51 1534l139 65q297 -472 297 -1007q0 -545 -301 -1020l-133 66q254 430 254 942q0 521 -256 954z" />
<glyph unicode="*" horiz-adv-x="765" d="M77 1096l211 92l-211 94l70 119l184 -135l-23 229h138l-25 -229l186 135l68 -119l-211 -92l211 -94l-70 -119l-184 135l23 -229h-138l23 229l-184 -135z" />
<glyph unicode="+" d="M86 532v154h389v410h174v-410h391v-154h-391v-411h-174v411h-389z" />
<glyph unicode="," horiz-adv-x="466" d="M53 -246q174 187 88 295q-44 55 -14 118q29 64 102 64q58 0 93 -44q37 -46 34 -121q-7 -183 -225 -381z" />
<glyph unicode="-" horiz-adv-x="675" d="M96 512v152h483v-152h-483z" />
<glyph unicode="." horiz-adv-x="466" d="M106 109q0 52 37 89q38 38 90 38q53 0 90 -38q37 -37 37 -89q0 -53 -37 -90t-90 -37q-52 0 -90 37q-37 37 -37 90z" />
<glyph unicode="/" horiz-adv-x="897" d="M6 -330l717 1880h176l-717 -1880h-176z" />
<glyph unicode="0" horiz-adv-x="1198" d="M98 678q0 354 151 545q139 176 365 176q485 0 485 -694q0 -354 -151 -547q-138 -176 -365 -176q-485 0 -485 696zM295 694q0 -557 303 -557q305 0 305 551q0 557 -301 557q-307 0 -307 -551z" />
<glyph unicode="1" horiz-adv-x="720" d="M53 1264l332 118h149v-1382h-190v1194l-260 -102z" />
<glyph unicode="2" horiz-adv-x="1026" d="M122 0v152l260 299q293 334 293 548q0 104 -59 168q-65 70 -183 70q-137 0 -270 -84l-27 168q160 80 346 80q188 0 294 -107q100 -101 100 -266q0 -265 -336 -645l-182 -215q163 8 569 8v-176h-805z" />
<glyph unicode="3" horiz-adv-x="1001" d="M118 6l20 166q86 -29 213 -29q151 0 241 76q87 73 87 187q0 110 -91 174q-95 67 -269 67q-49 0 -127 -8v149q436 -11 436 256q0 201 -227 201q-127 0 -240 -61l-16 157q138 60 297 60q186 0 288 -94q93 -86 93 -228q0 -246 -232 -329l-2 -5q130 -28 208 -114 q81 -90 81 -215q0 -189 -152 -311q-151 -121 -385 -121q-139 0 -223 22z" />
<glyph unicode="4" horiz-adv-x="1114" d="M34 467l559 915h248v-890h231v-168h-231v-324h-182v324h-613zM214 485q121 4 447 4v719h-2z" />
<glyph unicode="5" horiz-adv-x="946" d="M114 4l20 168q84 -27 199 -27q159 0 252 80q92 78 92 209q0 256 -399 256q-80 0 -117 -4v696h637v-176h-463v-364q537 3 537 -385q0 -212 -156 -344q-154 -129 -397 -129q-103 0 -205 20z" />
<glyph unicode="6" horiz-adv-x="1179" d="M135 575q0 411 204 628q185 196 494 196q83 0 123 -6v-164q-54 10 -135 10q-391 0 -475 -428l-16 -86l2 -2q112 149 331 149q192 0 306 -113q112 -112 112 -298q0 -209 -133 -344q-137 -137 -352 -137q-255 0 -373 203q-88 153 -88 392zM340 451q0 -143 71 -228 q74 -86 201 -86q122 0 199 81q78 81 78 214q0 131 -69 207q-72 80 -202 80q-124 0 -203 -81q-75 -76 -75 -187z" />
<glyph unicode="7" horiz-adv-x="931" d="M51 1202v180h821v-159q-270 -585 -407 -1223h-209q156 652 409 1206q-63 -4 -614 -4z" />
<glyph unicode="8" horiz-adv-x="1128" d="M114 326q0 200 279 376q-256 148 -256 342q0 165 122 265t322 100q182 0 293 -94q106 -91 106 -234q0 -180 -266 -356q295 -160 295 -371q0 -174 -137 -277q-129 -97 -330 -97q-204 0 -318 97q-110 94 -110 249zM309 344q0 -96 67 -152q69 -57 187 -57q109 0 178 51 q73 55 73 150q0 147 -272 289q-233 -142 -233 -281zM325 1065q0 -132 240 -262q223 139 223 262q0 84 -56 137q-61 58 -169 58q-110 0 -175 -55q-63 -53 -63 -140z" />
<glyph unicode="9" horiz-adv-x="1191" d="M110 920q0 205 133 342q136 139 348 139q259 0 377 -203q88 -152 88 -391q0 -408 -193 -622q-182 -203 -507 -203q-95 0 -166 12v172q82 -23 186 -23q376 0 455 408q5 21 13 56l9 44l-2 2q-104 -149 -325 -149q-192 0 -304 113t-112 303zM303 948q0 -130 68 -206 q71 -80 200 -80q121 0 201 82q75 78 75 186q0 145 -72 230q-73 85 -200 85q-119 0 -195 -81q-77 -82 -77 -216z" />
<glyph unicode=":" horiz-adv-x="585" d="M196 109q0 52 37 89q38 38 90 38t90 -38q37 -37 37 -89q0 -53 -37 -90q-38 -37 -90 -37t-90 37q-37 37 -37 90zM196 709q0 52 37 89q38 38 90 38t90 -38q37 -37 37 -89q0 -54 -37 -91q-37 -36 -90 -36t-90 36q-37 37 -37 91z" />
<glyph unicode=";" horiz-adv-x="585" d="M145 -246q174 187 88 295q-44 55 -14 118q29 64 102 64q58 0 93 -44q37 -46 34 -121q-7 -183 -225 -381zM196 709q0 52 38 89q37 38 89 38t90 -38q37 -37 37 -89q0 -54 -37 -91q-37 -36 -90 -36q-52 0 -89 36q-38 37 -38 91z" />
<glyph unicode="&#x3c;" d="M147 618l647 582l119 -119l-530 -460l530 -455l-119 -127z" />
<glyph unicode="=" d="M114 358v152h897v-152h-897zM114 707v153h897v-153h-897z" />
<glyph unicode="&#x3e;" d="M212 158l530 460l-530 455l119 127l647 -579l-647 -582z" />
<glyph unicode="?" horiz-adv-x="911" d="M172 1286l23 168q275 -9 439 -127q154 -111 154 -270q0 -151 -195 -342q-85 -82 -111 -148q-39 -95 -1 -223h-180q-75 231 93 408q13 13 67 66q40 40 62 66q63 76 63 154q0 103 -112 171q-114 70 -302 77zM268 102q0 51 36 86q35 35 87 35t89 -35q36 -35 36 -86 q0 -50 -36 -85q-37 -35 -89 -35t-87 35q-36 35 -36 85z" />
<glyph unicode="@" horiz-adv-x="2002" d="M176 575q0 400 265 666q259 260 632 260q354 0 553 -202q182 -183 182 -468q0 -267 -133 -421q-127 -146 -332 -146q-118 0 -176 70q-52 62 -39 153h-6q-29 -75 -110 -143q-96 -80 -197 -80q-201 0 -201 277q0 238 116 387q125 162 349 162q139 0 250 -29l-78 -436 q-38 -209 121 -209q119 0 191 101q77 109 77 304q0 223 -132 366q-153 167 -445 167q-304 0 -508 -211q-209 -215 -209 -543q0 -292 160 -455q166 -168 473 -168q172 0 344 54l27 -150q-179 -57 -394 -57q-368 0 -576 204q-204 200 -204 547zM770 573q0 -157 88 -157 q81 0 156 104q83 116 123 320l22 108q-49 13 -119 13q-129 0 -206 -136q-64 -113 -64 -252z" />
<glyph unicode="A" horiz-adv-x="1259" d="M20 0l502 1382h213l506 -1382h-211l-115 324h-588l-114 -324h-193zM374 473h492l-184 518q-31 85 -60 189h-4q-28 -102 -57 -185z" />
<glyph unicode="B" horiz-adv-x="1167" d="M174 0v1382q301 7 403 7q443 0 443 -332q0 -242 -238 -322v-4q127 -17 204 -103q77 -87 77 -214q0 -168 -115 -281q-142 -139 -422 -139zM362 156q93 -11 177 -11q161 0 247 75q78 68 78 183q0 240 -373 240q-96 0 -129 -2v-485zM362 786q39 -2 125 -2q336 0 336 242 q0 213 -276 213q-78 0 -185 -4v-449z" />
<glyph unicode="C" horiz-adv-x="1193" d="M94 657q0 334 163 527q177 211 513 211q170 0 317 -43l-30 -172q-157 53 -308 53q-225 0 -343 -159q-107 -143 -107 -386q0 -536 469 -536q164 0 303 69l31 -164q-179 -73 -379 -73q-320 0 -481 190q-148 174 -148 483z" />
<glyph unicode="D" horiz-adv-x="1388" d="M174 0v1380l414 9q706 0 706 -682q0 -346 -215 -535q-205 -180 -555 -180q-74 0 -189 4q-114 4 -161 4zM362 164q77 -12 183 -12q253 0 396 130q155 141 155 412q0 541 -527 541q-53 0 -207 -6v-1065z" />
<glyph unicode="E" horiz-adv-x="1026" d="M174 0v1382h711v-155h-523v-439h498v-151h-498v-479h523v-158h-711z" />
<glyph unicode="F" horiz-adv-x="960" d="M174 0v1382h705v-155h-517v-449h490v-151h-490v-627h-188z" />
<glyph unicode="G" horiz-adv-x="1396" d="M88 657q0 335 188 534q198 210 555 210q192 0 383 -60l-41 -170q-177 68 -360 68q-263 0 -402 -167q-122 -148 -122 -386q0 -257 135 -399t377 -142q123 0 243 37v523h187v-644q-214 -79 -457 -79q-323 0 -505 179q-181 179 -181 496z" />
<glyph unicode="H" horiz-adv-x="1429" d="M174 0v1382h188v-585h705v585h188v-1382h-188v637h-705v-637h-188z" />
<glyph unicode="I" horiz-adv-x="536" d="M174 0v1382h188v-1382h-188z" />
<glyph unicode="J" horiz-adv-x="673" d="M2 2v164q68 -23 141 -23q88 0 126 46q44 52 44 184v1009h189v-1022q0 -374 -346 -374q-85 0 -154 16z" />
<glyph unicode="K" horiz-adv-x="1196" d="M174 0v1382h188v-651l549 651h234l-586 -667l606 -715h-256l-547 684v-684h-188z" />
<glyph unicode="L" horiz-adv-x="872" d="M174 0v1382h188v-1220h496v-162h-684z" />
<glyph unicode="M" horiz-adv-x="1820" d="M98 0l203 1382h229l293 -872q32 -90 80 -274h2q38 148 76 262l299 884h233l209 -1382h-197l-116 801q-30 216 -43 350h-4q-39 -158 -72 -260l-295 -891h-201l-280 834q-57 170 -88 317h-4q-9 -159 -37 -367l-94 -784h-193z" />
<glyph unicode="N" horiz-adv-x="1447" d="M174 0v1382h250l530 -870q84 -141 152 -281q-14 402 -14 799v352h182v-1382h-250l-537 887q-93 154 -145 272q14 -254 14 -774v-385h-182z" />
<glyph unicode="O" horiz-adv-x="1443" d="M86 674q0 336 193 538q182 191 462 191q304 0 464 -191q153 -181 153 -503q0 -336 -193 -539q-183 -190 -463 -190q-303 0 -464 190q-152 181 -152 504zM287 702q0 -256 107 -401q113 -154 327 -154q187 0 308 138q128 147 128 395q0 257 -108 403q-114 154 -326 154 q-187 0 -308 -139q-128 -147 -128 -396z" />
<glyph unicode="P" horiz-adv-x="1081" d="M174 0v1382q182 9 346 9q236 0 367 -110q127 -107 127 -294q0 -209 -140 -337q-143 -132 -385 -132q-67 0 -127 6v-524h-188zM362 686q66 -12 144 -12q313 0 313 289q0 272 -319 272q-74 0 -138 -4v-545z" />
<glyph unicode="Q" horiz-adv-x="1441" d="M86 674q0 336 193 538q182 191 462 191q304 0 464 -191q153 -181 153 -503q0 -475 -336 -621h3q53 0 185 -37q89 -26 172 -26q30 0 60 4v-166q-50 -6 -100 -6q-135 0 -263 48q-198 75 -323 75h-54q-303 0 -464 190q-152 181 -152 504zM287 702q0 -256 107 -401 q113 -154 327 -154q186 0 307 139q129 148 129 394q0 257 -108 403q-114 154 -326 154q-187 0 -308 -139q-128 -147 -128 -396z" />
<glyph unicode="R" horiz-adv-x="1132" d="M174 0v1382q126 9 346 9q469 0 469 -361q0 -169 -120 -277q-112 -99 -285 -112q66 -80 118 -147l377 -494h-239l-453 618h-25v-618h-188zM362 762q41 -4 117 -4q147 0 231 68q82 67 82 180q0 231 -305 231q-51 0 -125 -4v-471z" />
<glyph unicode="S" horiz-adv-x="1030" d="M104 1010q0 175 125 280q130 111 358 111q138 0 250 -27l-22 -166q-121 37 -238 37q-278 0 -278 -215q0 -97 98 -162q42 -27 218 -99q150 -61 218 -124q98 -93 98 -239q0 -188 -140 -305q-141 -119 -372 -119q-167 0 -303 38l23 181q140 -56 291 -56q130 0 209 54 q90 62 90 182q0 102 -98 168q-43 28 -215 98q-148 60 -214 122q-98 93 -98 241z" />
<glyph unicode="T" horiz-adv-x="1056" d="M36 1225v157h985v-157h-399v-1225h-189v1225h-397z" />
<glyph unicode="U" horiz-adv-x="1419" d="M174 465v917h188v-903q0 -344 342 -344q185 0 268 85q87 89 87 294v868h184v-854q0 -548 -551 -548q-518 0 -518 485z" />
<glyph unicode="V" horiz-adv-x="1265" d="M22 1382h209l309 -888q66 -198 88 -283h4q35 132 97 297l317 874h195l-510 -1382h-211z" />
<glyph unicode="W" horiz-adv-x="1949" d="M69 1382h201l233 -901q32 -120 55 -266h3q21 135 55 256l256 911h213l264 -917q35 -125 55 -246h2q22 123 47 225l240 938h186l-364 -1382h-232l-264 930q-35 135 -51 239h-2q-11 -88 -49 -239l-258 -930h-225z" />
<glyph unicode="X" horiz-adv-x="1226" d="M34 0l455 713l-426 669h217l327 -528l322 528h213l-420 -663l469 -719h-235l-353 571l-350 -571h-219z" />
<glyph unicode="Y" horiz-adv-x="1099" d="M18 1382h207l219 -467q58 -122 104 -239h2q33 84 119 264l213 442h197l-440 -884v-498h-189v498z" />
<glyph unicode="Z" horiz-adv-x="1103" d="M94 0v139l580 914q78 119 112 166q-131 -5 -303 -5h-369v168h891v-143l-610 -950l-82 -121q43 4 344 4h357v-172h-920z" />
<glyph unicode="[" horiz-adv-x="659" d="M176 -408v1987h406v-141h-234v-1700h234v-146h-406z" />
<glyph unicode="\" horiz-adv-x="905" d="M22 1550h178l717 -1880h-178z" />
<glyph unicode="]" horiz-adv-x="659" d="M77 -262h233v1700h-233v141h406v-1987h-406v146z" />
<glyph unicode="^" d="M131 770l338 612h149l353 -610l-135 -70l-295 543l-283 -543z" />
<glyph unicode="_" d="M0 -365h1126v-145h-1126v145z" />
<glyph unicode="`" horiz-adv-x="755" d="M169 1454l127 100l238 -311l-101 -80z" />
<glyph unicode="a" horiz-adv-x="1067" d="M94 256q0 165 160 257q162 93 452 93v47q0 125 -47 181q-51 59 -168 59q-148 0 -307 -74l-35 146q177 73 367 73q375 0 375 -356v-389q0 -161 6 -293h-180q0 145 10 203h-4q-87 -221 -346 -221q-126 0 -205 75q-78 76 -78 199zM276 283q0 -68 43 -111q43 -45 113 -45 q118 0 199 102q75 96 75 222v26q-430 0 -430 -194z" />
<glyph unicode="b" horiz-adv-x="1142" d="M174 27v1468h184v-494q0 -113 -18 -190l4 -2q88 227 336 227q180 0 277 -123q98 -123 98 -356q0 -267 -143 -419q-141 -152 -388 -152q-195 0 -350 41zM358 156q80 -25 181 -25q323 0 323 410q0 344 -225 344q-129 0 -209 -130q-70 -114 -70 -261v-338z" />
<glyph unicode="c" horiz-adv-x="890" d="M83 475q0 254 125 403q131 156 371 156q137 0 249 -43l-34 -157q-117 45 -232 45q-135 0 -211 -106q-73 -102 -73 -273q0 -357 288 -357q133 0 238 50l29 -154q-137 -55 -304 -55q-446 0 -446 491z" />
<glyph unicode="d" horiz-adv-x="1140" d="M83 461q0 266 143 419q141 152 383 152q70 0 172 -10v473h185v-1495h-178q0 128 16 207l-4 2q-95 -227 -342 -227q-184 0 -281 128q-94 124 -94 351zM278 477q0 -344 225 -344q129 0 208 130q70 114 70 263v338q-96 23 -180 23q-323 0 -323 -410z" />
<glyph unicode="e" horiz-adv-x="1040" d="M83 504q0 233 121 380q126 152 338 152q202 0 308 -123q95 -111 95 -295q0 -53 -6 -114h-666v-19q0 -354 322 -354q153 0 291 59l26 -145q-158 -63 -352 -63q-477 0 -477 522zM278 635h479v11q0 115 -59 182q-60 69 -169 69q-216 0 -251 -262z" />
<glyph unicode="f" horiz-adv-x="716" d="M14 874v144h209v76q0 413 391 413q85 0 168 -18l-16 -154q-65 23 -150 23q-209 0 -209 -262v-78h283v-144h-283v-874h-184v874h-209z" />
<glyph unicode="g" horiz-adv-x="1107" d="M81 -219q0 176 170 270q-100 44 -100 152q0 117 112 172q-149 89 -149 280q0 161 111 268q120 113 321 113q66 0 143 -18h346v-146h-168q82 -65 82 -188q0 -164 -106 -263q-115 -106 -324 -106q-57 0 -108 15q-66 -31 -66 -86q0 -74 174 -80l187 -6q342 -13 342 -295 q0 -164 -150 -274q-153 -113 -389 -113q-199 0 -312 79q-116 80 -116 226zM265 -186q0 -89 78 -142q75 -51 197 -51q151 0 238 63q83 60 83 156q0 158 -209 164l-196 8q-43 0 -60 2q-131 -90 -131 -200zM296 672q0 -223 236 -223q109 0 172 58q63 59 63 165q0 105 -59 166 q-61 61 -170 61q-113 0 -179 -65q-63 -63 -63 -162z" />
<glyph unicode="h" horiz-adv-x="1177" d="M174 0v1495h184v-483q0 -132 -18 -203l4 -2q98 229 354 229q307 0 307 -325v-711h-184v655q0 230 -174 230q-125 0 -207 -114t-82 -284v-487h-184z" />
<glyph unicode="i" horiz-adv-x="532" d="M143 1339q0 51 36 86t87 35t87 -35t36 -86q0 -49 -36 -84q-36 -34 -87 -34t-87 34t-36 84zM174 0v1018h184v-1018h-184z" />
<glyph unicode="j" horiz-adv-x="544" d="M-120 -502l16 162q67 -25 129 -25q96 0 130 50q34 49 34 186v1147h183v-1131q0 -211 -76 -306q-81 -101 -275 -101q-80 0 -141 18zM159 1339q0 51 36 86t86 35t85 -35q36 -35 36 -86q0 -49 -36 -84q-35 -34 -85 -34q-51 0 -86 34q-36 34 -36 84z" />
<glyph unicode="k" horiz-adv-x="1009" d="M174 0v1495h184v-924l359 447h223l-391 -465l422 -553h-236l-377 524v-524h-184z" />
<glyph unicode="l" horiz-adv-x="532" d="M174 0v1495h184v-1495h-184z" />
<glyph unicode="m" horiz-adv-x="1800" d="M174 0v1018h178q0 -129 -14 -215l2 -2q97 235 354 235q143 0 218 -84q54 -61 63 -147q103 231 348 231q303 0 303 -334v-702h-184v653q0 232 -166 232q-115 0 -197 -108q-88 -115 -88 -294v-483h-182v653q0 232 -166 232q-118 0 -201 -113q-84 -116 -84 -289v-483h-184z " />
<glyph unicode="n" horiz-adv-x="1177" d="M174 0v1018h178q0 -133 -16 -215h4q99 233 358 233q307 0 307 -325v-711h-184v655q0 230 -174 230q-125 0 -207 -114t-82 -284v-487h-184z" />
<glyph unicode="o" horiz-adv-x="1116" d="M81 500q0 230 133 380q138 156 363 156q208 0 326 -117q130 -131 130 -393q0 -234 -135 -387q-138 -157 -360 -157q-457 0 -457 518zM271 518q0 -381 289 -381q122 0 198 92q85 102 85 287q0 367 -283 367q-120 0 -199 -88q-90 -99 -90 -277z" />
<glyph unicode="p" horiz-adv-x="1142" d="M174 -506v1524h178q0 -131 -16 -207l4 -2q92 227 342 227q179 0 275 -123q98 -124 98 -356q0 -271 -139 -421q-138 -148 -386 -148q-100 0 -172 12v-506h-184zM358 156q80 -25 181 -25q323 0 323 410q0 344 -225 344q-129 0 -209 -130q-70 -115 -70 -263v-336z" />
<glyph unicode="q" horiz-adv-x="1142" d="M88 459q0 269 142 422q143 153 395 153q161 0 344 -28v-1512h-183v529q0 110 15 182l-4 2q-90 -225 -332 -225q-377 0 -377 477zM283 477q0 -344 223 -344q129 0 209 130q71 115 71 265v338q-87 21 -182 21q-321 0 -321 -410z" />
<glyph unicode="r" horiz-adv-x="727" d="M174 0v1018h178q0 -126 -22 -242h4q80 262 306 262q21 0 44 -2l-8 -182q-32 6 -62 6q-256 0 -256 -450v-410h-184z" />
<glyph unicode="s" horiz-adv-x="870" d="M102 731q0 136 101 218q109 87 305 87q94 0 196 -20l-14 -152q-99 31 -199 31q-199 0 -199 -145q0 -74 75 -116q28 -16 163 -60q238 -79 238 -267q0 -142 -116 -233q-118 -92 -314 -92q-134 0 -226 26l17 164q100 -41 225 -41q99 0 160 42t61 114q0 75 -74 116 q-27 14 -162 58q-112 35 -163 82q-74 67 -74 188z" />
<glyph unicode="t" horiz-adv-x="759" d="M6 874v144h209v330l184 51v-381h285v-144h-285v-520q0 -125 31 -169q30 -44 115 -44q70 0 129 17l18 -152q-93 -22 -205 -22q-154 0 -214 70q-58 67 -58 235v585h-209z" />
<glyph unicode="u" horiz-adv-x="1177" d="M174 307v711h182v-656q0 -229 174 -229q126 0 208 114q81 113 81 283v488h184v-1018h-178q0 133 17 215h-4q-100 -233 -359 -233q-305 0 -305 325z" />
<glyph unicode="v" horiz-adv-x="995" d="M18 1018h205l215 -623q40 -126 59 -207h4q25 100 58 203l219 627h196l-374 -1018h-211z" />
<glyph unicode="w" horiz-adv-x="1624" d="M32 1018h203l155 -543q59 -208 74 -266h2q25 108 70 262l174 547h196l177 -541q60 -198 77 -270h2q22 90 70 262l164 549h195l-330 -1018h-207l-203 600q-25 80 -57 203h-2q-21 -92 -72 -256l-170 -547h-205z" />
<glyph unicode="x" horiz-adv-x="1060" d="M43 0l373 510l-355 508h226l252 -383l256 383h209l-353 -502l369 -516h-240l-256 391l-258 -391h-223z" />
<glyph unicode="y" horiz-adv-x="983" d="M-49 -510l20 164q53 -16 123 -16q174 0 269 251l41 111l-385 1018h208l193 -529q33 -92 78 -251h4q27 104 100 313l164 467h201l-418 -1104q-91 -244 -200 -341q-106 -95 -279 -95q-53 0 -119 12z" />
<glyph unicode="z" horiz-adv-x="915" d="M98 0v131l487 727q-114 -4 -268 -4h-209v164h692v-129l-481 -723q111 4 277 4h215v-170h-713z" />
<glyph unicode="{" horiz-adv-x="698" d="M59 575v146q123 6 169 51q48 48 48 170v240q0 397 320 397h36v-141q-106 0 -146 -53t-40 -197v-238q0 -264 -190 -299v-4q190 -28 190 -303v-356q0 -144 40 -197t146 -53v-146h-36q-172 0 -248 100q-72 95 -72 300v358q0 120 -49 170q-48 49 -168 55z" />
<glyph unicode="|" horiz-adv-x="583" d="M217 -506v2048h145v-2048h-145z" />
<glyph unicode="}" horiz-adv-x="692" d="M77 -262q106 0 146 53t40 197v356q0 275 191 303v4q-191 25 -191 291v246q0 144 -40 197t-146 53v141h37q319 0 319 -397v-232q0 -128 48 -177q46 -46 169 -52v-146q-119 -6 -167 -55q-50 -50 -50 -170v-358q0 -205 -72 -300q-76 -100 -247 -100h-37v146z" />
<glyph unicode="~" d="M110 899v21q0 134 74 217q75 84 200 84t218 -114q94 -114 155 -114q120 0 123 183h137v-21q0 -134 -73 -215q-74 -84 -199 -84q-124 0 -218 113q-94 112 -155 112q-121 0 -125 -182h-137z" />
<glyph unicode="&#xa1;" horiz-adv-x="655" d="M186 915q0 51 35 86q36 35 88 35t87 -35q36 -35 36 -86q0 -50 -36 -85q-35 -35 -87 -35t-88 35q-35 35 -35 85zM198 -422l31 1096h156l32 -1096h-219z" />
<glyph unicode="&#xa2;" horiz-adv-x="931" d="M88 559q0 198 105 332q107 136 290 164v188h146v-180q112 -4 211 -41l-15 -160q-105 51 -229 51q-147 0 -232 -90q-86 -92 -86 -254q0 -336 314 -336q130 0 239 62l15 -162q-105 -47 -217 -55v-217h-146v217q-190 18 -293 144q-102 125 -102 337z" />
<glyph unicode="&#xa3;" horiz-adv-x="964" d="M61 657v144h199q-23 171 -23 235q0 176 102 271q100 94 285 94q124 0 215 -27l-33 -157q-94 34 -182 34q-203 0 -203 -202q0 -69 25 -248h309v-144h-291q9 -73 9 -137q0 -223 -170 -368q88 10 209 10h393v-162h-819v129q204 156 204 373q0 61 -10 155h-219z" />
<glyph unicode="&#xa4;" d="M122 223l150 185q-82 95 -82 266q0 157 92 256l-160 196l135 99l152 -207q68 37 168 37q94 0 163 -35l154 207l131 -101l-158 -198q68 -88 68 -242q0 -146 -82 -248l172 -213l-135 -102l-164 221q-80 -49 -180 -49q-76 0 -139 27l-148 -199zM355 678q0 -246 211 -246 q84 0 142 66q61 71 61 186q0 234 -213 234q-85 0 -142 -64q-59 -67 -59 -176z" />
<glyph unicode="&#xa5;" horiz-adv-x="1210" d="M77 1382h205l219 -454q55 -110 104 -248h2q43 118 121 270l213 432h199l-397 -786h290v-125h-335v-143h335v-125h-335v-203h-187v203h-338v125h338v143h-338v125h293z" />
<glyph unicode="&#xa6;" horiz-adv-x="583" d="M217 268h145v-774h-145v774zM217 788v754h145v-754h-145z" />
<glyph unicode="&#xa7;" horiz-adv-x="1064" d="M147 694q0 167 162 291q-80 103 -80 211q0 136 89 219q98 92 280 92q78 0 153 -16l-12 -156q-73 21 -143 21q-173 0 -173 -148q0 -90 233 -316q232 -225 232 -411q0 -169 -161 -288q79 -108 79 -216q0 -131 -93 -218q-105 -97 -294 -97q-78 0 -161 23l14 155 q79 -24 154 -24q88 0 138 44q48 42 48 111q0 93 -233 314q-232 221 -232 409zM321 717q0 -96 94 -208q24 -29 213 -216q86 60 86 164q0 99 -98 214q-33 40 -98 103l-109 109q-88 -65 -88 -166z" />
<glyph unicode="&#xa8;" horiz-adv-x="1118" d="M235 1339q0 46 32 79q33 32 79 32q45 0 77 -32q31 -32 31 -79q0 -46 -31 -78q-32 -32 -77 -32q-46 0 -79 32q-32 32 -32 78zM628 1339q0 46 32 79q33 32 79 32t77 -32t31 -79q0 -46 -31 -78t-77 -32t-79 32q-32 32 -32 78z" />
<glyph unicode="&#xa9;" horiz-adv-x="1548" d="M81 684q0 286 201 486t487 200q288 0 488 -198t200 -484t-201 -487t-487 -201q-291 0 -490 199q-198 198 -198 485zM228 688q0 -226 159 -387q158 -162 382 -162q226 0 384 160q159 159 159 385q0 225 -159 386t-384 161q-224 0 -382 -159q-159 -158 -159 -384zM446 676 q0 162 81 261q93 114 275 114q88 0 162 -27l-17 -131q-65 33 -147 33q-195 0 -195 -244q0 -227 187 -227q86 0 159 30l21 -127q-95 -34 -203 -34q-162 0 -246 99q-77 91 -77 253z" />
<glyph unicode="&#xaa;" horiz-adv-x="796" d="M98 864q0 117 108 184q108 66 295 66v37q0 123 -133 123q-112 0 -215 -53l-14 135q112 43 252 43q262 0 262 -228v-290q0 -144 2 -179h-151q0 65 10 109l-4 2q-51 -125 -207 -125q-205 0 -205 176zM116 432v146h590v-146h-590zM250 889q0 -78 88 -78q76 0 125 69 q38 55 38 111v19q-251 0 -251 -121z" />
<glyph unicode="&#xab;" horiz-adv-x="1042" d="M110 600l233 373l140 -72l-189 -299l191 -295l-144 -74zM505 600l252 369l135 -72l-204 -295l206 -291l-139 -73z" />
<glyph unicode="&#xac;" d="M86 532v154h901v-475h-162v321h-739z" />
<glyph unicode="&#xad;" horiz-adv-x="675" d="M96 512v152h483v-152h-483z" />
<glyph unicode="&#xae;" horiz-adv-x="1150" d="M122 1083q0 186 133 317q132 130 320 130q189 0 319 -129q131 -129 131 -318q0 -184 -133 -316t-317 -132q-191 0 -322 130t-131 318zM247 1085q0 -137 95 -236q97 -99 233 -99t232 97q95 97 95 232q0 138 -95 237q-96 99 -232 99q-137 0 -233 -96q-95 -97 -95 -234z M423 852v467h162q160 0 160 -123q0 -115 -109 -135q10 -10 39 -60l88 -149h-123l-108 195h-9v-195h-100zM523 1112h29q86 0 86 72q0 57 -72 57h-43v-129z" />
<glyph unicode="&#xaf;" horiz-adv-x="808" d="M145 1262v139h518v-139h-518z" />
<glyph unicode="&#xb0;" horiz-adv-x="770" d="M108 1247q0 119 87 194q80 68 189 68q132 0 204 -76q65 -70 65 -182q0 -118 -87 -192q-80 -70 -194 -70q-121 0 -193 70q-71 70 -71 188zM253 1249q0 -139 125 -139q57 0 94 39t37 100q0 142 -129 142q-54 0 -90 -40q-37 -39 -37 -102z" />
<glyph unicode="&#xb1;" d="M86 688v152h389v401h176v-401h389v-152h-389v-403h-176v403h-389zM90 0v154h946v-154h-946z" />
<glyph unicode="&#xb2;" horiz-adv-x="731" d="M79 745v127l190 191q166 166 166 274q0 142 -143 142q-95 0 -178 -47l-27 131q118 53 246 53q133 0 209 -66t76 -182q0 -165 -172 -340l-142 -141q92 4 348 4v-146h-573z" />
<glyph unicode="&#xb3;" horiz-adv-x="712" d="M73 750l18 129q68 -23 164 -23q183 0 183 139q0 73 -75 107q-82 37 -231 18v121q279 0 279 143q0 109 -137 109q-86 0 -170 -37l-19 121q111 39 226 39q274 0 274 -211q0 -148 -141 -199q172 -38 172 -200q0 -124 -102 -200q-101 -75 -263 -75q-82 0 -178 19z" />
<glyph unicode="&#xb4;" horiz-adv-x="796" d="M231 1241l242 313l125 -98l-267 -293z" />
<glyph unicode="&#xb5;" horiz-adv-x="1200" d="M174 -506v1524h184v-672q0 -213 172 -213q129 0 210 112t81 287v486h184v-666q0 -133 25 -175q23 -40 96 -40v-145q-38 -8 -78 -8q-212 0 -202 227l-2 2q-89 -229 -334 -229q-117 0 -170 71l22 -561h-188z" />
<glyph unicode="&#xb6;" horiz-adv-x="1179" d="M135 948q0 190 126 312q128 122 331 122v-876q-224 0 -346 131q-111 119 -111 311zM596 -53h149v1435h312v-143h-146v-1436h-315v144z" />
<glyph unicode="&#xb7;" horiz-adv-x="479" d="M108 608q0 56 38 94q38 39 93 39t93 -39q38 -38 38 -94q0 -54 -38 -92q-38 -39 -93 -39t-93 39q-38 38 -38 92z" />
<glyph unicode="&#xb8;" horiz-adv-x="819" d="M335 -481q84 104 93 174q11 78 -58 164l158 61q142 -187 -43 -399h-150z" />
<glyph unicode="&#xb9;" horiz-adv-x="565" d="M30 1516l242 86h145v-857h-176v697l-180 -70z" />
<glyph unicode="&#xba;" horiz-adv-x="858" d="M96 1044q0 158 96 258q95 99 242 99q319 0 319 -346q0 -163 -97 -265q-97 -100 -249 -100q-311 0 -311 354zM127 432v146h598v-146h-598zM260 1049q0 -222 160 -222q170 0 170 226q0 211 -164 211q-69 0 -114 -50q-52 -57 -52 -165z" />
<glyph unicode="&#xbb;" horiz-adv-x="1042" d="M147 309l207 295l-205 291l139 74l250 -363l-256 -368zM559 305l188 299l-188 295l143 74l229 -367l-235 -373z" />
<glyph unicode="&#xbc;" horiz-adv-x="1681" d="M30 1516l242 86h145v-857h-176v697l-180 -70zM77 -205l1309 1852l119 -84l-1309 -1852zM896 88l332 551h240v-528h135v-138h-135v-190h-162v190h-399zM1056 106q68 3 248 3v413z" />
<glyph unicode="&#xbd;" horiz-adv-x="1728" d="M30 1516l242 86h145v-857h-176v697l-180 -70zM77 -205l1309 1852l119 -84l-1309 -1852zM1052 -90l192 190q164 167 164 275q0 141 -143 141q-95 0 -178 -47l-25 131q114 53 244 53q134 0 210 -66q75 -66 75 -181q0 -167 -170 -340l-144 -142q92 4 348 4v-145h-573v127z " />
<glyph unicode="&#xbe;" horiz-adv-x="1724" d="M73 750l18 129q68 -23 164 -23q183 0 183 139q0 73 -75 107q-82 37 -231 18v121q279 0 279 143q0 109 -137 109q-86 0 -170 -37l-19 121q111 39 226 39q274 0 274 -211q0 -148 -141 -199q172 -38 172 -200q0 -124 -102 -200q-101 -75 -263 -75q-82 0 -178 19zM118 -205 l1311 1852l119 -84l-1309 -1852zM937 88l332 551h240v-528h137v-138h-137v-190h-160v190h-399zM1097 106q68 3 250 3v413z" />
<glyph unicode="&#xbf;" horiz-adv-x="911" d="M122 -39q0 151 196 342q85 82 112 148q39 95 1 223h180q74 -231 -95 -408q-12 -13 -67 -67q-40 -39 -61 -65q-63 -77 -63 -154q0 -103 112 -171q115 -70 303 -77l-24 -168q-275 9 -440 127q-154 111 -154 270zM396 915q0 51 36 86q35 35 87 35t88 -35q35 -35 35 -86 q0 -50 -35 -85q-36 -35 -88 -35t-87 35q-36 35 -36 85z" />
<glyph unicode="&#xc0;" horiz-adv-x="1259" d="M20 0l502 1382h213l506 -1382h-211l-115 324h-588l-114 -324h-193zM333 1599l54 144l372 -152l-34 -106zM374 473h492l-184 518q-31 85 -60 189h-4q-28 -102 -57 -185z" />
<glyph unicode="&#xc1;" horiz-adv-x="1259" d="M20 0l502 1382h213l506 -1382h-211l-115 324h-588l-114 -324h-193zM374 473h492l-184 518q-31 85 -60 189h-4q-28 -102 -57 -185zM479 1591l372 152l54 -144l-389 -114z" />
<glyph unicode="&#xc2;" horiz-adv-x="1259" d="M20 0l502 1382h213l506 -1382h-211l-115 324h-588l-114 -324h-193zM303 1583l321 172l328 -164l-55 -108l-279 125l-268 -125zM374 473h492l-184 518q-31 85 -60 189h-4q-28 -102 -57 -185z" />
<glyph unicode="&#xc3;" horiz-adv-x="1259" d="M20 0l502 1382h213l506 -1382h-211l-115 324h-588l-114 -324h-193zM270 1587q84 152 229 152q76 0 155 -53q78 -54 116 -54q70 0 129 90l94 -67q-86 -150 -230 -150q-76 0 -154 54q-78 53 -116 53q-74 0 -129 -92zM374 473h492l-184 518q-31 85 -60 189h-4 q-28 -102 -57 -185z" />
<glyph unicode="&#xc4;" horiz-adv-x="1259" d="M20 0l502 1382h213l506 -1382h-211l-115 324h-588l-114 -324h-193zM299 1597q0 46 31 78q30 31 75 31q46 0 77 -31q32 -31 32 -78q0 -44 -32 -75q-31 -31 -77 -31q-45 0 -75 31q-31 31 -31 75zM374 473h492l-184 518q-31 85 -60 189h-4q-28 -102 -57 -185zM735 1597 q0 46 32 78q31 31 76 31q46 0 78 -31q31 -31 31 -78q0 -44 -31 -75q-32 -31 -78 -31q-44 0 -76 31t-32 75z" />
<glyph unicode="&#xc5;" horiz-adv-x="1259" d="M20 0l502 1382h213l506 -1382h-211l-115 324h-588l-114 -324h-193zM374 473h492l-184 518q-31 85 -60 189h-4q-28 -102 -57 -185zM417 1665q0 88 66 151q65 62 153 62q93 0 155 -59q63 -59 63 -148q0 -86 -65 -148q-65 -63 -155 -63q-92 0 -153 57q-64 59 -64 148z M532 1669q0 -43 30 -75q30 -31 72 -31q43 0 74 31q31 32 31 75t-31 74t-74 31q-42 0 -72 -31t-30 -74z" />
<glyph unicode="&#xc6;" horiz-adv-x="1599" d="M-88 0l735 1382h791v-155h-512v-439h493v-151h-493v-479h530v-158h-715v334h-458l-174 -334h-197zM352 483h389v742h-4q-62 -141 -135 -281z" />
<glyph unicode="&#xc7;" horiz-adv-x="1193" d="M94 657q0 334 163 527q177 211 513 211q170 0 317 -43l-30 -172q-157 53 -308 53q-225 0 -343 -159q-107 -143 -107 -386q0 -536 469 -536q164 0 303 69l31 -164q-179 -73 -379 -73q-320 0 -481 190q-148 174 -148 483zM540 -481q84 104 94 174q11 78 -59 164l158 61 q143 -187 -43 -399h-150z" />
<glyph unicode="&#xc8;" horiz-adv-x="1026" d="M174 0v1382h711v-155h-523v-439h498v-151h-498v-479h523v-158h-711zM237 1599l54 144l372 -152l-34 -106z" />
<glyph unicode="&#xc9;" horiz-adv-x="1026" d="M174 0v1382h711v-155h-523v-439h498v-151h-498v-479h523v-158h-711zM381 1591l373 152l53 -144l-389 -114z" />
<glyph unicode="&#xca;" horiz-adv-x="1026" d="M174 0v1382h711v-155h-523v-439h498v-151h-498v-479h523v-158h-711zM205 1583l321 172l328 -164l-55 -108l-279 125l-268 -125z" />
<glyph unicode="&#xcb;" horiz-adv-x="1026" d="M174 0v1382h711v-155h-523v-439h498v-151h-498v-479h523v-158h-711zM192 1597q0 46 31 78q31 31 76 31q46 0 77 -31t31 -78q0 -44 -31 -75t-77 -31q-45 0 -76 31t-31 75zM629 1597q0 46 32 78q31 31 76 31q46 0 78 -31q31 -31 31 -78q0 -44 -31 -75q-32 -31 -78 -31 q-45 0 -76 31q-32 31 -32 75z" />
<glyph unicode="&#xcc;" horiz-adv-x="536" d="M-26 1599l53 144l373 -152l-35 -106zM175 0v1382h188v-1382h-188z" />
<glyph unicode="&#xcd;" horiz-adv-x="536" d="M139 1591l373 152l53 -144l-389 -114zM174 0v1382h188v-1382h-188z" />
<glyph unicode="&#xce;" horiz-adv-x="536" d="M-53 1583l322 172l327 -164l-55 -108l-279 125l-268 -125zM174 0v1382h189v-1382h-189z" />
<glyph unicode="&#xcf;" horiz-adv-x="536" d="M-59 1597q0 46 31 78q31 31 75 31q47 0 78 -31t31 -78q0 -44 -31 -75q-32 -31 -78 -31q-44 0 -75 31t-31 75zM174 0v1382h189v-1382h-189zM377 1597q0 46 32 78q32 31 77 31q46 0 77 -31t31 -78q0 -44 -31 -75t-77 -31q-45 0 -77 31t-32 75z" />
<glyph unicode="&#xd0;" horiz-adv-x="1406" d="M6 639v143h186v598l412 9q709 0 709 -682q0 -343 -214 -532q-205 -182 -558 -183q-74 0 -188 4q-115 4 -161 4v639h-186zM379 164q77 -12 182 -12q255 0 399 130q154 141 154 412q0 541 -528 541q-54 0 -207 -6v-447h293v-143h-293v-475z" />
<glyph unicode="&#xd1;" horiz-adv-x="1447" d="M174 0v1382h250l530 -870q84 -141 152 -281q-14 402 -14 799v352h182v-1382h-250l-537 887q-93 154 -145 272q14 -254 14 -774v-385h-182zM364 1587q84 152 230 152q76 0 154 -53q79 -54 116 -54q70 0 129 90l94 -67q-85 -150 -229 -150q-76 0 -154 54q-79 53 -116 53 q-74 0 -129 -92z" />
<glyph unicode="&#xd2;" horiz-adv-x="1443" d="M86 674q0 336 193 538q182 191 462 191q304 0 464 -191q153 -181 153 -503q0 -336 -193 -539q-183 -190 -463 -190q-303 0 -464 190q-152 181 -152 504zM287 702q0 -256 107 -401q113 -154 327 -154q187 0 308 138q128 147 128 395q0 257 -108 403q-114 154 -326 154 q-187 0 -308 -139q-128 -147 -128 -396zM418 1599l53 144l373 -152l-35 -106z" />
<glyph unicode="&#xd3;" horiz-adv-x="1443" d="M86 674q0 336 193 538q182 191 462 191q304 0 464 -191q153 -181 153 -503q0 -336 -193 -539q-183 -190 -463 -190q-303 0 -464 190q-152 181 -152 504zM287 702q0 -256 107 -401q113 -154 327 -154q187 0 308 138q128 147 128 395q0 257 -108 403q-114 154 -326 154 q-187 0 -308 -139q-128 -147 -128 -396zM612 1591l373 152l53 -144l-389 -114z" />
<glyph unicode="&#xd4;" horiz-adv-x="1443" d="M86 674q0 336 193 538q182 191 462 191q304 0 464 -191q153 -181 153 -503q0 -336 -193 -539q-183 -190 -463 -190q-303 0 -464 190q-152 181 -152 504zM287 702q0 -256 107 -401q113 -154 327 -154q187 0 308 138q128 147 128 395q0 257 -108 403q-114 154 -326 154 q-187 0 -308 -139q-128 -147 -128 -396zM410 1583l321 172l328 -164l-55 -108l-279 125l-268 -125z" />
<glyph unicode="&#xd5;" horiz-adv-x="1443" d="M86 674q0 336 193 538q182 191 462 191q304 0 464 -191q153 -181 153 -503q0 -336 -193 -539q-183 -190 -463 -190q-303 0 -464 190q-152 181 -152 504zM287 702q0 -256 107 -401q113 -154 327 -154q187 0 308 138q128 147 128 395q0 257 -108 403q-114 154 -326 154 q-187 0 -308 -139q-128 -147 -128 -396zM360 1587q84 152 230 152q76 0 154 -53q79 -54 116 -54q70 0 129 90l94 -67q-86 -150 -229 -150q-76 0 -154 54q-79 53 -116 53q-74 0 -129 -92z" />
<glyph unicode="&#xd6;" horiz-adv-x="1443" d="M86 674q0 336 193 538q182 191 462 191q304 0 464 -191q153 -181 153 -503q0 -336 -193 -539q-183 -190 -463 -190q-303 0 -464 190q-152 181 -152 504zM287 702q0 -256 107 -401q113 -154 327 -154q187 0 308 138q128 147 128 395q0 257 -108 403q-114 154 -326 154 q-187 0 -308 -139q-128 -147 -128 -396zM403 1597q0 46 31 78q31 31 76 31q46 0 77 -31t31 -78q0 -44 -31 -75t-77 -31q-45 0 -76 31t-31 75zM840 1597q0 46 32 78q31 31 76 31q46 0 78 -31q31 -31 31 -78q0 -44 -31 -75q-32 -31 -78 -31q-45 0 -76 31q-32 31 -32 75z" />
<glyph unicode="&#xd7;" d="M112 260l344 344l-344 342l113 113l342 -344l344 344l102 -103l-344 -342l344 -344l-113 -112l-344 344l-342 -344z" />
<glyph unicode="&#xd8;" horiz-adv-x="1443" d="M86 676q0 335 193 536q182 191 462 191q96 0 179 -19l81 203l138 -57l-82 -201q301 -149 301 -627q0 -336 -190 -534q-182 -188 -472 -188q-98 0 -188 22l-86 -211l-137 57l88 211q-287 158 -287 617zM281 702q0 -341 172 -469l397 994q-54 14 -129 14q-184 0 -307 -137 q-133 -149 -133 -402zM580 162q55 -19 131 -19q196 0 318 135q132 145 132 404q0 354 -182 479z" />
<glyph unicode="&#xd9;" horiz-adv-x="1419" d="M174 465v917h188v-903q0 -344 342 -344q185 0 268 85q87 89 87 294v868h184v-854q0 -548 -551 -548q-518 0 -518 485zM383 1599l53 144l373 -152l-35 -106z" />
<glyph unicode="&#xda;" horiz-adv-x="1419" d="M174 465v917h188v-903q0 -344 342 -344q185 0 268 85q87 89 87 294v868h184v-854q0 -548 -551 -548q-518 0 -518 485zM639 1591l373 152l53 -144l-389 -114z" />
<glyph unicode="&#xdb;" horiz-adv-x="1419" d="M174 465v917h188v-903q0 -344 342 -344q185 0 268 85q87 89 87 294v868h184v-854q0 -548 -551 -548q-518 0 -518 485zM391 1583l322 172l327 -164l-55 -108l-279 125l-268 -125z" />
<glyph unicode="&#xdc;" horiz-adv-x="1419" d="M174 465v917h188v-903q0 -344 342 -344q185 0 268 85q87 89 87 294v868h184v-854q0 -548 -551 -548q-518 0 -518 485zM381 1597q0 46 31 78q31 31 75 31q46 0 78 -31q31 -31 31 -78q0 -44 -31 -75q-32 -31 -78 -31q-44 0 -75 31t-31 75zM817 1597q0 46 32 78q32 31 77 31 q46 0 77 -31t31 -78q0 -44 -31 -75t-77 -31q-45 0 -77 31t-32 75z" />
<glyph unicode="&#xdd;" horiz-adv-x="1099" d="M18 1382h207l219 -467q58 -122 104 -239h2q33 84 119 264l213 442h197l-440 -884v-498h-189v498zM471 1591l372 152l54 -144l-390 -114z" />
<glyph unicode="&#xde;" horiz-adv-x="1085" d="M174 0v1382h188v-208q111 4 172 4q244 0 377 -108q137 -111 137 -318q0 -213 -156 -346q-156 -132 -405 -132q-73 0 -125 9v-283h-188zM362 438q55 -8 142 -8q164 0 256 79q94 81 94 228q0 287 -354 287q-62 0 -138 -10v-576z" />
<glyph unicode="&#xdf;" horiz-adv-x="1214" d="M174 0v1024q0 481 457 481q174 0 275 -77q97 -75 97 -199q0 -151 -139 -249t-139 -175q0 -69 63 -123q26 -21 140 -88q202 -118 202 -289q0 -143 -110 -233q-112 -92 -297 -92q-109 0 -203 22l12 162q98 -35 189 -35q110 0 169 47q52 41 52 107q0 72 -63 125 q-26 23 -139 87q-201 116 -201 289q0 130 138 235t138 193q0 150 -195 150q-262 0 -262 -328v-1034h-184z" />
<glyph unicode="&#xe0;" horiz-adv-x="1067" d="M94 256q0 165 160 257q162 93 452 93v47q0 125 -47 181q-51 59 -168 59q-148 0 -307 -74l-35 146q177 73 367 73q375 0 375 -356v-389q0 -161 6 -293h-180q0 145 10 203h-4q-87 -221 -346 -221q-126 0 -205 75q-78 76 -78 199zM262 1454l127 100l237 -311l-100 -80z M276 283q0 -68 43 -111q43 -45 113 -45q118 0 199 102q75 96 75 222v26q-430 0 -430 -194z" />
<glyph unicode="&#xe1;" horiz-adv-x="1067" d="M94 256q0 165 160 257q162 93 452 93v47q0 125 -47 181q-51 59 -168 59q-148 0 -307 -74l-35 146q177 73 367 73q375 0 375 -356v-389q0 -161 6 -293h-180q0 145 10 203h-4q-87 -221 -346 -221q-126 0 -205 75q-78 76 -78 199zM276 283q0 -68 43 -111q43 -45 113 -45 q118 0 199 102q75 96 75 222v26q-430 0 -430 -194zM426 1241l241 313l125 -98l-266 -293z" />
<glyph unicode="&#xe2;" horiz-adv-x="1067" d="M94 256q0 165 160 257q162 93 452 93v47q0 125 -47 181q-51 59 -168 59q-148 0 -307 -74l-35 146q177 73 367 73q375 0 375 -356v-389q0 -161 6 -293h-180q0 145 10 203h-4q-87 -221 -346 -221q-126 0 -205 75q-78 76 -78 199zM244 1253l286 271l283 -267l-82 -90 l-203 174l-205 -174zM276 283q0 -68 43 -111q43 -45 113 -45q118 0 199 102q75 96 75 222v26q-430 0 -430 -194z" />
<glyph unicode="&#xe3;" horiz-adv-x="1067" d="M94 256q0 165 160 257q162 93 452 93v47q0 125 -47 181q-51 59 -168 59q-148 0 -307 -74l-35 146q177 73 367 73q375 0 375 -356v-389q0 -161 6 -293h-180q0 145 10 203h-4q-87 -221 -346 -221q-126 0 -205 75q-78 76 -78 199zM174 1303q83 159 223 159q73 0 149 -55 t113 -55q69 0 121 94l92 -72q-83 -160 -223 -160q-72 0 -149 57q-76 56 -113 56q-68 0 -121 -96zM276 283q0 -68 43 -111q43 -45 113 -45q118 0 199 102q75 96 75 222v26q-430 0 -430 -194z" />
<glyph unicode="&#xe4;" horiz-adv-x="1067" d="M94 256q0 165 160 257q162 93 452 93v47q0 125 -47 181q-51 59 -168 59q-148 0 -307 -74l-35 146q177 73 367 73q375 0 375 -356v-389q0 -161 6 -293h-180q0 145 10 203h-4q-87 -221 -346 -221q-126 0 -205 75q-78 76 -78 199zM219 1339q0 46 32 79q32 32 79 32 q45 0 77 -32q31 -32 31 -79q0 -46 -31 -78q-32 -32 -77 -32q-47 0 -79 32t-32 78zM276 283q0 -68 43 -111q43 -45 113 -45q118 0 199 102q75 96 75 222v26q-430 0 -430 -194zM612 1339q0 46 32 79q33 32 79 32t77 -32t31 -79q0 -46 -31 -78t-77 -32t-79 32q-32 32 -32 78z " />
<glyph unicode="&#xe5;" horiz-adv-x="1067" d="M94 256q0 165 160 257q162 93 452 93v47q0 125 -47 181q-51 59 -168 59q-148 0 -307 -74l-35 146q177 73 367 73q375 0 375 -356v-389q0 -161 6 -293h-180q0 145 10 203h-4q-87 -221 -346 -221q-126 0 -205 75q-78 76 -78 199zM276 283q0 -68 43 -111q43 -45 113 -45 q118 0 199 102q75 96 75 222v26q-430 0 -430 -194zM301 1356q0 94 70 161q69 66 165 66q99 0 166 -63q68 -63 68 -158q0 -94 -70 -162q-70 -67 -166 -67q-98 0 -165 62q-68 64 -68 161zM422 1358q0 -48 32 -81q33 -34 80 -34q48 0 81 34q34 33 34 81t-34 82q-33 35 -81 35 q-47 0 -80 -35q-32 -34 -32 -82z" />
<glyph unicode="&#xe6;" horiz-adv-x="1652" d="M94 256q0 165 160 257q162 93 452 93v68q0 219 -223 219q-150 0 -295 -76l-39 150q172 71 363 71q241 0 315 -159h2q108 157 324 157q202 0 309 -126q96 -114 96 -302q0 -35 -6 -96h-663q-15 -381 319 -381q156 0 291 62l27 -148q-159 -63 -353 -63q-321 0 -405 233h-2 q-113 -233 -387 -233q-128 0 -206 75q-79 76 -79 199zM276 283q0 -68 42 -111q42 -45 112 -45q119 0 200 102q76 96 76 222v26q-430 0 -430 -194zM893 643h477q3 117 -58 185q-61 69 -167 69q-100 0 -168 -69q-67 -68 -84 -185z" />
<glyph unicode="&#xe7;" horiz-adv-x="890" d="M83 475q0 254 125 403q131 156 371 156q137 0 249 -43l-34 -157q-117 45 -232 45q-135 0 -211 -106q-73 -102 -73 -273q0 -357 288 -357q133 0 238 50l29 -154q-137 -55 -304 -55q-446 0 -446 491zM368 -481q83 104 93 174q11 78 -59 164l158 61q143 -187 -43 -399h-149z " />
<glyph unicode="&#xe8;" horiz-adv-x="1040" d="M83 504q0 233 121 380q126 152 338 152q202 0 308 -123q95 -111 95 -295q0 -53 -6 -114h-666q-9 -373 322 -373q153 0 291 59l26 -145q-158 -63 -352 -63q-477 0 -477 522zM265 1454l127 100l238 -311l-101 -80zM278 635h479q3 123 -59 193q-60 69 -169 69 q-216 0 -251 -262z" />
<glyph unicode="&#xe9;" horiz-adv-x="1040" d="M83 504q0 233 121 380q126 152 338 152q202 0 308 -123q95 -111 95 -295q0 -53 -6 -114h-666q-9 -373 322 -373q153 0 291 59l26 -145q-158 -63 -352 -63q-477 0 -477 522zM278 635h479q3 123 -59 193q-60 69 -169 69q-216 0 -251 -262zM425 1241l242 313l125 -98 l-267 -293z" />
<glyph unicode="&#xea;" horiz-adv-x="1040" d="M83 504q0 233 121 380q126 152 338 152q202 0 308 -123q95 -111 95 -295q0 -53 -6 -114h-666q-9 -373 322 -373q153 0 291 59l26 -145q-158 -63 -352 -63q-477 0 -477 522zM251 1253l287 271l282 -267l-82 -90l-202 174l-205 -174zM278 635h479q3 123 -59 193 q-60 69 -169 69q-216 0 -251 -262z" />
<glyph unicode="&#xeb;" horiz-adv-x="1040" d="M83 504q0 233 121 380q126 152 338 152q202 0 308 -123q95 -111 95 -295q0 -53 -6 -114h-666q-9 -373 322 -373q153 0 291 59l26 -145q-158 -63 -352 -63q-477 0 -477 522zM230 1339q0 46 33 79q32 32 78 32t77 -32q32 -32 32 -79q0 -46 -32 -78q-31 -32 -77 -32t-78 32 q-33 32 -33 78zM278 635h479q3 123 -59 193q-60 69 -169 69q-216 0 -251 -262zM624 1339q0 46 32 79q32 32 78 32t78 -32q31 -32 31 -79q0 -46 -31 -78q-32 -32 -78 -32t-78 32t-32 78z" />
<glyph unicode="&#xec;" horiz-adv-x="532" d="M14 1454l127 100l238 -311l-101 -80zM174 0v1018h184v-1018h-184z" />
<glyph unicode="&#xed;" horiz-adv-x="532" d="M153 1241l242 313l125 -98l-267 -293zM173 0v1018h185v-1018h-185z" />
<glyph unicode="&#xee;" horiz-adv-x="532" d="M8 1253l258 269l256 -265l-80 -90l-178 174l-180 -174zM174 0v1018h184v-1018h-184z" />
<glyph unicode="&#xef;" horiz-adv-x="532" d="M-24 1339q0 46 32 79q33 32 79 32q47 0 79 -32q31 -31 31 -79q0 -46 -32 -78t-78 -32t-79 32q-32 32 -32 78zM175 0v1018h184v-1018h-184zM334 1339q0 46 33 79q32 32 78 32q48 0 79 -32q32 -31 32 -79q0 -46 -33 -78q-32 -32 -78 -32t-78 32q-33 32 -33 78z" />
<glyph unicode="&#xf0;" horiz-adv-x="1118" d="M81 500q0 231 130 381q134 153 351 153q158 0 215 -92q-8 16 -61 105q-53 92 -131 176l-209 -95l-78 97l193 86q-49 44 -166 135l184 78q89 -72 154 -140l204 91l80 -97l-198 -86q280 -339 280 -733q0 -282 -140 -435q-130 -142 -345 -142t-335 127q-128 134 -128 391z M271 514q0 -180 79 -279q77 -98 214 -98q122 0 194 93q81 103 81 305q0 162 -71 253q-74 95 -212 95q-120 0 -197 -89q-88 -100 -88 -280z" />
<glyph unicode="&#xf1;" horiz-adv-x="1177" d="M174 0v1018h178q0 -133 -16 -215h4q99 233 358 233q307 0 307 -325v-711h-184v655q0 230 -174 230q-125 0 -207 -114t-82 -284v-487h-184zM248 1303q83 159 223 159q72 0 149 -55q76 -55 113 -55q69 0 121 94l92 -72q-83 -160 -223 -160q-73 0 -149 57q-76 56 -113 56 q-68 0 -121 -96z" />
<glyph unicode="&#xf2;" horiz-adv-x="1116" d="M81 500q0 230 133 380q138 156 363 156q208 0 326 -117q130 -131 130 -393q0 -234 -135 -387q-138 -157 -360 -157q-457 0 -457 518zM271 518q0 -381 289 -381q122 0 198 92q85 102 85 287q0 367 -283 367q-120 0 -199 -88q-90 -99 -90 -277zM298 1454l127 100l238 -311 l-101 -80z" />
<glyph unicode="&#xf3;" horiz-adv-x="1116" d="M81 500q0 230 133 380q138 156 363 156q208 0 326 -117q130 -131 130 -393q0 -234 -135 -387q-138 -157 -360 -157q-457 0 -457 518zM271 518q0 -381 289 -381q122 0 198 92q85 102 85 287q0 367 -283 367q-120 0 -199 -88q-90 -99 -90 -277zM454 1241l241 313l125 -98 l-266 -293z" />
<glyph unicode="&#xf4;" horiz-adv-x="1116" d="M81 500q0 230 133 380q138 156 363 156q208 0 326 -117q130 -131 130 -393q0 -234 -135 -387q-138 -157 -360 -157q-457 0 -457 518zM271 518q0 -381 289 -381q122 0 198 92q85 102 85 287q0 367 -283 367q-120 0 -199 -88q-90 -99 -90 -277zM278 1253l286 271l283 -267 l-82 -90l-203 174l-205 -174z" />
<glyph unicode="&#xf5;" horiz-adv-x="1116" d="M81 500q0 230 133 380q138 156 363 156q208 0 326 -117q130 -131 130 -393q0 -234 -135 -387q-138 -157 -360 -157q-457 0 -457 518zM220 1303q83 159 223 159q73 0 149 -55q77 -55 114 -55q69 0 120 94l93 -72q-83 -160 -224 -160q-72 0 -148 57q-77 56 -114 56 q-68 0 -121 -96zM271 518q0 -381 289 -381q122 0 198 92q85 102 85 287q0 367 -283 367q-120 0 -199 -88q-90 -99 -90 -277z" />
<glyph unicode="&#xf6;" horiz-adv-x="1116" d="M81 500q0 230 133 380q138 156 363 156q208 0 326 -117q130 -131 130 -393q0 -234 -135 -387q-138 -157 -360 -157q-457 0 -457 518zM255 1339q0 46 32 79q33 32 79 32t77 -32t31 -79q0 -46 -31 -78t-77 -32t-79 32q-32 32 -32 78zM271 518q0 -381 289 -381q122 0 198 92 q85 102 85 287q0 367 -283 367q-120 0 -199 -88q-90 -99 -90 -277zM648 1339q0 46 33 79q32 32 78 32t77 -32t31 -79q0 -46 -31 -78t-77 -32t-78 32q-33 32 -33 78z" />
<glyph unicode="&#xf7;" d="M86 532v154h954v-154h-954zM436 197q0 50 37 86q36 36 88 36q51 0 87 -36t36 -86q0 -52 -36 -89q-36 -36 -87 -36q-52 0 -88 36q-37 36 -37 89zM436 1020q0 51 37 87q36 36 88 36q51 0 87 -36t36 -87t-36 -87t-87 -36q-52 0 -88 36q-37 36 -37 87z" />
<glyph unicode="&#xf8;" horiz-adv-x="1120" d="M81 500q0 231 132 380q138 156 366 156q61 0 123 -12l81 186l117 -47l-84 -184q219 -122 219 -453q0 -235 -133 -387q-137 -157 -360 -157q-78 0 -160 20l-90 -207l-117 49l94 211q-188 124 -188 445zM261 518q0 -203 96 -293l273 660q-34 6 -72 6q-121 0 -201 -84 q-96 -99 -96 -289zM458 147q43 -18 104 -18q129 0 208 94q87 104 87 293q0 223 -123 303z" />
<glyph unicode="&#xf9;" horiz-adv-x="1177" d="M174 307v711h182v-656q0 -229 174 -229q126 0 208 114q81 113 81 283v488h184v-1018h-178q0 133 17 215h-4q-100 -233 -359 -233q-305 0 -305 325zM309 1454l127 100l238 -311l-101 -80z" />
<glyph unicode="&#xfa;" horiz-adv-x="1177" d="M174 307v711h182v-656q0 -229 174 -229q126 0 208 114q81 113 81 283v488h184v-1018h-178q0 133 17 215h-4q-100 -233 -359 -233q-305 0 -305 325zM496 1241l241 313l125 -98l-266 -293z" />
<glyph unicode="&#xfb;" horiz-adv-x="1177" d="M174 307v711h182v-656q0 -229 174 -229q126 0 208 114q81 113 81 283v488h184v-1018h-178q0 133 17 215h-4q-100 -233 -359 -233q-305 0 -305 325zM303 1253l287 271l282 -267l-82 -90l-202 174l-205 -174z" />
<glyph unicode="&#xfc;" horiz-adv-x="1177" d="M174 307v711h182v-656q0 -229 174 -229q126 0 208 114q81 113 81 283v488h184v-1018h-178q0 133 17 215h-4q-100 -233 -359 -233q-305 0 -305 325zM280 1339q0 46 33 79q32 32 78 32t77 -32q32 -32 32 -79q0 -46 -32 -78q-31 -32 -77 -32t-78 32q-33 32 -33 78zM674 1339 q0 46 32 79q32 32 78 32t78 -32q31 -32 31 -79q0 -46 -31 -78q-32 -32 -78 -32t-78 32t-32 78z" />
<glyph unicode="&#xfd;" horiz-adv-x="983" d="M-49 -510l20 164q53 -16 123 -16q174 0 269 251l41 111l-385 1018h208l193 -529q33 -92 78 -251h4q27 104 100 313l164 467h201l-418 -1104q-91 -244 -200 -341q-106 -95 -279 -95q-53 0 -119 12zM410 1241l241 313l125 -98l-266 -293z" />
<glyph unicode="&#xfe;" horiz-adv-x="1142" d="M174 -506v2001h184v-446q0 -145 -12 -228l4 -2q88 217 332 217q179 0 275 -123q98 -124 98 -356q0 -271 -139 -421q-138 -148 -386 -148q-100 0 -172 12v-506h-184zM358 156q80 -25 181 -25q323 0 323 410q0 344 -225 344q-129 0 -209 -130q-70 -115 -70 -263v-336z" />
<glyph unicode="&#xff;" horiz-adv-x="983" d="M-49 -510l20 164q53 -16 123 -16q174 0 269 251l41 111l-385 1018h208l193 -529q33 -92 78 -251h4q27 104 100 313l164 467h201l-418 -1104q-91 -244 -200 -341q-106 -95 -279 -95q-53 0 -119 12zM191 1339q0 46 32 79q32 32 78 32t78 -32q31 -32 31 -79q0 -46 -31 -78 q-32 -32 -78 -32t-78 32t-32 78zM584 1339q0 46 32 79q32 32 78 32t78 -32q31 -32 31 -79q0 -46 -31 -78q-32 -32 -78 -32t-78 32t-32 78z" />
<glyph unicode="&#x152;" horiz-adv-x="1767" d="M86 676q0 335 192 536q182 191 459 191q98 0 207 -21h682v-155h-524v-439h500v-151h-500v-479h524v-158h-698q-123 -20 -226 -20q-303 0 -464 190q-152 182 -152 506zM287 702q0 -256 106 -401q113 -154 326 -154q101 0 196 29v1032q-95 29 -190 29q-185 0 -307 -137 q-131 -147 -131 -398z" />
<glyph unicode="&#x153;" horiz-adv-x="1785" d="M79 500q0 230 133 380q138 156 363 156q255 0 364 -192q117 192 346 192q204 0 312 -126q96 -114 96 -302q0 -35 -6 -96h-666q-12 -381 322 -381q155 0 290 62l27 -148q-159 -63 -352 -63q-283 0 -393 206q-129 -206 -379 -206q-457 0 -457 518zM272 518q0 -381 286 -381 q122 0 198 92q85 102 85 287q0 367 -283 367q-119 0 -198 -88q-88 -99 -88 -277zM1027 643h477q3 117 -58 185q-61 69 -169 69q-100 0 -167 -69q-67 -68 -83 -185z" />
<glyph unicode="&#x178;" horiz-adv-x="1099" d="M18 1382h207l219 -467q58 -122 104 -239h2q33 84 119 264l213 442h197l-440 -884v-498h-189v498zM229 1597q0 46 31 78q31 31 75 31q47 0 78 -31t31 -78q0 -44 -31 -75q-32 -31 -78 -31q-44 0 -75 31t-31 75zM665 1597q0 46 32 78q32 31 77 31q46 0 77 -31t31 -78 q0 -44 -31 -75t-77 -31q-45 0 -77 31t-32 75z" />
<glyph unicode="&#x2c6;" horiz-adv-x="886" d="M153 1253l287 271l282 -267l-82 -90l-202 174l-205 -174z" />
<glyph unicode="&#x2dc;" horiz-adv-x="1001" d="M153 1303q83 159 223 159q73 0 149 -55t113 -55q70 0 121 94l92 -72q-83 -160 -223 -160q-72 0 -149 57q-76 56 -113 56q-68 0 -121 -96z" />
<glyph unicode="&#x2000;" horiz-adv-x="939" />
<glyph unicode="&#x2001;" horiz-adv-x="1878" />
<glyph unicode="&#x2002;" horiz-adv-x="939" />
<glyph unicode="&#x2003;" horiz-adv-x="1878" />
<glyph unicode="&#x2004;" horiz-adv-x="626" />
<glyph unicode="&#x2005;" horiz-adv-x="469" />
<glyph unicode="&#x2006;" horiz-adv-x="313" />
<glyph unicode="&#x2007;" horiz-adv-x="313" />
<glyph unicode="&#x2008;" horiz-adv-x="234" />
<glyph unicode="&#x2009;" horiz-adv-x="375" />
<glyph unicode="&#x200a;" horiz-adv-x="104" />
<glyph unicode="&#x2010;" horiz-adv-x="675" d="M96 512v152h483v-152h-483z" />
<glyph unicode="&#x2011;" horiz-adv-x="675" d="M96 512v152h483v-152h-483z" />
<glyph unicode="&#x2012;" horiz-adv-x="675" d="M96 512v152h483v-152h-483z" />
<glyph unicode="&#x2013;" d="M0 530v160h1126v-160h-1126z" />
<glyph unicode="&#x2014;" horiz-adv-x="2048" d="M241 530v160h1565v-160h-1565z" />
<glyph unicode="&#x2018;" horiz-adv-x="499" d="M113 1153q6 184 224 383l80 -72q-173 -186 -88 -293q43 -56 14 -119q-30 -65 -104 -65q-57 0 -93 45q-36 46 -33 121z" />
<glyph unicode="&#x2019;" horiz-adv-x="499" d="M79 1044q173 187 88 293q-44 57 -14 120q30 65 104 65q57 0 93 -45q36 -46 33 -121q-6 -184 -224 -383z" />
<glyph unicode="&#x201a;" horiz-adv-x="499" d="M79 -246q174 187 88 295q-44 55 -14 118q30 64 104 64q57 0 93 -44q36 -46 33 -121q-6 -183 -224 -381z" />
<glyph unicode="&#x201c;" horiz-adv-x="886" d="M113 1153q6 184 224 383l80 -72q-173 -186 -88 -293q43 -56 14 -119q-30 -65 -104 -65q-57 0 -93 45q-36 46 -33 121zM502 1153q6 184 224 383l80 -72q-173 -186 -88 -293q44 -56 14 -119q-30 -65 -104 -65q-57 0 -93 45q-36 46 -33 121z" />
<glyph unicode="&#x201d;" horiz-adv-x="886" d="M79 1044q173 187 88 293q-44 57 -14 120q30 65 104 65q57 0 93 -45q36 -46 33 -121q-6 -184 -224 -383zM468 1044q173 187 88 293q-44 57 -14 120q30 65 104 65q57 0 93 -45q36 -46 33 -121q-6 -184 -224 -383z" />
<glyph unicode="&#x201e;" horiz-adv-x="886" d="M79 -246q174 187 88 295q-44 55 -14 118q30 64 104 64q57 0 93 -44q36 -46 33 -121q-6 -183 -224 -381zM468 -246q174 187 88 295q-44 55 -14 118q30 64 104 64q57 0 93 -44q36 -46 33 -121q-6 -183 -224 -381z" />
<glyph unicode="&#x2022;" horiz-adv-x="860" d="M182 608q0 103 72 176q73 72 176 72t175 -72q73 -73 73 -176t-73 -175q-72 -73 -175 -73t-176 73q-72 72 -72 175z" />
<glyph unicode="&#x2026;" horiz-adv-x="1361" d="M106 104q0 53 36 89q37 36 89 36q51 0 87 -36t36 -89q0 -50 -36 -86t-87 -36q-52 0 -89 36q-36 36 -36 86zM546 104q0 53 36 89t87 36q52 0 89 -36q36 -36 36 -89q0 -50 -36 -86q-37 -36 -89 -36q-50 0 -87 36q-36 36 -36 86zM987 104q0 53 36 89t87 36q52 0 88 -36 t36 -89q0 -50 -36 -86t-88 -36q-51 0 -87 36t-36 86z" />
<glyph unicode="&#x202f;" horiz-adv-x="375" />
<glyph unicode="&#x2039;" horiz-adv-x="641" d="M108 600l246 371l135 -74l-197 -295l199 -291l-139 -75z" />
<glyph unicode="&#x203a;" horiz-adv-x="641" d="M149 309l201 295l-199 291l139 76l242 -365l-248 -370z" />
<glyph unicode="&#x205f;" horiz-adv-x="469" />
<glyph unicode="&#x20ac;" horiz-adv-x="1212" d="M26 471v121h172q-2 20 -2 63q0 45 4 123h-174v119h188q45 255 205 385q149 121 377 121q195 0 340 -82l-53 -147q-130 77 -301 77q-309 0 -367 -354h457v-119h-471q-2 -28 -2 -92q0 -63 2 -94h471v-121h-459q48 -338 377 -338q160 0 309 98l55 -139q-182 -112 -397 -112 q-486 0 -549 491h-182z" />
<glyph unicode="&#x2122;" horiz-adv-x="1431" d="M90 1270v112h442v-112h-149v-463h-141v463h-152zM567 807l90 575h176l93 -315l20 -94l18 86l97 323h176l88 -575h-141l-60 412l-24 -97l-92 -315h-142l-90 321l-22 91l-7 -76l-49 -336h-131z" />
<glyph unicode="&#x25fc;" horiz-adv-x="1020" d="M0 0v1020h1020v-1020h-1020z" />
</font>
</defs>
</svg>
