<?xml version="1.0" encoding="utf-8"?>
<!-- Generator: Adobe Illustrator 22.0.0, SVG Export Plug-In . SVG Version: 6.00 Build 0)  -->
<svg version="1.1" id="Capa_1" xmlns="http://www.w3.org/2000/svg" xmlns:xlink="http://www.w3.org/1999/xlink" x="0px" y="0px"
	 viewBox="0 0 512 512" style="enable-background:new 0 0 512 512;" xml:space="preserve">
<g>
	<path fill='white' d="M98.1,6.5c-13.2-7.9-28.9-8.7-42.6-2l229.9,230.4l75.2-75.5L98.1,6.5z M34.4,25.8c-2.9,6.1-4.5,13-4.5,20v421.4
		c0,7.1,1.6,13.8,4.5,19.8l229.8-230.9L34.4,25.8z M285.4,277.4L55.9,507.9c6.1,2.8,12.6,4.1,19,4.1c8,0,16-1.9,23.2-6.3l262.5-153
		L285.4,277.4z M460.5,217.5c-0.1-0.1-0.2-0.1-0.3-0.2l-72.9-42.4l-80.8,81.2l80.8,81c0,0,73-42.6,73.1-42.6
		c13.6-8.2,21.6-22.6,21.6-38.5S474,225.8,460.5,217.5z"/>
</g>
</svg>
